<svg width="56" height="56" viewBox="0 0 56 56" fill="none" xmlns="http://www.w3.org/2000/svg">
<rect x="4" y="4" width="48" height="48" rx="24" fill="#EAEAFF"/>
<rect x="4" y="4" width="48" height="48" rx="24" stroke="#F9F9FF" stroke-width="8"/>
<path d="M31.1413 26.1892L27.0163 22.0642M21.697 35.6335L34.3981 22.9323C34.9426 22.3878 35.2149 22.1156 35.3169 21.8016C35.4066 21.5255 35.4066 21.228 35.3169 20.9518C35.2149 20.6379 34.9426 20.3656 34.3981 19.8211L33.3844 18.8074C32.8399 18.2629 32.5676 17.9906 32.2537 17.8886C31.9775 17.7989 31.68 17.7989 31.4039 17.8886C31.0899 17.9906 30.8177 18.2629 30.2731 18.8074L17.572 31.5085C17.0275 32.053 16.7552 32.3253 16.6532 32.6392C16.5635 32.9154 16.5635 33.2129 16.6532 33.489C16.7552 33.803 17.0275 34.0752 17.572 34.6197L18.5857 35.6335C19.1303 36.178 19.4025 36.4502 19.7165 36.5522C19.9926 36.642 20.2901 36.642 20.5663 36.5522C20.8802 36.4502 21.1525 36.178 21.697 35.6335Z" stroke="#6D68FB" stroke-width="1.84615" stroke-linecap="round" stroke-linejoin="round"/>
<path d="M35.9461 27.9674C35.9143 28.0373 35.8842 28.1025 35.8563 28.1623C35.7817 28.3216 35.6931 28.5058 35.6224 28.6122L35.6224 28.6123C35.4435 28.8818 35.1294 29.1854 34.8512 29.3527L34.8511 29.3527C34.7691 29.402 34.5877 29.4859 34.4352 29.5558C34.3892 29.5769 34.3399 29.5993 34.2881 29.6227C34.4849 29.7094 34.6347 29.7765 34.6795 29.7987C35.0998 30.0064 35.5164 30.4083 35.7369 30.8227L35.9461 27.9674ZM35.9461 27.9674C36.0461 28.1923 36.1309 28.376 36.1692 28.4454L35.9461 27.9674ZM37.622 29.6194C37.4199 29.5281 37.2666 29.4553 37.1461 29.3904C36.8754 29.2447 36.7378 29.1216 36.5829 28.9675M37.622 29.6194L36.5829 28.9675M37.622 29.6194C37.4297 29.705 37.2823 29.7718 37.2344 29.7959L37.622 29.6194ZM36.5829 28.9675C36.4351 28.8204 36.2735 28.6344 36.1692 28.4454L36.5829 28.9675ZM35.9529 31.2906C35.9812 31.2282 36.0082 31.1691 36.0335 31.1143C36.0773 31.0196 36.1174 30.9349 36.1505 30.8674L36.1515 30.8654C36.1743 30.8189 36.219 30.7277 36.2643 30.6593L35.9529 31.2906ZM35.9529 31.2906C35.8513 31.0631 35.7684 30.8819 35.7369 30.8227L35.9529 31.2906ZM37.2343 29.7959C36.8345 29.9972 36.5117 30.2859 36.2644 30.6592L37.2343 29.7959Z" fill="#98A2B3" stroke="#6D68FB" stroke-width="1.61538"/>
<mask id="path-4-inside-1_2443_87258" fill="white">
<path fill-rule="evenodd" clip-rule="evenodd" d="M28.2761 39.0188C28.2952 38.9989 28.4151 38.7347 28.5426 38.4316C28.8441 37.7147 28.8506 37.7017 28.9981 37.54C29.1663 37.3555 29.2 37.336 29.8813 37.0277C30.4873 36.7535 30.5651 36.7003 30.4822 36.6168C30.4628 36.5972 30.1893 36.4632 29.8746 36.319C29.2322 36.0247 29.1092 35.952 28.9635 35.7807C28.8399 35.6354 28.8084 35.5713 28.5301 34.8997C28.4095 34.6087 28.3003 34.3561 28.2873 34.3383C28.2502 34.2876 28.1749 34.3005 28.1344 34.3646C28.114 34.3969 27.9904 34.6785 27.8596 34.9905C27.7288 35.3025 27.5805 35.6202 27.5301 35.6965C27.3862 35.9141 27.2301 36.016 26.6105 36.2966C26.2991 36.4376 26.0188 36.5703 25.9877 36.5915C25.9256 36.6337 25.9132 36.7111 25.9621 36.7514C25.9792 36.7655 26.255 36.8952 26.5751 37.0397C27.4976 37.456 27.4664 37.4226 27.9013 38.4612C28.1447 39.0425 28.1893 39.1088 28.2761 39.0188Z"/>
<path d="M20.0004 23.5394C19.8729 23.8425 19.753 24.1067 19.7339 24.1265C19.6471 24.2166 19.6025 24.1503 19.3591 23.5689C18.9242 22.5303 18.9554 22.5637 18.0329 22.1474C17.7129 22.0029 17.437 21.8732 17.4199 21.8591C17.371 21.8188 17.3834 21.7414 17.4455 21.6992C17.4767 21.678 17.7569 21.5453 18.0683 21.4043C18.6879 21.1237 18.844 21.0219 18.9879 20.8042C19.0384 20.7279 19.1867 20.4103 19.3174 20.0982C19.4482 19.7862 19.5719 19.5046 19.5922 19.4724C19.6327 19.4083 19.708 19.3953 19.7451 19.4461C19.7581 19.4638 19.8673 19.7164 19.9879 20.0074C20.2662 20.6791 20.2978 20.7431 20.4213 20.8884C20.567 21.0598 20.69 21.1325 21.3324 21.4268C21.6472 21.571 21.9206 21.705 21.9401 21.7246C22.0229 21.808 21.9451 21.8613 21.3391 22.1354C20.6579 22.4437 20.6241 22.4633 20.456 22.6477C20.3085 22.8095 20.3019 22.8224 20.0004 23.5394Z"/>
</mask>
<path fill-rule="evenodd" clip-rule="evenodd" d="M28.2761 39.0188C28.2952 38.9989 28.4151 38.7347 28.5426 38.4316C28.8441 37.7147 28.8506 37.7017 28.9981 37.54C29.1663 37.3555 29.2 37.336 29.8813 37.0277C30.4873 36.7535 30.5651 36.7003 30.4822 36.6168C30.4628 36.5972 30.1893 36.4632 29.8746 36.319C29.2322 36.0247 29.1092 35.952 28.9635 35.7807C28.8399 35.6354 28.8084 35.5713 28.5301 34.8997C28.4095 34.6087 28.3003 34.3561 28.2873 34.3383C28.2502 34.2876 28.1749 34.3005 28.1344 34.3646C28.114 34.3969 27.9904 34.6785 27.8596 34.9905C27.7288 35.3025 27.5805 35.6202 27.5301 35.6965C27.3862 35.9141 27.2301 36.016 26.6105 36.2966C26.2991 36.4376 26.0188 36.5703 25.9877 36.5915C25.9256 36.6337 25.9132 36.7111 25.9621 36.7514C25.9792 36.7655 26.255 36.8952 26.5751 37.0397C27.4976 37.456 27.4664 37.4226 27.9013 38.4612C28.1447 39.0425 28.1893 39.1088 28.2761 39.0188Z" fill="#98A2B3"/>
<path d="M20.0004 23.5394C19.8729 23.8425 19.753 24.1067 19.7339 24.1265C19.6471 24.2166 19.6025 24.1503 19.3591 23.5689C18.9242 22.5303 18.9554 22.5637 18.0329 22.1474C17.7129 22.0029 17.437 21.8732 17.4199 21.8591C17.371 21.8188 17.3834 21.7414 17.4455 21.6992C17.4767 21.678 17.7569 21.5453 18.0683 21.4043C18.6879 21.1237 18.844 21.0219 18.9879 20.8042C19.0384 20.7279 19.1867 20.4103 19.3174 20.0982C19.4482 19.7862 19.5719 19.5046 19.5922 19.4724C19.6327 19.4083 19.708 19.3953 19.7451 19.4461C19.7581 19.4638 19.8673 19.7164 19.9879 20.0074C20.2662 20.6791 20.2978 20.7431 20.4213 20.8884C20.567 21.0598 20.69 21.1325 21.3324 21.4268C21.6472 21.571 21.9206 21.705 21.9401 21.7246C22.0229 21.808 21.9451 21.8613 21.3391 22.1354C20.6579 22.4437 20.6241 22.4633 20.456 22.6477C20.3085 22.8095 20.3019 22.8224 20.0004 23.5394Z" fill="#98A2B3"/>
<path d="M28.2761 39.0188L29.439 40.1399L28.2761 39.0188ZM28.5426 38.4316L30.0317 39.0578L30.0317 39.0578L28.5426 38.4316ZM28.9981 37.54L30.1918 38.6283L30.1919 38.6283L28.9981 37.54ZM29.8813 37.0277L29.2154 35.556L29.2153 35.556L29.8813 37.0277ZM30.4822 36.6168L31.6285 35.4786L31.6283 35.4784L30.4822 36.6168ZM29.8746 36.319L30.5475 34.8505L30.5474 34.8504L29.8746 36.319ZM28.9635 35.7807L27.7327 36.827L27.7329 36.8271L28.9635 35.7807ZM28.5301 34.8997L30.0224 34.2813L30.0224 34.2812L28.5301 34.8997ZM28.2873 34.3383L26.983 35.2914L26.9841 35.2929L28.2873 34.3383ZM28.1344 34.3646L29.5 35.2276L29.5 35.2275L28.1344 34.3646ZM27.8596 34.9905L26.3698 34.3659L26.3698 34.3661L27.8596 34.9905ZM27.5301 35.6965L28.8775 36.5876L28.8777 36.5873L27.5301 35.6965ZM26.6105 36.2966L25.9441 34.825L25.944 34.8251L26.6105 36.2966ZM25.9877 36.5915L25.0796 35.2555L25.0796 35.2555L25.9877 36.5915ZM25.9621 36.7514L26.9907 35.5059L26.9896 35.505L25.9621 36.7514ZM26.5751 37.0397L25.9105 38.512L25.9106 38.512L26.5751 37.0397ZM27.9013 38.4612L26.4113 39.0851L26.4113 39.0851L27.9013 38.4612ZM19.7339 24.1265L18.571 23.0053L18.571 23.0053L19.7339 24.1265ZM20.0004 23.5394L21.4895 24.1655L21.4895 24.1655L20.0004 23.5394ZM20.456 22.6477L21.6497 23.7361L21.6497 23.7361L20.456 22.6477ZM21.3391 22.1354L20.6732 20.6637L20.6732 20.6637L21.3391 22.1354ZM21.9401 21.7246L23.0863 20.5864L23.0862 20.5862L21.9401 21.7246ZM21.3324 21.4268L22.0053 19.9582L22.0053 19.9582L21.3324 21.4268ZM20.4213 20.8884L19.1906 21.9347L19.1907 21.9349L20.4213 20.8884ZM19.9879 20.0074L21.4803 19.389L21.4802 19.3889L19.9879 20.0074ZM19.7451 19.4461L18.4408 20.3992L18.4419 20.4007L19.7451 19.4461ZM19.5922 19.4724L20.9578 20.3353L20.9578 20.3352L19.5922 19.4724ZM19.3174 20.0982L17.8277 19.4737L17.8276 19.4738L19.3174 20.0982ZM18.9879 20.8042L20.3353 21.6953L20.3355 21.6951L18.9879 20.8042ZM18.0683 21.4043L17.4019 19.9328L17.4018 19.9328L18.0683 21.4043ZM17.4455 21.6992L16.5375 20.3632L16.5374 20.3633L17.4455 21.6992ZM17.4199 21.8591L18.4486 20.6136L18.4475 20.6127L17.4199 21.8591ZM18.0329 22.1474L17.3684 23.6198L17.3684 23.6198L18.0329 22.1474ZM19.3591 23.5689L17.8691 24.1928L17.8691 24.1929L19.3591 23.5689ZM29.439 40.1399C29.5625 40.0118 29.6375 39.8892 29.6461 39.8756C29.672 39.8348 29.6915 39.8 29.7024 39.7803C29.725 39.7394 29.7441 39.7012 29.7568 39.6756C29.7836 39.621 29.8124 39.559 29.8397 39.499C29.8955 39.3759 29.9635 39.2199 30.0317 39.0578L27.0535 37.8054C26.9942 37.9464 26.9385 38.0741 26.8977 38.1638C26.8767 38.2102 26.8639 38.237 26.859 38.247C26.8581 38.2487 26.8587 38.2476 26.8604 38.2442C26.8619 38.2413 26.8664 38.2327 26.8732 38.2202C26.8768 38.2138 26.8818 38.2048 26.8882 38.1938C26.8944 38.1832 26.9037 38.1676 26.9155 38.1489C26.9266 38.1313 26.9454 38.1024 26.9707 38.0675C26.9837 38.0497 27.0011 38.0264 27.0226 37.9999C27.0435 37.9742 27.0739 37.9383 27.1131 37.8976L29.439 40.1399ZM30.0317 39.0578C30.1082 38.8758 30.1613 38.7497 30.2024 38.655C30.2449 38.5567 30.262 38.5215 30.2666 38.5126C30.2673 38.5113 30.2615 38.5226 30.25 38.5416C30.2376 38.562 30.2223 38.5851 30.2048 38.6088C30.175 38.6489 30.1492 38.6751 30.1918 38.6283L27.8044 36.4516C27.6864 36.581 27.5408 36.7466 27.3896 37.0426C27.297 37.2239 27.1901 37.4806 27.0535 37.8055L30.0317 39.0578ZM30.1919 38.6283C30.2331 38.5831 30.2116 38.6094 30.1716 38.6442C30.1186 38.6903 30.0729 38.7188 30.0578 38.7276C30.0557 38.7288 30.0803 38.7147 30.1704 38.6721C30.2574 38.6309 30.3744 38.5776 30.5472 38.4994L29.2153 35.556C28.9125 35.693 28.6399 35.8151 28.4368 35.9329C28.1174 36.1182 27.9381 36.305 27.8044 36.4516L30.1919 38.6283ZM30.5472 38.4995C30.7927 38.3884 31.1217 38.2416 31.3518 38.0842C31.425 38.0342 31.5475 37.9444 31.6715 37.811C31.7938 37.6794 31.988 37.4302 32.0781 37.0595C32.2964 36.162 31.7239 35.5747 31.6285 35.4786L29.336 37.7551C29.282 37.7007 28.7308 37.1514 28.9389 36.2959C29.024 35.9462 29.2051 35.719 29.3051 35.6115C29.4067 35.5021 29.4976 35.4383 29.5284 35.4172C29.587 35.3772 29.6107 35.3702 29.5297 35.4099C29.4635 35.4425 29.3651 35.4882 29.2154 35.556L30.5472 38.4995ZM31.6283 35.4784C31.5024 35.3517 31.3803 35.2735 31.3699 35.2665C31.3309 35.2406 31.2976 35.2208 31.2789 35.2098C31.2397 35.1869 31.2027 35.1671 31.1774 35.1537C31.1235 35.1253 31.0613 35.0941 31 35.0641C30.8746 35.0026 30.7145 34.927 30.5475 34.8505L29.2017 37.7876C29.3494 37.8553 29.4834 37.9188 29.5783 37.9652C29.6271 37.9892 29.6566 38.0042 29.6693 38.0109C29.6772 38.0151 29.6673 38.0101 29.648 37.9988C29.6392 37.9937 29.6141 37.9789 29.5815 37.9572C29.5649 37.9462 29.5371 37.9272 29.5035 37.9018C29.4863 37.8887 29.4636 37.8709 29.4376 37.8489C29.4126 37.8277 29.3768 37.7961 29.3361 37.7552L31.6283 35.4784ZM30.5474 34.8504C30.3894 34.778 30.2762 34.7251 30.1908 34.6834C30.1038 34.6409 30.0665 34.6201 30.0545 34.613C30.0476 34.6089 30.0764 34.6254 30.119 34.6614C30.1396 34.6787 30.1576 34.6958 30.1724 34.7108C30.1864 34.7252 30.1943 34.7345 30.194 34.7342L27.7329 36.8271C28.1523 37.3204 28.6322 37.5267 29.2018 37.7876L30.5474 34.8504ZM30.1942 34.7343C30.1794 34.717 30.2001 34.7401 30.226 34.7788C30.2516 34.8172 30.262 34.8402 30.2543 34.8246C30.2441 34.8037 30.2233 34.7588 30.1826 34.6639C30.1429 34.5713 30.0922 34.4497 30.0224 34.2813L27.0378 35.5181C27.2819 36.1072 27.4088 36.446 27.7327 36.827L30.1942 34.7343ZM30.0224 34.2812C29.9597 34.13 29.899 33.9863 29.8509 33.8752C29.8273 33.8206 29.8043 33.7682 29.7845 33.7246C29.7751 33.7039 29.7625 33.6765 29.7489 33.6485C29.7424 33.6352 29.7309 33.6119 29.7164 33.5846C29.7155 33.5829 29.6668 33.488 29.5904 33.3838L26.9841 35.2929C26.9582 35.2576 26.9386 35.2278 26.9264 35.2086C26.9135 35.1884 26.9032 35.1712 26.8958 35.1587C26.8816 35.1345 26.871 35.1149 26.8653 35.1042C26.8538 35.0827 26.8461 35.0669 26.8441 35.0628C26.8394 35.053 26.8384 35.0506 26.8429 35.0606C26.8511 35.0785 26.8653 35.1107 26.8857 35.1579C26.9257 35.2503 26.9799 35.3783 27.0378 35.5181L30.0224 34.2812ZM29.5915 33.3852C29.1811 32.8236 28.5199 32.6163 27.9382 32.7164C27.3979 32.8094 26.9981 33.1388 26.7688 33.5018L29.5 35.2275C29.3112 35.5264 28.9693 35.8173 28.486 35.9004C27.9613 35.9907 27.3563 35.8023 26.983 35.2914L29.5915 33.3852ZM26.7688 33.5017C26.7128 33.5903 26.6729 33.6744 26.6716 33.6771C26.658 33.7048 26.6449 33.7327 26.6341 33.7562C26.6118 33.8045 26.586 33.8624 26.5593 33.9233C26.5052 34.0465 26.438 34.2034 26.3698 34.3659L29.3494 35.6151C29.412 35.4656 29.472 35.3257 29.5175 35.222C29.5406 35.1695 29.5577 35.1314 29.5684 35.1081C29.5741 35.0958 29.5751 35.0939 29.5726 35.0989C29.5715 35.1013 29.5666 35.1112 29.5591 35.1255C29.5555 35.1323 29.5335 35.1745 29.5 35.2276L26.7688 33.5017ZM26.3698 34.3661C26.3121 34.5036 26.251 34.6414 26.2009 34.7487C26.1757 34.8027 26.1564 34.8423 26.144 34.8667C26.1378 34.879 26.1361 34.882 26.1383 34.878C26.1395 34.8758 26.1433 34.869 26.1492 34.8588C26.1547 34.8497 26.1661 34.8306 26.1826 34.8056L28.8777 36.5873C28.9818 36.4298 29.0826 36.2135 29.1285 36.1151C29.1979 35.9665 29.2763 35.7894 29.3494 35.6149L26.3698 34.3661ZM26.1827 34.8054C26.1912 34.7926 26.2212 34.7498 26.2708 34.7002C26.3194 34.6516 26.3582 34.6251 26.3659 34.6201C26.3679 34.6188 26.3438 34.6345 26.2685 34.6724C26.1942 34.7099 26.0919 34.7581 25.9441 34.825L27.2768 37.7681C27.8559 37.5059 28.4432 37.2442 28.8775 36.5876L26.1827 34.8054ZM25.944 34.8251C25.7818 34.8986 25.6254 34.9709 25.5027 35.029C25.442 35.0577 25.3845 35.0854 25.3364 35.1092C25.313 35.1208 25.2852 35.1348 25.2574 35.1495C25.256 35.1502 25.1697 35.1943 25.0796 35.2555L26.8957 37.9275C26.8413 37.9645 26.7977 37.9889 26.791 37.9927C26.7764 38.0009 26.7663 38.0063 26.7638 38.0076C26.7585 38.0103 26.7601 38.0094 26.7723 38.0034C26.7953 37.992 26.8331 37.9737 26.8853 37.9489C26.9884 37.9001 27.1278 37.8356 27.2769 37.7681L25.944 34.8251ZM25.0796 35.2555C24.715 35.5033 24.4196 35.9081 24.3382 36.4167C24.2531 36.9484 24.4202 37.5738 24.9345 37.9978L26.9896 35.505C27.455 35.8886 27.604 36.4552 27.5283 36.9276C27.4564 37.3769 27.1983 37.7218 26.8958 37.9275L25.0796 35.2555ZM24.9334 37.9969C25.0076 38.0582 25.0712 38.0992 25.0911 38.112C25.1198 38.1304 25.1438 38.1446 25.1582 38.1529C25.1871 38.1697 25.2118 38.1829 25.2256 38.1902C25.2549 38.2057 25.2838 38.2201 25.3057 38.2309C25.352 38.2537 25.4083 38.2806 25.4676 38.3085C25.588 38.3651 25.7449 38.4372 25.9105 38.512L27.2396 35.5673C27.0853 35.4976 26.9441 35.4327 26.8424 35.3848C26.7905 35.3604 26.7547 35.3432 26.7344 35.3332C26.7231 35.3276 26.7251 35.3285 26.7348 35.3336C26.7388 35.3357 26.7555 35.3445 26.7783 35.3578C26.7897 35.3643 26.8111 35.3769 26.8377 35.3941C26.8514 35.4028 26.8707 35.4155 26.8935 35.4316C26.9147 35.4466 26.9496 35.4719 26.9907 35.5059L24.9334 37.9969ZM25.9106 38.512C26.1704 38.6293 26.2751 38.6765 26.3469 38.715C26.3921 38.7392 26.3227 38.7078 26.2399 38.619C26.1644 38.5381 26.1472 38.4829 26.1875 38.5657C26.235 38.6634 26.2923 38.8009 26.4113 39.0851L29.3913 37.8373C29.2929 37.6022 29.1909 37.3543 29.0931 37.1532C28.9881 36.9372 28.8396 36.6695 28.6022 36.4151C28.1632 35.9445 27.5528 35.7086 27.2396 35.5673L25.9106 38.512ZM26.4113 39.0851C26.5033 39.305 26.6439 39.6506 26.8067 39.8929C26.8396 39.9417 27.2142 40.5499 28.0062 40.6532C28.8836 40.7676 29.4126 40.1673 29.439 40.1399L27.1131 37.8976C27.1457 37.8639 27.2611 37.7454 27.4483 37.6393C27.6605 37.5189 28.0027 37.3946 28.424 37.4496C28.8265 37.5021 29.1021 37.6929 29.2453 37.8178C29.3826 37.9376 29.4613 38.0507 29.4881 38.0906C29.5398 38.1675 29.5539 38.2095 29.5182 38.1319C29.4909 38.0725 29.4517 37.9815 29.3913 37.8372L26.4113 39.0851ZM20.8969 25.2477C21.0204 25.1196 21.0953 24.997 21.104 24.9833C21.1298 24.9425 21.1493 24.9078 21.1602 24.8881C21.1828 24.8471 21.2019 24.8089 21.2146 24.7833C21.2415 24.7288 21.2703 24.6668 21.2975 24.6068C21.3534 24.4837 21.4213 24.3277 21.4895 24.1655L18.5113 22.9132C18.452 23.0542 18.3963 23.1818 18.3555 23.2716C18.3345 23.318 18.3218 23.3447 18.3168 23.3548C18.316 23.3565 18.3165 23.3553 18.3182 23.3519C18.3197 23.349 18.3242 23.3404 18.3311 23.328C18.3346 23.3215 18.3397 23.3125 18.3461 23.3015C18.3522 23.2909 18.3615 23.2754 18.3734 23.2566C18.3845 23.239 18.4032 23.2101 18.4285 23.1753C18.4415 23.1574 18.4589 23.1342 18.4804 23.1077C18.5013 23.082 18.5317 23.046 18.571 23.0053L20.8969 25.2477ZM21.4895 24.1655C21.566 23.9836 21.6191 23.8574 21.6602 23.7627C21.7028 23.6645 21.7199 23.6292 21.7244 23.6203C21.7251 23.619 21.7194 23.6303 21.7079 23.6493C21.6955 23.6698 21.6801 23.6929 21.6626 23.7165C21.6328 23.7567 21.607 23.7828 21.6497 23.7361L19.2623 21.5593C19.1443 21.6888 18.9987 21.8543 18.8474 22.1504C18.7548 22.3316 18.6479 22.5883 18.5113 22.9132L21.4895 24.1655ZM21.6497 23.7361C21.6909 23.6908 21.6694 23.7171 21.6294 23.7519C21.5764 23.798 21.5307 23.8266 21.5157 23.8353C21.5135 23.8366 21.5382 23.8224 21.6282 23.7798C21.7152 23.7386 21.8322 23.6854 22.0051 23.6072L20.6732 20.6637C20.3703 20.8007 20.0978 20.9229 19.8946 21.0407C19.5752 21.2259 19.3959 21.4128 19.2622 21.5594L21.6497 23.7361ZM22.005 23.6072C22.2505 23.4961 22.5795 23.3493 22.8096 23.192C22.8828 23.142 23.0054 23.0521 23.1294 22.9187C23.2516 22.7872 23.4458 22.5379 23.536 22.1672C23.7543 21.2697 23.1817 20.6824 23.0863 20.5864L20.7938 22.8628C20.7399 22.8085 20.1887 22.2591 20.3967 21.4037C20.4818 21.0539 20.663 20.8267 20.7629 20.7192C20.8646 20.6098 20.9555 20.546 20.9862 20.525C21.0448 20.4849 21.0685 20.4779 20.9876 20.5177C20.9213 20.5503 20.823 20.5959 20.6732 20.6637L22.005 23.6072ZM23.0862 20.5862C22.9603 20.4594 22.8381 20.3812 22.8277 20.3743C22.7887 20.3484 22.7555 20.3286 22.7367 20.3176C22.6975 20.2947 22.6606 20.2748 22.6352 20.2615C22.5813 20.233 22.5191 20.2019 22.4579 20.1719C22.3324 20.1104 22.1723 20.0347 22.0053 19.9582L20.6595 22.8953C20.8073 22.963 20.9413 23.0265 21.0361 23.073C21.0849 23.0969 21.1144 23.112 21.1271 23.1187C21.1351 23.1228 21.1252 23.1178 21.1059 23.1065C21.097 23.1014 21.072 23.0866 21.0393 23.0649C21.0228 23.0539 20.9949 23.035 20.9614 23.0095C20.9441 22.9964 20.9214 22.9787 20.8954 22.9567C20.8704 22.9355 20.8346 22.9039 20.794 22.863L23.0862 20.5862ZM22.0053 19.9582C21.8472 19.8858 21.734 19.8329 21.6486 19.7911C21.5616 19.7486 21.5244 19.7278 21.5123 19.7207C21.5054 19.7166 21.5343 19.7331 21.5768 19.7691C21.5974 19.7865 21.6155 19.8035 21.6302 19.8186C21.6442 19.8329 21.6521 19.8422 21.6519 19.8419L19.1907 21.9349C19.6101 22.4281 20.0901 22.6344 20.6596 22.8954L22.0053 19.9582ZM21.652 19.8421C21.6372 19.8247 21.658 19.8479 21.6838 19.8866C21.7094 19.9249 21.7199 19.9479 21.7122 19.9323C21.7019 19.9115 21.6811 19.8666 21.6405 19.7717C21.6008 19.679 21.5501 19.5575 21.4803 19.389L18.4956 20.6258C18.7397 21.2149 18.8666 21.5537 19.1906 21.9347L21.652 19.8421ZM21.4802 19.3889C21.4176 19.2378 21.3568 19.094 21.3088 18.9829C21.2852 18.9283 21.2621 18.8759 21.2424 18.8324C21.233 18.8117 21.2204 18.7843 21.2067 18.7562C21.2002 18.7429 21.1887 18.7196 21.1742 18.6923C21.1733 18.6907 21.1246 18.5957 21.0483 18.4915L18.4419 20.4007C18.416 20.3653 18.3964 20.3355 18.3842 20.3164C18.3713 20.2961 18.361 20.2789 18.3537 20.2665C18.3394 20.2422 18.3288 20.2227 18.3231 20.2119C18.3116 20.1904 18.3039 20.1746 18.3019 20.1705C18.2972 20.1608 18.2962 20.1583 18.3008 20.1683C18.3089 20.1862 18.3231 20.2185 18.3435 20.2656C18.3835 20.358 18.4377 20.4861 18.4956 20.6259L21.4802 19.3889ZM21.0493 18.493C20.6389 17.9314 19.9778 17.7241 19.396 17.8242C18.8557 17.9171 18.456 18.2465 18.2266 18.6095L20.9578 20.3352C20.769 20.6342 20.4271 20.925 19.9439 21.0081C19.4192 21.0984 18.8141 20.91 18.4408 20.3992L21.0493 18.493ZM18.2266 18.6095C18.1706 18.6981 18.1307 18.7822 18.1294 18.7848C18.1158 18.8126 18.1028 18.8405 18.0919 18.864C18.0697 18.9123 18.0439 18.9701 18.0171 19.031C17.963 19.1543 17.8958 19.3111 17.8277 19.4737L20.8072 20.7228C20.8698 20.5734 20.9299 20.4334 20.9754 20.3298C20.9984 20.2772 21.0155 20.2391 21.0263 20.2158C21.0319 20.2035 21.0329 20.2017 21.0305 20.2067C21.0293 20.209 21.0245 20.2189 21.0169 20.2332C21.0134 20.24 20.9914 20.2822 20.9578 20.3353L18.2266 18.6095ZM17.8276 19.4738C17.77 19.6114 17.7088 19.7491 17.6588 19.8564C17.6335 19.9105 17.6143 19.95 17.6019 19.9744C17.5956 19.9867 17.5939 19.9897 17.5961 19.9857C17.5973 19.9835 17.6011 19.9767 17.6071 19.9666C17.6125 19.9574 17.6239 19.9383 17.6404 19.9134L20.3355 21.6951C20.4396 21.5376 20.5404 21.3212 20.5863 21.2228C20.6557 21.0742 20.7341 20.8971 20.8073 20.7226L17.8276 19.4738ZM17.6406 19.9131C17.649 19.9003 17.679 19.8575 17.7286 19.8079C17.7772 19.7593 17.816 19.7328 17.8237 19.7278C17.8257 19.7266 17.8016 19.7422 17.7263 19.7802C17.652 19.8176 17.5497 19.8659 17.4019 19.9328L18.7346 22.8759C19.3137 22.6136 19.901 22.352 20.3353 21.6953L17.6406 19.9131ZM17.4018 19.9328C17.2396 20.0063 17.0832 20.0786 16.9605 20.1367C16.8999 20.1654 16.8423 20.1931 16.7942 20.217C16.7708 20.2286 16.743 20.2426 16.7153 20.2572C16.7138 20.258 16.6275 20.302 16.5375 20.3632L18.3535 23.0353C18.2991 23.0722 18.2555 23.0966 18.2488 23.1004C18.2342 23.1086 18.2241 23.114 18.2216 23.1153C18.2164 23.1181 18.218 23.1171 18.2301 23.1111C18.2531 23.0997 18.2909 23.0814 18.3432 23.0567C18.4462 23.0079 18.5856 22.9433 18.7347 22.8758L17.4018 19.9328ZM16.5374 20.3633C16.1728 20.6111 15.8775 21.0158 15.796 21.5245C15.7109 22.0562 15.878 22.6816 16.3923 23.1055L18.4475 20.6127C18.9129 20.9964 19.0618 21.5629 18.9862 22.0353C18.9142 22.4846 18.6561 22.8296 18.3536 23.0352L16.5374 20.3633ZM16.3912 23.1046C16.4654 23.1659 16.529 23.207 16.5489 23.2197C16.5776 23.2382 16.6016 23.2523 16.616 23.2607C16.6449 23.2774 16.6696 23.2906 16.6834 23.2979C16.7127 23.3134 16.7416 23.3278 16.7635 23.3386C16.8098 23.3615 16.8661 23.3883 16.9254 23.4162C17.0458 23.4728 17.2027 23.545 17.3684 23.6198L18.6974 20.675C18.5431 20.6054 18.402 20.5404 18.3002 20.4925C18.2483 20.4682 18.2125 20.4509 18.1922 20.4409C18.1809 20.4354 18.1829 20.4362 18.1926 20.4413C18.1966 20.4434 18.2133 20.4523 18.2362 20.4655C18.2475 20.4721 18.2689 20.4847 18.2955 20.5018C18.3092 20.5106 18.3285 20.5233 18.3513 20.5393C18.3726 20.5543 18.4074 20.5796 18.4486 20.6136L16.3912 23.1046ZM17.3684 23.6198C17.6282 23.737 17.7329 23.7842 17.8047 23.8227C17.85 23.847 17.7805 23.8155 17.6977 23.7267C17.6222 23.6458 17.6051 23.5906 17.6454 23.6735C17.6928 23.7712 17.7501 23.9087 17.8691 24.1928L20.8491 22.945C20.7507 22.7099 20.6487 22.4621 20.5509 22.2609C20.4459 22.0449 20.2974 21.7773 20.06 21.5229C19.621 21.0523 19.0107 20.8164 18.6974 20.675L17.3684 23.6198ZM17.8691 24.1929C17.9611 24.4127 18.1017 24.7583 18.2646 25.0007C18.2974 25.0495 18.672 25.6577 19.4641 25.761C20.3415 25.8754 20.8705 25.2751 20.8969 25.2477L18.571 23.0053C18.6035 22.9716 18.7189 22.8532 18.9061 22.747C19.1184 22.6267 19.4605 22.5024 19.8818 22.5573C20.2843 22.6098 20.5599 22.8006 20.7031 22.9255C20.8405 23.0453 20.9191 23.1585 20.9459 23.1983C20.9976 23.2752 21.0117 23.3172 20.9761 23.2396C20.9488 23.1802 20.9095 23.0892 20.8491 22.945L17.8691 24.1929Z" fill="#6D68FB" mask="url(#path-4-inside-1_2443_87258)"/>
</svg>
