<svg width="26" height="25" viewBox="0 0 26 25" fill="none" xmlns="http://www.w3.org/2000/svg">
<path d="M16.7683 10.9236L12.2996 6.4549M6.53697 21.1549L20.2965 7.39537C20.8864 6.80547 21.1814 6.51052 21.2919 6.17041C21.3891 5.87124 21.3891 5.54898 21.2919 5.24981C21.1814 4.9097 20.8864 4.61475 20.2965 4.02485L19.1983 2.92665C18.6084 2.33676 18.3135 2.04181 17.9734 1.9313C17.6742 1.8341 17.3519 1.8341 17.0528 1.9313C16.7126 2.04181 16.4177 2.33676 15.8278 2.92666L2.06826 16.6862C1.47836 17.2761 1.18341 17.571 1.0729 17.9112C0.975698 18.2103 0.975698 18.5326 1.0729 18.8318C1.18341 19.1719 1.47836 19.4668 2.06826 20.0567L3.16645 21.1549C3.75635 21.7448 4.0513 22.0398 4.39141 22.1503C4.69058 22.2475 5.01284 22.2475 5.31201 22.1503C5.65213 22.0398 5.94707 21.7448 6.53697 21.1549Z" stroke="#475467" stroke-width="2" stroke-linecap="round" stroke-linejoin="round"/>
<path d="M21.9739 12.8503C21.9394 12.9261 21.9069 12.9967 21.8766 13.0614C21.7957 13.234 21.6997 13.4336 21.6232 13.5489L21.6232 13.549C21.4294 13.8409 21.0891 14.1698 20.7877 14.351L20.7876 14.3511C20.6988 14.4045 20.5023 14.4954 20.3371 14.5711C20.2872 14.5939 20.2338 14.6182 20.1777 14.6436C20.3909 14.7375 20.5532 14.8102 20.6017 14.8342L21.9739 12.8503ZM21.9739 12.8503C22.0823 13.094 22.1741 13.293 22.2155 13.3682L21.9739 12.8503ZM23.7895 14.64C23.5705 14.5411 23.4044 14.4623 23.2739 14.392C22.9806 14.234 22.8315 14.1007 22.6638 13.9338L23.7895 14.64ZM23.7895 14.64C23.5811 14.7327 23.4214 14.8051 23.3696 14.8312L23.7895 14.64ZM21.9812 16.4505C22.0119 16.3829 22.0412 16.3188 22.0686 16.2595C22.116 16.1569 22.1594 16.0652 22.1953 15.992L22.1964 15.9898C22.2211 15.9395 22.2695 15.8406 22.3186 15.7666L21.9812 16.4505ZM21.9812 16.4505C21.8712 16.204 21.7813 16.0077 21.7472 15.9436L21.9812 16.4505ZM21.7472 15.9436C21.5083 15.4946 21.057 15.0593 20.6017 14.8342L21.7472 15.9436ZM22.2156 13.3682C22.3286 13.573 22.5036 13.7744 22.6637 13.9337L22.2156 13.3682ZM23.3695 14.8312C22.9363 15.0492 22.5866 15.3621 22.3187 15.7665L23.3695 14.8312Z" fill="#98A2B3" stroke="#475467" stroke-width="1.75"/>
<path d="M12.9885 22.2821C13.1295 22.3716 13.2616 22.4745 13.3777 22.5989C13.463 22.6904 13.5346 22.7863 13.5968 22.8838C13.6659 22.7796 13.732 22.7055 13.7998 22.6311L12.9885 22.2821ZM12.9885 22.2821C13.2284 22.1308 13.4197 21.9574 13.5859 21.7062L13.5859 21.7061C13.5894 21.7009 13.5928 21.6956 13.5963 21.6901C13.6395 21.7546 13.6868 21.8163 13.7422 21.8815L13.7422 21.8816C13.8826 22.0467 14.0273 22.1678 14.2062 22.2796C14.0159 22.4002 13.9052 22.5154 13.7998 22.6311L12.9885 22.2821ZM3.602 5.09024C3.45858 5.30711 3.30401 5.41786 2.75775 5.67079C2.81194 5.69555 2.86886 5.72141 2.92732 5.74779L3.602 5.09024ZM3.602 5.09024C3.64505 5.02513 3.75388 4.79773 3.86739 4.53888L3.602 5.09024ZM4.34274 6.75049C4.41193 6.64632 4.47796 6.57219 4.54577 6.49783L4.34274 6.75049ZM4.34274 6.75049C4.28056 6.653 4.20901 6.55715 4.12364 6.46564C4.00754 6.34119 3.87542 6.23827 3.73446 6.14877C3.97439 5.99747 4.1657 5.82411 4.33184 5.57291L4.33192 5.57278C4.33534 5.56761 4.33878 5.56228 4.34225 5.55682C4.38552 5.62135 4.43275 5.68303 4.48815 5.7482L4.48822 5.74828C4.62862 5.91338 4.77333 6.03455 4.95218 6.14637C4.7619 6.26693 4.65122 6.38216 4.54578 6.49781L4.34274 6.75049ZM11.237 22.2696L11.2371 22.2697L11.237 22.2696ZM2.61834 5.73462C2.67675 5.82421 2.71374 5.92164 2.73196 6.01908L2.60572 5.74034C2.60994 5.73843 2.61415 5.73652 2.61834 5.73462ZM2.73197 6.01916C2.74022 6.0633 2.74462 6.10744 2.74541 6.15086L2.56739 6.54533L2.73197 6.01916Z" fill="#98A2B3" stroke="#475467" stroke-width="1.75"/>
</svg>
