<svg width="26" height="27" viewBox="0 0 26 27" fill="none" xmlns="http://www.w3.org/2000/svg">
<path d="M21.6663 22.0251V14.4417M12.9997 22.0251V11.1917M4.33301 22.0251L4.33301 17.6917M14.5236 5.80486L20.1227 7.90454M11.6983 6.2094L5.63326 10.7582M22.8154 7.33435C23.45 7.96895 23.45 8.99785 22.8154 9.63245C22.1808 10.267 21.1519 10.267 20.5173 9.63245C19.8827 8.99785 19.8827 7.96895 20.5173 7.33435C21.1519 6.69975 22.1808 6.69975 22.8154 7.33435ZM5.48206 10.5843C6.11666 11.219 6.11666 12.2478 5.48206 12.8824C4.84746 13.517 3.81856 13.517 3.18396 12.8824C2.54936 12.2478 2.54936 11.219 3.18396 10.5843C3.81856 9.94975 4.84746 9.94975 5.48206 10.5843ZM14.1487 4.08435C14.7833 4.71895 14.7833 5.74785 14.1487 6.38245C13.5141 7.01705 12.4852 7.01705 11.8506 6.38245C11.216 5.74785 11.216 4.71895 11.8506 4.08435C12.4852 3.44975 13.5141 3.44975 14.1487 4.08435Z" stroke="#475467" stroke-width="2" stroke-linecap="round" stroke-linejoin="round"/>
</svg>
