<svg width="344" height="202" viewBox="0 0 344 202" fill="none" xmlns="http://www.w3.org/2000/svg">
<g clip-path="url(#clip0_1_13231)">
<rect width="344" height="202" rx="12" fill="#F9F9FA"/>
<path d="M15.42 30L19.395 19.2H21.075L17.34 30H15.42ZM23.565 30L19.845 19.2H21.615L25.575 30H23.565ZM17.475 25.755H23.385V27.315H17.475V25.755ZM27.006 30V22.35H28.851V24.15H28.896V30H27.006ZM32.376 30V25.17C32.376 24.7 32.256 24.345 32.016 24.105C31.776 23.865 31.426 23.745 30.966 23.745C30.566 23.745 30.206 23.835 29.886 24.015C29.576 24.195 29.331 24.445 29.151 24.765C28.981 25.085 28.896 25.455 28.896 25.875L28.701 24.045C28.961 23.485 29.341 23.04 29.841 22.71C30.341 22.37 30.941 22.2 31.641 22.2C32.471 22.2 33.116 22.435 33.576 22.905C34.046 23.375 34.281 24 34.281 24.78V30H32.376ZM40.8141 30C40.7641 29.8 40.7241 29.58 40.6941 29.34C40.6741 29.1 40.6641 28.81 40.6641 28.47H40.6041V24.84C40.6041 24.44 40.4891 24.14 40.2591 23.94C40.0391 23.73 39.6991 23.625 39.2391 23.625C38.7891 23.625 38.4291 23.71 38.1591 23.88C37.8991 24.04 37.7391 24.275 37.6791 24.585H35.8641C35.9441 23.875 36.2841 23.3 36.8841 22.86C37.4841 22.42 38.2891 22.2 39.2991 22.2C40.3491 22.2 41.1441 22.44 41.6841 22.92C42.2241 23.39 42.4941 24.085 42.4941 25.005V28.47C42.4941 28.71 42.5091 28.955 42.5391 29.205C42.5791 29.455 42.6341 29.72 42.7041 30H40.8141ZM38.1591 30.15C37.3891 30.15 36.7741 29.96 36.3141 29.58C35.8641 29.19 35.6391 28.67 35.6391 28.02C35.6391 27.32 35.8941 26.765 36.4041 26.355C36.9141 25.945 37.6341 25.67 38.5641 25.53L40.9491 25.17V26.37L38.8791 26.685C38.4291 26.755 38.0891 26.88 37.8591 27.06C37.6391 27.24 37.5291 27.49 37.5291 27.81C37.5291 28.1 37.6341 28.325 37.8441 28.485C38.0541 28.635 38.3441 28.71 38.7141 28.71C39.2541 28.71 39.7041 28.575 40.0641 28.305C40.4241 28.035 40.6041 27.705 40.6041 27.315L40.8141 28.47C40.6141 29.02 40.2841 29.44 39.8241 29.73C39.3741 30.01 38.8191 30.15 38.1591 30.15ZM44.4083 30V19.2H46.2983V30H44.4083ZM48.7848 33.075L50.7648 28.635L51.1098 28.065L53.2698 22.35H55.2798L50.7048 33.075H48.7848ZM50.4798 29.925L47.3748 22.35H49.4298L52.0248 29.22L50.4798 29.925ZM59.855 30.15C58.915 30.15 58.22 29.93 57.77 29.49C57.33 29.04 57.11 28.37 57.11 27.48V20.61L59.015 19.905V27.525C59.015 27.895 59.115 28.17 59.315 28.35C59.515 28.53 59.83 28.62 60.26 28.62C60.43 28.62 60.58 28.61 60.71 28.59C60.85 28.56 60.98 28.525 61.1 28.485V29.955C60.98 30.015 60.81 30.06 60.59 30.09C60.37 30.13 60.125 30.15 59.855 30.15ZM55.64 23.835V22.35H61.1V23.835H55.64ZM62.4698 30V22.35H64.3598V30H62.4698ZM62.3798 21.09V19.005H64.4348V21.09H62.3798ZM69.652 30.15C68.882 30.15 68.202 29.98 67.612 29.64C67.032 29.3 66.572 28.83 66.232 28.23C65.902 27.62 65.737 26.93 65.737 26.16C65.737 25.39 65.902 24.71 66.232 24.12C66.572 23.52 67.032 23.05 67.612 22.71C68.202 22.37 68.882 22.2 69.652 22.2C70.282 22.2 70.852 22.32 71.362 22.56C71.872 22.79 72.292 23.12 72.622 23.55C72.952 23.97 73.162 24.46 73.252 25.02H71.437C71.327 24.61 71.117 24.29 70.807 24.06C70.497 23.83 70.122 23.715 69.682 23.715C69.272 23.715 68.917 23.815 68.617 24.015C68.327 24.215 68.102 24.5 67.942 24.87C67.782 25.24 67.702 25.67 67.702 26.16C67.702 26.66 67.782 27.095 67.942 27.465C68.102 27.835 68.332 28.125 68.632 28.335C68.932 28.535 69.282 28.635 69.682 28.635C70.122 28.635 70.497 28.52 70.807 28.29C71.117 28.06 71.327 27.74 71.437 27.33H73.252C73.162 27.89 72.947 28.385 72.607 28.815C72.277 29.235 71.857 29.565 71.347 29.805C70.847 30.035 70.282 30.15 69.652 30.15ZM77.5384 30.15C76.4784 30.15 75.6334 29.93 75.0034 29.49C74.3734 29.04 74.0284 28.42 73.9684 27.63H75.6934C75.7434 28.02 75.9284 28.315 76.2484 28.515C76.5684 28.715 76.9984 28.815 77.5384 28.815C78.0284 28.815 78.3934 28.74 78.6334 28.59C78.8834 28.43 79.0084 28.205 79.0084 27.915C79.0084 27.705 78.9384 27.535 78.7984 27.405C78.6584 27.265 78.3934 27.15 78.0034 27.06L76.7734 26.775C75.9334 26.595 75.3084 26.315 74.8984 25.935C74.4984 25.545 74.2984 25.06 74.2984 24.48C74.2984 23.77 74.5684 23.215 75.1084 22.815C75.6584 22.405 76.4134 22.2 77.3734 22.2C78.3234 22.2 79.0834 22.405 79.6534 22.815C80.2334 23.215 80.5534 23.77 80.6134 24.48H78.8884C78.8384 24.17 78.6784 23.935 78.4084 23.775C78.1484 23.615 77.7884 23.535 77.3284 23.535C76.8984 23.535 76.5734 23.605 76.3534 23.745C76.1334 23.875 76.0234 24.07 76.0234 24.33C76.0234 24.53 76.1084 24.7 76.2784 24.84C76.4484 24.97 76.7334 25.085 77.1334 25.185L78.4534 25.485C79.2034 25.655 79.7684 25.95 80.1484 26.37C80.5384 26.79 80.7334 27.285 80.7334 27.855C80.7334 28.585 80.4534 29.15 79.8934 29.55C79.3334 29.95 78.5484 30.15 77.5384 30.15Z" fill="#5F6E85"/>
<circle cx="50.9999" cy="93.0779" r="26.9073" stroke="#D8DFE8" stroke-width="7.57744"/>
<path d="M51.0001 119.985C65.8606 119.985 77.9074 107.938 77.9074 93.0775C77.9074 78.217 65.8606 66.1702 51.0001 66.1702" stroke="#FFAD05" stroke-width="7.57744"/>
<path d="M51.2445 61.7359L51.2445 70.6045" stroke="white" stroke-width="0.489224"/>
<path d="M11.6873 141.825V140.785H13.5473C14.094 140.785 14.5607 140.675 14.9473 140.455C15.334 140.235 15.6273 139.928 15.8273 139.535C16.034 139.142 16.1373 138.692 16.1373 138.185C16.1373 137.685 16.034 137.245 15.8273 136.865C15.6273 136.485 15.334 136.192 14.9473 135.985C14.5673 135.772 14.1007 135.665 13.5473 135.665H11.7073V134.625H13.5473C14.334 134.625 15.0207 134.772 15.6073 135.065C16.194 135.358 16.6473 135.775 16.9673 136.315C17.294 136.848 17.4573 137.478 17.4573 138.205C17.4573 138.932 17.294 139.568 16.9673 140.115C16.6407 140.655 16.184 141.075 15.5973 141.375C15.0173 141.675 14.3373 141.825 13.5573 141.825H11.6873ZM10.8973 141.825V134.625H12.1973V141.825H10.8973ZM20.7569 141.925C20.2169 141.925 19.7435 141.812 19.3369 141.585C18.9369 141.358 18.6235 141.045 18.3969 140.645C18.1769 140.245 18.0669 139.785 18.0669 139.265C18.0669 138.745 18.1769 138.288 18.3969 137.895C18.6235 137.495 18.9369 137.185 19.3369 136.965C19.7369 136.738 20.2035 136.625 20.7369 136.625C21.2435 136.625 21.6835 136.732 22.0569 136.945C22.4302 137.152 22.7202 137.445 22.9269 137.825C23.1335 138.205 23.2369 138.648 23.2369 139.155C23.2369 139.248 23.2335 139.335 23.2269 139.415C23.2202 139.495 23.2102 139.575 23.1969 139.655H18.8469V138.775H22.2269L21.9669 139.015C21.9669 138.535 21.8569 138.175 21.6369 137.935C21.4169 137.695 21.1102 137.575 20.7169 137.575C20.2902 137.575 19.9502 137.722 19.6969 138.015C19.4502 138.308 19.3269 138.732 19.3269 139.285C19.3269 139.832 19.4502 140.252 19.6969 140.545C19.9502 140.832 20.3069 140.975 20.7669 140.975C21.0335 140.975 21.2669 140.925 21.4669 140.825C21.6669 140.725 21.8135 140.572 21.9069 140.365H23.0969C22.9302 140.845 22.6469 141.225 22.2469 141.505C21.8535 141.785 21.3569 141.925 20.7569 141.925ZM27.2598 141.825L25.6898 139.545L23.5698 136.725H24.9998L26.4198 138.795L28.6898 141.825H27.2598ZM25.7898 138.755L27.2198 136.725H28.6198L26.3998 139.635L25.7898 138.755ZM26.2898 139.695L24.7498 141.825H23.3598L25.6898 138.805L26.2898 139.695ZM31.8897 141.925C31.263 141.925 30.7997 141.778 30.4997 141.485C30.2064 141.185 30.0597 140.738 30.0597 140.145V135.565L31.3297 135.095V140.175C31.3297 140.422 31.3964 140.605 31.5297 140.725C31.663 140.845 31.873 140.905 32.1597 140.905C32.273 140.905 32.373 140.898 32.4597 140.885C32.553 140.865 32.6397 140.842 32.7197 140.815V141.795C32.6397 141.835 32.5264 141.865 32.3797 141.885C32.233 141.912 32.0697 141.925 31.8897 141.925ZM29.0797 137.715V136.725H32.7197V137.715H29.0797ZM35.7959 141.925C35.2559 141.925 34.7826 141.812 34.3759 141.585C33.9759 141.358 33.6626 141.045 33.4359 140.645C33.2159 140.245 33.1059 139.785 33.1059 139.265C33.1059 138.745 33.2159 138.288 33.4359 137.895C33.6626 137.495 33.9759 137.185 34.3759 136.965C34.7759 136.738 35.2426 136.625 35.7759 136.625C36.2826 136.625 36.7226 136.732 37.0959 136.945C37.4693 137.152 37.7593 137.445 37.9659 137.825C38.1726 138.205 38.2759 138.648 38.2759 139.155C38.2759 139.248 38.2726 139.335 38.2659 139.415C38.2593 139.495 38.2493 139.575 38.2359 139.655H33.8859V138.775H37.2659L37.0059 139.015C37.0059 138.535 36.8959 138.175 36.6759 137.935C36.4559 137.695 36.1493 137.575 35.7559 137.575C35.3293 137.575 34.9893 137.722 34.7359 138.015C34.4893 138.308 34.3659 138.732 34.3659 139.285C34.3659 139.832 34.4893 140.252 34.7359 140.545C34.9893 140.832 35.3459 140.975 35.8059 140.975C36.0726 140.975 36.3059 140.925 36.5059 140.825C36.7059 140.725 36.8526 140.572 36.9459 140.365H38.1359C37.9693 140.845 37.6859 141.225 37.2859 141.505C36.8926 141.785 36.3959 141.925 35.7959 141.925ZM39.2188 141.825V136.725H40.4488V137.955H40.4788V141.825H39.2188ZM40.4788 139.165L40.3488 137.955C40.4688 137.522 40.6722 137.192 40.9588 136.965C41.2455 136.738 41.5888 136.625 41.9888 136.625C42.1288 136.625 42.2288 136.638 42.2888 136.665V137.855C42.2555 137.842 42.2088 137.835 42.1488 137.835C42.0888 137.828 42.0155 137.825 41.9288 137.825C41.4422 137.825 41.0788 137.932 40.8388 138.145C40.5988 138.358 40.4788 138.698 40.4788 139.165ZM42.8505 137.275V136.655C43.1505 136.615 43.3505 136.515 43.4505 136.355C43.5505 136.188 43.6005 135.955 43.6005 135.655L44.0905 135.755H42.8705V134.415H44.3305V135.415C44.3305 135.895 44.2105 136.305 43.9705 136.645C43.7371 136.985 43.3638 137.195 42.8505 137.275ZM46.7548 141.925C46.0481 141.925 45.4848 141.778 45.0648 141.485C44.6448 141.185 44.4148 140.772 44.3748 140.245H45.5248C45.5581 140.505 45.6814 140.702 45.8948 140.835C46.1081 140.968 46.3948 141.035 46.7548 141.035C47.0814 141.035 47.3248 140.985 47.4848 140.885C47.6514 140.778 47.7348 140.628 47.7348 140.435C47.7348 140.295 47.6881 140.182 47.5948 140.095C47.5014 140.002 47.3248 139.925 47.0648 139.865L46.2448 139.675C45.6848 139.555 45.2681 139.368 44.9948 139.115C44.7281 138.855 44.5948 138.532 44.5948 138.145C44.5948 137.672 44.7748 137.302 45.1348 137.035C45.5014 136.762 46.0048 136.625 46.6448 136.625C47.2781 136.625 47.7848 136.762 48.1648 137.035C48.5514 137.302 48.7648 137.672 48.8048 138.145H47.6548C47.6214 137.938 47.5148 137.782 47.3348 137.675C47.1614 137.568 46.9214 137.515 46.6148 137.515C46.3281 137.515 46.1114 137.562 45.9648 137.655C45.8181 137.742 45.7448 137.872 45.7448 138.045C45.7448 138.178 45.8014 138.292 45.9148 138.385C46.0281 138.472 46.2181 138.548 46.4848 138.615L47.3648 138.815C47.8648 138.928 48.2414 139.125 48.4948 139.405C48.7548 139.685 48.8848 140.015 48.8848 140.395C48.8848 140.882 48.6981 141.258 48.3248 141.525C47.9514 141.792 47.4281 141.925 46.7548 141.925ZM53.9398 141.825L51.2898 134.625H52.6498L54.8198 140.905H54.5998L56.7698 134.625H58.0598L55.4198 141.825H53.9398ZM58.877 141.825V136.725H60.137V141.825H58.877ZM58.817 135.885V134.495H60.187V135.885H58.817ZM63.4052 141.925C62.6985 141.925 62.1352 141.778 61.7152 141.485C61.2952 141.185 61.0652 140.772 61.0252 140.245H62.1752C62.2085 140.505 62.3318 140.702 62.5452 140.835C62.7585 140.968 63.0452 141.035 63.4052 141.035C63.7318 141.035 63.9752 140.985 64.1352 140.885C64.3018 140.778 64.3852 140.628 64.3852 140.435C64.3852 140.295 64.3385 140.182 64.2452 140.095C64.1518 140.002 63.9752 139.925 63.7152 139.865L62.8952 139.675C62.3352 139.555 61.9185 139.368 61.6452 139.115C61.3785 138.855 61.2452 138.532 61.2452 138.145C61.2452 137.672 61.4252 137.302 61.7852 137.035C62.1518 136.762 62.6552 136.625 63.2952 136.625C63.9285 136.625 64.4352 136.762 64.8152 137.035C65.2018 137.302 65.4152 137.672 65.4552 138.145H64.3052C64.2718 137.938 64.1652 137.782 63.9852 137.675C63.8118 137.568 63.5718 137.515 63.2652 137.515C62.9785 137.515 62.7618 137.562 62.6152 137.655C62.4685 137.742 62.3952 137.872 62.3952 138.045C62.3952 138.178 62.4518 138.292 62.5652 138.385C62.6785 138.472 62.8685 138.548 63.1352 138.615L64.0152 138.815C64.5152 138.928 64.8918 139.125 65.1452 139.405C65.4052 139.685 65.5352 140.015 65.5352 140.395C65.5352 140.882 65.3485 141.258 64.9752 141.525C64.6018 141.792 64.0785 141.925 63.4052 141.925ZM66.4259 141.825V136.725H67.6859V141.825H66.4259ZM66.3659 135.885V134.495H67.7359V135.885H66.3659ZM71.9335 141.925C71.4468 141.925 71.0468 141.812 70.7335 141.585C70.4268 141.352 70.2368 141.032 70.1635 140.625L70.2535 140.615V141.825H69.0235V134.625H70.2835V137.875L70.1935 137.855C70.2802 137.475 70.4835 137.175 70.8035 136.955C71.1302 136.735 71.5335 136.625 72.0135 136.625C72.4668 136.625 72.8602 136.735 73.1935 136.955C73.5335 137.168 73.7968 137.472 73.9835 137.865C74.1702 138.258 74.2635 138.722 74.2635 139.255C74.2635 139.795 74.1668 140.265 73.9735 140.665C73.7802 141.065 73.5102 141.375 73.1635 141.595C72.8168 141.815 72.4068 141.925 71.9335 141.925ZM71.6135 140.885C72.0202 140.885 72.3435 140.745 72.5835 140.465C72.8235 140.178 72.9435 139.778 72.9435 139.265C72.9435 138.752 72.8202 138.355 72.5735 138.075C72.3335 137.795 72.0102 137.655 71.6035 137.655C71.2035 137.655 70.8802 137.798 70.6335 138.085C70.3868 138.365 70.2635 138.762 70.2635 139.275C70.2635 139.788 70.3868 140.185 70.6335 140.465C70.8802 140.745 71.2068 140.885 71.6135 140.885ZM75.2052 141.825V136.725H76.4652V141.825H75.2052ZM75.1452 135.885V134.495H76.5152V135.885H75.1452ZM77.8028 141.825V134.625H79.0628V141.825H77.8028ZM80.4005 141.825V136.725H81.6605V141.825H80.4005ZM80.3405 135.885V134.495H81.7105V135.885H80.3405ZM85.2295 141.925C84.6029 141.925 84.1395 141.778 83.8395 141.485C83.5462 141.185 83.3995 140.738 83.3995 140.145V135.565L84.6695 135.095V140.175C84.6695 140.422 84.7362 140.605 84.8695 140.725C85.0029 140.845 85.2129 140.905 85.4995 140.905C85.6129 140.905 85.7129 140.898 85.7995 140.885C85.8929 140.865 85.9795 140.842 86.0595 140.815V141.795C85.9795 141.835 85.8662 141.865 85.7195 141.885C85.5729 141.912 85.4095 141.925 85.2295 141.925ZM82.4195 137.715V136.725H86.0595V137.715H82.4195ZM87.3513 143.875L88.6713 140.915L88.9013 140.535L90.3413 136.725H91.6813L88.6313 143.875H87.3513ZM88.4813 141.775L86.4113 136.725H87.7813L89.5113 141.305L88.4813 141.775ZM40.7577 153.915C39.851 153.915 39.1277 153.708 38.5877 153.295C38.0543 152.875 37.741 152.285 37.6477 151.525H38.8977C38.9577 151.965 39.1543 152.308 39.4877 152.555C39.821 152.795 40.2577 152.915 40.7977 152.915C41.2443 152.915 41.5843 152.835 41.8177 152.675C42.0577 152.508 42.1777 152.278 42.1777 151.985C42.1777 151.725 42.1043 151.515 41.9577 151.355C41.811 151.195 41.5643 151.065 41.2177 150.965L39.9177 150.575C39.2577 150.375 38.771 150.112 38.4577 149.785C38.151 149.458 37.9977 149.048 37.9977 148.555C37.9977 148.142 38.1043 147.782 38.3177 147.475C38.531 147.168 38.831 146.932 39.2177 146.765C39.611 146.598 40.0677 146.515 40.5877 146.515C41.3877 146.515 42.0243 146.712 42.4977 147.105C42.9777 147.492 43.251 148.018 43.3177 148.685H42.0677C41.9943 148.285 41.8277 147.992 41.5677 147.805C41.3077 147.612 40.9577 147.515 40.5177 147.515C40.131 147.515 39.8243 147.592 39.5977 147.745C39.371 147.898 39.2577 148.108 39.2577 148.375C39.2577 148.595 39.3243 148.782 39.4577 148.935C39.5977 149.088 39.8543 149.222 40.2277 149.335L41.5477 149.735C42.2077 149.928 42.6877 150.192 42.9877 150.525C43.2877 150.858 43.4377 151.282 43.4377 151.795C43.4377 152.475 43.201 152.998 42.7277 153.365C42.261 153.732 41.6043 153.915 40.7577 153.915ZM46.5753 153.925C46.062 153.925 45.6086 153.812 45.2153 153.585C44.8286 153.358 44.522 153.045 44.2953 152.645C44.0753 152.238 43.9653 151.778 43.9653 151.265C43.9653 150.752 44.0753 150.298 44.2953 149.905C44.522 149.505 44.8286 149.192 45.2153 148.965C45.6086 148.738 46.062 148.625 46.5753 148.625C46.9953 148.625 47.3753 148.705 47.7153 148.865C48.0553 149.018 48.3353 149.238 48.5553 149.525C48.7753 149.805 48.9153 150.132 48.9753 150.505H47.7653C47.692 150.232 47.552 150.018 47.3453 149.865C47.1386 149.712 46.8886 149.635 46.5953 149.635C46.322 149.635 46.0853 149.702 45.8853 149.835C45.692 149.968 45.542 150.158 45.4353 150.405C45.3286 150.652 45.2753 150.938 45.2753 151.265C45.2753 151.598 45.3286 151.888 45.4353 152.135C45.542 152.382 45.6953 152.575 45.8953 152.715C46.0953 152.848 46.3286 152.915 46.5953 152.915C46.8886 152.915 47.1386 152.838 47.3453 152.685C47.552 152.532 47.692 152.318 47.7653 152.045H48.9753C48.9153 152.418 48.772 152.748 48.5453 153.035C48.3253 153.315 48.0453 153.535 47.7053 153.695C47.372 153.848 46.9953 153.925 46.5753 153.925ZM52.1736 153.925C51.6336 153.925 51.1569 153.812 50.7436 153.585C50.3369 153.358 50.0203 153.045 49.7936 152.645C49.5669 152.238 49.4536 151.775 49.4536 151.255C49.4536 150.735 49.5669 150.278 49.7936 149.885C50.0203 149.492 50.3369 149.185 50.7436 148.965C51.1569 148.738 51.6336 148.625 52.1736 148.625C52.7203 148.625 53.1969 148.738 53.6036 148.965C54.0103 149.185 54.3269 149.492 54.5536 149.885C54.7803 150.278 54.8936 150.735 54.8936 151.255C54.8936 151.775 54.7769 152.238 54.5436 152.645C54.3169 153.045 54.0003 153.358 53.5936 153.585C53.1869 153.812 52.7136 153.925 52.1736 153.925ZM52.1736 152.915C52.4403 152.915 52.6803 152.848 52.8936 152.715C53.1069 152.575 53.2736 152.382 53.3936 152.135C53.5136 151.882 53.5736 151.585 53.5736 151.245C53.5736 150.745 53.4403 150.352 53.1736 150.065C52.9136 149.778 52.5803 149.635 52.1736 149.635C51.7669 149.635 51.4303 149.778 51.1636 150.065C50.8969 150.352 50.7636 150.745 50.7636 151.245C50.7636 151.585 50.8236 151.882 50.9436 152.135C51.0703 152.382 51.2369 152.575 51.4436 152.715C51.6569 152.848 51.9003 152.915 52.1736 152.915ZM55.8204 153.825V148.725H57.0504V149.955H57.0804V153.825H55.8204ZM57.0804 151.165L56.9504 149.955C57.0704 149.522 57.2737 149.192 57.5604 148.965C57.8471 148.738 58.1904 148.625 58.5904 148.625C58.7304 148.625 58.8304 148.638 58.8904 148.665V149.855C58.8571 149.842 58.8104 149.835 58.7504 149.835C58.6904 149.828 58.6171 149.825 58.5304 149.825C58.0437 149.825 57.6804 149.932 57.4404 150.145C57.2004 150.358 57.0804 150.698 57.0804 151.165ZM61.8995 153.925C61.3595 153.925 60.8861 153.812 60.4795 153.585C60.0795 153.358 59.7661 153.045 59.5395 152.645C59.3195 152.245 59.2095 151.785 59.2095 151.265C59.2095 150.745 59.3195 150.288 59.5395 149.895C59.7661 149.495 60.0795 149.185 60.4795 148.965C60.8795 148.738 61.3461 148.625 61.8795 148.625C62.3861 148.625 62.8261 148.732 63.1995 148.945C63.5728 149.152 63.8628 149.445 64.0695 149.825C64.2761 150.205 64.3795 150.648 64.3795 151.155C64.3795 151.248 64.3761 151.335 64.3695 151.415C64.3628 151.495 64.3528 151.575 64.3395 151.655H59.9895V150.775H63.3695L63.1095 151.015C63.1095 150.535 62.9995 150.175 62.7795 149.935C62.5595 149.695 62.2528 149.575 61.8595 149.575C61.4328 149.575 61.0928 149.722 60.8395 150.015C60.5928 150.308 60.4695 150.732 60.4695 151.285C60.4695 151.832 60.5928 152.252 60.8395 152.545C61.0928 152.832 61.4495 152.975 61.9095 152.975C62.1761 152.975 62.4095 152.925 62.6095 152.825C62.8095 152.725 62.9561 152.572 63.0495 152.365H64.2395C64.0728 152.845 63.7895 153.225 63.3895 153.505C62.9961 153.785 62.4995 153.925 61.8995 153.925Z" fill="#7E8693"/>
<path d="M43.3255 101.605C41.5559 101.605 40.111 101.142 38.9908 100.217C37.8706 99.2911 37.1806 98.0167 36.9209 96.3932H40.1354C40.2815 97.2537 40.6387 97.9193 41.2069 98.3901C41.7913 98.8609 42.4732 99.0963 43.2525 99.0963C44.1129 99.0963 44.811 98.8122 45.3468 98.244C45.8987 97.6758 46.1747 96.7991 46.1747 95.614C46.1747 94.4613 45.9069 93.5927 45.3711 93.0083C44.8516 92.4076 44.1535 92.1072 43.2768 92.1072C42.7086 92.1072 42.1972 92.229 41.7426 92.4725C41.2881 92.716 40.9471 93.057 40.7198 93.4953H37.8463L38.6986 83.8275H48.5126V86.3357H39.9893L41.5478 85.8974L41.0608 91.9124L40.0867 91.7419C40.4763 91.1413 40.9796 90.6623 41.5965 90.3052C42.2134 89.948 42.9927 89.7694 43.9343 89.7694C45.0545 89.7694 46.0286 90.0129 46.8566 90.5C47.7008 90.987 48.3583 91.6689 48.8291 92.5456C49.3162 93.406 49.5597 94.445 49.5597 95.6627C49.5597 96.9127 49.2999 97.9842 48.7804 98.8772C48.2609 99.7538 47.5385 100.428 46.6131 100.898C45.6877 101.369 44.5918 101.605 43.3255 101.605ZM60.0812 101.361V96.7342L60.2273 96.2471V86.2383L61.4449 86.7741L54.2367 96.4419L52.8486 95.2974H65.2195V97.8057H51.4849V95.3948L60.1786 83.8275H63.32V101.361H60.0812Z" fill="#7A8EAC"/>
<rect x="101.5" y="42.5" width="79.6667" height="30.3338" rx="5.382" fill="white"/>
<rect x="101.5" y="42.5" width="79.6667" height="30.3338" rx="5.382" stroke="#E4E7EC"/>
<circle cx="120.333" cy="57.6669" r="7.66689" fill="white" stroke="#DEE1E6" stroke-width="2.30007"/>
<path d="M120.333 50C124.568 50 128 53.4326 128 57.6669C128 61.9012 124.568 65.3338 120.333 65.3338C116.099 65.3338 112.666 61.9012 112.666 57.6669C112.666 55.542 113.531 53.619 114.927 52.2304" stroke="#17B26A" stroke-width="2.30007"/>
<path d="M123.416 60.5302C125.004 58.9424 125.004 56.3679 123.416 54.7801C121.828 53.1922 119.254 53.1922 117.666 54.7801C116.078 56.3679 116.078 58.9424 117.666 60.5302C119.254 62.1181 121.828 62.1181 123.416 60.5302Z" fill="#E6E6FF" stroke="#344054" stroke-width="0.656718" stroke-miterlimit="10"/>
<path d="M118.684 58.6007C118.452 58.6007 118.298 58.8433 118.399 59.053C118.777 59.8445 119.586 60.3912 120.522 60.3912C121.458 60.3912 122.266 59.8445 122.645 59.053C122.745 58.8433 122.592 58.6007 122.359 58.6007H118.684Z" fill="#344054"/>
<path d="M118.353 56.889C118.353 56.5705 118.66 56.3347 119.039 56.3347C119.418 56.3347 119.725 56.5705 119.725 56.889" stroke="#344054" stroke-width="0.591015" stroke-miterlimit="10"/>
<path d="M121.319 56.889C121.319 56.5705 121.626 56.3347 122.005 56.3347C122.384 56.3347 122.691 56.5705 122.691 56.889" stroke="#344054" stroke-width="0.591015" stroke-miterlimit="10"/>
<path d="M133.434 59.6669V54.6269H135.695C136.064 54.6269 136.379 54.6899 136.64 54.8159C136.906 54.9419 137.109 55.1192 137.249 55.3479C137.394 55.5765 137.466 55.8472 137.466 56.1599C137.466 56.4679 137.394 56.7385 137.249 56.9719C137.105 57.2052 136.902 57.3872 136.64 57.5179C136.379 57.6439 136.064 57.7069 135.695 57.7069H134.141V56.9929H135.653C135.943 56.9929 136.164 56.9182 136.318 56.7689C136.477 56.6195 136.556 56.4165 136.556 56.1599C136.556 55.9079 136.477 55.7095 136.318 55.5649C136.164 55.4202 135.943 55.3479 135.653 55.3479H134.344V59.6669H133.434ZM140.145 59.6669C140.122 59.5735 140.103 59.4709 140.089 59.3589C140.08 59.2469 140.075 59.1115 140.075 58.9529H140.047V57.2589C140.047 57.0722 139.994 56.9322 139.886 56.8389C139.784 56.7409 139.625 56.6919 139.41 56.6919C139.2 56.6919 139.032 56.7315 138.906 56.8109C138.785 56.8855 138.71 56.9952 138.682 57.1399H137.835C137.873 56.8085 138.031 56.5402 138.311 56.3349C138.591 56.1295 138.967 56.0269 139.438 56.0269C139.928 56.0269 140.299 56.1389 140.551 56.3629C140.803 56.5822 140.929 56.9065 140.929 57.3359V58.9529C140.929 59.0649 140.936 59.1792 140.95 59.2959C140.969 59.4125 140.995 59.5362 141.027 59.6669H140.145ZM138.906 59.7369C138.547 59.7369 138.26 59.6482 138.045 59.4709C137.835 59.2889 137.73 59.0462 137.73 58.7429C137.73 58.4162 137.849 58.1572 138.087 57.9659C138.325 57.7745 138.661 57.6462 139.095 57.5809L140.208 57.4129V57.9729L139.242 58.1199C139.032 58.1525 138.874 58.2109 138.766 58.2949C138.664 58.3789 138.612 58.4955 138.612 58.6449C138.612 58.7802 138.661 58.8852 138.759 58.9599C138.857 59.0299 138.993 59.0649 139.165 59.0649C139.417 59.0649 139.627 59.0019 139.795 58.8759C139.963 58.7499 140.047 58.5959 140.047 58.4139L140.145 58.9529C140.052 59.2095 139.898 59.4055 139.683 59.5409C139.473 59.6715 139.214 59.7369 138.906 59.7369ZM143.336 61.1719C142.865 61.1719 142.477 61.0692 142.174 60.8639C141.875 60.6585 141.698 60.3809 141.642 60.0309H142.482C142.524 60.1522 142.615 60.2455 142.755 60.3109C142.9 60.3809 143.086 60.4159 143.315 60.4159C143.646 60.4159 143.891 60.3412 144.05 60.1919C144.209 60.0472 144.288 59.8255 144.288 59.5269V58.7569L144.351 58.7709C144.295 59.0322 144.153 59.2422 143.924 59.4009C143.695 59.5549 143.415 59.6319 143.084 59.6319C142.767 59.6319 142.489 59.5572 142.251 59.4079C142.018 59.2585 141.836 59.0509 141.705 58.7849C141.574 58.5142 141.509 58.1992 141.509 57.8399C141.509 57.4759 141.577 57.1585 141.712 56.8879C141.847 56.6172 142.036 56.4072 142.279 56.2579C142.526 56.1039 142.813 56.0269 143.14 56.0269C143.476 56.0269 143.751 56.1085 143.966 56.2719C144.185 56.4305 144.321 56.6522 144.372 56.9369L144.316 56.9439V56.0969H145.177V59.5199C145.177 60.0285 145.011 60.4299 144.68 60.7239C144.353 61.0225 143.905 61.1719 143.336 61.1719ZM143.371 58.9319C143.656 58.9319 143.882 58.8362 144.05 58.6449C144.223 58.4489 144.309 58.1759 144.309 57.8259C144.309 57.4759 144.223 57.2052 144.05 57.0139C143.877 56.8225 143.649 56.7269 143.364 56.7269C143.084 56.7269 142.858 56.8249 142.685 57.0209C142.512 57.2122 142.426 57.4829 142.426 57.8329C142.426 58.1829 142.512 58.4535 142.685 58.6449C142.858 58.8362 143.086 58.9319 143.371 58.9319ZM147.719 59.7369C147.341 59.7369 147.009 59.6575 146.725 59.4989C146.445 59.3402 146.225 59.1209 146.067 58.8409C145.913 58.5609 145.836 58.2389 145.836 57.8749C145.836 57.5109 145.913 57.1912 146.067 56.9159C146.225 56.6359 146.445 56.4189 146.725 56.2649C147.005 56.1062 147.331 56.0269 147.705 56.0269C148.059 56.0269 148.367 56.1015 148.629 56.2509C148.89 56.3955 149.093 56.6009 149.238 56.8669C149.382 57.1329 149.455 57.4432 149.455 57.7979C149.455 57.8632 149.452 57.9239 149.448 57.9799C149.443 58.0359 149.436 58.0919 149.427 58.1479H146.382V57.5319H148.748L148.566 57.6999C148.566 57.3639 148.489 57.1119 148.335 56.9439C148.181 56.7759 147.966 56.6919 147.691 56.6919C147.392 56.6919 147.154 56.7945 146.977 56.9999C146.804 57.2052 146.718 57.5015 146.718 57.8889C146.718 58.2715 146.804 58.5655 146.977 58.7709C147.154 58.9715 147.404 59.0719 147.726 59.0719C147.912 59.0719 148.076 59.0369 148.216 58.9669C148.356 58.8969 148.458 58.7895 148.524 58.6449H149.357C149.24 58.9809 149.042 59.2469 148.762 59.4429C148.486 59.6389 148.139 59.7369 147.719 59.7369ZM153.05 59.6669L151.195 54.6269H152.147L153.666 59.0229H153.512L155.031 54.6269H155.934L154.086 59.6669H153.05ZM156.506 59.6669V56.0969H157.388V59.6669H156.506ZM156.464 55.5089V54.5359H157.423V55.5089H156.464ZM159.676 59.7369C159.181 59.7369 158.787 59.6342 158.493 59.4289C158.199 59.2189 158.038 58.9295 158.01 58.5609H158.815C158.838 58.7429 158.925 58.8805 159.074 58.9739C159.223 59.0672 159.424 59.1139 159.676 59.1139C159.905 59.1139 160.075 59.0789 160.187 59.0089C160.304 58.9342 160.362 58.8292 160.362 58.6939C160.362 58.5959 160.329 58.5165 160.264 58.4559C160.199 58.3905 160.075 58.3369 159.893 58.2949L159.319 58.1619C158.927 58.0779 158.635 57.9472 158.444 57.7699C158.257 57.5879 158.164 57.3615 158.164 57.0909C158.164 56.7595 158.29 56.5005 158.542 56.3139C158.799 56.1225 159.151 56.0269 159.599 56.0269C160.042 56.0269 160.397 56.1225 160.663 56.3139C160.934 56.5005 161.083 56.7595 161.111 57.0909H160.306C160.283 56.9462 160.208 56.8365 160.082 56.7619C159.961 56.6872 159.793 56.6499 159.578 56.6499C159.377 56.6499 159.226 56.6825 159.123 56.7479C159.02 56.8085 158.969 56.8995 158.969 57.0209C158.969 57.1142 159.009 57.1935 159.088 57.2589C159.167 57.3195 159.3 57.3732 159.487 57.4199L160.103 57.5599C160.453 57.6392 160.717 57.7769 160.894 57.9729C161.076 58.1689 161.167 58.3999 161.167 58.6659C161.167 59.0065 161.036 59.2702 160.775 59.4569C160.514 59.6435 160.147 59.7369 159.676 59.7369ZM161.791 59.6669V56.0969H162.673V59.6669H161.791ZM161.749 55.5089V54.5359H162.708V55.5089H161.749ZM165.171 59.7369C164.732 59.7369 164.408 59.6342 164.198 59.4289C163.993 59.2189 163.89 58.9062 163.89 58.4909V55.2849L164.779 54.9559V58.5119C164.779 58.6845 164.826 58.8129 164.919 58.8969C165.012 58.9809 165.159 59.0229 165.36 59.0229C165.439 59.0229 165.509 59.0182 165.57 59.0089C165.635 58.9949 165.696 58.9785 165.752 58.9599V59.6459C165.696 59.6739 165.617 59.6949 165.514 59.7089C165.411 59.7275 165.297 59.7369 165.171 59.7369ZM163.204 56.7899V56.0969H165.752V56.7899H163.204ZM167.742 59.7369C167.248 59.7369 166.853 59.6342 166.559 59.4289C166.265 59.2189 166.104 58.9295 166.076 58.5609H166.881C166.905 58.7429 166.991 58.8805 167.14 58.9739C167.29 59.0672 167.49 59.1139 167.742 59.1139C167.971 59.1139 168.141 59.0789 168.253 59.0089C168.37 58.9342 168.428 58.8292 168.428 58.6939C168.428 58.5959 168.396 58.5165 168.33 58.4559C168.265 58.3905 168.141 58.3369 167.959 58.2949L167.385 58.1619C166.993 58.0779 166.702 57.9472 166.51 57.7699C166.324 57.5879 166.23 57.3615 166.23 57.0909C166.23 56.7595 166.356 56.5005 166.608 56.3139C166.865 56.1225 167.217 56.0269 167.665 56.0269C168.109 56.0269 168.463 56.1225 168.729 56.3139C169 56.5005 169.149 56.7595 169.177 57.0909H168.372C168.349 56.9462 168.274 56.8365 168.148 56.7619C168.027 56.6872 167.859 56.6499 167.644 56.6499C167.444 56.6499 167.292 56.6825 167.189 56.7479C167.087 56.8085 167.035 56.8995 167.035 57.0209C167.035 57.1142 167.075 57.1935 167.154 57.2589C167.234 57.3195 167.367 57.3732 167.553 57.4199L168.169 57.5599C168.519 57.6392 168.783 57.7769 168.96 57.9729C169.142 58.1689 169.233 58.3999 169.233 58.6659C169.233 59.0065 169.103 59.2702 168.841 59.4569C168.58 59.6435 168.214 59.7369 167.742 59.7369Z" fill="#7A8EAC"/>
<rect x="188.167" y="42.5" width="79.6667" height="30.3297" rx="5.382" fill="white"/>
<rect x="188.167" y="42.5" width="79.6667" height="30.3297" rx="5.382" stroke="#E4E7EC"/>
<circle cx="202.5" cy="57.6649" r="7.66487" fill="white" stroke="#DEE1E6" stroke-width="2.55003"/>
<path d="M205.375 60.7025C206.962 59.1151 206.962 56.5413 205.375 54.9539C203.787 53.3664 201.213 53.3664 199.626 54.9539C198.039 56.5413 198.039 59.1151 199.626 60.7025C201.213 62.29 203.787 62.29 205.375 60.7025Z" fill="#E6E6FF" stroke="#344054" stroke-width="0.79093" stroke-miterlimit="10"/>
<path d="M203.963 57.481C204.327 57.481 204.622 57.1862 204.622 56.8225C204.622 56.4587 204.327 56.1639 203.963 56.1639C203.599 56.1639 203.305 56.4587 203.305 56.8225C203.305 57.1862 203.599 57.481 203.963 57.481Z" fill="#344054"/>
<path d="M201.003 57.481C201.367 57.481 201.662 57.1862 201.662 56.8225C201.662 56.4587 201.367 56.1639 201.003 56.1639C200.64 56.1639 200.345 56.4587 200.345 56.8225C200.345 57.1862 200.64 57.481 201.003 57.481Z" fill="#344054"/>
<path d="M201.037 59.4951H203.963" stroke="#344054" stroke-width="0.7118" stroke-miterlimit="10"/>
<path d="M202.5 65.3297C206.733 65.3297 210.165 61.8981 210.165 57.6649C210.165 53.4317 206.733 50 202.5 50" stroke="#FFAD05" stroke-width="2.55003"/>
<path d="M217.216 59.6649L215.361 54.6249H216.313L217.832 59.0209H217.678L219.197 54.6249H220.1L218.252 59.6649H217.216ZM220.672 59.6649V56.0949H221.554V59.6649H220.672ZM220.63 55.5069V54.5339H221.589V55.5069H220.63ZM223.842 59.7349C223.347 59.7349 222.953 59.6322 222.659 59.4269C222.365 59.2169 222.204 58.9275 222.176 58.5589H222.981C223.004 58.7409 223.09 58.8785 223.24 58.9719C223.389 59.0652 223.59 59.1119 223.842 59.1119C224.07 59.1119 224.241 59.0769 224.353 59.0069C224.469 58.9322 224.528 58.8272 224.528 58.6919C224.528 58.5939 224.495 58.5145 224.43 58.4539C224.364 58.3885 224.241 58.3349 224.059 58.2929L223.485 58.1599C223.093 58.0759 222.801 57.9452 222.61 57.7679C222.423 57.5859 222.33 57.3595 222.33 57.0889C222.33 56.7575 222.456 56.4985 222.708 56.3119C222.964 56.1205 223.317 56.0249 223.765 56.0249C224.208 56.0249 224.563 56.1205 224.829 56.3119C225.099 56.4985 225.249 56.7575 225.277 57.0889H224.472C224.448 56.9442 224.374 56.8345 224.248 56.7599C224.126 56.6852 223.958 56.6479 223.744 56.6479C223.543 56.6479 223.391 56.6805 223.289 56.7459C223.186 56.8065 223.135 56.8975 223.135 57.0189C223.135 57.1122 223.174 57.1915 223.254 57.2569C223.333 57.3175 223.466 57.3712 223.653 57.4179L224.269 57.5579C224.619 57.6372 224.882 57.7749 225.06 57.9709C225.242 58.1669 225.333 58.3979 225.333 58.6639C225.333 59.0045 225.202 59.2682 224.941 59.4549C224.679 59.6415 224.313 59.7349 223.842 59.7349ZM225.956 59.6649V56.0949H226.838V59.6649H225.956ZM225.914 55.5069V54.5339H226.873V55.5069H225.914ZM229.337 59.7349C228.898 59.7349 228.574 59.6322 228.364 59.4269C228.158 59.2169 228.056 58.9042 228.056 58.4889V55.2829L228.945 54.9539V58.5099C228.945 58.6825 228.991 58.8109 229.085 58.8949C229.178 58.9789 229.325 59.0209 229.526 59.0209C229.605 59.0209 229.675 59.0162 229.736 59.0069C229.801 58.9929 229.862 58.9765 229.918 58.9579V59.6439C229.862 59.6719 229.782 59.6929 229.68 59.7069C229.577 59.7255 229.463 59.7349 229.337 59.7349ZM227.37 56.7879V56.0949H229.918V56.7879H227.37ZM232.449 59.6649V58.9369H233.751C234.133 58.9369 234.46 58.8599 234.731 58.7059C235.001 58.5519 235.207 58.3372 235.347 58.0619C235.491 57.7865 235.564 57.4715 235.564 57.1169C235.564 56.7669 235.491 56.4589 235.347 56.1929C235.207 55.9269 235.001 55.7215 234.731 55.5769C234.465 55.4275 234.138 55.3529 233.751 55.3529H232.463V54.6249H233.751C234.301 54.6249 234.782 54.7275 235.193 54.9329C235.603 55.1382 235.921 55.4299 236.145 55.8079C236.373 56.1812 236.488 56.6222 236.488 57.1309C236.488 57.6395 236.373 58.0852 236.145 58.4679C235.916 58.8459 235.596 59.1399 235.186 59.3499C234.78 59.5599 234.304 59.6649 233.758 59.6649H232.449ZM231.896 59.6649V54.6249H232.806V59.6649H231.896ZM238.336 59.7349C238.088 59.7349 237.874 59.6835 237.692 59.5809C237.514 59.4735 237.377 59.3289 237.279 59.1469C237.185 58.9649 237.139 58.7595 237.139 58.5309V56.0949H238.021V58.3489C238.021 58.5682 238.074 58.7339 238.182 58.8459C238.294 58.9579 238.45 59.0139 238.651 59.0139C238.833 59.0139 238.991 58.9719 239.127 58.8879C239.267 58.8039 239.376 58.6872 239.456 58.5379C239.54 58.3839 239.582 58.2112 239.582 58.0199L239.673 58.8739C239.556 59.1352 239.381 59.3452 239.148 59.5039C238.919 59.6579 238.648 59.7349 238.336 59.7349ZM239.61 59.6649V58.8249H239.582V56.0949H240.471V59.6649H239.61ZM241.405 59.6649V56.0949H242.266V56.9559H242.287V59.6649H241.405ZM242.287 57.8029L242.196 56.9559C242.28 56.6525 242.423 56.4215 242.623 56.2629C242.824 56.1042 243.064 56.0249 243.344 56.0249C243.442 56.0249 243.512 56.0342 243.554 56.0529V56.8859C243.531 56.8765 243.498 56.8719 243.456 56.8719C243.414 56.8672 243.363 56.8649 243.302 56.8649C242.962 56.8649 242.707 56.9395 242.539 57.0889C242.371 57.2382 242.287 57.4762 242.287 57.8029ZM246.236 59.6649C246.213 59.5715 246.194 59.4689 246.18 59.3569C246.171 59.2449 246.166 59.1095 246.166 58.9509H246.138V57.2569C246.138 57.0702 246.084 56.9302 245.977 56.8369C245.874 56.7389 245.716 56.6899 245.501 56.6899C245.291 56.6899 245.123 56.7295 244.997 56.8089C244.876 56.8835 244.801 56.9932 244.773 57.1379H243.926C243.963 56.8065 244.122 56.5382 244.402 56.3329C244.682 56.1275 245.058 56.0249 245.529 56.0249C246.019 56.0249 246.39 56.1369 246.642 56.3609C246.894 56.5802 247.02 56.9045 247.02 57.3339V58.9509C247.02 59.0629 247.027 59.1772 247.041 59.2939C247.06 59.4105 247.085 59.5342 247.118 59.6649H246.236ZM244.997 59.7349C244.638 59.7349 244.351 59.6462 244.136 59.4689C243.926 59.2869 243.821 59.0442 243.821 58.7409C243.821 58.4142 243.94 58.1552 244.178 57.9639C244.416 57.7725 244.752 57.6442 245.186 57.5789L246.299 57.4109V57.9709L245.333 58.1179C245.123 58.1505 244.964 58.2089 244.857 58.2929C244.754 58.3769 244.703 58.4935 244.703 58.6429C244.703 58.7782 244.752 58.8832 244.85 58.9579C244.948 59.0279 245.083 59.0629 245.256 59.0629C245.508 59.0629 245.718 58.9999 245.886 58.8739C246.054 58.7479 246.138 58.5939 246.138 58.4119L246.236 58.9509C246.143 59.2075 245.989 59.4035 245.774 59.5389C245.564 59.6695 245.305 59.7349 244.997 59.7349ZM249.325 59.7349C248.886 59.7349 248.562 59.6322 248.352 59.4269C248.146 59.2169 248.044 58.9042 248.044 58.4889V55.2829L248.933 54.9539V58.5099C248.933 58.6825 248.979 58.8109 249.073 58.8949C249.166 58.9789 249.313 59.0209 249.514 59.0209C249.593 59.0209 249.663 59.0162 249.724 59.0069C249.789 58.9929 249.85 58.9765 249.906 58.9579V59.6439C249.85 59.6719 249.77 59.6929 249.668 59.7069C249.565 59.7255 249.451 59.7349 249.325 59.7349ZM247.358 56.7879V56.0949H249.906V56.7879H247.358ZM250.545 59.6649V56.0949H251.427V59.6649H250.545ZM250.503 55.5069V54.5339H251.462V55.5069H250.503ZM253.974 59.7349C253.596 59.7349 253.262 59.6555 252.973 59.4969C252.688 59.3382 252.466 59.1189 252.308 58.8389C252.149 58.5542 252.07 58.2299 252.07 57.8659C252.07 57.5019 252.149 57.1822 252.308 56.9069C252.466 56.6315 252.688 56.4169 252.973 56.2629C253.262 56.1042 253.596 56.0249 253.974 56.0249C254.356 56.0249 254.69 56.1042 254.975 56.2629C255.259 56.4169 255.481 56.6315 255.64 56.9069C255.798 57.1822 255.878 57.5019 255.878 57.8659C255.878 58.2299 255.796 58.5542 255.633 58.8389C255.474 59.1189 255.252 59.3382 254.968 59.4969C254.683 59.6555 254.352 59.7349 253.974 59.7349ZM253.974 59.0279C254.16 59.0279 254.328 58.9812 254.478 58.8879C254.627 58.7899 254.744 58.6545 254.828 58.4819C254.912 58.3045 254.954 58.0969 254.954 57.8589C254.954 57.5089 254.86 57.2335 254.674 57.0329C254.492 56.8322 254.258 56.7319 253.974 56.7319C253.689 56.7319 253.453 56.8322 253.267 57.0329C253.08 57.2335 252.987 57.5089 252.987 57.8589C252.987 58.0969 253.029 58.3045 253.113 58.4819C253.201 58.6545 253.318 58.7899 253.463 58.8879C253.612 58.9812 253.782 59.0279 253.974 59.0279ZM256.527 59.6649V56.0949H257.388V56.9349H257.409V59.6649H256.527ZM259.033 59.6649V57.4109C259.033 57.1915 258.977 57.0259 258.865 56.9139C258.753 56.8019 258.589 56.7459 258.375 56.7459C258.188 56.7459 258.02 56.7879 257.871 56.8719C257.726 56.9559 257.612 57.0725 257.528 57.2219C257.448 57.3712 257.409 57.5439 257.409 57.7399L257.318 56.8859C257.439 56.6245 257.616 56.4169 257.85 56.2629C258.083 56.1042 258.363 56.0249 258.69 56.0249C259.077 56.0249 259.378 56.1345 259.593 56.3539C259.812 56.5732 259.922 56.8649 259.922 57.2289V59.6649H259.033Z" fill="#7A8EAC"/>
<rect x="274.833" y="42.5" width="79.6667" height="30.33" rx="5.382" fill="white"/>
<rect x="274.833" y="42.5" width="79.6667" height="30.33" rx="5.382" stroke="#E4E7EC"/>
<circle cx="291.167" cy="57.665" r="7.665" fill="white" stroke="#DEE1E6" stroke-width="2.941"/>
<path d="M293.815 60.2796C295.273 58.8214 295.273 56.4574 293.815 54.9992C292.356 53.5411 289.992 53.5411 288.534 54.9992C287.076 56.4574 287.076 58.8214 288.534 60.2796C289.992 61.7377 292.356 61.7377 293.815 60.2796Z" fill="#E6E6FF" stroke="#344054" stroke-width="0.964172" stroke-miterlimit="10"/>
<path d="M292.518 57.4131C292.852 57.4131 293.123 57.1423 293.123 56.8082C293.123 56.4741 292.852 56.2032 292.518 56.2032C292.184 56.2032 291.913 56.4741 291.913 56.8082C291.913 57.1423 292.184 57.4131 292.518 57.4131Z" fill="#344054"/>
<path d="M289.799 57.4131C290.133 57.4131 290.404 57.1423 290.404 56.8082C290.404 56.4741 290.133 56.2032 289.799 56.2032C289.465 56.2032 289.194 56.4741 289.194 56.8082C289.194 57.1423 289.465 57.4131 289.799 57.4131Z" fill="#344054"/>
<path d="M289.831 59.2633C290.726 58.9605 291.622 58.9605 292.518 59.2633" stroke="#344054" stroke-width="0.86771" stroke-miterlimit="10"/>
<path d="M291.167 50C295.4 50 298.832 53.4317 298.832 57.665C298.832 59.7192 298.024 61.5846 296.708 62.9608" stroke="#EF3826" stroke-width="2.941"/>
<path d="M304.98 59.665V58.993H306.387C306.643 58.993 306.842 58.923 306.982 58.783C307.122 58.6383 307.192 58.4423 307.192 58.195C307.192 57.9383 307.117 57.7353 306.968 57.586C306.818 57.4366 306.611 57.362 306.345 57.362H304.98V56.69H306.282C306.534 56.69 306.727 56.6293 306.863 56.508C306.998 56.3866 307.066 56.2116 307.066 55.983C307.066 55.759 307 55.5886 306.87 55.472C306.744 55.3553 306.557 55.297 306.31 55.297H304.98V54.625H306.478C306.93 54.625 307.292 54.7393 307.563 54.968C307.838 55.192 307.976 55.4976 307.976 55.885C307.976 56.1276 307.917 56.34 307.801 56.522C307.689 56.6993 307.537 56.837 307.346 56.935C307.154 57.033 306.937 57.082 306.695 57.082L306.73 56.935C306.986 56.935 307.22 56.9933 307.43 57.11C307.64 57.222 307.805 57.3806 307.927 57.586C308.053 57.7913 308.116 58.0293 308.116 58.3C308.116 58.5753 308.05 58.8156 307.92 59.021C307.794 59.2263 307.614 59.385 307.381 59.497C307.152 59.609 306.881 59.665 306.569 59.665H304.98ZM304.266 59.665V54.625H305.176V59.665H304.266ZM310.436 59.735C310.058 59.735 309.725 59.6556 309.435 59.497C309.151 59.3383 308.929 59.119 308.77 58.839C308.612 58.5543 308.532 58.23 308.532 57.866C308.532 57.502 308.612 57.1823 308.77 56.907C308.929 56.6316 309.151 56.417 309.435 56.263C309.725 56.1043 310.058 56.025 310.436 56.025C310.819 56.025 311.153 56.1043 311.437 56.263C311.722 56.417 311.944 56.6316 312.102 56.907C312.261 57.1823 312.34 57.502 312.34 57.866C312.34 58.23 312.259 58.5543 312.095 58.839C311.937 59.119 311.715 59.3383 311.43 59.497C311.146 59.6556 310.814 59.735 310.436 59.735ZM310.436 59.028C310.623 59.028 310.791 58.9813 310.94 58.888C311.09 58.79 311.206 58.6546 311.29 58.482C311.374 58.3046 311.416 58.097 311.416 57.859C311.416 57.509 311.323 57.2336 311.136 57.033C310.954 56.8323 310.721 56.732 310.436 56.732C310.152 56.732 309.916 56.8323 309.729 57.033C309.543 57.2336 309.449 57.509 309.449 57.859C309.449 58.097 309.491 58.3046 309.575 58.482C309.664 58.6546 309.781 58.79 309.925 58.888C310.075 58.9813 310.245 59.028 310.436 59.028ZM314.144 59.735C313.897 59.735 313.682 59.6836 313.5 59.581C313.323 59.4736 313.185 59.329 313.087 59.147C312.994 58.965 312.947 58.7596 312.947 58.531V56.095H313.829V58.349C313.829 58.5683 313.883 58.734 313.99 58.846C314.102 58.958 314.258 59.014 314.459 59.014C314.641 59.014 314.8 58.972 314.935 58.888C315.075 58.804 315.185 58.6873 315.264 58.538C315.348 58.384 315.39 58.2113 315.39 58.02L315.481 58.874C315.364 59.1353 315.189 59.3453 314.956 59.504C314.727 59.658 314.457 59.735 314.144 59.735ZM315.418 59.665V58.825H315.39V56.095H316.279V59.665H315.418ZM317.214 59.665V56.095H318.075V56.935H318.096V59.665H317.214ZM319.72 59.665V57.411C319.72 57.1916 319.664 57.026 319.552 56.914C319.44 56.802 319.276 56.746 319.062 56.746C318.875 56.746 318.707 56.788 318.558 56.872C318.413 56.956 318.299 57.0726 318.215 57.222C318.135 57.3713 318.096 57.544 318.096 57.74L318.005 56.886C318.126 56.6246 318.303 56.417 318.537 56.263C318.77 56.1043 319.05 56.025 319.377 56.025C319.764 56.025 320.065 56.1346 320.28 56.354C320.499 56.5733 320.609 56.865 320.609 57.229V59.665H319.72ZM323.047 59.735C322.688 59.735 322.37 59.6556 322.095 59.497C321.824 59.3383 321.61 59.119 321.451 58.839C321.297 58.5543 321.22 58.2323 321.22 57.873C321.22 57.5136 321.297 57.1963 321.451 56.921C321.61 56.641 321.824 56.4216 322.095 56.263C322.37 56.1043 322.688 56.025 323.047 56.025C323.341 56.025 323.607 56.081 323.845 56.193C324.083 56.3003 324.279 56.4543 324.433 56.655C324.587 56.851 324.685 57.0796 324.727 57.341H323.88C323.829 57.1496 323.731 57.0003 323.586 56.893C323.441 56.7856 323.266 56.732 323.061 56.732C322.87 56.732 322.704 56.7786 322.564 56.872C322.429 56.9653 322.324 57.0983 322.249 57.271C322.174 57.4436 322.137 57.6443 322.137 57.873C322.137 58.1063 322.174 58.3093 322.249 58.482C322.324 58.6546 322.431 58.79 322.571 58.888C322.711 58.9813 322.874 59.028 323.061 59.028C323.266 59.028 323.441 58.9743 323.586 58.867C323.731 58.7596 323.829 58.6103 323.88 58.419H324.727C324.685 58.6803 324.585 58.9113 324.426 59.112C324.272 59.308 324.076 59.462 323.838 59.574C323.605 59.6813 323.341 59.735 323.047 59.735ZM326.945 59.735C326.567 59.735 326.235 59.6556 325.951 59.497C325.671 59.3383 325.451 59.119 325.293 58.839C325.139 58.559 325.062 58.237 325.062 57.873C325.062 57.509 325.139 57.1893 325.293 56.914C325.451 56.634 325.671 56.417 325.951 56.263C326.231 56.1043 326.557 56.025 326.931 56.025C327.285 56.025 327.593 56.0996 327.855 56.249C328.116 56.3936 328.319 56.599 328.464 56.865C328.608 57.131 328.681 57.4413 328.681 57.796C328.681 57.8613 328.678 57.922 328.674 57.978C328.669 58.034 328.662 58.09 328.653 58.146H325.608V57.53H327.974L327.792 57.698C327.792 57.362 327.715 57.11 327.561 56.942C327.407 56.774 327.192 56.69 326.917 56.69C326.618 56.69 326.38 56.7926 326.203 56.998C326.03 57.2033 325.944 57.4996 325.944 57.887C325.944 58.2696 326.03 58.5636 326.203 58.769C326.38 58.9696 326.63 59.07 326.952 59.07C327.138 59.07 327.302 59.035 327.442 58.965C327.582 58.895 327.684 58.7876 327.75 58.643H328.583C328.466 58.979 328.268 59.245 327.988 59.441C327.712 59.637 327.365 59.735 326.945 59.735ZM330.638 59.665V54.625H332.766C333.126 54.625 333.438 54.6856 333.704 54.807C333.97 54.9283 334.173 55.0986 334.313 55.318C334.458 55.5373 334.53 55.794 334.53 56.088C334.53 56.3773 334.458 56.6316 334.313 56.851C334.173 57.0703 333.97 57.2406 333.704 57.362C333.438 57.4833 333.126 57.544 332.766 57.544H331.352V56.851H332.738C333.032 56.851 333.256 56.7833 333.41 56.648C333.569 56.5126 333.648 56.326 333.648 56.088C333.648 55.85 333.571 55.668 333.417 55.542C333.263 55.4113 333.037 55.346 332.738 55.346H331.548V59.665H330.638ZM333.522 59.665L331.275 57.089H332.297L334.782 59.665H333.522ZM337.398 59.665C337.374 59.5716 337.356 59.469 337.342 59.357C337.332 59.245 337.328 59.1096 337.328 58.951H337.3V57.257C337.3 57.0703 337.246 56.9303 337.139 56.837C337.036 56.739 336.877 56.69 336.663 56.69C336.453 56.69 336.285 56.7296 336.159 56.809C336.037 56.8836 335.963 56.9933 335.935 57.138H335.088C335.125 56.8066 335.284 56.5383 335.564 56.333C335.844 56.1276 336.219 56.025 336.691 56.025C337.181 56.025 337.552 56.137 337.804 56.361C338.056 56.5803 338.182 56.9046 338.182 57.334V58.951C338.182 59.063 338.189 59.1773 338.203 59.294C338.221 59.4106 338.247 59.5343 338.28 59.665H337.398ZM336.159 59.735C335.799 59.735 335.512 59.6463 335.298 59.469C335.088 59.287 334.983 59.0443 334.983 58.741C334.983 58.4143 335.102 58.1553 335.34 57.964C335.578 57.7726 335.914 57.6443 336.348 57.579L337.461 57.411V57.971L336.495 58.118C336.285 58.1506 336.126 58.209 336.019 58.293C335.916 58.377 335.865 58.4936 335.865 58.643C335.865 58.7783 335.914 58.8833 336.012 58.958C336.11 59.028 336.245 59.063 336.418 59.063C336.67 59.063 336.88 59 337.048 58.874C337.216 58.748 337.3 58.594 337.3 58.412L337.398 58.951C337.304 59.2076 337.15 59.4036 336.936 59.539C336.726 59.6696 336.467 59.735 336.159 59.735ZM340.487 59.735C340.048 59.735 339.724 59.6323 339.514 59.427C339.308 59.217 339.206 58.9043 339.206 58.489V55.283L340.095 54.954V58.51C340.095 58.6826 340.141 58.811 340.235 58.895C340.328 58.979 340.475 59.021 340.676 59.021C340.755 59.021 340.825 59.0163 340.886 59.007C340.951 58.993 341.012 58.9766 341.068 58.958V59.644C341.012 59.672 340.932 59.693 340.83 59.707C340.727 59.7256 340.613 59.735 340.487 59.735ZM338.52 56.788V56.095H341.068V56.788H338.52ZM343.221 59.735C342.843 59.735 342.512 59.6556 342.227 59.497C341.947 59.3383 341.728 59.119 341.569 58.839C341.415 58.559 341.338 58.237 341.338 57.873C341.338 57.509 341.415 57.1893 341.569 56.914C341.728 56.634 341.947 56.417 342.227 56.263C342.507 56.1043 342.834 56.025 343.207 56.025C343.562 56.025 343.87 56.0996 344.131 56.249C344.392 56.3936 344.595 56.599 344.74 56.865C344.885 57.131 344.957 57.4413 344.957 57.796C344.957 57.8613 344.955 57.922 344.95 57.978C344.945 58.034 344.938 58.09 344.929 58.146H341.884V57.53H344.25L344.068 57.698C344.068 57.362 343.991 57.11 343.837 56.942C343.683 56.774 343.468 56.69 343.193 56.69C342.894 56.69 342.656 56.7926 342.479 56.998C342.306 57.2033 342.22 57.4996 342.22 57.887C342.22 58.2696 342.306 58.5636 342.479 58.769C342.656 58.9696 342.906 59.07 343.228 59.07C343.415 59.07 343.578 59.035 343.718 58.965C343.858 58.895 343.961 58.7876 344.026 58.643H344.859C344.742 58.979 344.544 59.245 344.264 59.441C343.989 59.637 343.641 59.735 343.221 59.735Z" fill="#7A8EAC"/>
<rect x="101.5" y="78.8337" width="253" height="193" rx="7.5" fill="white"/>
<rect x="101.5" y="78.8337" width="253" height="193" rx="7.5" stroke="#E4E7EC"/>
<path d="M110.37 95.3337L108.473 90.2937H109.257L110.923 94.8857H110.734L112.4 90.2937H113.142L111.238 95.3337H110.37ZM113.924 95.3337V91.7637H114.652V95.3337H113.924ZM113.889 91.0637V90.2447H114.694V91.0637H113.889ZM117.095 95.4037C116.629 95.4037 116.258 95.3011 115.982 95.0957C115.707 94.8904 115.551 94.6011 115.513 94.2277H116.185C116.218 94.4331 116.311 94.5917 116.465 94.7037C116.624 94.8111 116.839 94.8647 117.109 94.8647C117.347 94.8647 117.529 94.8227 117.655 94.7387C117.781 94.6547 117.844 94.5357 117.844 94.3817C117.844 94.2697 117.807 94.1764 117.732 94.1017C117.662 94.0224 117.522 93.9571 117.312 93.9057L116.738 93.7727C116.379 93.6841 116.111 93.5534 115.933 93.3807C115.761 93.2034 115.674 92.9864 115.674 92.7297C115.674 92.4077 115.793 92.1557 116.031 91.9737C116.274 91.7871 116.605 91.6937 117.025 91.6937C117.441 91.6937 117.774 91.7871 118.026 91.9737C118.283 92.1604 118.428 92.4217 118.46 92.7577H117.788C117.76 92.5897 117.679 92.4614 117.543 92.3727C117.413 92.2794 117.233 92.2327 117.004 92.2327C116.79 92.2327 116.624 92.2724 116.507 92.3517C116.395 92.4264 116.339 92.5314 116.339 92.6667C116.339 92.7787 116.381 92.8721 116.465 92.9467C116.554 93.0214 116.699 93.0844 116.899 93.1357L117.487 93.2827C117.828 93.3667 118.085 93.5044 118.257 93.6957C118.43 93.8824 118.516 94.1087 118.516 94.3747C118.516 94.6967 118.39 94.9487 118.138 95.1307C117.891 95.3127 117.543 95.4037 117.095 95.4037ZM119.365 95.3337V91.7637H120.093V95.3337H119.365ZM119.33 91.0637V90.2447H120.135V91.0637H119.33ZM123.159 95.3967C122.823 95.3967 122.543 95.3174 122.319 95.1587C122.095 94.9954 121.948 94.7691 121.878 94.4797L121.948 94.4657V95.3337H121.255V90.2937H121.983V92.5827L121.906 92.5617C121.986 92.2911 122.14 92.0787 122.368 91.9247C122.602 91.7707 122.882 91.6937 123.208 91.6937C123.53 91.6937 123.808 91.7707 124.041 91.9247C124.279 92.0787 124.461 92.2934 124.587 92.5687C124.718 92.8441 124.783 93.1661 124.783 93.5347C124.783 93.9081 124.716 94.2347 124.58 94.5147C124.445 94.7947 124.256 95.0117 124.013 95.1657C123.771 95.3197 123.486 95.3967 123.159 95.3967ZM123.005 94.7947C123.323 94.7947 123.575 94.6827 123.761 94.4587C123.948 94.2347 124.041 93.9267 124.041 93.5347C124.041 93.1474 123.948 92.8464 123.761 92.6317C123.575 92.4124 123.32 92.3027 122.998 92.3027C122.681 92.3027 122.427 92.4147 122.235 92.6387C122.049 92.8581 121.955 93.1637 121.955 93.5557C121.955 93.9384 122.049 94.2417 122.235 94.4657C122.427 94.6851 122.683 94.7947 123.005 94.7947ZM125.668 95.3337V91.7637H126.396V95.3337H125.668ZM125.633 91.0637V90.2447H126.438V91.0637H125.633ZM127.558 95.3337V90.2937H128.286V95.3337H127.558ZM129.448 95.3337V91.7637H130.176V95.3337H129.448ZM129.413 91.0637V90.2447H130.218V91.0637H129.413ZM132.83 95.4037C132.414 95.4037 132.109 95.3081 131.913 95.1167C131.721 94.9207 131.626 94.6337 131.626 94.2557V90.9447L132.347 90.6717V94.2627C132.347 94.4494 132.396 94.5871 132.494 94.6757C132.592 94.7644 132.75 94.8087 132.97 94.8087C133.054 94.8087 133.128 94.8017 133.194 94.7877C133.259 94.7737 133.315 94.7574 133.362 94.7387V95.3267C133.31 95.3501 133.238 95.3687 133.145 95.3827C133.051 95.3967 132.946 95.4037 132.83 95.4037ZM130.912 92.3447V91.7637H133.362V92.3447H130.912ZM134.506 96.7687L135.367 94.8017L135.514 94.5707L136.599 91.7637H137.355L135.255 96.7687H134.506ZM135.332 95.3337L133.806 91.7637H134.597L135.892 94.9767L135.332 95.3337ZM141.866 95.4037C141.507 95.4037 141.178 95.3407 140.879 95.2147C140.581 95.0841 140.322 94.9021 140.102 94.6687C139.883 94.4354 139.71 94.1601 139.584 93.8427C139.463 93.5254 139.402 93.1754 139.402 92.7927C139.402 92.2887 139.507 91.8431 139.717 91.4557C139.927 91.0684 140.217 90.7674 140.585 90.5527C140.959 90.3334 141.383 90.2237 141.859 90.2237C142.345 90.2237 142.772 90.3334 143.14 90.5527C143.509 90.7674 143.798 91.0684 144.008 91.4557C144.223 91.8431 144.33 92.2911 144.33 92.7997C144.33 93.1777 144.267 93.5277 144.141 93.8497C144.02 94.1671 143.85 94.4424 143.63 94.6757C143.411 94.9044 143.15 95.0841 142.846 95.2147C142.548 95.3407 142.221 95.4037 141.866 95.4037ZM141.859 94.7737C142.195 94.7737 142.492 94.6897 142.748 94.5217C143.005 94.3491 143.206 94.1134 143.35 93.8147C143.5 93.5161 143.574 93.1731 143.574 92.7857C143.574 92.4031 143.502 92.0671 143.357 91.7777C143.213 91.4837 143.012 91.2574 142.755 91.0987C142.499 90.9354 142.2 90.8537 141.859 90.8537C141.519 90.8537 141.22 90.9354 140.963 91.0987C140.711 91.2574 140.513 91.4814 140.368 91.7707C140.228 92.0601 140.158 92.3984 140.158 92.7857C140.158 93.1777 140.231 93.5231 140.375 93.8217C140.52 94.1204 140.718 94.3537 140.97 94.5217C141.227 94.6897 141.523 94.7737 141.859 94.7737ZM146.277 95.3337L144.821 91.7637H145.598L146.788 95.0047H146.445L147.621 91.7637H148.37L146.921 95.3337H146.277ZM150.552 95.4037C150.192 95.4037 149.875 95.3244 149.6 95.1657C149.329 95.0071 149.117 94.7877 148.963 94.5077C148.809 94.2277 148.732 93.9057 148.732 93.5417C148.732 93.1731 148.806 92.8511 148.956 92.5757C149.11 92.2957 149.324 92.0787 149.6 91.9247C149.875 91.7707 150.19 91.6937 150.545 91.6937C150.89 91.6937 151.189 91.7684 151.441 91.9177C151.697 92.0624 151.893 92.2654 152.029 92.5267C152.169 92.7881 152.239 93.0984 152.239 93.4577C152.239 93.5137 152.236 93.5674 152.232 93.6187C152.232 93.6654 152.227 93.7144 152.218 93.7657H149.222V93.2197H151.707L151.525 93.4367C151.525 93.0541 151.438 92.7624 151.266 92.5617C151.093 92.3611 150.853 92.2607 150.545 92.2607C150.213 92.2607 149.95 92.3751 149.754 92.6037C149.562 92.8277 149.467 93.1404 149.467 93.5417C149.467 93.9477 149.562 94.2651 149.754 94.4937C149.95 94.7224 150.22 94.8367 150.566 94.8367C150.776 94.8367 150.958 94.7947 151.112 94.7107C151.266 94.6221 151.38 94.4937 151.455 94.3257H152.141C152.024 94.6617 151.826 94.9254 151.546 95.1167C151.27 95.3081 150.939 95.4037 150.552 95.4037ZM153.123 95.3337V91.7637H153.816V92.6527H153.851V95.3337H153.123ZM153.851 93.4717L153.76 92.6247C153.844 92.3214 153.989 92.0904 154.194 91.9317C154.4 91.7731 154.645 91.6937 154.929 91.6937C155.037 91.6937 155.111 91.7031 155.153 91.7217V92.4077C155.13 92.3984 155.097 92.3937 155.055 92.3937C155.013 92.3891 154.962 92.3867 154.901 92.3867C154.551 92.3867 154.288 92.4777 154.11 92.6597C153.938 92.8417 153.851 93.1124 153.851 93.4717ZM158.878 95.3337V90.9027H157.177V90.2937H161.321V90.9027H159.62V95.3337H158.878ZM162.122 95.3337V91.7637H162.85V95.3337H162.122ZM162.087 91.0637V90.2447H162.892V91.0637H162.087ZM164.012 95.3337V91.7637H164.705V92.6037H164.74V95.3337H164.012ZM166.42 95.3337V93.0027C166.42 92.7601 166.364 92.5827 166.252 92.4707C166.14 92.3587 165.979 92.3027 165.769 92.3027C165.573 92.3027 165.396 92.3494 165.237 92.4427C165.083 92.5314 164.962 92.6574 164.873 92.8207C164.785 92.9794 164.74 93.1684 164.74 93.3877L164.649 92.5547C164.766 92.2887 164.941 92.0787 165.174 91.9247C165.412 91.7707 165.678 91.6937 165.972 91.6937C166.327 91.6937 166.609 91.7964 166.819 92.0017C167.034 92.2071 167.141 92.4777 167.141 92.8137V95.3337H166.42ZM168.828 95.3337V93.0027C168.828 92.7601 168.77 92.5827 168.653 92.4707C168.541 92.3587 168.38 92.3027 168.17 92.3027C167.979 92.3027 167.804 92.3494 167.645 92.4427C167.491 92.5314 167.368 92.6574 167.274 92.8207C167.186 92.9794 167.141 93.1684 167.141 93.3877L166.994 92.5547C167.116 92.2887 167.298 92.0787 167.54 91.9247C167.788 91.7707 168.063 91.6937 168.366 91.6937C168.726 91.6937 169.013 91.7987 169.227 92.0087C169.442 92.2141 169.549 92.4894 169.549 92.8347V95.3337H168.828ZM172.207 95.4037C171.848 95.4037 171.53 95.3244 171.255 95.1657C170.984 95.0071 170.772 94.7877 170.618 94.5077C170.464 94.2277 170.387 93.9057 170.387 93.5417C170.387 93.1731 170.462 92.8511 170.611 92.5757C170.765 92.2957 170.98 92.0787 171.255 91.9247C171.53 91.7707 171.845 91.6937 172.2 91.6937C172.545 91.6937 172.844 91.7684 173.096 91.9177C173.353 92.0624 173.549 92.2654 173.684 92.5267C173.824 92.7881 173.894 93.0984 173.894 93.4577C173.894 93.5137 173.892 93.5674 173.887 93.6187C173.887 93.6654 173.882 93.7144 173.873 93.7657H170.877V93.2197H173.362L173.18 93.4367C173.18 93.0541 173.094 92.7624 172.921 92.5617C172.748 92.3611 172.508 92.2607 172.2 92.2607C171.869 92.2607 171.605 92.3751 171.409 92.6037C171.218 92.8277 171.122 93.1404 171.122 93.5417C171.122 93.9477 171.218 94.2651 171.409 94.4937C171.605 94.7224 171.876 94.8367 172.221 94.8367C172.431 94.8367 172.613 94.7947 172.767 94.7107C172.921 94.6221 173.035 94.4937 173.11 94.3257H173.796C173.679 94.6617 173.481 94.9254 173.201 95.1167C172.926 95.3081 172.594 95.4037 172.207 95.4037Z" fill="#7A8EAC"/>
<path d="M108.668 108.334V108.08L109.62 107.038C109.731 106.916 109.823 106.81 109.896 106.72C109.968 106.629 110.021 106.543 110.056 106.463C110.092 106.383 110.11 106.298 110.11 106.21C110.11 106.109 110.085 106.021 110.036 105.947C109.989 105.872 109.923 105.815 109.839 105.775C109.756 105.734 109.662 105.714 109.558 105.714C109.447 105.714 109.35 105.737 109.268 105.783C109.186 105.828 109.122 105.892 109.077 105.973C109.033 106.055 109.011 106.151 109.011 106.261H108.679C108.679 106.092 108.718 105.943 108.796 105.816C108.874 105.688 108.98 105.588 109.114 105.517C109.249 105.446 109.401 105.41 109.569 105.41C109.738 105.41 109.888 105.446 110.018 105.517C110.149 105.588 110.251 105.685 110.325 105.806C110.399 105.927 110.436 106.062 110.436 106.21C110.436 106.316 110.417 106.42 110.379 106.521C110.341 106.622 110.275 106.734 110.182 106.858C110.089 106.981 109.959 107.131 109.794 107.308L109.146 108.001V108.024H110.487V108.334H108.668ZM112.01 108.373C111.797 108.373 111.617 108.315 111.467 108.2C111.318 108.084 111.204 107.915 111.125 107.694C111.046 107.473 111.007 107.205 111.007 106.892C111.007 106.58 111.046 106.314 111.125 106.093C111.205 105.871 111.319 105.702 111.469 105.586C111.619 105.469 111.799 105.41 112.01 105.41C112.22 105.41 112.4 105.469 112.549 105.586C112.699 105.702 112.814 105.871 112.893 106.093C112.972 106.314 113.012 106.58 113.012 106.892C113.012 107.205 112.973 107.473 112.894 107.694C112.815 107.915 112.701 108.084 112.552 108.2C112.402 108.315 112.222 108.373 112.01 108.373ZM112.01 108.063C112.22 108.063 112.383 107.962 112.5 107.759C112.616 107.556 112.674 107.267 112.674 106.892C112.674 106.642 112.648 106.429 112.594 106.254C112.541 106.078 112.465 105.944 112.366 105.852C112.267 105.76 112.149 105.714 112.01 105.714C111.801 105.714 111.638 105.817 111.521 106.023C111.404 106.227 111.345 106.517 111.345 106.892C111.345 107.141 111.371 107.354 111.424 107.528C111.476 107.703 111.552 107.836 111.65 107.927C111.75 108.018 111.87 108.063 112.01 108.063Z" fill="#7A8EAC"/>
<path d="M112.01 197.281C111.797 197.281 111.617 197.224 111.467 197.108C111.318 196.992 111.204 196.823 111.125 196.603C111.046 196.381 111.007 196.114 111.007 195.8C111.007 195.488 111.046 195.222 111.125 195.001C111.205 194.78 111.319 194.611 111.469 194.494C111.619 194.377 111.799 194.318 112.01 194.318C112.22 194.318 112.4 194.377 112.549 194.494C112.699 194.611 112.814 194.78 112.893 195.001C112.972 195.222 113.012 195.488 113.012 195.8C113.012 196.114 112.973 196.381 112.894 196.603C112.815 196.823 112.701 196.992 112.552 197.108C112.402 197.224 112.222 197.281 112.01 197.281ZM112.01 196.972C112.22 196.972 112.383 196.87 112.5 196.667C112.616 196.465 112.674 196.175 112.674 195.8C112.674 195.55 112.648 195.338 112.594 195.162C112.541 194.986 112.465 194.853 112.366 194.761C112.267 194.669 112.149 194.623 112.01 194.623C111.801 194.623 111.638 194.725 111.521 194.931C111.404 195.136 111.345 195.425 111.345 195.8C111.345 196.05 111.371 196.262 111.424 196.436C111.476 196.611 111.552 196.744 111.65 196.835C111.75 196.926 111.87 196.972 112.01 196.972Z" fill="white"/>
<mask id="path-38-inside-1_1_13231" fill="white">
<path d="M118.537 104.334H323.196V198.334H118.537V104.334Z"/>
</mask>
<path d="M118.537 198.334H118.117V198.753H118.537V198.334ZM323.196 197.914H118.537V198.753H323.196V197.914ZM118.956 198.334V104.334H118.117V198.334H118.956Z" fill="#D0D5DD" mask="url(#path-38-inside-1_1_13231)"/>
<path d="M318.652 108.494H318.87V108.059H318.652V108.494ZM119.654 108.494H318.652V108.059H119.654V108.494Z" fill="#D0D5DD"/>
<path d="M318.966 123.592H319.184V123.156H318.966V123.592ZM119.654 123.592H318.966V123.156H119.654V123.592Z" fill="#D0D5DD"/>
<path d="M316.595 138.689H316.812V138.254H316.595V138.689ZM119.654 138.689H316.595V138.254H119.654V138.689Z" fill="#D0D5DD"/>
<path d="M318.652 153.787H318.87V153.352H318.652V153.787ZM119.654 153.787H318.652V153.352H119.654V153.787Z" fill="#D0D5DD"/>
<path d="M318.652 168.885H318.87V168.449H318.652V168.885ZM119.654 168.885H318.652V168.449H119.654V168.885Z" fill="#D0D5DD"/>
<path d="M318.652 183.982H318.87V183.547H318.652V183.982ZM119.654 183.982H318.652V183.547H119.654V183.982Z" fill="#D0D5DD"/>
<mask id="mask0_1_13231" style="mask-type:alpha" maskUnits="userSpaceOnUse" x="118" y="104" width="200" height="84">
<rect x="118.258" y="104.753" width="199.434" height="82.4668" fill="black"/>
</mask>
<g mask="url(#mask0_1_13231)">
<path d="M118.97 166.946L131.186 151.858C132.507 150.226 134.524 149.319 136.621 149.414L149.577 150L164.281 151.282C165.956 151.429 167.623 150.931 168.944 149.891L187.63 135.177C189.285 133.874 191.72 134.431 192.644 136.323L203.78 159.124C204.799 161.211 206.839 162.61 209.153 162.809L224.505 164.129C226.879 164.333 229.18 163.243 230.526 161.276L238.478 149.656C240.211 147.125 243.457 146.118 246.318 147.224L254.882 150.537C258.621 151.983 262.776 149.795 263.699 145.894L267.345 130.484C268.002 127.71 270.362 125.669 273.202 125.421L289.114 124.03C289.953 123.957 290.769 123.724 291.52 123.345L311.993 112.999" stroke="#7371B0" stroke-width="1.30633" stroke-linecap="round"/>
</g>
<mask id="mask1_1_13231" style="mask-type:alpha" maskUnits="userSpaceOnUse" x="118" y="104" width="200" height="84">
<rect x="118.258" y="104.753" width="199.434" height="82.4668" fill="black"/>
</mask>
<g mask="url(#mask1_1_13231)">
<mask id="mask2_1_13231" style="mask-type:alpha" maskUnits="userSpaceOnUse" x="118" y="118" width="194" height="70">
<path d="M127.367 149.504L118.97 153.145V187.219H311.993V127.812L299.856 129.509C298.534 129.694 297.3 130.275 296.315 131.174L288.44 138.364C285.856 140.724 281.879 140.66 279.372 138.218L273.935 132.923C270.816 129.885 266.08 129.238 262.26 131.327L258.526 133.37C255.989 134.757 252.809 133.688 251.625 131.051L247.143 121.068C245.557 117.535 240.714 117.104 238.528 120.301L238.014 121.052C235.183 125.194 230.251 127.376 225.282 126.685L219.81 125.925C217.097 125.548 214.432 126.884 213.11 129.284L204.153 145.557C202.863 147.899 200.29 149.234 197.633 148.939L185.998 147.647C181.871 147.189 177.769 148.696 174.92 151.717L173.762 152.945C169.699 157.255 164.306 160.075 158.449 160.955L154.145 161.6C152.548 161.84 151.009 162.37 149.603 163.165L148.807 163.615C145.429 165.524 141.14 164.126 139.536 160.592L136.015 152.836C134.525 149.552 130.676 148.069 127.367 149.504Z" fill="url(#paint0_radial_1_13231)"/>
</mask>
<g mask="url(#mask2_1_13231)">
<path opacity="0.6" d="M127.367 149.504L118.97 153.145V187.219H311.993V127.812L299.856 129.509C298.534 129.694 297.3 130.275 296.315 131.174L288.44 138.364C285.856 140.724 281.879 140.66 279.372 138.218L273.935 132.923C270.816 129.885 266.08 129.238 262.26 131.327L258.526 133.37C255.989 134.757 252.809 133.688 251.624 131.051L247.143 121.068C245.557 117.535 240.714 117.104 238.528 120.301L238.014 121.052C235.183 125.194 230.251 127.376 225.282 126.685L219.81 125.925C217.097 125.548 214.432 126.884 213.11 129.284L204.153 145.557C202.863 147.899 200.29 149.234 197.633 148.939L185.998 147.647C181.871 147.189 177.769 148.696 174.92 151.717L173.762 152.945C169.699 157.255 164.306 160.075 158.449 160.955L154.145 161.6C152.548 161.84 151.009 162.37 149.603 163.165L148.807 163.615C145.429 165.524 141.14 164.126 139.536 160.592L136.015 152.836C134.525 149.552 130.676 148.069 127.367 149.504Z" fill="#9A96FF"/>
</g>
<path d="M118.97 152.981L123.813 150.89C127.151 149.448 128.819 148.728 130.382 148.818C131.758 148.897 133.074 149.404 134.147 150.269C135.367 151.251 136.121 152.904 137.629 156.212L139.246 159.761C139.513 160.347 139.647 160.639 139.776 160.872C141.457 163.891 145.181 165.105 148.319 163.658C148.561 163.546 148.841 163.389 149.402 163.073V163.073C149.607 162.957 149.71 162.9 149.813 162.844C151.091 162.154 152.474 161.68 153.907 161.44C154.022 161.42 154.138 161.403 154.372 161.368L157.497 160.901C158.457 160.757 158.938 160.685 159.403 160.599C164.577 159.635 169.345 157.149 173.098 153.459C173.436 153.127 173.77 152.774 174.437 152.069V152.069C174.913 151.567 175.151 151.315 175.389 151.088C178.049 148.544 181.649 147.225 185.323 147.447C185.651 147.467 185.995 147.505 186.682 147.581L195.015 148.502C197.548 148.782 198.814 148.922 199.958 148.639C200.968 148.389 201.906 147.904 202.693 147.223C203.584 146.452 204.201 145.337 205.433 143.107L212.149 130.958C213.071 129.289 213.532 128.455 214.14 127.826C215.186 126.742 216.571 126.049 218.065 125.86C218.933 125.751 219.878 125.881 221.766 126.143L224.867 126.572C225.289 126.63 225.5 126.659 225.697 126.68C230.391 127.187 234.999 125.152 237.786 121.342C237.903 121.182 238.023 121.006 238.265 120.655V120.655C238.498 120.315 238.615 120.145 238.702 120.033C240.915 117.174 245.345 117.569 247.017 120.775C247.083 120.901 247.167 121.089 247.337 121.465L250.879 129.324C251.567 130.849 251.91 131.611 252.36 132.142C253.552 133.549 255.425 134.179 257.224 133.777C257.904 133.626 258.638 133.226 260.107 132.425V132.425C262.182 131.295 263.22 130.73 264.248 130.43C266.948 129.643 269.856 130.04 272.247 131.522C273.157 132.086 274.005 132.909 275.701 134.554L276.873 135.691C279.227 137.974 280.404 139.115 281.743 139.598C283.123 140.094 284.628 140.119 286.022 139.667C287.377 139.227 288.589 138.125 291.015 135.919L295.409 131.924C296.308 131.106 296.757 130.698 297.262 130.382C297.711 130.102 298.192 129.877 298.694 129.711C299.26 129.525 299.862 129.441 301.065 129.274L311.993 127.751" stroke="#9A96FF" stroke-width="1.30633" stroke-linecap="round"/>
</g>
<path d="M123.313 195.357C123.313 195.774 123.238 196.134 123.087 196.438C122.936 196.742 122.73 196.976 122.467 197.141C122.205 197.305 121.905 197.388 121.568 197.388C121.23 197.388 120.931 197.305 120.668 197.141C120.405 196.976 120.199 196.742 120.048 196.438C119.898 196.134 119.822 195.774 119.822 195.357C119.822 194.94 119.898 194.579 120.048 194.276C120.199 193.972 120.405 193.738 120.668 193.573C120.931 193.408 121.23 193.326 121.568 193.326C121.905 193.326 122.205 193.408 122.467 193.573C122.73 193.738 122.936 193.972 123.087 194.276C123.238 194.579 123.313 194.94 123.313 195.357ZM122.85 195.357C122.85 195.014 122.792 194.725 122.678 194.49C122.565 194.254 122.411 194.076 122.216 193.955C122.023 193.834 121.807 193.774 121.568 193.774C121.328 193.774 121.111 193.834 120.917 193.955C120.724 194.076 120.57 194.254 120.456 194.49C120.342 194.725 120.286 195.014 120.286 195.357C120.286 195.699 120.342 195.988 120.456 196.224C120.57 196.459 120.724 196.637 120.917 196.758C121.111 196.879 121.328 196.94 121.568 196.94C121.807 196.94 122.023 196.879 122.216 196.758C122.411 196.637 122.565 196.459 122.678 196.224C122.792 195.988 122.85 195.699 122.85 195.357ZM125.261 197.396C124.983 197.396 124.744 197.33 124.543 197.199C124.342 197.067 124.188 196.886 124.079 196.656C123.971 196.426 123.917 196.162 123.917 195.866C123.917 195.565 123.973 195.299 124.083 195.069C124.195 194.837 124.351 194.657 124.551 194.527C124.751 194.395 124.986 194.33 125.253 194.33C125.462 194.33 125.65 194.368 125.817 194.446C125.984 194.523 126.121 194.631 126.228 194.77C126.335 194.909 126.401 195.071 126.427 195.256H125.971C125.937 195.121 125.859 195.002 125.74 194.897C125.621 194.792 125.462 194.739 125.261 194.739C125.083 194.739 124.928 194.785 124.794 194.878C124.661 194.969 124.558 195.099 124.483 195.266C124.41 195.432 124.373 195.627 124.373 195.851C124.373 196.08 124.409 196.28 124.481 196.45C124.554 196.619 124.657 196.751 124.79 196.845C124.924 196.939 125.081 196.986 125.261 196.986C125.379 196.986 125.487 196.966 125.583 196.924C125.68 196.883 125.762 196.824 125.829 196.747C125.896 196.67 125.943 196.577 125.971 196.469H126.427C126.401 196.644 126.338 196.802 126.236 196.942C126.136 197.081 126.002 197.192 125.836 197.274C125.672 197.355 125.48 197.396 125.261 197.396ZM128.383 194.368V194.754H126.846V194.368H128.383ZM127.294 193.658H127.75V196.484C127.75 196.613 127.768 196.71 127.806 196.774C127.844 196.837 127.893 196.879 127.952 196.901C128.013 196.922 128.077 196.932 128.143 196.932C128.194 196.932 128.235 196.93 128.267 196.924C128.299 196.918 128.325 196.913 128.344 196.909L128.437 197.318C128.406 197.33 128.363 197.341 128.308 197.353C128.252 197.366 128.182 197.372 128.097 197.372C127.968 197.372 127.842 197.345 127.719 197.289C127.596 197.234 127.495 197.15 127.414 197.036C127.334 196.923 127.294 196.78 127.294 196.608V193.658ZM130.59 197.334V196.986L131.895 195.558C132.048 195.39 132.174 195.245 132.273 195.121C132.372 194.996 132.446 194.879 132.493 194.77C132.542 194.659 132.567 194.543 132.567 194.422C132.567 194.283 132.533 194.163 132.466 194.061C132.4 193.96 132.31 193.881 132.196 193.826C132.081 193.77 131.953 193.743 131.81 193.743C131.658 193.743 131.525 193.774 131.412 193.837C131.3 193.899 131.213 193.986 131.151 194.098C131.091 194.21 131.061 194.341 131.061 194.492H130.605C130.605 194.26 130.658 194.057 130.765 193.882C130.872 193.707 131.018 193.57 131.202 193.472C131.387 193.375 131.595 193.326 131.825 193.326C132.057 193.326 132.262 193.375 132.441 193.472C132.62 193.57 132.76 193.702 132.862 193.868C132.964 194.034 133.014 194.219 133.014 194.422C133.014 194.568 132.988 194.71 132.935 194.849C132.884 194.987 132.794 195.141 132.665 195.31C132.538 195.479 132.361 195.685 132.134 195.928L131.246 196.878V196.909H133.084V197.334H130.59ZM135.171 197.388C134.88 197.388 134.632 197.309 134.428 197.15C134.223 196.991 134.067 196.76 133.959 196.457C133.85 196.153 133.796 195.787 133.796 195.357C133.796 194.929 133.85 194.565 133.959 194.262C134.068 193.958 134.225 193.727 134.43 193.567C134.636 193.406 134.883 193.326 135.171 193.326C135.459 193.326 135.706 193.406 135.91 193.567C136.116 193.727 136.273 193.958 136.381 194.262C136.491 194.565 136.546 194.929 136.546 195.357C136.546 195.787 136.492 196.153 136.383 196.457C136.275 196.76 136.119 196.991 135.914 197.15C135.71 197.309 135.462 197.388 135.171 197.388ZM135.171 196.963C135.459 196.963 135.683 196.824 135.843 196.546C136.002 196.268 136.082 195.872 136.082 195.357C136.082 195.014 136.046 194.723 135.972 194.482C135.9 194.241 135.796 194.058 135.659 193.932C135.524 193.806 135.361 193.743 135.171 193.743C134.885 193.743 134.662 193.884 134.501 194.166C134.34 194.446 134.26 194.843 134.26 195.357C134.26 195.699 134.296 195.99 134.368 196.229C134.44 196.469 134.543 196.651 134.679 196.776C134.815 196.901 134.979 196.963 135.171 196.963ZM137.279 197.334V196.986L138.584 195.558C138.737 195.39 138.864 195.245 138.963 195.121C139.062 194.996 139.135 194.879 139.183 194.77C139.232 194.659 139.256 194.543 139.256 194.422C139.256 194.283 139.223 194.163 139.156 194.061C139.09 193.96 139 193.881 138.886 193.826C138.771 193.77 138.642 193.743 138.499 193.743C138.348 193.743 138.215 193.774 138.102 193.837C137.99 193.899 137.903 193.986 137.841 194.098C137.781 194.21 137.75 194.341 137.75 194.492H137.295C137.295 194.26 137.348 194.057 137.455 193.882C137.562 193.707 137.707 193.57 137.891 193.472C138.077 193.375 138.284 193.326 138.515 193.326C138.747 193.326 138.952 193.375 139.131 193.472C139.31 193.57 139.45 193.702 139.552 193.868C139.653 194.034 139.704 194.219 139.704 194.422C139.704 194.568 139.678 194.71 139.625 194.849C139.573 194.987 139.483 195.141 139.355 195.31C139.227 195.479 139.05 195.685 138.824 195.928L137.936 196.878V196.909H139.774V197.334H137.279ZM140.509 196.345H140.996C141.01 196.479 141.056 196.592 141.133 196.685C141.211 196.776 141.313 196.846 141.438 196.894C141.563 196.94 141.701 196.963 141.853 196.963C142.018 196.963 142.166 196.935 142.297 196.88C142.428 196.825 142.532 196.742 142.61 196.633C142.687 196.522 142.726 196.385 142.726 196.222C142.726 196.079 142.692 195.946 142.625 195.824C142.558 195.7 142.451 195.601 142.303 195.525C142.155 195.449 141.958 195.411 141.714 195.411H141.397V195.025L142.386 193.835V193.805H140.702V193.38H143.042V193.727L141.984 195.009V195.04C142.154 195.048 142.312 195.083 142.459 195.144C142.607 195.206 142.736 195.29 142.845 195.395C142.956 195.501 143.042 195.624 143.104 195.764C143.166 195.904 143.197 196.057 143.197 196.222C143.197 196.447 143.139 196.648 143.023 196.824C142.908 196.999 142.749 197.137 142.546 197.237C142.344 197.338 142.11 197.388 141.845 197.388C141.611 197.388 141.395 197.347 141.198 197.264C141.001 197.182 140.841 197.063 140.718 196.907C140.594 196.751 140.525 196.564 140.509 196.345Z" fill="#344054"/>
<path d="M165.445 197.388C165.154 197.388 164.906 197.309 164.702 197.15C164.497 196.991 164.341 196.76 164.233 196.457C164.124 196.153 164.07 195.787 164.07 195.357C164.07 194.929 164.124 194.565 164.233 194.262C164.342 193.958 164.499 193.727 164.704 193.567C164.91 193.406 165.157 193.326 165.445 193.326C165.733 193.326 165.98 193.406 166.184 193.567C166.39 193.727 166.547 193.958 166.656 194.262C166.765 194.565 166.82 194.929 166.82 195.357C166.82 195.787 166.766 196.153 166.657 196.457C166.549 196.76 166.393 196.991 166.188 197.15C165.984 197.309 165.736 197.388 165.445 197.388ZM165.445 196.963C165.733 196.963 165.957 196.824 166.117 196.546C166.276 196.268 166.356 195.872 166.356 195.357C166.356 195.014 166.32 194.723 166.246 194.482C166.174 194.241 166.07 194.058 165.933 193.932C165.798 193.806 165.635 193.743 165.445 193.743C165.159 193.743 164.936 193.884 164.775 194.166C164.614 194.446 164.534 194.843 164.534 195.357C164.534 195.699 164.57 195.99 164.642 196.229C164.714 196.469 164.818 196.651 164.953 196.776C165.089 196.901 165.253 196.963 165.445 196.963ZM167.461 196.523V196.129L169.044 193.38H169.515L167.97 196.067V196.098H170.318V196.523H167.461ZM169.322 197.334V196.407V196.22V194.863H169.777V197.334H169.322ZM171.381 196.828C171.286 196.828 171.204 196.794 171.136 196.726C171.068 196.657 171.034 196.576 171.034 196.48C171.034 196.385 171.068 196.303 171.136 196.235C171.204 196.167 171.286 196.133 171.381 196.133C171.476 196.133 171.558 196.167 171.626 196.235C171.695 196.303 171.729 196.385 171.729 196.48C171.729 196.543 171.713 196.601 171.68 196.654C171.65 196.707 171.608 196.749 171.555 196.782C171.504 196.812 171.446 196.828 171.381 196.828ZM171.381 194.828C171.286 194.828 171.204 194.794 171.136 194.725C171.068 194.657 171.034 194.576 171.034 194.48C171.034 194.385 171.068 194.303 171.136 194.235C171.204 194.167 171.286 194.133 171.381 194.133C171.476 194.133 171.558 194.167 171.626 194.235C171.695 194.303 171.729 194.385 171.729 194.48C171.729 194.543 171.713 194.601 171.68 194.654C171.65 194.707 171.608 194.749 171.555 194.781C171.504 194.812 171.446 194.828 171.381 194.828ZM173.828 197.388C173.537 197.388 173.29 197.309 173.085 197.15C172.88 196.991 172.724 196.76 172.616 196.457C172.508 196.153 172.454 195.787 172.454 195.357C172.454 194.929 172.508 194.565 172.616 194.262C172.725 193.958 172.882 193.727 173.087 193.567C173.293 193.406 173.54 193.326 173.828 193.326C174.117 193.326 174.363 193.406 174.568 193.567C174.774 193.727 174.931 193.958 175.039 194.262C175.148 194.565 175.203 194.929 175.203 195.357C175.203 195.787 175.149 196.153 175.041 196.457C174.933 196.76 174.776 196.991 174.572 197.15C174.367 197.309 174.119 197.388 173.828 197.388ZM173.828 196.963C174.117 196.963 174.341 196.824 174.5 196.546C174.66 196.268 174.74 195.872 174.74 195.357C174.74 195.014 174.703 194.723 174.63 194.482C174.557 194.241 174.453 194.058 174.317 193.932C174.182 193.806 174.019 193.743 173.828 193.743C173.543 193.743 173.319 193.884 173.158 194.166C172.997 194.446 172.917 194.843 172.917 195.357C172.917 195.699 172.953 195.99 173.025 196.229C173.097 196.469 173.201 196.651 173.336 196.776C173.472 196.901 173.637 196.963 173.828 196.963ZM177.226 197.388C176.935 197.388 176.688 197.309 176.483 197.15C176.278 196.991 176.122 196.76 176.014 196.457C175.906 196.153 175.852 195.787 175.852 195.357C175.852 194.929 175.906 194.565 176.014 194.262C176.123 193.958 176.28 193.727 176.485 193.567C176.691 193.406 176.938 193.326 177.226 193.326C177.515 193.326 177.761 193.406 177.966 193.567C178.172 193.727 178.329 193.958 178.437 194.262C178.546 194.565 178.601 194.929 178.601 195.357C178.601 195.787 178.547 196.153 178.439 196.457C178.331 196.76 178.174 196.991 177.97 197.15C177.765 197.309 177.517 197.388 177.226 197.388ZM177.226 196.963C177.515 196.963 177.739 196.824 177.898 196.546C178.058 196.268 178.137 195.872 178.137 195.357C178.137 195.014 178.101 194.723 178.027 194.482C177.955 194.241 177.851 194.058 177.715 193.932C177.58 193.806 177.417 193.743 177.226 193.743C176.941 193.743 176.717 193.884 176.556 194.166C176.395 194.446 176.315 194.843 176.315 195.357C176.315 195.699 176.351 195.99 176.423 196.229C176.495 196.469 176.599 196.651 176.734 196.776C176.87 196.901 177.034 196.963 177.226 196.963Z" fill="#344054"/>
<path d="M201.246 197.388C200.955 197.388 200.707 197.309 200.503 197.15C200.298 196.991 200.141 196.76 200.033 196.457C199.925 196.153 199.871 195.787 199.871 195.357C199.871 194.929 199.925 194.565 200.033 194.262C200.143 193.958 200.3 193.727 200.504 193.567C200.71 193.406 200.958 193.326 201.246 193.326C201.534 193.326 201.781 193.406 201.985 193.567C202.191 193.727 202.348 193.958 202.456 194.262C202.566 194.565 202.62 194.929 202.62 195.357C202.62 195.787 202.566 196.153 202.458 196.457C202.35 196.76 202.194 196.991 201.989 197.15C201.784 197.309 201.537 197.388 201.246 197.388ZM201.246 196.963C201.534 196.963 201.758 196.824 201.918 196.546C202.077 196.268 202.157 195.872 202.157 195.357C202.157 195.014 202.12 194.723 202.047 194.482C201.975 194.241 201.871 194.058 201.734 193.932C201.599 193.806 201.436 193.743 201.246 193.743C200.96 193.743 200.737 193.884 200.576 194.166C200.415 194.446 200.335 194.843 200.335 195.357C200.335 195.699 200.371 195.99 200.443 196.229C200.515 196.469 200.618 196.651 200.753 196.776C200.89 196.901 201.054 196.963 201.246 196.963ZM204.621 197.388C204.355 197.388 204.121 197.341 203.918 197.247C203.716 197.152 203.558 197.021 203.445 196.855C203.332 196.688 203.276 196.497 203.277 196.283C203.276 196.116 203.308 195.962 203.375 195.82C203.442 195.677 203.534 195.558 203.649 195.463C203.767 195.366 203.897 195.305 204.041 195.28V195.256C203.852 195.207 203.702 195.101 203.59 194.938C203.478 194.773 203.422 194.586 203.424 194.376C203.422 194.175 203.473 193.996 203.576 193.837C203.679 193.679 203.821 193.554 204.001 193.463C204.182 193.371 204.389 193.326 204.621 193.326C204.85 193.326 205.054 193.371 205.235 193.463C205.415 193.554 205.556 193.679 205.659 193.837C205.764 193.996 205.816 194.175 205.818 194.376C205.816 194.586 205.759 194.773 205.646 194.938C205.534 195.101 205.385 195.207 205.2 195.256V195.28C205.343 195.305 205.471 195.366 205.586 195.463C205.7 195.558 205.792 195.677 205.86 195.82C205.928 195.962 205.963 196.116 205.964 196.283C205.963 196.497 205.905 196.688 205.791 196.855C205.677 197.021 205.52 197.152 205.318 197.247C205.117 197.341 204.884 197.388 204.621 197.388ZM204.621 196.963C204.799 196.963 204.954 196.934 205.084 196.876C205.214 196.818 205.314 196.737 205.385 196.631C205.456 196.525 205.492 196.402 205.493 196.26C205.492 196.111 205.453 195.979 205.377 195.865C205.301 195.75 205.198 195.66 205.067 195.594C204.937 195.529 204.788 195.496 204.621 195.496C204.452 195.496 204.301 195.529 204.169 195.594C204.038 195.66 203.934 195.75 203.858 195.865C203.783 195.979 203.747 196.111 203.748 196.26C203.747 196.402 203.781 196.525 203.85 196.631C203.921 196.737 204.022 196.818 204.153 196.876C204.285 196.934 204.44 196.963 204.621 196.963ZM204.621 195.086C204.762 195.086 204.888 195.058 204.997 195.002C205.108 194.945 205.195 194.866 205.258 194.764C205.321 194.662 205.353 194.543 205.354 194.407C205.353 194.273 205.321 194.157 205.26 194.057C205.198 193.957 205.112 193.88 205.003 193.826C204.893 193.77 204.766 193.743 204.621 193.743C204.473 193.743 204.343 193.77 204.233 193.826C204.122 193.88 204.036 193.957 203.976 194.057C203.915 194.157 203.886 194.273 203.887 194.407C203.886 194.543 203.916 194.662 203.978 194.764C204.041 194.866 204.128 194.945 204.238 195.002C204.349 195.058 204.476 195.086 204.621 195.086ZM207.044 196.828C206.949 196.828 206.867 196.794 206.799 196.726C206.731 196.657 206.696 196.576 206.696 196.48C206.696 196.385 206.731 196.303 206.799 196.235C206.867 196.167 206.949 196.133 207.044 196.133C207.139 196.133 207.221 196.167 207.289 196.235C207.357 196.303 207.392 196.385 207.392 196.48C207.392 196.543 207.375 196.601 207.343 196.654C207.312 196.707 207.271 196.749 207.218 196.782C207.166 196.812 207.108 196.828 207.044 196.828ZM207.044 194.828C206.949 194.828 206.867 194.794 206.799 194.725C206.731 194.657 206.696 194.576 206.696 194.48C206.696 194.385 206.731 194.303 206.799 194.235C206.867 194.167 206.949 194.133 207.044 194.133C207.139 194.133 207.221 194.167 207.289 194.235C207.357 194.303 207.392 194.385 207.392 194.48C207.392 194.543 207.375 194.601 207.343 194.654C207.312 194.707 207.271 194.749 207.218 194.781C207.166 194.812 207.108 194.828 207.044 194.828ZM209.491 197.388C209.2 197.388 208.952 197.309 208.748 197.15C208.543 196.991 208.387 196.76 208.279 196.457C208.171 196.153 208.116 195.787 208.116 195.357C208.116 194.929 208.171 194.565 208.279 194.262C208.388 193.958 208.545 193.727 208.75 193.567C208.956 193.406 209.203 193.326 209.491 193.326C209.779 193.326 210.026 193.406 210.231 193.567C210.436 193.727 210.593 193.958 210.702 194.262C210.811 194.565 210.866 194.929 210.866 195.357C210.866 195.787 210.812 196.153 210.704 196.457C210.595 196.76 210.439 196.991 210.234 197.15C210.03 197.309 209.782 197.388 209.491 197.388ZM209.491 196.963C209.779 196.963 210.003 196.824 210.163 196.546C210.323 196.268 210.402 195.872 210.402 195.357C210.402 195.014 210.366 194.723 210.292 194.482C210.22 194.241 210.116 194.058 209.98 193.932C209.844 193.806 209.682 193.743 209.491 193.743C209.205 193.743 208.982 193.884 208.821 194.166C208.66 194.446 208.58 194.843 208.58 195.357C208.58 195.699 208.616 195.99 208.688 196.229C208.76 196.469 208.864 196.651 208.999 196.776C209.135 196.901 209.299 196.963 209.491 196.963ZM212.889 197.388C212.598 197.388 212.35 197.309 212.146 197.15C211.941 196.991 211.785 196.76 211.677 196.457C211.568 196.153 211.514 195.787 211.514 195.357C211.514 194.929 211.568 194.565 211.677 194.262C211.786 193.958 211.943 193.727 212.148 193.567C212.354 193.406 212.601 193.326 212.889 193.326C213.177 193.326 213.424 193.406 213.628 193.567C213.834 193.727 213.991 193.958 214.1 194.262C214.209 194.565 214.264 194.929 214.264 195.357C214.264 195.787 214.21 196.153 214.101 196.457C213.993 196.76 213.837 196.991 213.632 197.15C213.428 197.309 213.18 197.388 212.889 197.388ZM212.889 196.963C213.177 196.963 213.401 196.824 213.561 196.546C213.72 196.268 213.8 195.872 213.8 195.357C213.8 195.014 213.764 194.723 213.69 194.482C213.618 194.241 213.514 194.058 213.377 193.932C213.242 193.806 213.08 193.743 212.889 193.743C212.603 193.743 212.38 193.884 212.219 194.166C212.058 194.446 211.978 194.843 211.978 195.357C211.978 195.699 212.014 195.99 212.086 196.229C212.158 196.469 212.262 196.651 212.397 196.776C212.533 196.901 212.697 196.963 212.889 196.963Z" fill="#344054"/>
<path d="M237.483 193.38V197.334H237.004V194.075H236.973C236.955 194.111 236.909 194.152 236.834 194.198C236.759 194.243 236.663 194.283 236.544 194.318C236.426 194.352 236.291 194.368 236.139 194.368V193.967C236.292 193.967 236.425 193.939 236.537 193.884C236.649 193.828 236.742 193.763 236.817 193.689C236.893 193.614 236.95 193.546 236.988 193.486C237.028 193.425 237.052 193.39 237.058 193.38H237.483ZM238.616 197.334V196.986L239.921 195.558C240.074 195.39 240.2 195.245 240.3 195.121C240.399 194.996 240.472 194.879 240.52 194.77C240.569 194.659 240.593 194.543 240.593 194.422C240.593 194.283 240.56 194.163 240.493 194.061C240.427 193.96 240.337 193.881 240.222 193.826C240.108 193.77 239.979 193.743 239.836 193.743C239.684 193.743 239.552 193.774 239.438 193.837C239.326 193.899 239.24 193.986 239.178 194.098C239.117 194.21 239.087 194.341 239.087 194.492H238.631C238.631 194.26 238.685 194.057 238.792 193.882C238.899 193.707 239.044 193.57 239.228 193.472C239.413 193.375 239.621 193.326 239.852 193.326C240.083 193.326 240.289 193.375 240.467 193.472C240.646 193.57 240.787 193.702 240.888 193.868C240.99 194.034 241.041 194.219 241.041 194.422C241.041 194.568 241.014 194.71 240.962 194.849C240.91 194.987 240.82 195.141 240.691 195.31C240.564 195.479 240.387 195.685 240.161 195.928L239.272 196.878V196.909H241.11V197.334H238.616ZM242.248 196.828C242.152 196.828 242.071 196.794 242.002 196.726C241.934 196.657 241.9 196.576 241.9 196.48C241.9 196.385 241.934 196.303 242.002 196.235C242.071 196.167 242.152 196.133 242.248 196.133C242.343 196.133 242.425 196.167 242.493 196.235C242.561 196.303 242.595 196.385 242.595 196.48C242.595 196.543 242.579 196.601 242.547 196.654C242.516 196.707 242.474 196.749 242.421 196.782C242.37 196.812 242.312 196.828 242.248 196.828ZM242.248 194.828C242.152 194.828 242.071 194.794 242.002 194.725C241.934 194.657 241.9 194.576 241.9 194.48C241.9 194.385 241.934 194.303 242.002 194.235C242.071 194.167 242.152 194.133 242.248 194.133C242.343 194.133 242.425 194.167 242.493 194.235C242.561 194.303 242.595 194.385 242.595 194.48C242.595 194.543 242.579 194.601 242.547 194.654C242.516 194.707 242.474 194.749 242.421 194.781C242.37 194.812 242.312 194.828 242.248 194.828ZM244.695 197.388C244.404 197.388 244.156 197.309 243.951 197.15C243.747 196.991 243.59 196.76 243.482 196.457C243.374 196.153 243.32 195.787 243.32 195.357C243.32 194.929 243.374 194.565 243.482 194.262C243.592 193.958 243.749 193.727 243.953 193.567C244.159 193.406 244.406 193.326 244.695 193.326C244.983 193.326 245.229 193.406 245.434 193.567C245.64 193.727 245.797 193.958 245.905 194.262C246.015 194.565 246.069 194.929 246.069 195.357C246.069 195.787 246.015 196.153 245.907 196.457C245.799 196.76 245.643 196.991 245.438 197.15C245.233 197.309 244.985 197.388 244.695 197.388ZM244.695 196.963C244.983 196.963 245.207 196.824 245.366 196.546C245.526 196.268 245.606 195.872 245.606 195.357C245.606 195.014 245.569 194.723 245.496 194.482C245.424 194.241 245.319 194.058 245.183 193.932C245.048 193.806 244.885 193.743 244.695 193.743C244.409 193.743 244.186 193.884 244.025 194.166C243.864 194.446 243.783 194.843 243.783 195.357C243.783 195.699 243.819 195.99 243.891 196.229C243.964 196.469 244.067 196.651 244.202 196.776C244.339 196.901 244.503 196.963 244.695 196.963ZM248.093 197.388C247.802 197.388 247.554 197.309 247.349 197.15C247.145 196.991 246.988 196.76 246.88 196.457C246.772 196.153 246.718 195.787 246.718 195.357C246.718 194.929 246.772 194.565 246.88 194.262C246.99 193.958 247.147 193.727 247.351 193.567C247.557 193.406 247.804 193.326 248.093 193.326C248.381 193.326 248.627 193.406 248.832 193.567C249.038 193.727 249.195 193.958 249.303 194.262C249.412 194.565 249.467 194.929 249.467 195.357C249.467 195.787 249.413 196.153 249.305 196.457C249.197 196.76 249.04 196.991 248.836 197.15C248.631 197.309 248.383 197.388 248.093 197.388ZM248.093 196.963C248.381 196.963 248.605 196.824 248.764 196.546C248.924 196.268 249.004 195.872 249.004 195.357C249.004 195.014 248.967 194.723 248.894 194.482C248.822 194.241 248.717 194.058 248.581 193.932C248.446 193.806 248.283 193.743 248.093 193.743C247.807 193.743 247.583 193.884 247.423 194.166C247.262 194.446 247.181 194.843 247.181 195.357C247.181 195.699 247.217 195.99 247.289 196.229C247.361 196.469 247.465 196.651 247.6 196.776C247.737 196.901 247.901 196.963 248.093 196.963Z" fill="#344054"/>
<path d="M273.299 193.38V197.334H272.821V194.075H272.79C272.772 194.111 272.725 194.152 272.651 194.198C272.576 194.243 272.48 194.283 272.361 194.318C272.243 194.352 272.108 194.368 271.956 194.368V193.967C272.109 193.967 272.241 193.939 272.353 193.884C272.465 193.828 272.559 193.763 272.633 193.689C272.709 193.614 272.767 193.546 272.805 193.486C272.845 193.425 272.868 193.39 272.875 193.38H273.299ZM274.34 196.083C274.343 195.959 274.361 195.831 274.396 195.698C274.431 195.566 274.489 195.419 274.572 195.256C274.654 195.094 274.767 194.906 274.912 194.693L275.8 193.38H276.325L275.282 194.901C275.329 194.886 275.376 194.873 275.425 194.863C275.475 194.852 275.525 194.847 275.576 194.847C275.815 194.847 276.029 194.902 276.217 195.013C276.406 195.124 276.555 195.275 276.663 195.467C276.772 195.659 276.827 195.877 276.827 196.121C276.827 196.366 276.773 196.583 276.665 196.774C276.558 196.964 276.41 197.114 276.222 197.224C276.036 197.333 275.823 197.388 275.583 197.388C275.341 197.388 275.126 197.332 274.939 197.22C274.751 197.107 274.603 196.952 274.496 196.756C274.39 196.56 274.337 196.335 274.34 196.083ZM274.796 196.114C274.796 196.281 274.829 196.429 274.896 196.558C274.963 196.686 275.056 196.787 275.174 196.861C275.293 196.934 275.429 196.971 275.583 196.971C275.738 196.971 275.874 196.935 275.993 196.863C276.111 196.789 276.204 196.689 276.271 196.561C276.338 196.433 276.371 196.286 276.371 196.121C276.371 195.954 276.338 195.807 276.271 195.679C276.204 195.552 276.111 195.452 275.993 195.38C275.874 195.308 275.738 195.272 275.583 195.272C275.429 195.272 275.293 195.308 275.174 195.38C275.056 195.451 274.963 195.55 274.896 195.677C274.829 195.803 274.796 195.949 274.796 196.114ZM277.894 196.828C277.799 196.828 277.717 196.794 277.649 196.726C277.581 196.657 277.547 196.576 277.547 196.48C277.547 196.385 277.581 196.303 277.649 196.235C277.717 196.167 277.799 196.133 277.894 196.133C277.99 196.133 278.071 196.167 278.14 196.235C278.208 196.303 278.242 196.385 278.242 196.48C278.242 196.543 278.226 196.601 278.194 196.654C278.163 196.707 278.121 196.749 278.068 196.782C278.017 196.812 277.959 196.828 277.894 196.828ZM277.894 194.828C277.799 194.828 277.717 194.794 277.649 194.725C277.581 194.657 277.547 194.576 277.547 194.48C277.547 194.385 277.581 194.303 277.649 194.235C277.717 194.167 277.799 194.133 277.894 194.133C277.99 194.133 278.071 194.167 278.14 194.235C278.208 194.303 278.242 194.385 278.242 194.48C278.242 194.543 278.226 194.601 278.194 194.654C278.163 194.707 278.121 194.749 278.068 194.781C278.017 194.812 277.959 194.828 277.894 194.828ZM280.341 197.388C280.051 197.388 279.803 197.309 279.598 197.15C279.394 196.991 279.237 196.76 279.129 196.457C279.021 196.153 278.967 195.787 278.967 195.357C278.967 194.929 279.021 194.565 279.129 194.262C279.238 193.958 279.395 193.727 279.6 193.567C279.806 193.406 280.053 193.326 280.341 193.326C280.63 193.326 280.876 193.406 281.081 193.567C281.287 193.727 281.444 193.958 281.552 194.262C281.661 194.565 281.716 194.929 281.716 195.357C281.716 195.787 281.662 196.153 281.554 196.457C281.446 196.76 281.289 196.991 281.085 197.15C280.88 197.309 280.632 197.388 280.341 197.388ZM280.341 196.963C280.63 196.963 280.854 196.824 281.013 196.546C281.173 196.268 281.253 195.872 281.253 195.357C281.253 195.014 281.216 194.723 281.143 194.482C281.071 194.241 280.966 194.058 280.83 193.932C280.695 193.806 280.532 193.743 280.341 193.743C280.056 193.743 279.832 193.884 279.672 194.166C279.511 194.446 279.43 194.843 279.43 195.357C279.43 195.699 279.466 195.99 279.538 196.229C279.61 196.469 279.714 196.651 279.849 196.776C279.986 196.901 280.15 196.963 280.341 196.963ZM283.739 197.388C283.449 197.388 283.201 197.309 282.996 197.15C282.791 196.991 282.635 196.76 282.527 196.457C282.419 196.153 282.365 195.787 282.365 195.357C282.365 194.929 282.419 194.565 282.527 194.262C282.636 193.958 282.793 193.727 282.998 193.567C283.204 193.406 283.451 193.326 283.739 193.326C284.028 193.326 284.274 193.406 284.479 193.567C284.685 193.727 284.842 193.958 284.95 194.262C285.059 194.565 285.114 194.929 285.114 195.357C285.114 195.787 285.06 196.153 284.952 196.457C284.844 196.76 284.687 196.991 284.483 197.15C284.278 197.309 284.03 197.388 283.739 197.388ZM283.739 196.963C284.028 196.963 284.252 196.824 284.411 196.546C284.571 196.268 284.651 195.872 284.651 195.357C284.651 195.014 284.614 194.723 284.541 194.482C284.469 194.241 284.364 194.058 284.228 193.932C284.093 193.806 283.93 193.743 283.739 193.743C283.454 193.743 283.23 193.884 283.069 194.166C282.909 194.446 282.828 194.843 282.828 195.357C282.828 195.699 282.864 195.99 282.936 196.229C283.008 196.469 283.112 196.651 283.247 196.776C283.384 196.901 283.548 196.963 283.739 196.963Z" fill="#344054"/>
<path d="M307.181 197.334V196.986L308.486 195.558C308.639 195.39 308.765 195.245 308.864 195.121C308.963 194.996 309.037 194.879 309.084 194.77C309.133 194.659 309.158 194.543 309.158 194.422C309.158 194.283 309.124 194.163 309.057 194.061C308.992 193.96 308.902 193.881 308.787 193.826C308.672 193.77 308.544 193.743 308.401 193.743C308.249 193.743 308.116 193.774 308.003 193.837C307.891 193.899 307.804 193.986 307.743 194.098C307.682 194.21 307.652 194.341 307.652 194.492H307.196C307.196 194.26 307.25 194.057 307.356 193.882C307.463 193.707 307.609 193.57 307.793 193.472C307.978 193.375 308.186 193.326 308.416 193.326C308.648 193.326 308.853 193.375 309.032 193.472C309.211 193.57 309.351 193.702 309.453 193.868C309.555 194.034 309.606 194.219 309.606 194.422C309.606 194.568 309.579 194.71 309.526 194.849C309.475 194.987 309.385 195.141 309.256 195.31C309.129 195.479 308.952 195.685 308.725 195.928L307.837 196.878V196.909H309.675V197.334H307.181ZM311.762 197.388C311.471 197.388 311.224 197.309 311.019 197.15C310.814 196.991 310.658 196.76 310.55 196.457C310.442 196.153 310.388 195.787 310.388 195.357C310.388 194.929 310.442 194.565 310.55 194.262C310.659 193.958 310.816 193.727 311.021 193.567C311.227 193.406 311.474 193.326 311.762 193.326C312.05 193.326 312.297 193.406 312.502 193.567C312.708 193.727 312.865 193.958 312.973 194.262C313.082 194.565 313.137 194.929 313.137 195.357C313.137 195.787 313.083 196.153 312.975 196.457C312.866 196.76 312.71 196.991 312.505 197.15C312.301 197.309 312.053 197.388 311.762 197.388ZM311.762 196.963C312.05 196.963 312.274 196.824 312.434 196.546C312.594 196.268 312.673 195.872 312.673 195.357C312.673 195.014 312.637 194.723 312.563 194.482C312.491 194.241 312.387 194.058 312.251 193.932C312.115 193.806 311.953 193.743 311.762 193.743C311.476 193.743 311.253 193.884 311.092 194.166C310.931 194.446 310.851 194.843 310.851 195.357C310.851 195.699 310.887 195.99 310.959 196.229C311.031 196.469 311.135 196.651 311.27 196.776C311.406 196.901 311.57 196.963 311.762 196.963ZM314.21 196.828C314.115 196.828 314.033 196.794 313.965 196.726C313.897 196.657 313.863 196.576 313.863 196.48C313.863 196.385 313.897 196.303 313.965 196.235C314.033 196.167 314.115 196.133 314.21 196.133C314.305 196.133 314.387 196.167 314.455 196.235C314.524 196.303 314.558 196.385 314.558 196.48C314.558 196.543 314.542 196.601 314.509 196.654C314.479 196.707 314.437 196.749 314.384 196.782C314.332 196.812 314.275 196.828 314.21 196.828ZM314.21 194.828C314.115 194.828 314.033 194.794 313.965 194.725C313.897 194.657 313.863 194.576 313.863 194.48C313.863 194.385 313.897 194.303 313.965 194.235C314.033 194.167 314.115 194.133 314.21 194.133C314.305 194.133 314.387 194.167 314.455 194.235C314.524 194.303 314.558 194.385 314.558 194.48C314.558 194.543 314.542 194.601 314.509 194.654C314.479 194.707 314.437 194.749 314.384 194.781C314.332 194.812 314.275 194.828 314.21 194.828ZM316.657 197.388C316.366 197.388 316.119 197.309 315.914 197.15C315.709 196.991 315.553 196.76 315.445 196.457C315.337 196.153 315.283 195.787 315.283 195.357C315.283 194.929 315.337 194.565 315.445 194.262C315.554 193.958 315.711 193.727 315.916 193.567C316.122 193.406 316.369 193.326 316.657 193.326C316.946 193.326 317.192 193.406 317.397 193.567C317.603 193.727 317.76 193.958 317.868 194.262C317.977 194.565 318.032 194.929 318.032 195.357C318.032 195.787 317.978 196.153 317.87 196.457C317.762 196.76 317.605 196.991 317.401 197.15C317.196 197.309 316.948 197.388 316.657 197.388ZM316.657 196.963C316.946 196.963 317.17 196.824 317.329 196.546C317.489 196.268 317.569 195.872 317.569 195.357C317.569 195.014 317.532 194.723 317.459 194.482C317.386 194.241 317.282 194.058 317.146 193.932C317.011 193.806 316.848 193.743 316.657 193.743C316.372 193.743 316.148 193.884 315.987 194.166C315.826 194.446 315.746 194.843 315.746 195.357C315.746 195.699 315.782 195.99 315.854 196.229C315.926 196.469 316.03 196.651 316.165 196.776C316.301 196.901 316.466 196.963 316.657 196.963ZM320.055 197.388C319.764 197.388 319.517 197.309 319.312 197.15C319.107 196.991 318.951 196.76 318.843 196.457C318.735 196.153 318.681 195.787 318.681 195.357C318.681 194.929 318.735 194.565 318.843 194.262C318.952 193.958 319.109 193.727 319.314 193.567C319.52 193.406 319.767 193.326 320.055 193.326C320.344 193.326 320.59 193.406 320.795 193.567C321.001 193.727 321.158 193.958 321.266 194.262C321.375 194.565 321.43 194.929 321.43 195.357C321.43 195.787 321.376 196.153 321.268 196.457C321.16 196.76 321.003 196.991 320.799 197.15C320.594 197.309 320.346 197.388 320.055 197.388ZM320.055 196.963C320.344 196.963 320.567 196.824 320.727 196.546C320.887 196.268 320.966 195.872 320.966 195.357C320.966 195.014 320.93 194.723 320.856 194.482C320.784 194.241 320.68 194.058 320.544 193.932C320.409 193.806 320.246 193.743 320.055 193.743C319.769 193.743 319.546 193.884 319.385 194.166C319.224 194.446 319.144 194.843 319.144 195.357C319.144 195.699 319.18 195.99 319.252 196.229C319.324 196.469 319.428 196.651 319.563 196.776C319.699 196.901 319.863 196.963 320.055 196.963Z" fill="#344054"/>
</g>
<rect x="0.5" y="0.5" width="343" height="201" rx="11.5" stroke="#E4E7EC"/>
<defs>
<radialGradient id="paint0_radial_1_13231" cx="0" cy="0" r="1" gradientUnits="userSpaceOnUse" gradientTransform="translate(215.481 126.632) rotate(90) scale(40.3867 94.7021)">
<stop stop-opacity="0.08"/>
<stop offset="1" stop-opacity="0"/>
</radialGradient>
<clipPath id="clip0_1_13231">
<rect width="344" height="202" rx="12" fill="white"/>
</clipPath>
</defs>
</svg>
