<svg width="25" height="24" viewBox="0 0 25 24" fill="none" xmlns="http://www.w3.org/2000/svg">
<path d="M19.75 14H20.9889C22.0998 14 22.9331 15.0805 22.7152 16.2386L22.4503 17.6466C22.1929 19.015 21.0627 20 19.75 20" stroke="#F9FAFB" stroke-width="1.5"/>
<path d="M5.75 14H4.51113C3.40015 14 2.56691 15.0805 2.78479 16.2386L3.04967 17.6466C3.30711 19.015 4.43731 20 5.75 20" stroke="#F9FAFB" stroke-width="1.5"/>
<path d="M19.0196 10.5001L19.5411 15.1968C19.821 18.3791 19.961 19.9702 19.0196 20.9851C18.0783 22.0001 16.4625 22.0001 13.231 22.0001H12.269C9.0375 22.0001 7.42174 22.0001 6.48038 20.9851C5.53901 19.9702 5.67899 18.3791 5.95893 15.1968L6.48038 10.5" stroke="#F9FAFB" stroke-width="1.5" stroke-linejoin="round"/>
<path d="M15.75 5C15.75 3.34315 14.4069 2 12.75 2C11.0931 2 9.75 3.34315 9.75 5" stroke="#F9FAFB" stroke-width="1.5"/>
<path d="M6.0117 8.86971C5.76152 7.45403 5.63643 6.74619 5.88559 6.20431C6.05195 5.84248 6.32803 5.53512 6.6791 5.32087C7.20489 5 7.96577 5 9.48753 5H16.0125C17.5342 5 18.2951 5 18.8209 5.32087C19.172 5.53512 19.448 5.84248 19.6144 6.20431C19.8636 6.74619 19.7385 7.45403 19.4883 8.86971L19.4372 9.15901C19.3402 9.70796 19.2917 9.98243 19.196 10.2349C19.0306 10.671 18.7604 11.0651 18.4065 11.3863C18.2017 11.5722 17.9562 11.7266 17.4653 12.0353C17.0037 12.3255 16.7729 12.4706 16.529 12.5845C16.1079 12.7812 15.655 12.9105 15.189 12.9672C14.919 13 14.6416 13 14.0869 13H11.4131C10.8584 13 10.581 13 10.311 12.9672C9.84497 12.9105 9.39214 12.7812 8.97104 12.5845C8.7271 12.4706 8.49632 12.3255 8.03474 12.0353C7.54376 11.7266 7.29827 11.5722 7.09346 11.3863C6.73959 11.0651 6.4694 10.671 6.30404 10.2349C6.20833 9.98243 6.15983 9.70796 6.06282 9.15901L6.0117 8.86971Z" stroke="#F9FAFB" stroke-width="1.5"/>
<path d="M12.75 10.0024L12.7587 10.0001" stroke="#F9FAFB" stroke-width="2" stroke-linecap="round" stroke-linejoin="round"/>
</svg>
