<svg width="26" height="27" viewBox="0 0 26 27" fill="none" xmlns="http://www.w3.org/2000/svg">
<path d="M22.75 19.858L21.6665 21.0432C21.0919 21.6716 20.3127 22.0247 19.5001 22.0247C18.6876 22.0247 17.9084 21.6716 17.3337 21.0432C16.7583 20.4161 15.9791 20.0639 15.1669 20.0639C14.3546 20.0639 13.5754 20.4161 13 21.0432M3.25 22.0247H5.06409C5.59404 22.0247 5.85901 22.0247 6.10837 21.9648C6.32944 21.9117 6.54079 21.8242 6.73465 21.7054C6.9533 21.5714 7.14066 21.384 7.51539 21.0093L21.125 7.39966C22.0225 6.5022 22.0225 5.04712 21.125 4.14966C20.2276 3.2522 18.7725 3.2522 17.875 4.14966L4.26537 17.7593C3.89064 18.134 3.70327 18.3214 3.56928 18.54C3.45048 18.7339 3.36294 18.9452 3.30987 19.1663C3.25 19.4157 3.25 19.6807 3.25 20.2106V22.0247Z" stroke="#475467" stroke-width="2" stroke-linecap="round" stroke-linejoin="round"/>
</svg>
