<svg width="610" height="624" viewBox="0 0 610 624" fill="none" xmlns="http://www.w3.org/2000/svg">
<g filter="url(#filter0_d_2480_93743)">
<rect x="79" y="124" width="452" height="371.611" rx="18.2013" fill="white" shape-rendering="crispEdges"/>
<rect x="79.7584" y="124.758" width="450.483" height="370.094" rx="17.443" stroke="#C8CDD5" stroke-width="1.51678" shape-rendering="crispEdges"/>
<path d="M135.91 154.336H110.309C105.583 154.336 101.752 158.167 101.752 162.893V188.495C101.752 193.221 105.583 197.052 110.309 197.052H135.91C140.637 197.052 144.468 193.221 144.468 188.495V162.893C144.468 158.167 140.637 154.336 135.91 154.336Z" fill="url(#paint0_linear_2480_93743)"/>
<path d="M134.231 162.479H132.075C132.075 162.479 131.268 166.511 126.938 166.511H122.868C116.888 166.511 111.979 171.679 111.979 177.422L111.993 177.792C111.993 183.943 117.19 188.756 122.788 188.756H123.023C129.922 188.756 134.245 183.227 134.245 178.085L134.234 162.479H134.231ZM128.4 177.641C128.4 180.567 126.027 182.941 123.101 182.941C120.175 182.941 117.802 180.567 117.802 177.641C117.802 174.716 120.175 172.342 123.101 172.342H128.4V177.641Z" fill="url(#paint1_linear_2480_93743)"/>
<path d="M134.231 162.479C133.721 162.479 132.466 162.479 132.075 162.479C132.075 162.479 131.268 166.511 126.938 166.511C130.727 166.511 133.874 165.023 134.234 162.479H134.231Z" fill="#FAA858"/>
<path d="M158.013 185.336V168.955H160.97V185.336H158.013ZM168.729 185.336V168.955H171.686V185.336H168.729ZM159.423 175.644H170.071V177.964H159.423V175.644ZM180.118 185.563C178.89 185.563 177.805 185.306 176.865 184.79C175.94 184.274 175.219 183.561 174.703 182.651C174.188 181.726 173.93 180.672 173.93 179.489C173.93 178.306 174.188 177.267 174.703 176.372C175.219 175.477 175.94 174.779 176.865 174.279C177.805 173.763 178.89 173.505 180.118 173.505C181.362 173.505 182.447 173.763 183.372 174.279C184.297 174.779 185.018 175.477 185.533 176.372C186.049 177.267 186.307 178.306 186.307 179.489C186.307 180.672 186.041 181.726 185.511 182.651C184.995 183.561 184.274 184.274 183.349 184.79C182.424 185.306 181.347 185.563 180.118 185.563ZM180.118 183.266C180.725 183.266 181.271 183.114 181.757 182.811C182.242 182.492 182.621 182.052 182.894 181.491C183.167 180.915 183.304 180.24 183.304 179.466C183.304 178.328 183 177.434 182.394 176.781C181.802 176.129 181.044 175.803 180.118 175.803C179.193 175.803 178.427 176.129 177.82 176.781C177.214 177.434 176.91 178.328 176.91 179.466C176.91 180.24 177.047 180.915 177.32 181.491C177.608 182.052 177.987 182.492 178.458 182.811C178.943 183.114 179.497 183.266 180.118 183.266ZM190.743 185.336L187.194 173.733H190.197L192.29 182.446H192.085L194.656 173.733H197.273L199.889 182.446H199.662L201.732 173.733H204.667L201.118 185.336H198.433L195.817 176.713H196.044L193.428 185.336H190.743ZM216.433 185.563C215.266 185.563 214.234 185.306 213.339 184.79C212.459 184.274 211.762 183.561 211.246 182.651C210.746 181.726 210.495 180.679 210.495 179.512C210.495 178.344 210.746 177.312 211.246 176.417C211.762 175.507 212.459 174.794 213.339 174.279C214.234 173.763 215.266 173.505 216.433 173.505C217.389 173.505 218.254 173.687 219.027 174.051C219.801 174.4 220.438 174.901 220.938 175.553C221.439 176.19 221.757 176.933 221.894 177.782H219.141C218.974 177.161 218.656 176.675 218.185 176.326C217.715 175.977 217.146 175.803 216.479 175.803C215.857 175.803 215.319 175.955 214.864 176.258C214.424 176.561 214.082 176.994 213.84 177.555C213.597 178.116 213.476 178.768 213.476 179.512C213.476 180.27 213.597 180.93 213.84 181.491C214.082 182.052 214.431 182.492 214.886 182.811C215.341 183.114 215.872 183.266 216.479 183.266C217.146 183.266 217.715 183.091 218.185 182.742C218.656 182.393 218.974 181.908 219.141 181.286H221.894C221.757 182.136 221.431 182.886 220.916 183.539C220.415 184.176 219.778 184.676 219.004 185.04C218.246 185.389 217.389 185.563 216.433 185.563ZM231.266 185.336C231.19 185.033 231.129 184.699 231.084 184.335C231.053 183.971 231.038 183.531 231.038 183.015H230.947V177.509C230.947 176.903 230.773 176.448 230.424 176.144C230.09 175.826 229.575 175.666 228.877 175.666C228.194 175.666 227.648 175.795 227.239 176.053C226.844 176.296 226.602 176.652 226.511 177.123H223.758C223.879 176.046 224.395 175.174 225.305 174.506C226.215 173.839 227.436 173.505 228.968 173.505C230.56 173.505 231.766 173.869 232.585 174.597C233.404 175.31 233.814 176.364 233.814 177.76V183.015C233.814 183.379 233.837 183.751 233.882 184.13C233.943 184.509 234.026 184.911 234.132 185.336H231.266ZM227.239 185.563C226.071 185.563 225.138 185.275 224.44 184.699C223.758 184.107 223.416 183.319 223.416 182.333C223.416 181.271 223.803 180.429 224.577 179.807C225.35 179.185 226.442 178.768 227.853 178.556L231.471 178.01V179.83L228.331 180.308C227.648 180.414 227.133 180.604 226.784 180.877C226.45 181.15 226.283 181.529 226.283 182.014C226.283 182.454 226.442 182.795 226.761 183.038C227.079 183.266 227.519 183.379 228.081 183.379C228.9 183.379 229.582 183.175 230.128 182.765C230.674 182.355 230.947 181.855 230.947 181.263L231.266 183.015C230.962 183.849 230.462 184.487 229.764 184.926C229.082 185.351 228.24 185.563 227.239 185.563ZM236.945 185.336V173.733H239.743V176.463H239.812V185.336H236.945ZM245.09 185.336V178.01C245.09 177.297 244.908 176.759 244.544 176.395C244.18 176.031 243.649 175.848 242.951 175.848C242.345 175.848 241.799 175.985 241.313 176.258C240.843 176.531 240.471 176.91 240.198 177.396C239.941 177.881 239.812 178.442 239.812 179.079L239.516 176.304C239.91 175.454 240.487 174.779 241.245 174.279C242.003 173.763 242.914 173.505 243.975 173.505C245.234 173.505 246.212 173.862 246.91 174.574C247.623 175.287 247.98 176.235 247.98 177.418V185.336H245.09ZM255.616 185.336V168.955H258.574V185.336H255.616ZM266.361 185.336V168.955H269.228V185.336H266.361ZM274.506 185.336V178.01C274.506 177.297 274.324 176.759 273.96 176.395C273.596 176.031 273.065 175.848 272.368 175.848C271.761 175.848 271.215 175.985 270.73 176.258C270.259 176.531 269.888 176.91 269.615 177.396C269.357 177.881 269.228 178.442 269.228 179.079L268.932 176.304C269.327 175.454 269.903 174.779 270.661 174.279C271.42 173.763 272.33 173.505 273.392 173.505C274.65 173.505 275.629 173.862 276.327 174.574C277.039 175.287 277.396 176.235 277.396 177.418V185.336H274.506ZM285.73 185.563C284.501 185.563 283.424 185.306 282.499 184.79C281.589 184.274 280.876 183.561 280.361 182.651C279.86 181.741 279.61 180.695 279.61 179.512C279.61 178.328 279.86 177.289 280.361 176.395C280.876 175.484 281.589 174.779 282.499 174.279C283.409 173.763 284.471 173.505 285.684 173.505C286.837 173.505 287.838 173.748 288.688 174.233C289.537 174.703 290.197 175.371 290.667 176.235C291.137 177.1 291.372 178.108 291.372 179.261C291.372 179.474 291.365 179.671 291.35 179.853C291.334 180.035 291.312 180.217 291.281 180.399H281.384V178.397H289.074L288.483 178.943C288.483 177.851 288.233 177.032 287.732 176.486C287.232 175.939 286.534 175.666 285.639 175.666C284.668 175.666 283.895 176 283.318 176.668C282.757 177.335 282.476 178.298 282.476 179.557C282.476 180.801 282.757 181.756 283.318 182.424C283.895 183.076 284.706 183.402 285.753 183.402C286.359 183.402 286.89 183.288 287.345 183.061C287.8 182.833 288.134 182.484 288.346 182.014H291.054C290.675 183.106 290.03 183.971 289.12 184.608C288.225 185.245 287.095 185.563 285.73 185.563ZM293.745 185.336V168.955H296.612V185.336H293.745ZM306.503 185.563C305.396 185.563 304.494 185.306 303.796 184.79C303.113 184.259 302.689 183.531 302.522 182.606L302.749 182.583V190H299.883V173.733H302.681V176.349L302.454 176.304C302.666 175.439 303.151 174.756 303.91 174.256C304.668 173.755 305.593 173.505 306.685 173.505C307.717 173.505 308.612 173.755 309.37 174.256C310.144 174.741 310.743 175.431 311.168 176.326C311.592 177.221 311.805 178.275 311.805 179.489C311.805 180.717 311.585 181.787 311.145 182.697C310.705 183.607 310.091 184.312 309.302 184.813C308.513 185.313 307.58 185.563 306.503 185.563ZM305.775 183.197C306.701 183.197 307.436 182.879 307.982 182.242C308.528 181.589 308.801 180.679 308.801 179.512C308.801 178.344 308.521 177.441 307.96 176.804C307.413 176.167 306.678 175.848 305.753 175.848C304.843 175.848 304.107 176.175 303.546 176.827C302.984 177.464 302.704 178.366 302.704 179.534C302.704 180.702 302.984 181.605 303.546 182.242C304.107 182.879 304.85 183.197 305.775 183.197ZM319.596 190L322.599 183.266L323.122 182.401L326.399 173.733H329.447L322.508 190H319.596ZM322.167 185.222L317.457 173.733H320.574L324.51 184.153L322.167 185.222ZM336.238 185.563C335.01 185.563 333.925 185.306 332.985 184.79C332.06 184.274 331.339 183.561 330.824 182.651C330.308 181.726 330.05 180.672 330.05 179.489C330.05 178.306 330.308 177.267 330.824 176.372C331.339 175.477 332.06 174.779 332.985 174.279C333.925 173.763 335.01 173.505 336.238 173.505C337.482 173.505 338.567 173.763 339.492 174.279C340.417 174.779 341.138 175.477 341.653 176.372C342.169 177.267 342.427 178.306 342.427 179.489C342.427 180.672 342.161 181.726 341.631 182.651C341.115 183.561 340.394 184.274 339.469 184.79C338.544 185.306 337.467 185.563 336.238 185.563ZM336.238 183.266C336.845 183.266 337.391 183.114 337.877 182.811C338.362 182.492 338.741 182.052 339.014 181.491C339.287 180.915 339.424 180.24 339.424 179.466C339.424 178.328 339.12 177.434 338.514 176.781C337.922 176.129 337.164 175.803 336.238 175.803C335.313 175.803 334.547 176.129 333.941 176.781C333.334 177.434 333.03 178.328 333.03 179.466C333.03 180.24 333.167 180.915 333.44 181.491C333.728 182.052 334.107 182.492 334.578 182.811C335.063 183.114 335.617 183.266 336.238 183.266ZM348.517 185.563C347.713 185.563 347.015 185.397 346.424 185.063C345.848 184.714 345.4 184.244 345.082 183.652C344.778 183.061 344.627 182.393 344.627 181.65V173.733H347.493V181.059C347.493 181.772 347.668 182.31 348.017 182.674C348.381 183.038 348.889 183.22 349.541 183.22C350.132 183.22 350.648 183.084 351.088 182.811C351.543 182.537 351.899 182.158 352.157 181.673C352.43 181.172 352.567 180.611 352.567 179.989L352.863 182.765C352.483 183.614 351.915 184.297 351.156 184.813C350.413 185.313 349.533 185.563 348.517 185.563ZM352.658 185.336V182.606H352.567V173.733H355.456V185.336H352.658ZM368.558 185.563C367.133 185.563 366.079 185.23 365.396 184.562C364.729 183.88 364.395 182.864 364.395 181.514V171.093L367.284 170.024V181.582C367.284 182.143 367.436 182.56 367.739 182.833C368.043 183.106 368.521 183.243 369.173 183.243C369.431 183.243 369.658 183.228 369.855 183.197C370.068 183.152 370.265 183.099 370.447 183.038V185.268C370.265 185.359 370.007 185.427 369.673 185.472C369.34 185.533 368.968 185.563 368.558 185.563ZM362.165 175.985V173.733H370.447V175.985H362.165ZM377.742 185.563C376.513 185.563 375.429 185.306 374.488 184.79C373.563 184.274 372.842 183.561 372.327 182.651C371.811 181.726 371.553 180.672 371.553 179.489C371.553 178.306 371.811 177.267 372.327 176.372C372.842 175.477 373.563 174.779 374.488 174.279C375.429 173.763 376.513 173.505 377.742 173.505C378.985 173.505 380.07 173.763 380.995 174.279C381.92 174.779 382.641 175.477 383.156 176.372C383.672 177.267 383.93 178.306 383.93 179.489C383.93 180.672 383.665 181.726 383.134 182.651C382.618 183.561 381.898 184.274 380.972 184.79C380.047 185.306 378.97 185.563 377.742 185.563ZM377.742 183.266C378.348 183.266 378.894 183.114 379.38 182.811C379.865 182.492 380.244 182.052 380.517 181.491C380.79 180.915 380.927 180.24 380.927 179.466C380.927 178.328 380.623 177.434 380.017 176.781C379.425 176.129 378.667 175.803 377.742 175.803C376.816 175.803 376.05 176.129 375.444 176.781C374.837 177.434 374.534 178.328 374.534 179.466C374.534 180.24 374.67 180.915 374.943 181.491C375.231 182.052 375.611 182.492 376.081 182.811C376.566 183.114 377.12 183.266 377.742 183.266ZM394.703 185.336V182.719L394.931 182.765C394.734 183.614 394.256 184.297 393.497 184.813C392.739 185.313 391.837 185.563 390.79 185.563C389.728 185.563 388.803 185.321 388.014 184.835C387.241 184.335 386.642 183.637 386.217 182.742C385.792 181.847 385.58 180.793 385.58 179.58C385.58 178.351 385.8 177.282 386.24 176.372C386.68 175.462 387.294 174.756 388.083 174.256C388.886 173.755 389.819 173.505 390.881 173.505C391.973 173.505 392.876 173.771 393.588 174.301C394.301 174.817 394.741 175.538 394.908 176.463L394.612 176.486V168.955H397.502V185.336H394.703ZM391.632 183.22C392.557 183.22 393.293 182.902 393.839 182.264C394.4 181.612 394.681 180.702 394.681 179.534C394.681 178.366 394.4 177.464 393.839 176.827C393.278 176.19 392.534 175.871 391.609 175.871C390.699 175.871 389.963 176.197 389.402 176.85C388.841 177.487 388.56 178.389 388.56 179.557C388.56 180.725 388.841 181.627 389.402 182.264C389.963 182.902 390.707 183.22 391.632 183.22ZM408.015 185.336C407.939 185.033 407.879 184.699 407.833 184.335C407.803 183.971 407.788 183.531 407.788 183.015H407.697V177.509C407.697 176.903 407.522 176.448 407.173 176.144C406.84 175.826 406.324 175.666 405.626 175.666C404.944 175.666 404.398 175.795 403.988 176.053C403.594 176.296 403.351 176.652 403.26 177.123H400.507C400.628 176.046 401.144 175.174 402.054 174.506C402.964 173.839 404.185 173.505 405.717 173.505C407.31 173.505 408.516 173.869 409.335 174.597C410.154 175.31 410.563 176.364 410.563 177.76V183.015C410.563 183.379 410.586 183.751 410.632 184.13C410.692 184.509 410.776 184.911 410.882 185.336H408.015ZM403.988 185.563C402.82 185.563 401.887 185.275 401.19 184.699C400.507 184.107 400.166 183.319 400.166 182.333C400.166 181.271 400.553 180.429 401.326 179.807C402.1 179.185 403.192 178.768 404.602 178.556L408.22 178.01V179.83L405.08 180.308C404.398 180.414 403.882 180.604 403.533 180.877C403.199 181.15 403.033 181.529 403.033 182.014C403.033 182.454 403.192 182.795 403.51 183.038C403.829 183.266 404.269 183.379 404.83 183.379C405.649 183.379 406.332 183.175 406.878 182.765C407.424 182.355 407.697 181.855 407.697 181.263L408.015 183.015C407.712 183.849 407.211 184.487 406.514 184.926C405.831 185.351 404.989 185.563 403.988 185.563ZM413.734 190L416.737 183.266L417.26 182.401L420.536 173.733H423.585L416.646 190H413.734ZM416.305 185.222L411.595 173.733H414.712L418.648 184.153L416.305 185.222ZM429.122 179.58C429.122 178.821 429.22 178.184 429.417 177.669C429.63 177.138 429.895 176.698 430.214 176.349C430.532 175.985 430.866 175.666 431.215 175.393C431.579 175.12 431.92 174.863 432.239 174.62C432.557 174.362 432.815 174.081 433.012 173.778C433.209 173.475 433.308 173.103 433.308 172.663C433.308 172.011 433.073 171.511 432.603 171.162C432.148 170.798 431.511 170.616 430.691 170.616C429.766 170.616 429 170.843 428.394 171.298C427.802 171.753 427.438 172.405 427.301 173.255H424.458C424.594 172.239 424.935 171.359 425.481 170.616C426.043 169.872 426.771 169.296 427.666 168.886C428.56 168.477 429.584 168.272 430.737 168.272C431.859 168.272 432.83 168.454 433.649 168.818C434.483 169.182 435.128 169.69 435.583 170.343C436.053 170.995 436.288 171.768 436.288 172.663C436.288 173.315 436.182 173.869 435.97 174.324C435.758 174.779 435.485 175.174 435.151 175.507C434.832 175.841 434.483 176.144 434.104 176.417C433.725 176.69 433.369 176.971 433.035 177.259C432.716 177.547 432.451 177.873 432.239 178.237C432.026 178.601 431.92 179.049 431.92 179.58H429.122ZM428.894 185.336V182.06H432.17V185.336H428.894Z" fill="#344054"/>
<rect x="137.387" y="223.087" width="169.476" height="29.7905" rx="14.8953" fill="#F1F3FE" fill-opacity="0.94"/>
<path d="M155.269 243.119C154.586 243.119 153.954 242.996 153.371 242.75C152.789 242.496 152.284 242.145 151.856 241.699C151.438 241.244 151.11 240.707 150.873 240.088C150.637 239.47 150.518 238.792 150.518 238.054C150.518 237.317 150.632 236.644 150.86 236.034C151.096 235.415 151.424 234.883 151.843 234.437C152.27 233.982 152.775 233.631 153.358 233.386C153.94 233.14 154.573 233.017 155.255 233.017C156.02 233.017 156.707 233.172 157.317 233.481C157.926 233.782 158.422 234.209 158.805 234.765C159.196 235.32 159.437 235.966 159.528 236.703H158.108C157.99 235.929 157.676 235.329 157.166 234.901C156.666 234.464 156.033 234.246 155.269 234.246C154.623 234.246 154.049 234.405 153.549 234.724C153.057 235.033 152.675 235.474 152.402 236.048C152.129 236.612 151.993 237.281 151.993 238.054C151.993 238.819 152.129 239.492 152.402 240.075C152.684 240.648 153.071 241.094 153.563 241.413C154.054 241.731 154.623 241.89 155.269 241.89C156.033 241.89 156.67 241.676 157.18 241.249C157.699 240.812 158.013 240.207 158.122 239.433H159.555C159.455 240.179 159.21 240.83 158.818 241.385C158.427 241.931 157.926 242.359 157.317 242.668C156.716 242.969 156.033 243.119 155.269 243.119ZM164.077 243.119C163.367 243.119 162.743 242.964 162.207 242.655C161.67 242.336 161.251 241.904 160.951 241.358C160.65 240.803 160.5 240.175 160.5 239.474C160.5 238.764 160.65 238.141 160.951 237.604C161.26 237.067 161.679 236.648 162.207 236.348C162.743 236.039 163.367 235.884 164.077 235.884C164.796 235.884 165.424 236.039 165.961 236.348C166.497 236.648 166.912 237.067 167.203 237.604C167.503 238.141 167.653 238.764 167.653 239.474C167.653 240.175 167.503 240.803 167.203 241.358C166.912 241.904 166.497 242.336 165.961 242.655C165.424 242.964 164.796 243.119 164.077 243.119ZM164.077 241.959C164.504 241.959 164.873 241.854 165.182 241.645C165.501 241.435 165.751 241.144 165.933 240.771C166.115 240.398 166.206 239.961 166.206 239.46C166.206 238.714 166.006 238.127 165.606 237.699C165.214 237.263 164.705 237.044 164.077 237.044C163.458 237.044 162.948 237.263 162.548 237.699C162.156 238.136 161.961 238.723 161.961 239.46C161.961 239.961 162.047 240.398 162.22 240.771C162.402 241.144 162.652 241.435 162.971 241.645C163.299 241.854 163.667 241.959 164.077 241.959ZM169.111 242.982V236.02H170.463V237.659H170.531V242.982H169.111ZM174.053 242.982V238.505C174.053 238.023 173.93 237.663 173.685 237.426C173.448 237.19 173.093 237.072 172.62 237.072C172.21 237.072 171.846 237.163 171.528 237.345C171.218 237.527 170.973 237.777 170.791 238.095C170.618 238.414 170.531 238.792 170.531 239.228L170.354 237.563C170.581 237.044 170.932 236.635 171.405 236.334C171.878 236.034 172.429 235.884 173.057 235.884C173.803 235.884 174.39 236.093 174.818 236.512C175.245 236.93 175.459 237.486 175.459 238.177V242.982H174.053ZM180.126 243.119C179.316 243.119 178.72 242.932 178.337 242.559C177.964 242.177 177.778 241.617 177.778 240.88V234.423L179.184 233.891V240.894C179.184 241.258 179.279 241.526 179.47 241.699C179.662 241.872 179.971 241.959 180.399 241.959C180.563 241.959 180.708 241.945 180.836 241.918C180.963 241.89 181.072 241.858 181.163 241.822V242.969C181.063 243.014 180.922 243.051 180.74 243.078C180.558 243.105 180.353 243.119 180.126 243.119ZM176.385 237.153V236.02H181.163V237.153H176.385ZM185.339 243.119C184.638 243.119 184.019 242.964 183.483 242.655C182.955 242.345 182.541 241.918 182.24 241.372C181.94 240.826 181.79 240.198 181.79 239.488C181.79 238.769 181.935 238.141 182.227 237.604C182.527 237.058 182.946 236.635 183.483 236.334C184.019 236.034 184.634 235.884 185.325 235.884C185.999 235.884 186.581 236.03 187.073 236.321C187.573 236.603 187.956 236.999 188.219 237.508C188.492 238.018 188.629 238.623 188.629 239.324C188.629 239.433 188.624 239.538 188.615 239.638C188.615 239.729 188.606 239.824 188.588 239.925H182.745V238.86H187.592L187.237 239.283C187.237 238.537 187.068 237.968 186.731 237.577C186.395 237.185 185.926 236.99 185.325 236.99C184.679 236.99 184.165 237.213 183.783 237.659C183.41 238.095 183.223 238.705 183.223 239.488C183.223 240.28 183.41 240.898 183.783 241.344C184.165 241.79 184.693 242.013 185.366 242.013C185.776 242.013 186.131 241.931 186.431 241.767C186.731 241.595 186.954 241.344 187.1 241.017H188.438C188.21 241.672 187.824 242.186 187.278 242.559C186.741 242.932 186.094 243.119 185.339 243.119ZM190.081 242.982V236.02H191.433V237.659H191.501V242.982H190.081ZM195.023 242.982V238.505C195.023 238.023 194.9 237.663 194.654 237.426C194.418 237.19 194.063 237.072 193.59 237.072C193.18 237.072 192.816 237.163 192.497 237.345C192.188 237.527 191.942 237.777 191.76 238.095C191.587 238.414 191.501 238.792 191.501 239.228L191.323 237.563C191.551 237.044 191.901 236.635 192.375 236.334C192.848 236.034 193.398 235.884 194.026 235.884C194.773 235.884 195.36 236.093 195.787 236.512C196.215 236.93 196.429 237.486 196.429 238.177V242.982H195.023ZM201.095 243.119C200.285 243.119 199.689 242.932 199.307 242.559C198.934 242.177 198.747 241.617 198.747 240.88V234.423L200.154 233.891V240.894C200.154 241.258 200.249 241.526 200.44 241.699C200.631 241.872 200.941 241.959 201.368 241.959C201.532 241.959 201.678 241.945 201.805 241.918C201.933 241.89 202.042 241.858 202.133 241.822V242.969C202.033 243.014 201.892 243.051 201.71 243.078C201.528 243.105 201.323 243.119 201.095 243.119ZM197.355 237.153V236.02H202.133V237.153H197.355ZM210.486 242.982C210.44 242.81 210.408 242.618 210.39 242.409C210.381 242.2 210.376 241.945 210.376 241.645H210.308V238.327C210.308 237.881 210.194 237.549 209.967 237.331C209.748 237.103 209.398 236.99 208.916 236.99C208.452 236.99 208.078 237.081 207.796 237.263C207.523 237.445 207.364 237.704 207.318 238.041H205.967C206.031 237.386 206.327 236.862 206.854 236.471C207.382 236.08 208.088 235.884 208.97 235.884C209.88 235.884 210.563 236.098 211.018 236.525C211.473 236.944 211.7 237.563 211.7 238.382V241.645C211.7 241.854 211.714 242.068 211.741 242.286C211.769 242.505 211.81 242.737 211.864 242.982H210.486ZM208.083 243.119C207.373 243.119 206.809 242.946 206.39 242.6C205.972 242.245 205.762 241.767 205.762 241.167C205.762 240.548 205.981 240.061 206.418 239.706C206.863 239.342 207.501 239.096 208.329 238.969L210.622 238.6V239.597L208.547 239.925C208.083 239.997 207.733 240.12 207.496 240.293C207.268 240.466 207.155 240.716 207.155 241.044C207.155 241.363 207.259 241.604 207.469 241.767C207.687 241.922 208.001 242 208.411 242C208.957 242 209.407 241.868 209.762 241.604C210.126 241.34 210.308 241.008 210.308 240.607L210.486 241.617C210.322 242.1 210.03 242.473 209.612 242.737C209.193 242.992 208.684 243.119 208.083 243.119ZM213.624 242.982V236.02H214.975V237.659H215.044V242.982H213.624ZM218.566 242.982V238.505C218.566 238.023 218.443 237.663 218.197 237.426C217.96 237.19 217.605 237.072 217.132 237.072C216.723 237.072 216.359 237.163 216.04 237.345C215.731 237.527 215.485 237.777 215.303 238.095C215.13 238.414 215.044 238.792 215.044 239.228L214.866 237.563C215.094 237.044 215.444 236.635 215.917 236.334C216.39 236.034 216.941 235.884 217.569 235.884C218.315 235.884 218.902 236.093 219.33 236.512C219.758 236.93 219.972 237.486 219.972 238.177V242.982H218.566ZM226.926 242.982V241.385L227.063 241.426C226.917 241.945 226.617 242.359 226.162 242.668C225.707 242.969 225.161 243.119 224.523 243.119C223.896 243.119 223.345 242.969 222.872 242.668C222.408 242.368 222.044 241.949 221.78 241.413C221.525 240.876 221.397 240.248 221.397 239.529C221.397 238.801 221.529 238.164 221.793 237.618C222.057 237.072 222.426 236.648 222.899 236.348C223.372 236.048 223.927 235.898 224.564 235.898C225.229 235.898 225.775 236.057 226.203 236.375C226.639 236.685 226.926 237.122 227.063 237.686L226.871 237.713V233.154H228.277V242.982H226.926ZM224.878 241.931C225.506 241.931 226.002 241.717 226.366 241.29C226.73 240.853 226.912 240.252 226.912 239.488C226.912 238.742 226.726 238.155 226.353 237.727C225.989 237.29 225.493 237.072 224.865 237.072C224.246 237.072 223.754 237.29 223.39 237.727C223.035 238.155 222.858 238.755 222.858 239.529C222.858 240.284 223.035 240.876 223.39 241.303C223.754 241.722 224.25 241.931 224.878 241.931ZM232.981 242.982V233.154H234.428V242.982H232.981ZM234.128 237.877L239.001 233.154H240.98L235.943 237.877H234.128ZM239.219 242.982L234.1 237.877H235.943L241.253 242.982H239.219ZM244.836 243.119C244.135 243.119 243.516 242.964 242.979 242.655C242.451 242.345 242.037 241.918 241.737 241.372C241.437 240.826 241.286 240.198 241.286 239.488C241.286 238.769 241.432 238.141 241.723 237.604C242.024 237.058 242.442 236.635 242.979 236.334C243.516 236.034 244.13 235.884 244.822 235.884C245.495 235.884 246.078 236.03 246.569 236.321C247.07 236.603 247.452 236.999 247.716 237.508C247.989 238.018 248.126 238.623 248.126 239.324C248.126 239.433 248.121 239.538 248.112 239.638C248.112 239.729 248.103 239.824 248.085 239.925H242.242V238.86H247.088L246.733 239.283C246.733 238.537 246.565 237.968 246.228 237.577C245.891 237.185 245.423 236.99 244.822 236.99C244.176 236.99 243.662 237.213 243.279 237.659C242.906 238.095 242.72 238.705 242.72 239.488C242.72 240.28 242.906 240.898 243.279 241.344C243.662 241.79 244.189 242.013 244.863 242.013C245.272 242.013 245.627 241.931 245.928 241.767C246.228 241.595 246.451 241.344 246.597 241.017H247.934C247.707 241.672 247.32 242.186 246.774 242.559C246.237 242.932 245.591 243.119 244.836 243.119ZM249.91 245.781L251.589 241.945L251.876 241.494L253.991 236.02H255.466L251.371 245.781H249.91ZM251.521 242.982L248.545 236.02H250.087L252.613 242.286L251.521 242.982ZM258.13 242.982L256 236.02H257.461L258.908 241.617H258.703L260.464 236.02H261.693L263.454 241.617H263.263L264.696 236.02H266.088L263.959 242.982H262.717L260.956 237.481H261.16L259.372 242.982H258.13ZM270.272 243.119C269.562 243.119 268.939 242.964 268.402 242.655C267.865 242.336 267.446 241.904 267.146 241.358C266.846 240.803 266.695 240.175 266.695 239.474C266.695 238.764 266.846 238.141 267.146 237.604C267.455 237.067 267.874 236.648 268.402 236.348C268.939 236.039 269.562 235.884 270.272 235.884C270.991 235.884 271.619 236.039 272.156 236.348C272.693 236.648 273.107 237.067 273.398 237.604C273.698 238.141 273.848 238.764 273.848 239.474C273.848 240.175 273.698 240.803 273.398 241.358C273.107 241.904 272.693 242.336 272.156 242.655C271.619 242.964 270.991 243.119 270.272 243.119ZM270.272 241.959C270.7 241.959 271.068 241.854 271.378 241.645C271.696 241.435 271.946 241.144 272.128 240.771C272.31 240.398 272.401 239.961 272.401 239.46C272.401 238.714 272.201 238.127 271.801 237.699C271.41 237.263 270.9 237.044 270.272 237.044C269.653 237.044 269.143 237.263 268.743 237.699C268.352 238.136 268.156 238.723 268.156 239.46C268.156 239.961 268.242 240.398 268.415 240.771C268.597 241.144 268.848 241.435 269.166 241.645C269.494 241.854 269.862 241.959 270.272 241.959ZM275.307 242.982V236.02H276.658V237.754H276.726V242.982H275.307ZM276.726 239.351L276.549 237.699C276.713 237.108 276.995 236.657 277.395 236.348C277.796 236.039 278.274 235.884 278.829 235.884C279.038 235.884 279.184 235.902 279.265 235.939V237.276C279.22 237.258 279.156 237.249 279.074 237.249C278.992 237.24 278.892 237.235 278.774 237.235C278.091 237.235 277.577 237.413 277.231 237.768C276.895 238.123 276.726 238.651 276.726 239.351ZM285.369 242.982V241.385L285.506 241.426C285.36 241.945 285.06 242.359 284.605 242.668C284.15 242.969 283.604 243.119 282.967 243.119C282.339 243.119 281.788 242.969 281.315 242.668C280.851 242.368 280.487 241.949 280.223 241.413C279.968 240.876 279.841 240.248 279.841 239.529C279.841 238.801 279.973 238.164 280.237 237.618C280.501 237.072 280.869 236.648 281.342 236.348C281.816 236.048 282.371 235.898 283.008 235.898C283.672 235.898 284.218 236.057 284.646 236.375C285.083 236.685 285.369 237.122 285.506 237.686L285.315 237.713V233.154H286.721V242.982H285.369ZM283.322 241.931C283.95 241.931 284.446 241.717 284.81 241.29C285.174 240.853 285.356 240.252 285.356 239.488C285.356 238.742 285.169 238.155 284.796 237.727C284.432 237.29 283.936 237.072 283.308 237.072C282.689 237.072 282.198 237.29 281.834 237.727C281.479 238.155 281.301 238.755 281.301 239.529C281.301 240.284 281.479 240.876 281.834 241.303C282.198 241.722 282.694 241.931 283.322 241.931ZM291.23 243.119C290.319 243.119 289.596 242.919 289.059 242.518C288.522 242.118 288.217 241.554 288.144 240.826H289.455C289.519 241.226 289.701 241.535 290.001 241.754C290.31 241.963 290.729 242.068 291.257 242.068C291.721 242.068 292.076 241.986 292.322 241.822C292.567 241.658 292.69 241.426 292.69 241.126C292.69 240.907 292.617 240.725 292.472 240.58C292.335 240.425 292.062 240.298 291.653 240.198L290.533 239.938C289.833 239.765 289.309 239.511 288.963 239.174C288.627 238.828 288.458 238.405 288.458 237.904C288.458 237.276 288.69 236.785 289.155 236.43C289.628 236.066 290.274 235.884 291.093 235.884C291.903 235.884 292.554 236.066 293.045 236.43C293.546 236.794 293.828 237.304 293.891 237.959H292.581C292.526 237.631 292.367 237.381 292.103 237.208C291.848 237.026 291.498 236.935 291.052 236.935C290.633 236.935 290.31 237.012 290.083 237.167C289.864 237.313 289.755 237.517 289.755 237.781C289.755 238 289.837 238.182 290.001 238.327C290.174 238.473 290.456 238.596 290.847 238.696L291.994 238.983C292.658 239.146 293.159 239.415 293.496 239.788C293.832 240.152 294.001 240.593 294.001 241.112C294.001 241.74 293.755 242.232 293.264 242.587C292.781 242.941 292.103 243.119 291.23 243.119Z" fill="#7A8EAC"/>
<rect x="317.136" y="223.087" width="155.476" height="29.7905" rx="14.8953" fill="#F1F3FE" fill-opacity="0.94"/>
<path d="M335.262 243.119C334.251 243.119 333.373 242.905 332.627 242.477C331.881 242.041 331.303 241.44 330.893 240.675C330.493 239.902 330.293 239.019 330.293 238.027C330.293 237.044 330.497 236.175 330.907 235.42C331.316 234.664 331.881 234.077 332.6 233.659C333.328 233.231 334.156 233.017 335.084 233.017C336.031 233.017 336.863 233.231 337.582 233.659C338.301 234.077 338.865 234.664 339.275 235.42C339.694 236.175 339.903 237.049 339.903 238.041C339.903 238.742 339.785 239.392 339.548 239.993C339.32 240.593 338.97 241.103 338.497 241.522C338.033 241.94 337.446 242.232 336.736 242.395L335.262 243.119ZM335.084 241.959C335.758 241.959 336.34 241.79 336.831 241.454C337.332 241.117 337.723 240.653 338.005 240.061C338.288 239.47 338.429 238.787 338.429 238.013C338.429 237.267 338.288 236.612 338.005 236.048C337.723 235.474 337.332 235.033 336.831 234.724C336.331 234.405 335.748 234.246 335.084 234.246C334.42 234.246 333.837 234.405 333.337 234.724C332.845 235.033 332.459 235.47 332.176 236.034C331.903 236.598 331.767 237.258 331.767 238.013C331.767 238.796 331.908 239.483 332.19 240.075C332.472 240.657 332.859 241.117 333.35 241.454C333.851 241.79 334.429 241.959 335.084 241.959ZM335.262 243.119L335.098 242.136L340.312 241.795V242.982C339.748 242.982 339.261 242.987 338.852 242.996C338.451 243.014 338.074 243.032 337.719 243.051C337.373 243.069 337.009 243.083 336.627 243.092C336.244 243.11 335.789 243.119 335.262 243.119ZM343.94 243.119C343.476 243.119 343.066 243.023 342.711 242.832C342.356 242.632 342.079 242.359 341.878 242.013C341.687 241.667 341.592 241.271 341.592 240.826V236.02H343.011V240.498C343.011 240.98 343.13 241.34 343.366 241.576C343.603 241.813 343.94 241.931 344.377 241.931C344.768 241.931 345.114 241.84 345.414 241.658C345.723 241.476 345.965 241.226 346.137 240.907C346.319 240.58 346.411 240.202 346.411 239.774L346.588 241.44C346.36 241.949 346.01 242.359 345.537 242.668C345.073 242.969 344.54 243.119 343.94 243.119ZM346.465 242.982V241.344H346.411V236.02H347.817V242.982H346.465ZM354.013 242.982C353.967 242.81 353.935 242.618 353.917 242.409C353.908 242.2 353.903 241.945 353.903 241.645H353.835V238.327C353.835 237.881 353.721 237.549 353.494 237.331C353.275 237.103 352.925 236.99 352.443 236.99C351.979 236.99 351.605 237.081 351.323 237.263C351.05 237.445 350.891 237.704 350.846 238.041H349.494C349.558 237.386 349.854 236.862 350.381 236.471C350.909 236.08 351.615 235.884 352.497 235.884C353.407 235.884 354.09 236.098 354.545 236.525C355 236.944 355.228 237.563 355.228 238.382V241.645C355.228 241.854 355.241 242.068 355.269 242.286C355.296 242.505 355.337 242.737 355.391 242.982H354.013ZM351.61 243.119C350.9 243.119 350.336 242.946 349.917 242.6C349.499 242.245 349.289 241.767 349.289 241.167C349.289 240.548 349.508 240.061 349.945 239.706C350.391 239.342 351.028 239.096 351.856 238.969L354.149 238.6V239.597L352.074 239.925C351.61 239.997 351.26 240.12 351.023 240.293C350.796 240.466 350.682 240.716 350.682 241.044C350.682 241.363 350.786 241.604 350.996 241.767C351.214 241.922 351.528 242 351.938 242C352.484 242 352.934 241.868 353.289 241.604C353.653 241.34 353.835 241.008 353.835 240.607L354.013 241.617C353.849 242.1 353.558 242.473 353.139 242.737C352.72 242.992 352.211 243.119 351.61 243.119ZM357.151 242.982V233.154H358.571V242.982H357.151ZM360.564 242.982V236.02H361.983V242.982H360.564ZM360.495 234.655V233.058H362.065V234.655H360.495ZM366.885 243.119C366.075 243.119 365.479 242.932 365.097 242.559C364.724 242.177 364.537 241.617 364.537 240.88V234.423L365.943 233.891V240.894C365.943 241.258 366.039 241.526 366.23 241.699C366.421 241.872 366.731 241.959 367.158 241.959C367.322 241.959 367.468 241.945 367.595 241.918C367.723 241.89 367.832 241.858 367.923 241.822V242.969C367.823 243.014 367.682 243.051 367.5 243.078C367.318 243.105 367.113 243.119 366.885 243.119ZM363.145 237.153V236.02H367.923V237.153H363.145ZM369.881 245.781L371.56 241.945L371.847 241.494L373.963 236.02H375.437L371.342 245.781H369.881ZM371.492 242.982L368.516 236.02H370.058L372.584 242.286L371.492 242.982ZM383.608 242.982C383.562 242.81 383.53 242.618 383.512 242.409C383.503 242.2 383.498 241.945 383.498 241.645H383.43V238.327C383.43 237.881 383.316 237.549 383.089 237.331C382.87 237.103 382.52 236.99 382.038 236.99C381.574 236.99 381.2 237.081 380.918 237.263C380.645 237.445 380.486 237.704 380.441 238.041H379.089C379.153 237.386 379.449 236.862 379.976 236.471C380.504 236.08 381.21 235.884 382.092 235.884C383.002 235.884 383.685 236.098 384.14 236.525C384.595 236.944 384.823 237.563 384.823 238.382V241.645C384.823 241.854 384.836 242.068 384.863 242.286C384.891 242.505 384.932 242.737 384.986 242.982H383.608ZM381.205 243.119C380.495 243.119 379.931 242.946 379.512 242.6C379.094 242.245 378.884 241.767 378.884 241.167C378.884 240.548 379.103 240.061 379.54 239.706C379.986 239.342 380.623 239.096 381.451 238.969L383.744 238.6V239.597L381.669 239.925C381.205 239.997 380.855 240.12 380.618 240.293C380.39 240.466 380.277 240.716 380.277 241.044C380.277 241.363 380.381 241.604 380.591 241.767C380.809 241.922 381.123 242 381.533 242C382.079 242 382.529 241.868 382.884 241.604C383.248 241.34 383.43 241.008 383.43 240.607L383.608 241.617C383.444 242.1 383.153 242.473 382.734 242.737C382.315 242.992 381.806 243.119 381.205 243.119ZM386.746 242.982V236.02H388.097V237.659H388.166V242.982H386.746ZM391.688 242.982V238.505C391.688 238.023 391.565 237.663 391.319 237.426C391.082 237.19 390.727 237.072 390.254 237.072C389.845 237.072 389.481 237.163 389.162 237.345C388.853 237.527 388.607 237.777 388.425 238.095C388.252 238.414 388.166 238.792 388.166 239.228L387.988 237.563C388.216 237.044 388.566 236.635 389.039 236.334C389.513 236.034 390.063 235.884 390.691 235.884C391.437 235.884 392.024 236.093 392.452 236.512C392.88 236.93 393.094 237.486 393.094 238.177V242.982H391.688ZM400.048 242.982V241.385L400.185 241.426C400.039 241.945 399.739 242.359 399.284 242.668C398.829 242.969 398.283 243.119 397.646 243.119C397.018 243.119 396.467 242.969 395.994 242.668C395.53 242.368 395.166 241.949 394.902 241.413C394.647 240.876 394.519 240.248 394.519 239.529C394.519 238.801 394.651 238.164 394.915 237.618C395.179 237.072 395.548 236.648 396.021 236.348C396.494 236.048 397.049 235.898 397.686 235.898C398.351 235.898 398.897 236.057 399.325 236.375C399.761 236.685 400.048 237.122 400.185 237.686L399.993 237.713V233.154H401.4V242.982H400.048ZM398 241.931C398.628 241.931 399.124 241.717 399.488 241.29C399.852 240.853 400.034 240.252 400.034 239.488C400.034 238.742 399.848 238.155 399.475 237.727C399.111 237.29 398.615 237.072 397.987 237.072C397.368 237.072 396.877 237.29 396.512 237.727C396.158 238.155 395.98 238.755 395.98 239.529C395.98 240.284 396.158 240.876 396.512 241.303C396.877 241.722 397.372 241.931 398 241.931ZM409.912 243.119C408.656 243.119 407.691 242.75 407.018 242.013C406.344 241.276 406.007 240.225 406.007 238.86V233.154H407.454V239.024C407.454 239.961 407.668 240.675 408.096 241.167C408.524 241.649 409.129 241.89 409.912 241.89C410.712 241.89 411.327 241.649 411.754 241.167C412.182 240.685 412.396 239.97 412.396 239.024V233.154H413.843V238.887C413.843 240.234 413.502 241.276 412.819 242.013C412.146 242.75 411.177 243.119 409.912 243.119ZM418.133 243.119C417.223 243.119 416.499 242.919 415.962 242.518C415.425 242.118 415.12 241.554 415.048 240.826H416.358C416.422 241.226 416.604 241.535 416.904 241.754C417.214 241.963 417.632 242.068 418.16 242.068C418.624 242.068 418.979 241.986 419.225 241.822C419.471 241.658 419.593 241.426 419.593 241.126C419.593 240.907 419.521 240.725 419.375 240.58C419.239 240.425 418.966 240.298 418.556 240.198L417.437 239.938C416.736 239.765 416.213 239.511 415.867 239.174C415.53 238.828 415.362 238.405 415.362 237.904C415.362 237.276 415.594 236.785 416.058 236.43C416.531 236.066 417.177 235.884 417.996 235.884C418.806 235.884 419.457 236.066 419.948 236.43C420.449 236.794 420.731 237.304 420.795 237.959H419.484C419.43 237.631 419.27 237.381 419.006 237.208C418.752 237.026 418.401 236.935 417.955 236.935C417.537 236.935 417.214 237.012 416.986 237.167C416.768 237.313 416.658 237.517 416.658 237.781C416.658 238 416.74 238.182 416.904 238.327C417.077 238.473 417.359 238.596 417.751 238.696L418.897 238.983C419.562 239.146 420.062 239.415 420.399 239.788C420.736 240.152 420.904 240.593 420.904 241.112C420.904 241.74 420.658 242.232 420.167 242.587C419.684 242.941 419.006 243.119 418.133 243.119ZM426.707 242.982C426.661 242.81 426.63 242.618 426.611 242.409C426.602 242.2 426.598 241.945 426.598 241.645H426.529V238.327C426.529 237.881 426.416 237.549 426.188 237.331C425.97 237.103 425.619 236.99 425.137 236.99C424.673 236.99 424.3 237.081 424.018 237.263C423.745 237.445 423.585 237.704 423.54 238.041H422.188C422.252 237.386 422.548 236.862 423.076 236.471C423.604 236.08 424.309 235.884 425.192 235.884C426.102 235.884 426.784 236.098 427.239 236.525C427.694 236.944 427.922 237.563 427.922 238.382V241.645C427.922 241.854 427.935 242.068 427.963 242.286C427.99 242.505 428.031 242.737 428.086 242.982H426.707ZM424.304 243.119C423.594 243.119 423.03 242.946 422.612 242.6C422.193 242.245 421.984 241.767 421.984 241.167C421.984 240.548 422.202 240.061 422.639 239.706C423.085 239.342 423.722 239.096 424.55 238.969L426.843 238.6V239.597L424.768 239.925C424.304 239.997 423.954 240.12 423.717 240.293C423.49 240.466 423.376 240.716 423.376 241.044C423.376 241.363 423.481 241.604 423.69 241.767C423.908 241.922 424.222 242 424.632 242C425.178 242 425.628 241.868 425.983 241.604C426.347 241.34 426.529 241.008 426.529 240.607L426.707 241.617C426.543 242.1 426.252 242.473 425.833 242.737C425.415 242.992 424.905 243.119 424.304 243.119ZM433.558 243.105C432.903 243.105 432.357 242.951 431.92 242.641C431.483 242.323 431.197 241.881 431.06 241.317L431.197 241.29V242.982H429.845V233.154H431.265V237.618L431.115 237.577C431.27 237.049 431.57 236.635 432.016 236.334C432.471 236.034 433.017 235.884 433.654 235.884C434.282 235.884 434.823 236.034 435.278 236.334C435.742 236.635 436.097 237.053 436.343 237.59C436.598 238.127 436.725 238.755 436.725 239.474C436.725 240.202 436.593 240.839 436.329 241.385C436.066 241.931 435.697 242.354 435.224 242.655C434.751 242.955 434.195 243.105 433.558 243.105ZM433.258 241.931C433.877 241.931 434.368 241.713 434.732 241.276C435.096 240.839 435.278 240.239 435.278 239.474C435.278 238.719 435.096 238.132 434.732 237.713C434.368 237.285 433.872 237.072 433.244 237.072C432.626 237.072 432.13 237.29 431.756 237.727C431.392 238.155 431.21 238.751 431.21 239.515C431.21 240.261 431.392 240.853 431.756 241.29C432.13 241.717 432.63 241.931 433.258 241.931ZM438.177 242.982V236.02H439.597V242.982H438.177ZM438.109 234.655V233.058H439.679V234.655H438.109ZM441.59 242.982V233.154H443.01V242.982H441.59ZM445.003 242.982V236.02H446.422V242.982H445.003ZM444.934 234.655V233.058H446.504V234.655H444.934ZM451.324 243.119C450.514 243.119 449.918 242.932 449.536 242.559C449.163 242.177 448.976 241.617 448.976 240.88V234.423L450.382 233.891V240.894C450.382 241.258 450.478 241.526 450.669 241.699C450.86 241.872 451.17 241.959 451.597 241.959C451.761 241.959 451.907 241.945 452.034 241.918C452.162 241.89 452.271 241.858 452.362 241.822V242.969C452.262 243.014 452.121 243.051 451.939 243.078C451.757 243.105 451.552 243.119 451.324 243.119ZM447.584 237.153V236.02H452.362V237.153H447.584ZM454.32 245.781L455.999 241.945L456.286 241.494L458.402 236.02H459.876L455.781 245.781H454.32ZM455.931 242.982L452.955 236.02H454.497L457.023 242.286L455.931 242.982Z" fill="#7A8EAC"/>
<rect x="141.013" y="263.15" width="84.4763" height="29.7905" rx="14.8953" fill="#F1F3FE" fill-opacity="0.94"/>
<path d="M155.405 283.046V281.927H158.34C158.895 281.927 159.327 281.776 159.636 281.476C159.955 281.176 160.114 280.766 160.114 280.247C160.114 279.701 159.946 279.265 159.609 278.937C159.281 278.609 158.831 278.446 158.258 278.446H155.405V277.353H158.121C158.676 277.353 159.104 277.221 159.404 276.958C159.714 276.685 159.868 276.298 159.868 275.797C159.868 275.324 159.723 274.965 159.432 274.719C159.15 274.464 158.731 274.337 158.176 274.337H155.405V273.217H158.394C159.286 273.217 159.996 273.436 160.524 273.872C161.052 274.3 161.315 274.887 161.315 275.633C161.315 276.107 161.206 276.525 160.988 276.889C160.779 277.244 160.487 277.522 160.114 277.722C159.741 277.913 159.318 278.009 158.845 278.009L158.913 277.722C159.423 277.722 159.878 277.84 160.278 278.077C160.678 278.304 160.997 278.618 161.234 279.019C161.47 279.419 161.589 279.883 161.589 280.411C161.589 280.93 161.461 281.39 161.206 281.79C160.961 282.19 160.61 282.5 160.155 282.718C159.7 282.937 159.172 283.046 158.572 283.046H155.405ZM154.34 283.046V273.217H155.787V283.046H154.34ZM167.318 283.046C167.273 282.873 167.241 282.682 167.223 282.473C167.214 282.263 167.209 282.008 167.209 281.708H167.141V278.391C167.141 277.945 167.027 277.613 166.8 277.394C166.581 277.167 166.231 277.053 165.749 277.053C165.284 277.053 164.911 277.144 164.629 277.326C164.356 277.508 164.197 277.768 164.151 278.104H162.8C162.864 277.449 163.159 276.926 163.687 276.534C164.215 276.143 164.92 275.947 165.803 275.947C166.713 275.947 167.396 276.161 167.851 276.589C168.306 277.008 168.533 277.626 168.533 278.446V281.708C168.533 281.917 168.547 282.131 168.574 282.35C168.602 282.568 168.643 282.8 168.697 283.046H167.318ZM164.916 283.182C164.206 283.182 163.642 283.009 163.223 282.664C162.804 282.309 162.595 281.831 162.595 281.23C162.595 280.611 162.814 280.125 163.25 279.77C163.696 279.406 164.333 279.16 165.162 279.033L167.455 278.664V279.66L165.38 279.988C164.916 280.061 164.565 280.184 164.329 280.357C164.101 280.53 163.988 280.78 163.988 281.107C163.988 281.426 164.092 281.667 164.302 281.831C164.52 281.986 164.834 282.063 165.243 282.063C165.79 282.063 166.24 281.931 166.595 281.667C166.959 281.403 167.141 281.071 167.141 280.671L167.318 281.681C167.155 282.163 166.863 282.536 166.445 282.8C166.026 283.055 165.516 283.182 164.916 283.182ZM173.297 283.182C172.633 283.182 172.042 283.028 171.523 282.718C171.004 282.4 170.595 281.967 170.294 281.421C170.003 280.875 169.857 280.252 169.857 279.551C169.857 278.85 170.003 278.232 170.294 277.695C170.595 277.149 171.004 276.721 171.523 276.412C172.042 276.102 172.629 275.947 173.284 275.947C173.839 275.947 174.335 276.052 174.772 276.261C175.209 276.471 175.568 276.762 175.85 277.135C176.132 277.508 176.314 277.95 176.396 278.459H175.058C174.967 278.05 174.767 277.722 174.458 277.476C174.157 277.231 173.775 277.108 173.311 277.108C172.911 277.108 172.56 277.208 172.26 277.408C171.96 277.608 171.728 277.89 171.564 278.254C171.4 278.618 171.318 279.051 171.318 279.551C171.318 280.043 171.4 280.475 171.564 280.848C171.728 281.221 171.96 281.512 172.26 281.722C172.56 281.922 172.915 282.022 173.325 282.022C173.771 282.022 174.148 281.904 174.458 281.667C174.776 281.421 174.981 281.094 175.072 280.684H176.41C176.319 281.185 176.128 281.622 175.837 281.995C175.554 282.368 175.195 282.659 174.758 282.868C174.321 283.078 173.834 283.182 173.297 283.182ZM177.816 283.046V273.04H179.235V283.046H177.816ZM182.334 283.046L178.908 279.428L182.225 276.084H184.013L180.245 279.742L180.314 279.101L184.15 283.046H182.334ZM185.268 283.046V273.217H186.687V283.046H185.268ZM188.68 283.046V276.084H190.1V283.046H188.68ZM188.612 274.719V273.122H190.182V274.719H188.612ZM192.093 283.046V276.084H193.445V277.722H193.513V283.046H192.093ZM197.035 283.046V278.568C197.035 278.086 196.912 277.727 196.666 277.49C196.43 277.253 196.075 277.135 195.601 277.135C195.192 277.135 194.828 277.226 194.509 277.408C194.2 277.59 193.954 277.84 193.772 278.159C193.599 278.477 193.513 278.855 193.513 279.292L193.335 277.626C193.563 277.108 193.913 276.698 194.386 276.398C194.86 276.098 195.41 275.947 196.038 275.947C196.784 275.947 197.371 276.157 197.799 276.575C198.227 276.994 198.441 277.549 198.441 278.241V283.046H197.035ZM200.372 283.046V273.04H201.791V283.046H200.372ZM204.89 283.046L201.464 279.428L204.781 276.084H206.569L202.802 279.742L202.87 279.101L206.706 283.046H204.89ZM210.082 283.182C209.172 283.182 208.449 282.982 207.912 282.582C207.375 282.181 207.07 281.617 206.997 280.889H208.308C208.371 281.289 208.553 281.599 208.854 281.817C209.163 282.027 209.582 282.131 210.11 282.131C210.574 282.131 210.929 282.049 211.174 281.886C211.42 281.722 211.543 281.49 211.543 281.189C211.543 280.971 211.47 280.789 211.324 280.643C211.188 280.489 210.915 280.361 210.505 280.261L209.386 280.002C208.685 279.829 208.162 279.574 207.816 279.237C207.479 278.891 207.311 278.468 207.311 277.968C207.311 277.34 207.543 276.848 208.007 276.493C208.481 276.129 209.127 275.947 209.946 275.947C210.756 275.947 211.406 276.129 211.898 276.493C212.398 276.857 212.68 277.367 212.744 278.022H211.434C211.379 277.695 211.22 277.444 210.956 277.272C210.701 277.09 210.351 276.999 209.905 276.999C209.486 276.999 209.163 277.076 208.936 277.231C208.717 277.376 208.608 277.581 208.608 277.845C208.608 278.063 208.69 278.245 208.854 278.391C209.027 278.537 209.309 278.659 209.7 278.759L210.847 279.046C211.511 279.21 212.012 279.478 212.348 279.852C212.685 280.216 212.853 280.657 212.853 281.176C212.853 281.804 212.608 282.295 212.116 282.65C211.634 283.005 210.956 283.182 210.082 283.182Z" fill="#7A8EAC"/>
<rect x="235.762" y="263.15" width="87.4763" height="29.7905" rx="14.8953" fill="#F1F3FE" fill-opacity="0.94"/>
<path d="M249.336 283.046V273.217H250.783V283.046H249.336ZM250.482 277.94L255.356 273.217H257.335L252.298 277.94H250.482ZM255.574 283.046L250.455 277.94H252.298L257.608 283.046H255.574ZM261.19 283.182C260.49 283.182 259.871 283.028 259.334 282.718C258.806 282.409 258.392 281.981 258.092 281.435C257.791 280.889 257.641 280.261 257.641 279.551C257.641 278.832 257.787 278.204 258.078 277.667C258.378 277.121 258.797 276.698 259.334 276.398C259.871 276.098 260.485 275.947 261.177 275.947C261.85 275.947 262.433 276.093 262.924 276.384C263.425 276.666 263.807 277.062 264.071 277.572C264.344 278.081 264.48 278.687 264.48 279.387C264.48 279.497 264.476 279.601 264.467 279.701C264.467 279.792 264.458 279.888 264.439 279.988H258.597V278.923H263.443L263.088 279.346C263.088 278.6 262.92 278.031 262.583 277.64C262.246 277.249 261.777 277.053 261.177 277.053C260.531 277.053 260.016 277.276 259.634 277.722C259.261 278.159 259.075 278.769 259.075 279.551C259.075 280.343 259.261 280.962 259.634 281.408C260.016 281.854 260.544 282.077 261.218 282.077C261.627 282.077 261.982 281.995 262.283 281.831C262.583 281.658 262.806 281.408 262.951 281.08H264.289C264.062 281.735 263.675 282.25 263.129 282.623C262.592 282.996 261.946 283.182 261.19 283.182ZM266.265 285.844L267.944 282.008L268.23 281.558L270.346 276.084H271.821L267.725 285.844H266.265ZM267.876 283.046L264.9 276.084H266.442L268.968 282.35L267.876 283.046ZM274.485 283.046L272.355 276.084H273.816L275.263 281.681H275.058L276.819 276.084H278.048L279.809 281.681H279.618L281.051 276.084H282.443L280.314 283.046H279.071L277.31 277.545H277.515L275.727 283.046H274.485ZM286.627 283.182C285.917 283.182 285.294 283.028 284.757 282.718C284.22 282.4 283.801 281.967 283.501 281.421C283.2 280.866 283.05 280.238 283.05 279.538C283.05 278.828 283.2 278.204 283.501 277.667C283.81 277.13 284.229 276.712 284.757 276.412C285.294 276.102 285.917 275.947 286.627 275.947C287.346 275.947 287.974 276.102 288.511 276.412C289.048 276.712 289.462 277.13 289.753 277.667C290.053 278.204 290.203 278.828 290.203 279.538C290.203 280.238 290.053 280.866 289.753 281.421C289.462 281.967 289.048 282.4 288.511 282.718C287.974 283.028 287.346 283.182 286.627 283.182ZM286.627 282.022C287.054 282.022 287.423 281.917 287.732 281.708C288.051 281.499 288.301 281.208 288.483 280.834C288.665 280.461 288.756 280.024 288.756 279.524C288.756 278.778 288.556 278.191 288.156 277.763C287.764 277.326 287.255 277.108 286.627 277.108C286.008 277.108 285.498 277.326 285.098 277.763C284.707 278.2 284.511 278.787 284.511 279.524C284.511 280.024 284.597 280.461 284.77 280.834C284.952 281.208 285.203 281.499 285.521 281.708C285.849 281.917 286.217 282.022 286.627 282.022ZM291.662 283.046V276.084H293.013V277.818H293.081V283.046H291.662ZM293.081 279.415L292.904 277.763C293.068 277.171 293.35 276.721 293.75 276.412C294.151 276.102 294.628 275.947 295.183 275.947C295.393 275.947 295.538 275.966 295.62 276.002V277.34C295.575 277.322 295.511 277.312 295.429 277.312C295.347 277.303 295.247 277.299 295.129 277.299C294.446 277.299 293.932 277.476 293.586 277.831C293.25 278.186 293.081 278.714 293.081 279.415ZM301.724 283.046V281.449L301.861 281.49C301.715 282.008 301.415 282.423 300.96 282.732C300.505 283.032 299.959 283.182 299.322 283.182C298.694 283.182 298.143 283.032 297.67 282.732C297.206 282.432 296.842 282.013 296.578 281.476C296.323 280.939 296.196 280.311 296.196 279.592C296.196 278.864 296.328 278.227 296.591 277.681C296.855 277.135 297.224 276.712 297.697 276.412C298.17 276.111 298.726 275.961 299.363 275.961C300.027 275.961 300.573 276.12 301.001 276.439C301.438 276.748 301.724 277.185 301.861 277.749L301.67 277.777V273.217H303.076V283.046H301.724ZM299.677 281.995C300.305 281.995 300.801 281.781 301.165 281.353C301.529 280.916 301.711 280.316 301.711 279.551C301.711 278.805 301.524 278.218 301.151 277.79C300.787 277.353 300.291 277.135 299.663 277.135C299.044 277.135 298.553 277.353 298.189 277.79C297.834 278.218 297.656 278.819 297.656 279.592C297.656 280.348 297.834 280.939 298.189 281.367C298.553 281.785 299.049 281.995 299.677 281.995ZM307.584 283.182C306.674 283.182 305.951 282.982 305.414 282.582C304.877 282.181 304.572 281.617 304.499 280.889H305.81C305.873 281.289 306.055 281.599 306.356 281.817C306.665 282.027 307.084 282.131 307.612 282.131C308.076 282.131 308.431 282.049 308.676 281.886C308.922 281.722 309.045 281.49 309.045 281.189C309.045 280.971 308.972 280.789 308.827 280.643C308.69 280.489 308.417 280.361 308.008 280.261L306.888 280.002C306.187 279.829 305.664 279.574 305.318 279.237C304.982 278.891 304.813 278.468 304.813 277.968C304.813 277.34 305.045 276.848 305.509 276.493C305.983 276.129 306.629 275.947 307.448 275.947C308.258 275.947 308.909 276.129 309.4 276.493C309.9 276.857 310.183 277.367 310.246 278.022H308.936C308.881 277.695 308.722 277.444 308.458 277.272C308.203 277.09 307.853 276.999 307.407 276.999C306.988 276.999 306.665 277.076 306.438 277.231C306.219 277.376 306.11 277.581 306.11 277.845C306.11 278.063 306.192 278.245 306.356 278.391C306.529 278.537 306.811 278.659 307.202 278.759L308.349 279.046C309.013 279.21 309.514 279.478 309.85 279.852C310.187 280.216 310.356 280.657 310.356 281.176C310.356 281.804 310.11 282.295 309.618 282.65C309.136 283.005 308.458 283.182 307.584 283.182Z" fill="#7A8EAC"/>
<rect x="333.511" y="263.15" width="135.476" height="29.7905" rx="14.8953" fill="#F1F3FE" fill-opacity="0.94"/>
<path d="M347.682 283.046V281.845H350.262C351.045 281.845 351.714 281.685 352.269 281.367C352.833 281.048 353.266 280.607 353.566 280.043C353.866 279.478 354.016 278.823 354.016 278.077C354.016 277.34 353.866 276.698 353.566 276.152C353.275 275.606 352.847 275.183 352.283 274.883C351.728 274.573 351.054 274.418 350.262 274.418H347.696V273.217H350.262C351.318 273.217 352.237 273.417 353.02 273.818C353.803 274.218 354.408 274.787 354.835 275.524C355.272 276.252 355.491 277.112 355.491 278.104C355.491 279.096 355.272 279.965 354.835 280.712C354.399 281.449 353.789 282.022 353.006 282.432C352.233 282.841 351.323 283.046 350.276 283.046H347.682ZM346.809 283.046V273.217H348.256V283.046H346.809ZM360.064 283.182C359.354 283.182 358.731 283.028 358.194 282.718C357.657 282.4 357.238 281.967 356.938 281.421C356.637 280.866 356.487 280.238 356.487 279.538C356.487 278.828 356.637 278.204 356.938 277.667C357.247 277.13 357.666 276.712 358.194 276.412C358.731 276.102 359.354 275.947 360.064 275.947C360.783 275.947 361.411 276.102 361.948 276.412C362.485 276.712 362.899 277.13 363.19 277.667C363.49 278.204 363.64 278.828 363.64 279.538C363.64 280.238 363.49 280.866 363.19 281.421C362.899 281.967 362.485 282.4 361.948 282.718C361.411 283.028 360.783 283.182 360.064 283.182ZM360.064 282.022C360.492 282.022 360.86 281.917 361.17 281.708C361.488 281.499 361.738 281.208 361.92 280.834C362.102 280.461 362.193 280.024 362.193 279.524C362.193 278.778 361.993 278.191 361.593 277.763C361.201 277.326 360.692 277.108 360.064 277.108C359.445 277.108 358.935 277.326 358.535 277.763C358.144 278.2 357.948 278.787 357.948 279.524C357.948 280.024 358.034 280.461 358.207 280.834C358.389 281.208 358.64 281.499 358.958 281.708C359.286 281.917 359.654 282.022 360.064 282.022ZM365.099 283.046V276.084H366.45V277.722H366.518V283.046H365.099ZM369.794 283.046V278.5C369.794 278.027 369.685 277.681 369.467 277.463C369.248 277.244 368.934 277.135 368.525 277.135C368.143 277.135 367.797 277.226 367.487 277.408C367.187 277.581 366.951 277.827 366.778 278.145C366.605 278.455 366.518 278.823 366.518 279.251L366.341 277.626C366.568 277.108 366.91 276.698 367.365 276.398C367.829 276.098 368.347 275.947 368.921 275.947C369.612 275.947 370.163 276.148 370.573 276.548C370.991 276.948 371.201 277.476 371.201 278.132V283.046H369.794ZM374.49 283.046V278.5C374.49 278.027 374.377 277.681 374.149 277.463C373.931 277.244 373.617 277.135 373.207 277.135C372.834 277.135 372.493 277.226 372.183 277.408C371.883 277.581 371.642 277.827 371.46 278.145C371.287 278.455 371.201 278.823 371.201 279.251L370.914 277.626C371.15 277.108 371.505 276.698 371.979 276.398C372.461 276.098 372.998 275.947 373.589 275.947C374.29 275.947 374.85 276.152 375.269 276.562C375.687 276.962 375.896 277.499 375.896 278.172V283.046H374.49ZM382.037 283.046C381.991 282.873 381.959 282.682 381.941 282.473C381.932 282.263 381.928 282.008 381.928 281.708H381.859V278.391C381.859 277.945 381.746 277.613 381.518 277.394C381.3 277.167 380.949 277.053 380.467 277.053C380.003 277.053 379.63 277.144 379.348 277.326C379.075 277.508 378.915 277.768 378.87 278.104H377.518C377.582 277.449 377.878 276.926 378.406 276.534C378.933 276.143 379.639 275.947 380.522 275.947C381.432 275.947 382.114 276.161 382.569 276.589C383.024 277.008 383.252 277.626 383.252 278.446V281.708C383.252 281.917 383.265 282.131 383.293 282.35C383.32 282.568 383.361 282.8 383.416 283.046H382.037ZM379.634 283.182C378.924 283.182 378.36 283.009 377.941 282.664C377.523 282.309 377.314 281.831 377.314 281.23C377.314 280.611 377.532 280.125 377.969 279.77C378.415 279.406 379.052 279.16 379.88 279.033L382.173 278.664V279.66L380.098 279.988C379.634 280.061 379.284 280.184 379.047 280.357C378.82 280.53 378.706 280.78 378.706 281.107C378.706 281.426 378.811 281.667 379.02 281.831C379.238 281.986 379.552 282.063 379.962 282.063C380.508 282.063 380.958 281.931 381.313 281.667C381.677 281.403 381.859 281.071 381.859 280.671L382.037 281.681C381.873 282.163 381.582 282.536 381.163 282.8C380.744 283.055 380.235 283.182 379.634 283.182ZM385.082 283.046V276.084H386.502V283.046H385.082ZM385.014 274.719V273.122H386.583V274.719H385.014ZM388.495 283.046V276.084H389.846V277.722H389.914V283.046H388.495ZM393.436 283.046V278.568C393.436 278.086 393.313 277.727 393.068 277.49C392.831 277.253 392.476 277.135 392.003 277.135C391.593 277.135 391.229 277.226 390.911 277.408C390.601 277.59 390.356 277.84 390.174 278.159C390.001 278.477 389.914 278.855 389.914 279.292L389.737 277.626C389.964 277.108 390.315 276.698 390.788 276.398C391.261 276.098 391.812 275.947 392.44 275.947C393.186 275.947 393.773 276.157 394.201 276.575C394.628 276.994 394.842 277.549 394.842 278.241V283.046H393.436ZM403.78 283.046C403.734 282.873 403.702 282.682 403.684 282.473C403.675 282.263 403.671 282.008 403.671 281.708H403.602V278.391C403.602 277.945 403.489 277.613 403.261 277.394C403.043 277.167 402.692 277.053 402.21 277.053C401.746 277.053 401.373 277.144 401.09 277.326C400.817 277.508 400.658 277.768 400.613 278.104H399.261C399.325 277.449 399.621 276.926 400.149 276.534C400.676 276.143 401.382 275.947 402.264 275.947C403.175 275.947 403.857 276.161 404.312 276.589C404.767 277.008 404.995 277.626 404.995 278.446V281.708C404.995 281.917 405.008 282.131 405.036 282.35C405.063 282.568 405.104 282.8 405.158 283.046H403.78ZM401.377 283.182C400.667 283.182 400.103 283.009 399.684 282.664C399.266 282.309 399.056 281.831 399.056 281.23C399.056 280.611 399.275 280.125 399.712 279.77C400.158 279.406 400.795 279.16 401.623 279.033L403.916 278.664V279.66L401.841 279.988C401.377 280.061 401.027 280.184 400.79 280.357C400.563 280.53 400.449 280.78 400.449 281.107C400.449 281.426 400.554 281.667 400.763 281.831C400.981 281.986 401.295 282.063 401.705 282.063C402.251 282.063 402.701 281.931 403.056 281.667C403.42 281.403 403.602 281.071 403.602 280.671L403.78 281.681C403.616 282.163 403.325 282.536 402.906 282.8C402.487 283.055 401.978 283.182 401.377 283.182ZM409.064 283.182C408.6 283.182 408.191 283.087 407.836 282.896C407.481 282.696 407.203 282.423 407.003 282.077C406.812 281.731 406.716 281.335 406.716 280.889V276.084H408.136V280.561C408.136 281.044 408.254 281.403 408.491 281.64C408.727 281.876 409.064 281.995 409.501 281.995C409.892 281.995 410.238 281.904 410.538 281.722C410.848 281.54 411.089 281.289 411.262 280.971C411.444 280.643 411.535 280.266 411.535 279.838L411.712 281.503C411.485 282.013 411.135 282.423 410.661 282.732C410.197 283.032 409.665 283.182 409.064 283.182ZM411.59 283.046V281.408H411.535V276.084H412.941V283.046H411.59ZM417.826 283.182C417.016 283.182 416.42 282.996 416.037 282.623C415.664 282.24 415.478 281.681 415.478 280.944V274.487L416.884 273.954V280.957C416.884 281.321 416.979 281.59 417.17 281.763C417.362 281.936 417.671 282.022 418.099 282.022C418.262 282.022 418.408 282.008 418.536 281.981C418.663 281.954 418.772 281.922 418.863 281.886V283.032C418.763 283.078 418.622 283.114 418.44 283.141C418.258 283.169 418.053 283.182 417.826 283.182ZM414.085 277.217V276.084H418.863V277.217H414.085ZM420.209 283.046V273.217H421.629V283.046H420.209ZM425.151 283.046V278.568C425.151 278.086 425.028 277.727 424.782 277.49C424.546 277.253 424.191 277.135 423.717 277.135C423.308 277.135 422.944 277.226 422.625 277.408C422.316 277.59 422.07 277.84 421.888 278.159C421.715 278.477 421.629 278.855 421.629 279.292L421.451 277.626C421.679 277.108 422.029 276.698 422.503 276.398C422.976 276.098 423.526 275.947 424.154 275.947C424.901 275.947 425.488 276.157 425.915 276.575C426.343 276.994 426.557 277.549 426.557 278.241V283.046H425.151ZM431.518 283.182C430.808 283.182 430.185 283.028 429.648 282.718C429.111 282.4 428.692 281.967 428.392 281.421C428.092 280.866 427.942 280.238 427.942 279.538C427.942 278.828 428.092 278.204 428.392 277.667C428.702 277.13 429.12 276.712 429.648 276.412C430.185 276.102 430.808 275.947 431.518 275.947C432.237 275.947 432.865 276.102 433.402 276.412C433.939 276.712 434.353 277.13 434.644 277.667C434.945 278.204 435.095 278.828 435.095 279.538C435.095 280.238 434.945 280.866 434.644 281.421C434.353 281.967 433.939 282.4 433.402 282.718C432.865 283.028 432.237 283.182 431.518 283.182ZM431.518 282.022C431.946 282.022 432.315 281.917 432.624 281.708C432.943 281.499 433.193 281.208 433.375 280.834C433.557 280.461 433.648 280.024 433.648 279.524C433.648 278.778 433.448 278.191 433.047 277.763C432.656 277.326 432.146 277.108 431.518 277.108C430.899 277.108 430.39 277.326 429.989 277.763C429.598 278.2 429.402 278.787 429.402 279.524C429.402 280.024 429.489 280.461 429.662 280.834C429.844 281.208 430.094 281.499 430.413 281.708C430.74 281.917 431.109 282.022 431.518 282.022ZM436.553 283.046V276.084H437.904V277.818H437.973V283.046H436.553ZM437.973 279.415L437.795 277.763C437.959 277.171 438.241 276.721 438.642 276.412C439.042 276.102 439.52 275.947 440.075 275.947C440.284 275.947 440.43 275.966 440.512 276.002V277.34C440.466 277.322 440.403 277.312 440.321 277.312C440.239 277.303 440.139 277.299 440.02 277.299C439.338 277.299 438.824 277.476 438.478 277.831C438.141 278.186 437.973 278.714 437.973 279.415ZM441.659 283.046V276.084H443.079V283.046H441.659ZM441.591 274.719V273.122H443.16V274.719H441.591ZM447.981 283.182C447.171 283.182 446.574 282.996 446.192 282.623C445.819 282.24 445.633 281.681 445.633 280.944V274.487L447.039 273.954V280.957C447.039 281.321 447.134 281.59 447.325 281.763C447.516 281.936 447.826 282.022 448.254 282.022C448.417 282.022 448.563 282.008 448.69 281.981C448.818 281.954 448.927 281.922 449.018 281.886V283.032C448.918 283.078 448.777 283.114 448.595 283.141C448.413 283.169 448.208 283.182 447.981 283.182ZM444.24 277.217V276.084H449.018V277.217H444.24ZM450.976 285.844L452.655 282.008L452.942 281.558L455.058 276.084H456.532L452.437 285.844H450.976ZM452.587 283.046L449.611 276.084H451.154L453.679 282.35L452.587 283.046Z" fill="#7A8EAC"/>
<mask id="mask0_2480_93743" style="mask-type:alpha" maskUnits="userSpaceOnUse" x="91" y="30" width="434" height="436">
<rect x="524.494" y="465.569" width="433.361" height="435.113" transform="rotate(-180 524.494 465.569)" fill="url(#paint2_linear_2480_93743)"/>
</mask>
<g mask="url(#mask0_2480_93743)">
<circle cx="308.034" cy="247.355" r="216.899" transform="rotate(-180 308.034 247.355)" fill="url(#paint3_linear_2480_93743)" stroke="#D8E4FE" stroke-width="0.438181"/>
<circle cx="308.033" cy="247.355" r="164.596" transform="rotate(-180 308.033 247.355)" fill="url(#paint4_linear_2480_93743)" stroke="#D8E4FE" stroke-width="0.438181"/>
<circle cx="308.034" cy="247.354" r="106.804" transform="rotate(-180 308.034 247.354)" fill="url(#paint5_linear_2480_93743)" stroke="#D8E4FE" stroke-width="0.438181"/>
</g>
<g filter="url(#filter1_d_2480_93743)">
<rect x="254.946" y="335.41" width="100.107" height="100.107" rx="50.0537" fill="#EAEAFF" shape-rendering="crispEdges"/>
<rect x="254.946" y="335.41" width="100.107" height="100.107" rx="50.0537" stroke="#F5F5FF" stroke-opacity="0.62" stroke-width="16.6846" shape-rendering="crispEdges"/>
<path d="M311.75 381.573L302.886 372.71M291.456 401.867L318.748 374.575C319.918 373.405 320.503 372.82 320.722 372.146C320.915 371.552 320.915 370.913 320.722 370.32C320.503 369.645 319.918 369.06 318.748 367.89L316.57 365.712C315.4 364.542 314.815 363.957 314.14 363.737C313.547 363.545 312.907 363.545 312.314 363.737C311.639 363.957 311.054 364.542 309.884 365.712L282.592 393.003C281.422 394.173 280.837 394.758 280.618 395.433C280.425 396.026 280.425 396.666 280.618 397.259C280.837 397.934 281.422 398.519 282.592 399.689L284.771 401.867C285.941 403.037 286.526 403.622 287.2 403.841C287.794 404.034 288.433 404.034 289.026 403.841C289.701 403.622 290.286 403.037 291.456 401.867Z" stroke="#6546F3" stroke-width="3.96696" stroke-linecap="round" stroke-linejoin="round"/>
<path d="M321.378 386.781L321.378 386.781C320.994 387.36 320.319 388.013 319.721 388.372L319.721 388.372C319.545 388.478 319.155 388.658 318.827 388.808C318.728 388.854 318.623 388.902 318.511 388.952C318.934 389.139 319.256 389.283 319.352 389.33M321.378 386.781L321.624 391.531C321.151 390.64 320.255 389.777 319.352 389.33M321.378 386.781C321.53 386.552 321.721 386.156 321.881 385.814C321.941 385.686 322.006 385.546 322.074 385.395M321.378 386.781L322.074 385.395M319.352 389.33L318.583 390.886M319.352 389.33L318.583 390.886M318.583 390.886C319.164 391.173 319.791 391.78 320.092 392.346L317.423 389.436C317.178 389.544 316.942 389.649 316.725 389.746C316.725 389.746 316.725 389.746 316.725 389.746C316.597 389.803 316.476 389.857 316.364 389.908C316.444 389.943 316.526 389.979 316.608 390.014C317.567 390.431 318.455 390.823 318.583 390.886ZM322.074 385.395C322.289 385.879 322.471 386.273 322.553 386.423L322.074 385.395ZM325.675 388.945C325.262 389.129 324.945 389.273 324.842 389.324L325.675 388.945ZM325.675 388.945C325.241 388.749 324.911 388.593 324.652 388.453C324.071 388.14 323.775 387.876 323.442 387.544L325.675 388.945ZM322.088 392.536C322.149 392.402 322.207 392.275 322.262 392.157C322.356 391.954 322.442 391.772 322.513 391.627L322.515 391.622C322.564 391.523 322.66 391.327 322.758 391.18L322.088 392.536ZM322.088 392.536C321.87 392.047 321.692 391.658 321.624 391.531L322.088 392.536ZM316.149 389.813C315.914 389.709 315.695 389.61 315.505 389.523L315.005 388.971L315.005 388.971L316.149 389.813ZM324.842 389.324C323.983 389.757 323.289 390.377 322.758 391.18L324.842 389.324ZM322.553 386.423C322.777 386.829 323.125 387.228 323.442 387.544L322.553 386.423Z" fill="#98A2B3" stroke="#6546F3" stroke-width="3.47109"/>
<path d="M306.668 404.098C306.313 403.876 306.026 403.636 305.748 403.308L305.747 403.308C305.638 403.179 305.544 403.057 305.458 402.929C305.451 402.939 305.444 402.95 305.438 402.96L305.437 402.961C305.108 403.459 304.728 403.803 304.252 404.103C304.532 404.28 304.794 404.484 305.024 404.731C305.194 404.913 305.336 405.103 305.459 405.296C305.596 405.09 305.727 404.943 305.862 404.795L306.668 404.098ZM306.668 404.098C306.29 404.337 306.071 404.566 305.862 404.795L306.668 404.098ZM287.104 373.296C287.241 373.09 287.372 372.943 287.507 372.795C287.507 372.795 287.507 372.795 287.507 372.795L288.789 373.964L287.104 373.296ZM287.104 373.296C286.98 373.103 286.839 372.913 286.669 372.731C286.439 372.484 286.177 372.28 285.897 372.103C286.373 371.803 286.753 371.459 287.082 370.961L287.082 370.96C287.089 370.95 287.096 370.939 287.103 370.929C287.189 371.057 287.282 371.179 287.392 371.308L287.392 371.308C287.671 371.636 287.958 371.876 288.313 372.098L287.104 373.296Z" fill="#98A2B3" stroke="#6546F3" stroke-width="3.47109"/>
</g>
</g>
<defs>
<filter id="filter0_d_2480_93743" x="0.12752" y="0.120485" width="609.745" height="622.899" filterUnits="userSpaceOnUse" color-interpolation-filters="sRGB">
<feFlood flood-opacity="0" result="BackgroundImageFix"/>
<feColorMatrix in="SourceAlpha" type="matrix" values="0 0 0 0 0 0 0 0 0 0 0 0 0 0 0 0 0 0 127 0" result="hardAlpha"/>
<feMorphology radius="18.2013" operator="erode" in="SourceAlpha" result="effect1_dropShadow_2480_93743"/>
<feOffset dy="48.5369"/>
<feGaussianBlur stdDeviation="48.5369"/>
<feComposite in2="hardAlpha" operator="out"/>
<feColorMatrix type="matrix" values="0 0 0 0 0.216949 0 0 0 0 0.184287 0 0 0 0 0.519068 0 0 0 0.2 0"/>
<feBlend mode="normal" in2="BackgroundImageFix" result="effect1_dropShadow_2480_93743"/>
<feBlend mode="normal" in="SourceGraphic" in2="effect1_dropShadow_2480_93743" result="shape"/>
</filter>
<filter id="filter1_d_2480_93743" x="227.221" y="307.685" width="155.558" height="155.557" filterUnits="userSpaceOnUse" color-interpolation-filters="sRGB">
<feFlood flood-opacity="0" result="BackgroundImageFix"/>
<feColorMatrix in="SourceAlpha" type="matrix" values="0 0 0 0 0 0 0 0 0 0 0 0 0 0 0 0 0 0 127 0" result="hardAlpha"/>
<feOffset/>
<feGaussianBlur stdDeviation="9.69144"/>
<feComposite in2="hardAlpha" operator="out"/>
<feColorMatrix type="matrix" values="0 0 0 0 0.312986 0 0 0 0 0.233122 0 0 0 0 0.678813 0 0 0 0.65 0"/>
<feBlend mode="normal" in2="BackgroundImageFix" result="effect1_dropShadow_2480_93743"/>
<feBlend mode="normal" in="SourceGraphic" in2="effect1_dropShadow_2480_93743" result="shape"/>
</filter>
<linearGradient id="paint0_linear_2480_93743" x1="123.11" y1="160.7" x2="123.11" y2="202.171" gradientUnits="userSpaceOnUse">
<stop offset="0.06" stop-color="#7176FF"/>
<stop offset="0.23" stop-color="#6D68FB"/>
<stop offset="0.54" stop-color="#6546F3"/>
<stop offset="0.95" stop-color="#570EE6"/>
<stop offset="0.97" stop-color="#570DE6"/>
</linearGradient>
<linearGradient id="paint1_linear_2480_93743" x1="123.106" y1="167.342" x2="123.106" y2="200.997" gradientUnits="userSpaceOnUse">
<stop stop-color="white"/>
<stop offset="1" stop-color="#E1E2E3"/>
</linearGradient>
<linearGradient id="paint2_linear_2480_93743" x1="741.175" y1="441.857" x2="741.175" y2="658.756" gradientUnits="userSpaceOnUse">
<stop offset="0.463415" stop-color="#D9D9D9"/>
<stop offset="0.85" stop-color="#D9D9D9" stop-opacity="0"/>
</linearGradient>
<linearGradient id="paint3_linear_2480_93743" x1="308.034" y1="85.2161" x2="308.034" y2="30.4561" gradientUnits="userSpaceOnUse">
<stop stop-color="#F9FBFF"/>
<stop offset="1" stop-color="#E8EDFD"/>
</linearGradient>
<linearGradient id="paint4_linear_2480_93743" x1="308.033" y1="164.412" x2="308.033" y2="73.6214" gradientUnits="userSpaceOnUse">
<stop stop-color="white"/>
<stop offset="1" stop-color="#F2F5FF"/>
</linearGradient>
<linearGradient id="paint5_linear_2480_93743" x1="308.034" y1="178.681" x2="308.034" y2="140.332" gradientUnits="userSpaceOnUse">
<stop stop-color="white"/>
<stop offset="1" stop-color="#F2F6FF"/>
</linearGradient>
</defs>
</svg>
