<svg width="22" height="23" viewBox="0 0 22 23" fill="none" xmlns="http://www.w3.org/2000/svg">
<path d="M5.95833 10.763H6.70833M5.95833 14.4297H6.70833M5.95833 7.09635H6.70833M10 3.42969L10 19.9297M10 3.42969H14.85C16.3901 3.42969 17.1602 3.42969 17.7485 3.72942C18.2659 3.99307 18.6866 4.41377 18.9503 4.93121C19.25 5.51947 19.25 6.28954 19.25 7.82969V15.5297C19.25 17.0698 19.25 17.8399 18.9503 18.4282C18.6866 18.9456 18.2659 19.3663 17.7485 19.63C17.1602 19.9297 16.3901 19.9297 14.85 19.9297H10M10 3.42969H7.15C5.60985 3.42969 4.83978 3.42969 4.25153 3.72942C3.73408 3.99307 3.31338 4.41377 3.04973 4.93121C2.75 5.51947 2.75 6.28954 2.75 7.82969V15.5297C2.75 17.0698 2.75 17.8399 3.04973 18.4282C3.31338 18.9456 3.73408 19.3663 4.25153 19.63C4.83978 19.9297 5.60986 19.9297 7.15 19.9297H10" stroke="#475467" stroke-width="1.67" stroke-linecap="round" stroke-linejoin="round"/>
</svg>
