<svg width="142" height="40" viewBox="0 0 142 40" fill="none" xmlns="http://www.w3.org/2000/svg">
<rect x="0.583496" y="16" width="7.99999" height="7.99999" fill="#039855"/>
<rect x="24.5835" y="24" width="8" height="7.99999" transform="rotate(180 24.5835 24)" fill="#027A48"/>
<path d="M8.5835 16L16.5835 8V16L8.5835 24V16Z" fill="#A6F4C5"/>
<path d="M16.5835 24L8.58351 32L8.58351 24L16.5835 16L16.5835 24Z" fill="#6CE9A6"/>
<path d="M0.583496 16L16.5835 0V7.99999L8.58348 16H0.583496Z" fill="#32D583"/>
<path d="M24.5835 24L8.58352 40L8.58351 32L16.5835 24L24.5835 24Z" fill="#12B76A"/>
<path d="M42.0069 28.567C40.7469 28.567 39.5258 28.3881 38.3436 28.0303C37.1769 27.6725 36.2513 27.1981 35.5669 26.607L36.6169 24.2503C37.2858 24.7792 38.1024 25.2148 39.0669 25.557C40.0469 25.8836 41.0269 26.047 42.0069 26.047C43.2202 26.047 44.1224 25.8525 44.7136 25.4636C45.3202 25.0748 45.6236 24.5614 45.6236 23.9236C45.6236 23.457 45.4524 23.0759 45.1102 22.7803C44.7836 22.4692 44.3636 22.2281 43.8502 22.057C43.3369 21.8859 42.6369 21.6914 41.7502 21.4736C40.5058 21.1781 39.4947 20.8825 38.7169 20.587C37.9547 20.2914 37.2936 19.8325 36.7336 19.2103C36.1891 18.5725 35.9169 17.717 35.9169 16.6436C35.9169 15.7414 36.158 14.9248 36.6402 14.1936C37.138 13.447 37.8769 12.8559 38.8569 12.4203C39.8524 11.9848 41.0658 11.767 42.4969 11.767C43.4924 11.767 44.4724 11.8914 45.4369 12.1403C46.4013 12.3892 47.2336 12.747 47.9336 13.2136L46.9769 15.5703C46.2613 15.1503 45.5147 14.8314 44.7369 14.6136C43.9591 14.3959 43.2047 14.287 42.4736 14.287C41.2758 14.287 40.3813 14.4892 39.7902 14.8936C39.2147 15.2981 38.9269 15.8348 38.9269 16.5036C38.9269 16.9703 39.0902 17.3514 39.4169 17.647C39.7591 17.9425 40.1869 18.1759 40.7002 18.347C41.2136 18.5181 41.9136 18.7125 42.8002 18.9303C44.0136 19.2103 45.0091 19.5059 45.7869 19.817C46.5647 20.1125 47.2258 20.5714 47.7702 21.1936C48.3302 21.8159 48.6102 22.6559 48.6102 23.7136C48.6102 24.6159 48.3613 25.4325 47.8636 26.1636C47.3813 26.8948 46.6424 27.4781 45.6469 27.9136C44.6513 28.3492 43.438 28.567 42.0069 28.567Z" fill="#101828"/>
<path d="M51.338 15.8736H54.2547V28.3336H51.338V15.8736ZM52.808 13.8203C52.2791 13.8203 51.8358 13.657 51.478 13.3303C51.1203 12.9881 50.9414 12.5681 50.9414 12.0703C50.9414 11.5725 51.1203 11.1603 51.478 10.8336C51.8358 10.4914 52.2791 10.3203 52.808 10.3203C53.3369 10.3203 53.7803 10.4836 54.138 10.8103C54.4958 11.1214 54.6747 11.5181 54.6747 12.0003C54.6747 12.5136 54.4958 12.9492 54.138 13.307C53.7958 13.6492 53.3525 13.8203 52.808 13.8203Z" fill="#101828"/>
<path d="M61.9328 28.497C60.9217 28.497 59.9339 28.3648 58.9695 28.1003C58.005 27.8359 57.235 27.5014 56.6595 27.097L57.7795 24.8803C58.3395 25.2536 59.0084 25.557 59.7862 25.7903C60.5795 26.0081 61.3573 26.117 62.1195 26.117C63.8617 26.117 64.7328 25.6581 64.7328 24.7403C64.7328 24.3048 64.5073 24.0014 64.0562 23.8303C63.6206 23.6592 62.9128 23.4959 61.9328 23.3403C60.9062 23.1848 60.0662 23.0059 59.4128 22.8036C58.775 22.6014 58.215 22.2514 57.7328 21.7536C57.2662 21.2403 57.0328 20.5325 57.0328 19.6303C57.0328 18.4481 57.5228 17.507 58.5028 16.807C59.4984 16.0914 60.8362 15.7336 62.5162 15.7336C63.3717 15.7336 64.2273 15.8348 65.0828 16.037C65.9384 16.2236 66.6384 16.4803 67.1828 16.807L66.0628 19.0236C65.005 18.4014 63.815 18.0903 62.4928 18.0903C61.6373 18.0903 60.9839 18.2225 60.5328 18.487C60.0973 18.7359 59.8795 19.0703 59.8795 19.4903C59.8795 19.957 60.1128 20.2914 60.5795 20.4936C61.0617 20.6803 61.8006 20.8592 62.7962 21.0303C63.7917 21.1859 64.6084 21.3648 65.2462 21.567C65.8839 21.7692 66.4284 22.1114 66.8795 22.5936C67.3462 23.0759 67.5795 23.7603 67.5795 24.647C67.5795 25.8136 67.0739 26.747 66.0628 27.447C65.0517 28.147 63.675 28.497 61.9328 28.497Z" fill="#101828"/>
<path d="M81.5301 15.8736L75.6967 29.337C75.1523 30.6903 74.4912 31.6392 73.7134 32.1836C72.9356 32.7436 71.9945 33.0236 70.8901 33.0236C70.2679 33.0236 69.6534 32.9225 69.0468 32.7203C68.4401 32.5181 67.9423 32.2381 67.5534 31.8803L68.7201 29.7336C69.0001 29.9981 69.3267 30.2081 69.7001 30.3636C70.089 30.5192 70.4779 30.597 70.8667 30.597C71.3801 30.597 71.8001 30.4648 72.1267 30.2003C72.469 29.9359 72.7801 29.4925 73.0601 28.8703L73.2701 28.3803L67.8334 15.8736H70.8667L74.7867 25.0903L78.7301 15.8736H81.5301Z" fill="#101828"/>
<path d="M90.2597 15.7336C91.473 15.7336 92.5541 15.9981 93.503 16.527C94.4674 17.0559 95.2219 17.8025 95.7663 18.767C96.3108 19.7314 96.583 20.8436 96.583 22.1036C96.583 23.3636 96.3108 24.4836 95.7663 25.4636C95.2219 26.4281 94.4674 27.1748 93.503 27.7036C92.5541 28.2325 91.473 28.497 90.2597 28.497C88.5797 28.497 87.2497 27.937 86.2697 26.817V32.8603H83.353V15.8736H86.1297V17.507C86.6119 16.9159 87.203 16.4725 87.903 16.177C88.6185 15.8814 89.4041 15.7336 90.2597 15.7336ZM89.933 26.0003C91.0063 26.0003 91.8852 25.6425 92.5697 24.927C93.2697 24.2114 93.6196 23.2703 93.6196 22.1036C93.6196 20.937 93.2697 19.9959 92.5697 19.2803C91.8852 18.5648 91.0063 18.207 89.933 18.207C89.233 18.207 88.603 18.3703 88.043 18.697C87.483 19.0081 87.0397 19.4592 86.713 20.0503C86.3863 20.6414 86.223 21.3259 86.223 22.1036C86.223 22.8814 86.3863 23.5659 86.713 24.157C87.0397 24.7481 87.483 25.207 88.043 25.5336C88.603 25.8448 89.233 26.0003 89.933 26.0003Z" fill="#101828"/>
<path d="M106.419 15.7336C107.99 15.7336 109.25 16.1925 110.199 17.1103C111.148 18.0281 111.622 19.3892 111.622 21.1936V28.3336H108.706V21.567C108.706 20.4781 108.449 19.6614 107.936 19.117C107.422 18.557 106.691 18.277 105.742 18.277C104.669 18.277 103.821 18.6036 103.199 19.257C102.577 19.8948 102.266 20.8203 102.266 22.0336V28.3336H99.3491V11.0203H102.266V17.3203C102.748 16.807 103.339 16.4181 104.039 16.1536C104.755 15.8736 105.548 15.7336 106.419 15.7336Z" fill="#101828"/>
<path d="M127.386 15.8736V28.3336H124.609V26.747C124.142 27.307 123.559 27.7425 122.859 28.0536C122.159 28.3492 121.405 28.497 120.596 28.497C118.931 28.497 117.617 28.0381 116.652 27.1203C115.703 26.187 115.229 24.8103 115.229 22.9903V15.8736H118.146V22.5936C118.146 23.7136 118.395 24.5536 118.892 25.1136C119.406 25.6581 120.129 25.9303 121.062 25.9303C122.105 25.9303 122.929 25.6114 123.536 24.9736C124.158 24.3203 124.469 23.387 124.469 22.1736V15.8736H127.386Z" fill="#101828"/>
<path d="M135.055 28.497C134.043 28.497 133.056 28.3648 132.091 28.1003C131.127 27.8359 130.357 27.5014 129.781 27.097L130.901 24.8803C131.461 25.2536 132.13 25.557 132.908 25.7903C133.701 26.0081 134.479 26.117 135.241 26.117C136.983 26.117 137.855 25.6581 137.855 24.7403C137.855 24.3048 137.629 24.0014 137.178 23.8303C136.742 23.6592 136.035 23.4959 135.055 23.3403C134.028 23.1848 133.188 23.0059 132.535 22.8036C131.897 22.6014 131.337 22.2514 130.855 21.7536C130.388 21.2403 130.155 20.5325 130.155 19.6303C130.155 18.4481 130.645 17.507 131.625 16.807C132.62 16.0914 133.958 15.7336 135.638 15.7336C136.493 15.7336 137.349 15.8348 138.205 16.037C139.06 16.2236 139.76 16.4803 140.305 16.807L139.185 19.0236C138.127 18.4014 136.937 18.0903 135.615 18.0903C134.759 18.0903 134.106 18.2225 133.655 18.487C133.219 18.7359 133.001 19.0703 133.001 19.4903C133.001 19.957 133.235 20.2914 133.701 20.4936C134.183 20.6803 134.922 20.8592 135.918 21.0303C136.913 21.1859 137.73 21.3648 138.368 21.567C139.006 21.7692 139.55 22.1114 140.001 22.5936C140.468 23.0759 140.701 23.7603 140.701 24.647C140.701 25.8136 140.196 26.747 139.185 27.447C138.173 28.147 136.797 28.497 135.055 28.497Z" fill="#101828"/>
</svg>
