<svg width="18" height="18" viewBox="0 0 18 18" fill="none" xmlns="http://www.w3.org/2000/svg">
<path d="M15.392 5.67425L9.40573 8.99994M9.40573 8.99994L3.41949 5.67425M9.40573 8.99994L9.40575 15.6905M15.7441 11.8583V6.14167C15.7441 5.90036 15.7441 5.77971 15.7086 5.6721C15.6771 5.5769 15.6257 5.48951 15.5577 5.41578C15.4809 5.33244 15.3755 5.27384 15.1645 5.15665L9.95298 2.26135C9.75325 2.15039 9.65339 2.09491 9.54763 2.07315C9.45402 2.0539 9.35748 2.0539 9.26388 2.07315C9.15812 2.09491 9.05825 2.15039 8.85852 2.26135L3.64697 5.15665C3.43603 5.27385 3.33056 5.33244 3.25375 5.41578C3.18581 5.48951 3.13439 5.5769 3.10294 5.6721C3.06738 5.77971 3.06738 5.90036 3.06738 6.14167V11.8583C3.06738 12.0996 3.06738 12.2202 3.10294 12.3278C3.13439 12.423 3.18581 12.5104 3.25375 12.5841C3.33056 12.6675 3.43603 12.7261 3.64697 12.8433L8.85852 15.7386C9.05825 15.8495 9.15812 15.905 9.26388 15.9268C9.35748 15.946 9.45402 15.946 9.54763 15.9268C9.65339 15.905 9.75325 15.8495 9.95298 15.7386L15.1645 12.8433C15.3755 12.7261 15.4809 12.6675 15.5577 12.5841C15.6257 12.5104 15.6771 12.423 15.7086 12.3278C15.7441 12.2202 15.7441 12.0996 15.7441 11.8583Z" stroke="#98A2B3" stroke-width="1.50914" stroke-linecap="round" stroke-linejoin="round"/>
</svg>
