<svg width="310" height="319" viewBox="0 0 310 319" fill="none" xmlns="http://www.w3.org/2000/svg">
<g filter="url(#filter0_dd_2480_93611)">
<rect x="6" y="64" width="298" height="245" rx="12" fill="white" shape-rendering="crispEdges"/>
<rect x="6.5" y="64.5" width="297" height="244" rx="11.5" stroke="#D0D5DD" shape-rendering="crispEdges"/>
<path d="M43.5206 84H26.6418C23.5259 84 21 86.5259 21 89.6418V106.521C21 109.636 23.5259 112.162 26.6418 112.162H43.5206C46.6365 112.162 49.1624 109.636 49.1624 106.521V89.6418C49.1624 86.5259 46.6365 84 43.5206 84Z" fill="url(#paint0_linear_2480_93611)"/>
<path d="M42.4136 89.3684H40.9921C40.9921 89.3684 40.4598 92.027 37.6053 92.027H34.9218C30.9793 92.027 27.743 95.4343 27.743 99.2204L27.7518 99.4646C27.7518 103.52 31.1781 106.693 34.8692 106.693H35.0242C39.5722 106.693 42.4223 103.047 42.4223 99.6576L42.415 89.3684H42.4136ZM38.569 99.3652C38.569 101.294 37.0042 102.859 35.0754 102.859C33.1465 102.859 31.5818 101.294 31.5818 99.3652C31.5818 97.4363 33.1465 95.8716 35.0754 95.8716H38.569V99.3652Z" fill="url(#paint1_linear_2480_93611)"/>
<path d="M42.4136 89.3684C42.0772 89.3684 41.2495 89.3684 40.9921 89.3684C40.9921 89.3684 40.4598 92.027 37.6053 92.027C40.103 92.027 42.1781 91.0457 42.415 89.3684H42.4136Z" fill="#FAA858"/>
<path d="M58.0924 104V93.2H60.0424V104H58.0924ZM65.1574 104V93.2H67.1074V104H65.1574ZM59.0224 97.61H66.0424V99.14H59.0224V97.61ZM72.6665 104.15C71.8565 104.15 71.1415 103.98 70.5215 103.64C69.9115 103.3 69.4365 102.83 69.0965 102.23C68.7565 101.62 68.5865 100.925 68.5865 100.145C68.5865 99.365 68.7565 98.68 69.0965 98.09C69.4365 97.5 69.9115 97.04 70.5215 96.71C71.1415 96.37 71.8565 96.2 72.6665 96.2C73.4865 96.2 74.2015 96.37 74.8115 96.71C75.4215 97.04 75.8965 97.5 76.2365 98.09C76.5765 98.68 76.7465 99.365 76.7465 100.145C76.7465 100.925 76.5715 101.62 76.2215 102.23C75.8815 102.83 75.4065 103.3 74.7965 103.64C74.1865 103.98 73.4765 104.15 72.6665 104.15ZM72.6665 102.635C73.0665 102.635 73.4265 102.535 73.7465 102.335C74.0665 102.125 74.3165 101.835 74.4965 101.465C74.6765 101.085 74.7665 100.64 74.7665 100.13C74.7665 99.38 74.5665 98.79 74.1665 98.36C73.7765 97.93 73.2765 97.715 72.6665 97.715C72.0565 97.715 71.5515 97.93 71.1515 98.36C70.7515 98.79 70.5515 99.38 70.5515 100.13C70.5515 100.64 70.6415 101.085 70.8215 101.465C71.0115 101.835 71.2615 102.125 71.5715 102.335C71.8915 102.535 72.2565 102.635 72.6665 102.635ZM79.6713 104L77.3313 96.35H79.3113L80.6913 102.095H80.5563L82.2513 96.35H83.9763L85.7013 102.095H85.5513L86.9163 96.35H88.8513L86.5113 104H84.7413L83.0163 98.315H83.1663L81.4413 104H79.6713ZM96.6087 104.15C95.8387 104.15 95.1587 103.98 94.5687 103.64C93.9887 103.3 93.5287 102.83 93.1887 102.23C92.8587 101.62 92.6937 100.93 92.6937 100.16C92.6937 99.39 92.8587 98.71 93.1887 98.12C93.5287 97.52 93.9887 97.05 94.5687 96.71C95.1587 96.37 95.8387 96.2 96.6087 96.2C97.2387 96.2 97.8087 96.32 98.3187 96.56C98.8287 96.79 99.2487 97.12 99.5787 97.55C99.9087 97.97 100.119 98.46 100.209 99.02H98.3937C98.2837 98.61 98.0737 98.29 97.7637 98.06C97.4537 97.83 97.0787 97.715 96.6387 97.715C96.2287 97.715 95.8737 97.815 95.5737 98.015C95.2837 98.215 95.0587 98.5 94.8987 98.87C94.7387 99.24 94.6587 99.67 94.6587 100.16C94.6587 100.66 94.7387 101.095 94.8987 101.465C95.0587 101.835 95.2887 102.125 95.5887 102.335C95.8887 102.535 96.2387 102.635 96.6387 102.635C97.0787 102.635 97.4537 102.52 97.7637 102.29C98.0737 102.06 98.2837 101.74 98.3937 101.33H100.209C100.119 101.89 99.9037 102.385 99.5637 102.815C99.2337 103.235 98.8137 103.565 98.3037 103.805C97.8037 104.035 97.2387 104.15 96.6087 104.15ZM106.388 104C106.338 103.8 106.298 103.58 106.268 103.34C106.248 103.1 106.238 102.81 106.238 102.47H106.178V98.84C106.178 98.44 106.063 98.14 105.833 97.94C105.613 97.73 105.273 97.625 104.813 97.625C104.363 97.625 104.003 97.71 103.733 97.88C103.473 98.04 103.313 98.275 103.253 98.585H101.438C101.518 97.875 101.858 97.3 102.458 96.86C103.058 96.42 103.863 96.2 104.873 96.2C105.923 96.2 106.718 96.44 107.258 96.92C107.798 97.39 108.068 98.085 108.068 99.005V102.47C108.068 102.71 108.083 102.955 108.113 103.205C108.153 103.455 108.208 103.72 108.278 104H106.388ZM103.733 104.15C102.963 104.15 102.348 103.96 101.888 103.58C101.438 103.19 101.213 102.67 101.213 102.02C101.213 101.32 101.468 100.765 101.978 100.355C102.488 99.945 103.208 99.67 104.138 99.53L106.523 99.17V100.37L104.453 100.685C104.003 100.755 103.663 100.88 103.433 101.06C103.213 101.24 103.103 101.49 103.103 101.81C103.103 102.1 103.208 102.325 103.418 102.485C103.628 102.635 103.918 102.71 104.288 102.71C104.828 102.71 105.278 102.575 105.638 102.305C105.998 102.035 106.178 101.705 106.178 101.315L106.388 102.47C106.188 103.02 105.858 103.44 105.398 103.73C104.948 104.01 104.393 104.15 103.733 104.15ZM110.132 104V96.35H111.977V98.15H112.022V104H110.132ZM115.502 104V99.17C115.502 98.7 115.382 98.345 115.142 98.105C114.902 97.865 114.552 97.745 114.092 97.745C113.692 97.745 113.332 97.835 113.012 98.015C112.702 98.195 112.457 98.445 112.277 98.765C112.107 99.085 112.022 99.455 112.022 99.875L111.827 98.045C112.087 97.485 112.467 97.04 112.967 96.71C113.467 96.37 114.067 96.2 114.767 96.2C115.597 96.2 116.242 96.435 116.702 96.905C117.172 97.375 117.407 98 117.407 98.78V104H115.502ZM122.442 104V93.2H124.392V104H122.442ZM129.526 104V93.2H131.416V104H129.526ZM134.896 104V99.17C134.896 98.7 134.776 98.345 134.536 98.105C134.296 97.865 133.946 97.745 133.486 97.745C133.086 97.745 132.726 97.835 132.406 98.015C132.096 98.195 131.851 98.445 131.671 98.765C131.501 99.085 131.416 99.455 131.416 99.875L131.221 98.045C131.481 97.485 131.861 97.04 132.361 96.71C132.861 96.37 133.461 96.2 134.161 96.2C134.991 96.2 135.636 96.435 136.096 96.905C136.566 97.375 136.801 98 136.801 98.78V104H134.896ZM142.295 104.15C141.485 104.15 140.775 103.98 140.165 103.64C139.565 103.3 139.095 102.83 138.755 102.23C138.425 101.63 138.26 100.94 138.26 100.16C138.26 99.38 138.425 98.695 138.755 98.105C139.095 97.505 139.565 97.04 140.165 96.71C140.765 96.37 141.465 96.2 142.265 96.2C143.025 96.2 143.685 96.36 144.245 96.68C144.805 96.99 145.24 97.43 145.55 98C145.86 98.57 146.015 99.235 146.015 99.995C146.015 100.135 146.01 100.265 146 100.385C145.99 100.505 145.975 100.625 145.955 100.745H139.43V99.425H144.5L144.11 99.785C144.11 99.065 143.945 98.525 143.615 98.165C143.285 97.805 142.825 97.625 142.235 97.625C141.595 97.625 141.085 97.845 140.705 98.285C140.335 98.725 140.15 99.36 140.15 100.19C140.15 101.01 140.335 101.64 140.705 102.08C141.085 102.51 141.62 102.725 142.31 102.725C142.71 102.725 143.06 102.65 143.36 102.5C143.66 102.35 143.88 102.12 144.02 101.81H145.805C145.555 102.53 145.13 103.1 144.53 103.52C143.94 103.94 143.195 104.15 142.295 104.15ZM147.58 104V93.2H149.47V104H147.58ZM155.991 104.15C155.261 104.15 154.666 103.98 154.206 103.64C153.756 103.29 153.476 102.81 153.366 102.2L153.516 102.185V107.075H151.626V96.35H153.471V98.075L153.321 98.045C153.461 97.475 153.781 97.025 154.281 96.695C154.781 96.365 155.391 96.2 156.111 96.2C156.791 96.2 157.381 96.365 157.881 96.695C158.391 97.015 158.786 97.47 159.066 98.06C159.346 98.65 159.486 99.345 159.486 100.145C159.486 100.955 159.341 101.66 159.051 102.26C158.761 102.86 158.356 103.325 157.836 103.655C157.316 103.985 156.701 104.15 155.991 104.15ZM155.511 102.59C156.121 102.59 156.606 102.38 156.966 101.96C157.326 101.53 157.506 100.93 157.506 100.16C157.506 99.39 157.321 98.795 156.951 98.375C156.591 97.955 156.106 97.745 155.496 97.745C154.896 97.745 154.411 97.96 154.041 98.39C153.671 98.81 153.486 99.405 153.486 100.175C153.486 100.945 153.671 101.54 154.041 101.96C154.411 102.38 154.901 102.59 155.511 102.59ZM164.623 107.075L166.603 102.635L166.948 102.065L169.108 96.35H171.118L166.543 107.075H164.623ZM166.318 103.925L163.213 96.35H165.268L167.863 103.22L166.318 103.925ZM175.595 104.15C174.785 104.15 174.07 103.98 173.45 103.64C172.84 103.3 172.365 102.83 172.025 102.23C171.685 101.62 171.515 100.925 171.515 100.145C171.515 99.365 171.685 98.68 172.025 98.09C172.365 97.5 172.84 97.04 173.45 96.71C174.07 96.37 174.785 96.2 175.595 96.2C176.415 96.2 177.13 96.37 177.74 96.71C178.35 97.04 178.825 97.5 179.165 98.09C179.505 98.68 179.675 99.365 179.675 100.145C179.675 100.925 179.5 101.62 179.15 102.23C178.81 102.83 178.335 103.3 177.725 103.64C177.115 103.98 176.405 104.15 175.595 104.15ZM175.595 102.635C175.995 102.635 176.355 102.535 176.675 102.335C176.995 102.125 177.245 101.835 177.425 101.465C177.605 101.085 177.695 100.64 177.695 100.13C177.695 99.38 177.495 98.79 177.095 98.36C176.705 97.93 176.205 97.715 175.595 97.715C174.985 97.715 174.48 97.93 174.08 98.36C173.68 98.79 173.48 99.38 173.48 100.13C173.48 100.64 173.57 101.085 173.75 101.465C173.94 101.835 174.19 102.125 174.5 102.335C174.82 102.535 175.185 102.635 175.595 102.635ZM183.69 104.15C183.16 104.15 182.7 104.04 182.31 103.82C181.93 103.59 181.635 103.28 181.425 102.89C181.225 102.5 181.125 102.06 181.125 101.57V96.35H183.015V101.18C183.015 101.65 183.13 102.005 183.36 102.245C183.6 102.485 183.935 102.605 184.365 102.605C184.755 102.605 185.095 102.515 185.385 102.335C185.685 102.155 185.92 101.905 186.09 101.585C186.27 101.255 186.36 100.885 186.36 100.475L186.555 102.305C186.305 102.865 185.93 103.315 185.43 103.655C184.94 103.985 184.36 104.15 183.69 104.15ZM186.42 104V102.2H186.36V96.35H188.265V104H186.42ZM196.904 104.15C195.964 104.15 195.269 103.93 194.819 103.49C194.379 103.04 194.159 102.37 194.159 101.48V94.61L196.064 93.905V101.525C196.064 101.895 196.164 102.17 196.364 102.35C196.564 102.53 196.879 102.62 197.309 102.62C197.479 102.62 197.629 102.61 197.759 102.59C197.899 102.56 198.029 102.525 198.149 102.485V103.955C198.029 104.015 197.859 104.06 197.639 104.09C197.419 104.13 197.174 104.15 196.904 104.15ZM192.689 97.835V96.35H198.149V97.835H192.689ZM202.958 104.15C202.148 104.15 201.433 103.98 200.813 103.64C200.203 103.3 199.728 102.83 199.388 102.23C199.048 101.62 198.878 100.925 198.878 100.145C198.878 99.365 199.048 98.68 199.388 98.09C199.728 97.5 200.203 97.04 200.813 96.71C201.433 96.37 202.148 96.2 202.958 96.2C203.778 96.2 204.493 96.37 205.103 96.71C205.713 97.04 206.188 97.5 206.528 98.09C206.868 98.68 207.038 99.365 207.038 100.145C207.038 100.925 206.863 101.62 206.513 102.23C206.173 102.83 205.698 103.3 205.088 103.64C204.478 103.98 203.768 104.15 202.958 104.15ZM202.958 102.635C203.358 102.635 203.718 102.535 204.038 102.335C204.358 102.125 204.608 101.835 204.788 101.465C204.968 101.085 205.058 100.64 205.058 100.13C205.058 99.38 204.858 98.79 204.458 98.36C204.068 97.93 203.568 97.715 202.958 97.715C202.348 97.715 201.843 97.93 201.443 98.36C201.043 98.79 200.843 99.38 200.843 100.13C200.843 100.64 200.933 101.085 201.113 101.465C201.303 101.835 201.553 102.125 201.863 102.335C202.183 102.535 202.548 102.635 202.958 102.635ZM214.141 104V102.275L214.291 102.305C214.161 102.865 213.846 103.315 213.346 103.655C212.846 103.985 212.251 104.15 211.561 104.15C210.861 104.15 210.251 103.99 209.731 103.67C209.221 103.34 208.826 102.88 208.546 102.29C208.266 101.7 208.126 101.005 208.126 100.205C208.126 99.395 208.271 98.69 208.561 98.09C208.851 97.49 209.256 97.025 209.776 96.695C210.306 96.365 210.921 96.2 211.621 96.2C212.341 96.2 212.936 96.375 213.406 96.725C213.876 97.065 214.166 97.54 214.276 98.15L214.081 98.165V93.2H215.986V104H214.141ZM212.116 102.605C212.726 102.605 213.211 102.395 213.571 101.975C213.941 101.545 214.126 100.945 214.126 100.175C214.126 99.405 213.941 98.81 213.571 98.39C213.201 97.97 212.711 97.76 212.101 97.76C211.501 97.76 211.016 97.975 210.646 98.405C210.276 98.825 210.091 99.42 210.091 100.19C210.091 100.96 210.276 101.555 210.646 101.975C211.016 102.395 211.506 102.605 212.116 102.605ZM222.917 104C222.867 103.8 222.827 103.58 222.797 103.34C222.777 103.1 222.767 102.81 222.767 102.47H222.707V98.84C222.707 98.44 222.592 98.14 222.362 97.94C222.142 97.73 221.802 97.625 221.342 97.625C220.892 97.625 220.532 97.71 220.262 97.88C220.002 98.04 219.842 98.275 219.782 98.585H217.967C218.047 97.875 218.387 97.3 218.987 96.86C219.587 96.42 220.392 96.2 221.402 96.2C222.452 96.2 223.247 96.44 223.787 96.92C224.327 97.39 224.597 98.085 224.597 99.005V102.47C224.597 102.71 224.612 102.955 224.642 103.205C224.682 103.455 224.737 103.72 224.807 104H222.917ZM220.262 104.15C219.492 104.15 218.877 103.96 218.417 103.58C217.967 103.19 217.742 102.67 217.742 102.02C217.742 101.32 217.997 100.765 218.507 100.355C219.017 99.945 219.737 99.67 220.667 99.53L223.052 99.17V100.37L220.982 100.685C220.532 100.755 220.192 100.88 219.962 101.06C219.742 101.24 219.632 101.49 219.632 101.81C219.632 102.1 219.737 102.325 219.947 102.485C220.157 102.635 220.447 102.71 220.817 102.71C221.357 102.71 221.807 102.575 222.167 102.305C222.527 102.035 222.707 101.705 222.707 101.315L222.917 102.47C222.717 103.02 222.387 103.44 221.927 103.73C221.477 104.01 220.922 104.15 220.262 104.15ZM226.687 107.075L228.667 102.635L229.012 102.065L231.172 96.35H233.182L228.607 107.075H226.687ZM228.382 103.925L225.277 96.35H227.332L229.927 103.22L228.382 103.925ZM236.832 100.205C236.832 99.705 236.897 99.285 237.027 98.945C237.167 98.595 237.342 98.305 237.552 98.075C237.762 97.835 237.982 97.625 238.212 97.445C238.452 97.265 238.677 97.095 238.887 96.935C239.097 96.765 239.267 96.58 239.397 96.38C239.527 96.18 239.592 95.935 239.592 95.645C239.592 95.215 239.437 94.885 239.127 94.655C238.827 94.415 238.407 94.295 237.867 94.295C237.257 94.295 236.752 94.445 236.352 94.745C235.962 95.045 235.722 95.475 235.632 96.035H233.757C233.847 95.365 234.072 94.785 234.432 94.295C234.802 93.805 235.282 93.425 235.872 93.155C236.462 92.885 237.137 92.75 237.897 92.75C238.637 92.75 239.277 92.87 239.817 93.11C240.367 93.35 240.792 93.685 241.092 94.115C241.402 94.545 241.557 95.055 241.557 95.645C241.557 96.075 241.487 96.44 241.347 96.74C241.207 97.04 241.027 97.3 240.807 97.52C240.597 97.74 240.367 97.94 240.117 98.12C239.867 98.3 239.632 98.485 239.412 98.675C239.202 98.865 239.027 99.08 238.887 99.32C238.747 99.56 238.677 99.855 238.677 100.205H236.832ZM236.682 104V101.84H238.842V104H236.682Z" fill="#344054"/>
<rect x="44.4766" y="129" width="112.137" height="19.4548" rx="9.72741" fill="#F1F3FE" fill-opacity="0.94"/>
<path d="M56.467 142.318C56.017 142.318 55.6 142.237 55.216 142.075C54.832 141.907 54.499 141.676 54.217 141.382C53.941 141.082 53.725 140.728 53.569 140.32C53.413 139.912 53.335 139.465 53.335 138.979C53.335 138.493 53.41 138.049 53.56 137.647C53.716 137.239 53.932 136.888 54.208 136.594C54.49 136.294 54.823 136.063 55.207 135.901C55.591 135.739 56.008 135.658 56.458 135.658C56.962 135.658 57.415 135.76 57.817 135.964C58.219 136.162 58.546 136.444 58.798 136.81C59.056 137.176 59.215 137.602 59.275 138.088H58.339C58.261 137.578 58.054 137.182 57.718 136.9C57.388 136.612 56.971 136.468 56.467 136.468C56.041 136.468 55.663 136.573 55.333 136.783C55.009 136.987 54.757 137.278 54.577 137.656C54.397 138.028 54.307 138.469 54.307 138.979C54.307 139.483 54.397 139.927 54.577 140.311C54.763 140.689 55.018 140.983 55.342 141.193C55.666 141.403 56.041 141.508 56.467 141.508C56.971 141.508 57.391 141.367 57.727 141.085C58.069 140.797 58.276 140.398 58.348 139.888H59.293C59.227 140.38 59.065 140.809 58.807 141.175C58.549 141.535 58.219 141.817 57.817 142.021C57.421 142.219 56.971 142.318 56.467 142.318ZM62.2739 142.318C61.8059 142.318 61.3949 142.216 61.0409 142.012C60.6869 141.802 60.4109 141.517 60.2129 141.157C60.0149 140.791 59.9159 140.377 59.9159 139.915C59.9159 139.447 60.0149 139.036 60.2129 138.682C60.4169 138.328 60.6929 138.052 61.0409 137.854C61.3949 137.65 61.8059 137.548 62.2739 137.548C62.7479 137.548 63.1619 137.65 63.5159 137.854C63.8699 138.052 64.1429 138.328 64.3349 138.682C64.5329 139.036 64.6319 139.447 64.6319 139.915C64.6319 140.377 64.5329 140.791 64.3349 141.157C64.1429 141.517 63.8699 141.802 63.5159 142.012C63.1619 142.216 62.7479 142.318 62.2739 142.318ZM62.2739 141.553C62.5559 141.553 62.7989 141.484 63.0029 141.346C63.2129 141.208 63.3779 141.016 63.4979 140.77C63.6179 140.524 63.6779 140.236 63.6779 139.906C63.6779 139.414 63.5459 139.027 63.2819 138.745C63.0239 138.457 62.6879 138.313 62.2739 138.313C61.8659 138.313 61.5299 138.457 61.2659 138.745C61.0079 139.033 60.8789 139.42 60.8789 139.906C60.8789 140.236 60.9359 140.524 61.0499 140.77C61.1699 141.016 61.3349 141.208 61.5449 141.346C61.7609 141.484 62.0039 141.553 62.2739 141.553ZM65.5933 142.228V137.638H66.4843V138.718H66.5293V142.228H65.5933ZM68.8513 142.228V139.276C68.8513 138.958 68.7703 138.721 68.6083 138.565C68.4523 138.409 68.2183 138.331 67.9063 138.331C67.6363 138.331 67.3963 138.391 67.1863 138.511C66.9823 138.631 66.8203 138.796 66.7003 139.006C66.5863 139.216 66.5293 139.465 66.5293 139.753L66.4123 138.655C66.5623 138.313 66.7933 138.043 67.1053 137.845C67.4173 137.647 67.7803 137.548 68.1943 137.548C68.6863 137.548 69.0733 137.686 69.3553 137.962C69.6373 138.238 69.7783 138.604 69.7783 139.06V142.228H68.8513ZM72.8549 142.318C72.3209 142.318 71.9279 142.195 71.6759 141.949C71.4299 141.697 71.3069 141.328 71.3069 140.842V136.585L72.2339 136.234V140.851C72.2339 141.091 72.2969 141.268 72.4229 141.382C72.5489 141.496 72.7529 141.553 73.0349 141.553C73.1429 141.553 73.2389 141.544 73.3229 141.526C73.4069 141.508 73.4789 141.487 73.5389 141.463V142.219C73.4729 142.249 73.3799 142.273 73.2599 142.291C73.1399 142.309 73.0049 142.318 72.8549 142.318ZM70.3889 138.385V137.638H73.5389V138.385H70.3889ZM76.292 142.318C75.83 142.318 75.422 142.216 75.068 142.012C74.72 141.808 74.447 141.526 74.249 141.166C74.051 140.806 73.952 140.392 73.952 139.924C73.952 139.45 74.048 139.036 74.24 138.682C74.438 138.322 74.714 138.043 75.068 137.845C75.422 137.647 75.827 137.548 76.283 137.548C76.727 137.548 77.111 137.644 77.435 137.836C77.765 138.022 78.017 138.283 78.191 138.619C78.371 138.955 78.461 139.354 78.461 139.816C78.461 139.888 78.458 139.957 78.452 140.023C78.452 140.083 78.446 140.146 78.434 140.212H74.582V139.51H77.777L77.543 139.789C77.543 139.297 77.432 138.922 77.21 138.664C76.988 138.406 76.679 138.277 76.283 138.277C75.857 138.277 75.518 138.424 75.266 138.718C75.02 139.006 74.897 139.408 74.897 139.924C74.897 140.446 75.02 140.854 75.266 141.148C75.518 141.442 75.866 141.589 76.31 141.589C76.58 141.589 76.814 141.535 77.012 141.427C77.21 141.313 77.357 141.148 77.453 140.932H78.335C78.185 141.364 77.93 141.703 77.57 141.949C77.216 142.195 76.79 142.318 76.292 142.318ZM79.4185 142.228V137.638H80.3095V138.718H80.3545V142.228H79.4185ZM82.6765 142.228V139.276C82.6765 138.958 82.5955 138.721 82.4335 138.565C82.2775 138.409 82.0435 138.331 81.7315 138.331C81.4615 138.331 81.2215 138.391 81.0115 138.511C80.8075 138.631 80.6455 138.796 80.5255 139.006C80.4115 139.216 80.3545 139.465 80.3545 139.753L80.2375 138.655C80.3875 138.313 80.6185 138.043 80.9305 137.845C81.2425 137.647 81.6055 137.548 82.0195 137.548C82.5115 137.548 82.8985 137.686 83.1805 137.962C83.4625 138.238 83.6035 138.604 83.6035 139.06V142.228H82.6765ZM86.6801 142.318C86.1461 142.318 85.7531 142.195 85.5011 141.949C85.2551 141.697 85.1321 141.328 85.1321 140.842V136.585L86.0591 136.234V140.851C86.0591 141.091 86.1221 141.268 86.2481 141.382C86.3741 141.496 86.5781 141.553 86.8601 141.553C86.9681 141.553 87.0641 141.544 87.1481 141.526C87.2321 141.508 87.3041 141.487 87.3641 141.463V142.219C87.2981 142.249 87.2051 142.273 87.0851 142.291C86.9651 142.309 86.8301 142.318 86.6801 142.318ZM84.2141 138.385V137.638H87.3641V138.385H84.2141ZM92.8709 142.228C92.8409 142.114 92.8199 141.988 92.8079 141.85C92.8019 141.712 92.7989 141.544 92.7989 141.346H92.7539V139.159C92.7539 138.865 92.6789 138.646 92.5289 138.502C92.3849 138.352 92.1539 138.277 91.8359 138.277C91.5299 138.277 91.2839 138.337 91.0979 138.457C90.9179 138.577 90.8129 138.748 90.7829 138.97H89.8919C89.9339 138.538 90.1289 138.193 90.4769 137.935C90.8249 137.677 91.2899 137.548 91.8719 137.548C92.4719 137.548 92.9219 137.689 93.2219 137.971C93.5219 138.247 93.6719 138.655 93.6719 139.195V141.346C93.6719 141.484 93.6809 141.625 93.6989 141.769C93.7169 141.913 93.7439 142.066 93.7799 142.228H92.8709ZM91.2869 142.318C90.8189 142.318 90.4469 142.204 90.1709 141.976C89.8949 141.742 89.7569 141.427 89.7569 141.031C89.7569 140.623 89.9009 140.302 90.1889 140.068C90.4829 139.828 90.9029 139.666 91.4489 139.582L92.9609 139.339V139.996L91.5929 140.212C91.2869 140.26 91.0559 140.341 90.8999 140.455C90.7499 140.569 90.6749 140.734 90.6749 140.95C90.6749 141.16 90.7439 141.319 90.8819 141.427C91.0259 141.529 91.2329 141.58 91.5029 141.58C91.8629 141.58 92.1599 141.493 92.3939 141.319C92.6339 141.145 92.7539 140.926 92.7539 140.662L92.8709 141.328C92.7629 141.646 92.5709 141.892 92.2949 142.066C92.0189 142.234 91.6829 142.318 91.2869 142.318ZM94.94 142.228V137.638H95.831V138.718H95.876V142.228H94.94ZM98.198 142.228V139.276C98.198 138.958 98.117 138.721 97.955 138.565C97.799 138.409 97.565 138.331 97.253 138.331C96.983 138.331 96.743 138.391 96.533 138.511C96.329 138.631 96.167 138.796 96.047 139.006C95.933 139.216 95.876 139.465 95.876 139.753L95.759 138.655C95.909 138.313 96.14 138.043 96.452 137.845C96.764 137.647 97.127 137.548 97.541 137.548C98.033 137.548 98.42 137.686 98.702 137.962C98.984 138.238 99.125 138.604 99.125 139.06V142.228H98.198ZM103.71 142.228V141.175L103.8 141.202C103.704 141.544 103.506 141.817 103.206 142.021C102.906 142.219 102.546 142.318 102.126 142.318C101.712 142.318 101.349 142.219 101.037 142.021C100.731 141.823 100.491 141.547 100.317 141.193C100.149 140.839 100.065 140.425 100.065 139.951C100.065 139.471 100.152 139.051 100.326 138.691C100.5 138.331 100.743 138.052 101.055 137.854C101.367 137.656 101.733 137.557 102.153 137.557C102.591 137.557 102.951 137.662 103.233 137.872C103.521 138.076 103.71 138.364 103.8 138.736L103.674 138.754V135.748H104.601V142.228H103.71ZM102.36 141.535C102.774 141.535 103.101 141.394 103.341 141.112C103.581 140.824 103.701 140.428 103.701 139.924C103.701 139.432 103.578 139.045 103.332 138.763C103.092 138.475 102.765 138.331 102.351 138.331C101.943 138.331 101.619 138.475 101.379 138.763C101.145 139.045 101.028 139.441 101.028 139.951C101.028 140.449 101.145 140.839 101.379 141.121C101.619 141.397 101.946 141.535 102.36 141.535ZM107.702 142.228V135.748H108.656V142.228H107.702ZM108.458 138.862L111.671 135.748H112.976L109.655 138.862H108.458ZM111.815 142.228L108.44 138.862H109.655L113.156 142.228H111.815ZM115.518 142.318C115.056 142.318 114.648 142.216 114.294 142.012C113.946 141.808 113.673 141.526 113.475 141.166C113.277 140.806 113.178 140.392 113.178 139.924C113.178 139.45 113.274 139.036 113.466 138.682C113.664 138.322 113.94 138.043 114.294 137.845C114.648 137.647 115.053 137.548 115.509 137.548C115.953 137.548 116.337 137.644 116.661 137.836C116.991 138.022 117.243 138.283 117.417 138.619C117.597 138.955 117.687 139.354 117.687 139.816C117.687 139.888 117.684 139.957 117.678 140.023C117.678 140.083 117.672 140.146 117.66 140.212H113.808V139.51H117.003L116.769 139.789C116.769 139.297 116.658 138.922 116.436 138.664C116.214 138.406 115.905 138.277 115.509 138.277C115.083 138.277 114.744 138.424 114.492 138.718C114.246 139.006 114.123 139.408 114.123 139.924C114.123 140.446 114.246 140.854 114.492 141.148C114.744 141.442 115.092 141.589 115.536 141.589C115.806 141.589 116.04 141.535 116.238 141.427C116.436 141.313 116.583 141.148 116.679 140.932H117.561C117.411 141.364 117.156 141.703 116.796 141.949C116.442 142.195 116.016 142.318 115.518 142.318ZM118.863 144.073L119.97 141.544L120.159 141.247L121.554 137.638H122.526L119.826 144.073H118.863ZM119.925 142.228L117.963 137.638H118.98L120.645 141.769L119.925 142.228ZM124.282 142.228L122.878 137.638H123.841L124.795 141.328H124.66L125.821 137.638H126.631L127.792 141.328H127.666L128.611 137.638H129.529L128.125 142.228H127.306L126.145 138.601H126.28L125.101 142.228H124.282ZM132.288 142.318C131.82 142.318 131.409 142.216 131.055 142.012C130.701 141.802 130.425 141.517 130.227 141.157C130.029 140.791 129.93 140.377 129.93 139.915C129.93 139.447 130.029 139.036 130.227 138.682C130.431 138.328 130.707 138.052 131.055 137.854C131.409 137.65 131.82 137.548 132.288 137.548C132.762 137.548 133.176 137.65 133.53 137.854C133.884 138.052 134.157 138.328 134.349 138.682C134.547 139.036 134.646 139.447 134.646 139.915C134.646 140.377 134.547 140.791 134.349 141.157C134.157 141.517 133.884 141.802 133.53 142.012C133.176 142.216 132.762 142.318 132.288 142.318ZM132.288 141.553C132.57 141.553 132.813 141.484 133.017 141.346C133.227 141.208 133.392 141.016 133.512 140.77C133.632 140.524 133.692 140.236 133.692 139.906C133.692 139.414 133.56 139.027 133.296 138.745C133.038 138.457 132.702 138.313 132.288 138.313C131.88 138.313 131.544 138.457 131.28 138.745C131.022 139.033 130.893 139.42 130.893 139.906C130.893 140.236 130.95 140.524 131.064 140.77C131.184 141.016 131.349 141.208 131.559 141.346C131.775 141.484 132.018 141.553 132.288 141.553ZM135.607 142.228V137.638H136.498V138.781H136.543V142.228H135.607ZM136.543 139.834L136.426 138.745C136.534 138.355 136.72 138.058 136.984 137.854C137.248 137.65 137.563 137.548 137.929 137.548C138.067 137.548 138.163 137.56 138.217 137.584V138.466C138.187 138.454 138.145 138.448 138.091 138.448C138.037 138.442 137.971 138.439 137.893 138.439C137.443 138.439 137.104 138.556 136.876 138.79C136.654 139.024 136.543 139.372 136.543 139.834ZM142.241 142.228V141.175L142.331 141.202C142.235 141.544 142.037 141.817 141.737 142.021C141.437 142.219 141.077 142.318 140.657 142.318C140.243 142.318 139.88 142.219 139.568 142.021C139.262 141.823 139.022 141.547 138.848 141.193C138.68 140.839 138.596 140.425 138.596 139.951C138.596 139.471 138.683 139.051 138.857 138.691C139.031 138.331 139.274 138.052 139.586 137.854C139.898 137.656 140.264 137.557 140.684 137.557C141.122 137.557 141.482 137.662 141.764 137.872C142.052 138.076 142.241 138.364 142.331 138.736L142.205 138.754V135.748H143.132V142.228H142.241ZM140.891 141.535C141.305 141.535 141.632 141.394 141.872 141.112C142.112 140.824 142.232 140.428 142.232 139.924C142.232 139.432 142.109 139.045 141.863 138.763C141.623 138.475 141.296 138.331 140.882 138.331C140.474 138.331 140.15 138.475 139.91 138.763C139.676 139.045 139.559 139.441 139.559 139.951C139.559 140.449 139.676 140.839 139.91 141.121C140.15 141.397 140.477 141.535 140.891 141.535ZM146.105 142.318C145.505 142.318 145.028 142.186 144.674 141.922C144.32 141.658 144.119 141.286 144.071 140.806H144.935C144.977 141.07 145.097 141.274 145.295 141.418C145.499 141.556 145.775 141.625 146.123 141.625C146.429 141.625 146.663 141.571 146.825 141.463C146.987 141.355 147.068 141.202 147.068 141.004C147.068 140.86 147.02 140.74 146.924 140.644C146.834 140.542 146.654 140.458 146.384 140.392L145.646 140.221C145.184 140.107 144.839 139.939 144.611 139.717C144.389 139.489 144.278 139.21 144.278 138.88C144.278 138.466 144.431 138.142 144.737 137.908C145.049 137.668 145.475 137.548 146.015 137.548C146.549 137.548 146.978 137.668 147.302 137.908C147.632 138.148 147.818 138.484 147.86 138.916H146.996C146.96 138.7 146.855 138.535 146.681 138.421C146.513 138.301 146.282 138.241 145.988 138.241C145.712 138.241 145.499 138.292 145.349 138.394C145.205 138.49 145.133 138.625 145.133 138.799C145.133 138.943 145.187 139.063 145.295 139.159C145.409 139.255 145.595 139.336 145.853 139.402L146.609 139.591C147.047 139.699 147.377 139.876 147.599 140.122C147.821 140.362 147.932 140.653 147.932 140.995C147.932 141.409 147.77 141.733 147.446 141.967C147.128 142.201 146.681 142.318 146.105 142.318Z" fill="#7A8EAC"/>
<rect x="163.386" y="129" width="102.137" height="19.4548" rx="9.72741" fill="#F1F3FE" fill-opacity="0.94"/>
<path d="M175.153 142.318C174.487 142.318 173.908 142.177 173.416 141.895C172.924 141.607 172.543 141.211 172.273 140.707C172.009 140.197 171.877 139.615 171.877 138.961C171.877 138.313 172.012 137.74 172.282 137.242C172.552 136.744 172.924 136.357 173.398 136.081C173.878 135.799 174.424 135.658 175.036 135.658C175.66 135.658 176.209 135.799 176.683 136.081C177.157 136.357 177.529 136.744 177.799 137.242C178.075 137.74 178.213 138.316 178.213 138.97C178.213 139.432 178.135 139.861 177.979 140.257C177.829 140.653 177.598 140.989 177.286 141.265C176.98 141.541 176.593 141.733 176.125 141.841L175.153 142.318ZM175.036 141.553C175.48 141.553 175.864 141.442 176.188 141.22C176.518 140.998 176.776 140.692 176.962 140.302C177.148 139.912 177.241 139.462 177.241 138.952C177.241 138.46 177.148 138.028 176.962 137.656C176.776 137.278 176.518 136.987 176.188 136.783C175.858 136.573 175.474 136.468 175.036 136.468C174.598 136.468 174.214 136.573 173.884 136.783C173.56 136.987 173.305 137.275 173.119 137.647C172.939 138.019 172.849 138.454 172.849 138.952C172.849 139.468 172.942 139.921 173.128 140.311C173.314 140.695 173.569 140.998 173.893 141.22C174.223 141.442 174.604 141.553 175.036 141.553ZM175.153 142.318L175.045 141.67L178.483 141.445V142.228C178.111 142.228 177.79 142.231 177.52 142.237C177.256 142.249 177.007 142.261 176.773 142.273C176.545 142.285 176.305 142.294 176.053 142.3C175.801 142.312 175.501 142.318 175.153 142.318ZM180.874 142.318C180.568 142.318 180.298 142.255 180.064 142.129C179.83 141.997 179.647 141.817 179.515 141.589C179.389 141.361 179.326 141.1 179.326 140.806V137.638H180.262V140.59C180.262 140.908 180.34 141.145 180.496 141.301C180.652 141.457 180.874 141.535 181.162 141.535C181.42 141.535 181.648 141.475 181.846 141.355C182.05 141.235 182.209 141.07 182.323 140.86C182.443 140.644 182.503 140.395 182.503 140.113L182.62 141.211C182.47 141.547 182.239 141.817 181.927 142.021C181.621 142.219 181.27 142.318 180.874 142.318ZM182.539 142.228V141.148H182.503V137.638H183.43V142.228H182.539ZM187.515 142.228C187.485 142.114 187.464 141.988 187.452 141.85C187.446 141.712 187.443 141.544 187.443 141.346H187.398V139.159C187.398 138.865 187.323 138.646 187.173 138.502C187.029 138.352 186.798 138.277 186.48 138.277C186.174 138.277 185.928 138.337 185.742 138.457C185.562 138.577 185.457 138.748 185.427 138.97H184.536C184.578 138.538 184.773 138.193 185.121 137.935C185.469 137.677 185.934 137.548 186.516 137.548C187.116 137.548 187.566 137.689 187.866 137.971C188.166 138.247 188.316 138.655 188.316 139.195V141.346C188.316 141.484 188.325 141.625 188.343 141.769C188.361 141.913 188.388 142.066 188.424 142.228H187.515ZM185.931 142.318C185.463 142.318 185.091 142.204 184.815 141.976C184.539 141.742 184.401 141.427 184.401 141.031C184.401 140.623 184.545 140.302 184.833 140.068C185.127 139.828 185.547 139.666 186.093 139.582L187.605 139.339V139.996L186.237 140.212C185.931 140.26 185.7 140.341 185.544 140.455C185.394 140.569 185.319 140.734 185.319 140.95C185.319 141.16 185.388 141.319 185.526 141.427C185.67 141.529 185.877 141.58 186.147 141.58C186.507 141.58 186.804 141.493 187.038 141.319C187.278 141.145 187.398 140.926 187.398 140.662L187.515 141.328C187.407 141.646 187.215 141.892 186.939 142.066C186.663 142.234 186.327 142.318 185.931 142.318ZM189.584 142.228V135.748H190.52V142.228H189.584ZM191.834 142.228V137.638H192.77V142.228H191.834ZM191.789 136.738V135.685H192.824V136.738H191.789ZM196.002 142.318C195.468 142.318 195.075 142.195 194.823 141.949C194.577 141.697 194.454 141.328 194.454 140.842V136.585L195.381 136.234V140.851C195.381 141.091 195.444 141.268 195.57 141.382C195.696 141.496 195.9 141.553 196.182 141.553C196.29 141.553 196.386 141.544 196.47 141.526C196.554 141.508 196.626 141.487 196.686 141.463V142.219C196.62 142.249 196.527 142.273 196.407 142.291C196.287 142.309 196.152 142.318 196.002 142.318ZM193.536 138.385V137.638H196.686V138.385H193.536ZM197.977 144.073L199.084 141.544L199.273 141.247L200.668 137.638H201.64L198.94 144.073H197.977ZM199.039 142.228L197.077 137.638H198.094L199.759 141.769L199.039 142.228ZM207.027 142.228C206.997 142.114 206.976 141.988 206.964 141.85C206.958 141.712 206.955 141.544 206.955 141.346H206.91V139.159C206.91 138.865 206.835 138.646 206.685 138.502C206.541 138.352 206.31 138.277 205.992 138.277C205.686 138.277 205.44 138.337 205.254 138.457C205.074 138.577 204.969 138.748 204.939 138.97H204.048C204.09 138.538 204.285 138.193 204.633 137.935C204.981 137.677 205.446 137.548 206.028 137.548C206.628 137.548 207.078 137.689 207.378 137.971C207.678 138.247 207.828 138.655 207.828 139.195V141.346C207.828 141.484 207.837 141.625 207.855 141.769C207.873 141.913 207.9 142.066 207.936 142.228H207.027ZM205.443 142.318C204.975 142.318 204.603 142.204 204.327 141.976C204.051 141.742 203.913 141.427 203.913 141.031C203.913 140.623 204.057 140.302 204.345 140.068C204.639 139.828 205.059 139.666 205.605 139.582L207.117 139.339V139.996L205.749 140.212C205.443 140.26 205.212 140.341 205.056 140.455C204.906 140.569 204.831 140.734 204.831 140.95C204.831 141.16 204.9 141.319 205.038 141.427C205.182 141.529 205.389 141.58 205.659 141.58C206.019 141.58 206.316 141.493 206.55 141.319C206.79 141.145 206.91 140.926 206.91 140.662L207.027 141.328C206.919 141.646 206.727 141.892 206.451 142.066C206.175 142.234 205.839 142.318 205.443 142.318ZM209.096 142.228V137.638H209.987V138.718H210.032V142.228H209.096ZM212.354 142.228V139.276C212.354 138.958 212.273 138.721 212.111 138.565C211.955 138.409 211.721 138.331 211.409 138.331C211.139 138.331 210.899 138.391 210.689 138.511C210.485 138.631 210.323 138.796 210.203 139.006C210.089 139.216 210.032 139.465 210.032 139.753L209.915 138.655C210.065 138.313 210.296 138.043 210.608 137.845C210.92 137.647 211.283 137.548 211.697 137.548C212.189 137.548 212.576 137.686 212.858 137.962C213.14 138.238 213.281 138.604 213.281 139.06V142.228H212.354ZM217.866 142.228V141.175L217.956 141.202C217.86 141.544 217.662 141.817 217.362 142.021C217.062 142.219 216.702 142.318 216.282 142.318C215.868 142.318 215.505 142.219 215.193 142.021C214.887 141.823 214.647 141.547 214.473 141.193C214.305 140.839 214.221 140.425 214.221 139.951C214.221 139.471 214.308 139.051 214.482 138.691C214.656 138.331 214.899 138.052 215.211 137.854C215.523 137.656 215.889 137.557 216.309 137.557C216.747 137.557 217.107 137.662 217.389 137.872C217.677 138.076 217.866 138.364 217.956 138.736L217.83 138.754V135.748H218.757V142.228H217.866ZM216.516 141.535C216.93 141.535 217.257 141.394 217.497 141.112C217.737 140.824 217.857 140.428 217.857 139.924C217.857 139.432 217.734 139.045 217.488 138.763C217.248 138.475 216.921 138.331 216.507 138.331C216.099 138.331 215.775 138.475 215.535 138.763C215.301 139.045 215.184 139.441 215.184 139.951C215.184 140.449 215.301 140.839 215.535 141.121C215.775 141.397 216.102 141.535 216.516 141.535ZM224.369 142.318C223.541 142.318 222.905 142.075 222.461 141.589C222.017 141.103 221.795 140.41 221.795 139.51V135.748H222.749V139.618C222.749 140.236 222.89 140.707 223.172 141.031C223.454 141.349 223.853 141.508 224.369 141.508C224.897 141.508 225.302 141.349 225.584 141.031C225.866 140.713 226.007 140.242 226.007 139.618V135.748H226.961V139.528C226.961 140.416 226.736 141.103 226.286 141.589C225.842 142.075 225.203 142.318 224.369 142.318ZM229.789 142.318C229.189 142.318 228.712 142.186 228.358 141.922C228.004 141.658 227.803 141.286 227.755 140.806H228.619C228.661 141.07 228.781 141.274 228.979 141.418C229.183 141.556 229.459 141.625 229.807 141.625C230.113 141.625 230.347 141.571 230.509 141.463C230.671 141.355 230.752 141.202 230.752 141.004C230.752 140.86 230.704 140.74 230.608 140.644C230.518 140.542 230.338 140.458 230.068 140.392L229.33 140.221C228.868 140.107 228.523 139.939 228.295 139.717C228.073 139.489 227.962 139.21 227.962 138.88C227.962 138.466 228.115 138.142 228.421 137.908C228.733 137.668 229.159 137.548 229.699 137.548C230.233 137.548 230.662 137.668 230.986 137.908C231.316 138.148 231.502 138.484 231.544 138.916H230.68C230.644 138.7 230.539 138.535 230.365 138.421C230.197 138.301 229.966 138.241 229.672 138.241C229.396 138.241 229.183 138.292 229.033 138.394C228.889 138.49 228.817 138.625 228.817 138.799C228.817 138.943 228.871 139.063 228.979 139.159C229.093 139.255 229.279 139.336 229.537 139.402L230.293 139.591C230.731 139.699 231.061 139.876 231.283 140.122C231.505 140.362 231.616 140.653 231.616 140.995C231.616 141.409 231.454 141.733 231.13 141.967C230.812 142.201 230.365 142.318 229.789 142.318ZM235.442 142.228C235.412 142.114 235.391 141.988 235.379 141.85C235.373 141.712 235.37 141.544 235.37 141.346H235.325V139.159C235.325 138.865 235.25 138.646 235.1 138.502C234.956 138.352 234.725 138.277 234.407 138.277C234.101 138.277 233.855 138.337 233.669 138.457C233.489 138.577 233.384 138.748 233.354 138.97H232.463C232.505 138.538 232.7 138.193 233.048 137.935C233.396 137.677 233.861 137.548 234.443 137.548C235.043 137.548 235.493 137.689 235.793 137.971C236.093 138.247 236.243 138.655 236.243 139.195V141.346C236.243 141.484 236.252 141.625 236.27 141.769C236.288 141.913 236.315 142.066 236.351 142.228H235.442ZM233.858 142.318C233.39 142.318 233.018 142.204 232.742 141.976C232.466 141.742 232.328 141.427 232.328 141.031C232.328 140.623 232.472 140.302 232.76 140.068C233.054 139.828 233.474 139.666 234.02 139.582L235.532 139.339V139.996L234.164 140.212C233.858 140.26 233.627 140.341 233.471 140.455C233.321 140.569 233.246 140.734 233.246 140.95C233.246 141.16 233.315 141.319 233.453 141.427C233.597 141.529 233.804 141.58 234.074 141.58C234.434 141.58 234.731 141.493 234.965 141.319C235.205 141.145 235.325 140.926 235.325 140.662L235.442 141.328C235.334 141.646 235.142 141.892 234.866 142.066C234.59 142.234 234.254 142.318 233.858 142.318ZM239.959 142.309C239.527 142.309 239.167 142.207 238.879 142.003C238.591 141.793 238.402 141.502 238.312 141.13L238.402 141.112V142.228H237.511V135.748H238.447V138.691L238.348 138.664C238.45 138.316 238.648 138.043 238.942 137.845C239.242 137.647 239.602 137.548 240.022 137.548C240.436 137.548 240.793 137.647 241.093 137.845C241.399 138.043 241.633 138.319 241.795 138.673C241.963 139.027 242.047 139.441 242.047 139.915C242.047 140.395 241.96 140.815 241.786 141.175C241.612 141.535 241.369 141.814 241.057 142.012C240.745 142.21 240.379 142.309 239.959 142.309ZM239.761 141.535C240.169 141.535 240.493 141.391 240.733 141.103C240.973 140.815 241.093 140.419 241.093 139.915C241.093 139.417 240.973 139.03 240.733 138.754C240.493 138.472 240.166 138.331 239.752 138.331C239.344 138.331 239.017 138.475 238.771 138.763C238.531 139.045 238.411 139.438 238.411 139.942C238.411 140.434 238.531 140.824 238.771 141.112C239.017 141.394 239.347 141.535 239.761 141.535ZM243.004 142.228V137.638H243.94V142.228H243.004ZM242.959 136.738V135.685H243.994V136.738H242.959ZM245.254 142.228V135.748H246.19V142.228H245.254ZM247.504 142.228V137.638H248.44V142.228H247.504ZM247.459 136.738V135.685H248.494V136.738H247.459ZM251.672 142.318C251.138 142.318 250.745 142.195 250.493 141.949C250.247 141.697 250.124 141.328 250.124 140.842V136.585L251.051 136.234V140.851C251.051 141.091 251.114 141.268 251.24 141.382C251.366 141.496 251.57 141.553 251.852 141.553C251.96 141.553 252.056 141.544 252.14 141.526C252.224 141.508 252.296 141.487 252.356 141.463V142.219C252.29 142.249 252.197 142.273 252.077 142.291C251.957 142.309 251.822 142.318 251.672 142.318ZM249.206 138.385V137.638H252.356V138.385H249.206ZM253.647 144.073L254.754 141.544L254.943 141.247L256.338 137.638H257.31L254.61 144.073H253.647ZM254.709 142.228L252.747 137.638H253.764L255.429 141.769L254.709 142.228Z" fill="#7A8EAC"/>
<rect x="46.0217" y="155.228" width="56.1371" height="19.4548" rx="9.72741" fill="#F1F3FE" fill-opacity="0.94"/>
<path d="M55.7313 168.455V167.717H57.6663C58.0323 167.717 58.3173 167.618 58.5213 167.42C58.7313 167.222 58.8363 166.952 58.8363 166.61C58.8363 166.25 58.7253 165.962 58.5033 165.746C58.2873 165.53 57.9903 165.422 57.6123 165.422H55.7313V164.702H57.5223C57.8883 164.702 58.1703 164.615 58.3683 164.441C58.5723 164.261 58.6743 164.006 58.6743 163.676C58.6743 163.364 58.5783 163.127 58.3863 162.965C58.2003 162.797 57.9243 162.713 57.5583 162.713H55.7313V161.975H57.7023C58.2903 161.975 58.7583 162.119 59.1063 162.407C59.4543 162.689 59.6283 163.076 59.6283 163.568C59.6283 163.88 59.5563 164.156 59.4123 164.396C59.2743 164.63 59.0823 164.813 58.8363 164.945C58.5903 165.071 58.3113 165.134 57.9993 165.134L58.0443 164.945C58.3803 164.945 58.6803 165.023 58.9443 165.179C59.2083 165.329 59.4183 165.536 59.5743 165.8C59.7303 166.064 59.8083 166.37 59.8083 166.718C59.8083 167.06 59.7243 167.363 59.5563 167.627C59.3943 167.891 59.1633 168.095 58.8633 168.239C58.5633 168.383 58.2153 168.455 57.8193 168.455H55.7313ZM55.0293 168.455V161.975H55.9833V168.455H55.0293ZM63.586 168.455C63.556 168.341 63.535 168.215 63.523 168.077C63.517 167.939 63.514 167.771 63.514 167.573H63.469V165.386C63.469 165.092 63.394 164.873 63.244 164.729C63.1 164.579 62.869 164.504 62.551 164.504C62.245 164.504 61.999 164.564 61.813 164.684C61.633 164.804 61.528 164.975 61.498 165.197H60.607C60.649 164.765 60.844 164.42 61.192 164.162C61.54 163.904 62.005 163.775 62.587 163.775C63.187 163.775 63.637 163.916 63.937 164.198C64.237 164.474 64.387 164.882 64.387 165.422V167.573C64.387 167.711 64.396 167.852 64.414 167.996C64.432 168.14 64.459 168.293 64.495 168.455H63.586ZM62.002 168.545C61.534 168.545 61.162 168.431 60.886 168.203C60.61 167.969 60.472 167.654 60.472 167.258C60.472 166.85 60.616 166.529 60.904 166.295C61.198 166.055 61.618 165.893 62.164 165.809L63.676 165.566V166.223L62.308 166.439C62.002 166.487 61.771 166.568 61.615 166.682C61.465 166.796 61.39 166.961 61.39 167.177C61.39 167.387 61.459 167.546 61.597 167.654C61.741 167.756 61.948 167.807 62.218 167.807C62.578 167.807 62.875 167.72 63.109 167.546C63.349 167.372 63.469 167.153 63.469 166.889L63.586 167.555C63.478 167.873 63.286 168.119 63.01 168.293C62.734 168.461 62.398 168.545 62.002 168.545ZM67.5279 168.545C67.0899 168.545 66.6999 168.443 66.3579 168.239C66.0159 168.029 65.7459 167.744 65.5479 167.384C65.3559 167.024 65.2599 166.613 65.2599 166.151C65.2599 165.689 65.3559 165.281 65.5479 164.927C65.7459 164.567 66.0159 164.285 66.3579 164.081C66.6999 163.877 67.0869 163.775 67.5189 163.775C67.8849 163.775 68.2119 163.844 68.4999 163.982C68.7879 164.12 69.0249 164.312 69.2109 164.558C69.3969 164.804 69.5169 165.095 69.5709 165.431H68.6889C68.6289 165.161 68.4969 164.945 68.2929 164.783C68.0949 164.621 67.8429 164.54 67.5369 164.54C67.2729 164.54 67.0419 164.606 66.8439 164.738C66.6459 164.87 66.4929 165.056 66.3849 165.296C66.2769 165.536 66.2229 165.821 66.2229 166.151C66.2229 166.475 66.2769 166.76 66.3849 167.006C66.4929 167.252 66.6459 167.444 66.8439 167.582C67.0419 167.714 67.2759 167.78 67.5459 167.78C67.8399 167.78 68.0889 167.702 68.2929 167.546C68.5029 167.384 68.6379 167.168 68.6979 166.898H69.5799C69.5199 167.228 69.3939 167.516 69.2019 167.762C69.0159 168.008 68.7789 168.2 68.4909 168.338C68.2029 168.476 67.8819 168.545 67.5279 168.545ZM70.5066 168.455V161.858H71.4426V168.455H70.5066ZM73.4856 168.455L71.2266 166.07L73.4136 163.865H74.5926L72.1086 166.277L72.1536 165.854L74.6826 168.455H73.4856ZM75.4197 168.455V161.975H76.3557V168.455H75.4197ZM77.6697 168.455V163.865H78.6057V168.455H77.6697ZM77.6247 162.965V161.912H78.6597V162.965H77.6247ZM79.9197 168.455V163.865H80.8107V164.945H80.8557V168.455H79.9197ZM83.1777 168.455V165.503C83.1777 165.185 83.0967 164.948 82.9347 164.792C82.7787 164.636 82.5447 164.558 82.2327 164.558C81.9627 164.558 81.7227 164.618 81.5127 164.738C81.3087 164.858 81.1467 165.023 81.0267 165.233C80.9127 165.443 80.8557 165.692 80.8557 165.98L80.7387 164.882C80.8887 164.54 81.1197 164.27 81.4317 164.072C81.7437 163.874 82.1067 163.775 82.5207 163.775C83.0127 163.775 83.3997 163.913 83.6817 164.189C83.9637 164.465 84.1047 164.831 84.1047 165.287V168.455H83.1777ZM85.3777 168.455V161.858H86.3137V168.455H85.3777ZM88.3567 168.455L86.0977 166.07L88.2847 163.865H89.4637L86.9797 166.277L87.0247 165.854L89.5537 168.455H88.3567ZM91.7798 168.545C91.1798 168.545 90.7028 168.413 90.3488 168.149C89.9948 167.885 89.7938 167.513 89.7458 167.033H90.6098C90.6518 167.297 90.7718 167.501 90.9698 167.645C91.1738 167.783 91.4498 167.852 91.7978 167.852C92.1038 167.852 92.3378 167.798 92.4998 167.69C92.6618 167.582 92.7428 167.429 92.7428 167.231C92.7428 167.087 92.6948 166.967 92.5988 166.871C92.5088 166.769 92.3288 166.685 92.0588 166.619L91.3208 166.448C90.8588 166.334 90.5138 166.166 90.2858 165.944C90.0638 165.716 89.9528 165.437 89.9528 165.107C89.9528 164.693 90.1058 164.369 90.4118 164.135C90.7238 163.895 91.1498 163.775 91.6898 163.775C92.2238 163.775 92.6528 163.895 92.9768 164.135C93.3068 164.375 93.4928 164.711 93.5348 165.143H92.6708C92.6348 164.927 92.5298 164.762 92.3558 164.648C92.1878 164.528 91.9568 164.468 91.6628 164.468C91.3868 164.468 91.1738 164.519 91.0238 164.621C90.8798 164.717 90.8078 164.852 90.8078 165.026C90.8078 165.17 90.8618 165.29 90.9698 165.386C91.0838 165.482 91.2698 165.563 91.5278 165.629L92.2838 165.818C92.7218 165.926 93.0518 166.103 93.2738 166.349C93.4958 166.589 93.6068 166.88 93.6068 167.222C93.6068 167.636 93.4448 167.96 93.1208 168.194C92.8028 168.428 92.3558 168.545 91.7798 168.545Z" fill="#7A8EAC"/>
<rect x="108.931" y="155.228" width="58.1371" height="19.4548" rx="9.72741" fill="#F1F3FE" fill-opacity="0.94"/>
<path d="M118.113 168.455V161.975H119.067V168.455H118.113ZM118.869 165.089L122.082 161.975H123.387L120.066 165.089H118.869ZM122.226 168.455L118.851 165.089H120.066L123.567 168.455H122.226ZM125.929 168.545C125.467 168.545 125.059 168.443 124.705 168.239C124.357 168.035 124.084 167.753 123.886 167.393C123.688 167.033 123.589 166.619 123.589 166.151C123.589 165.677 123.685 165.263 123.877 164.909C124.075 164.549 124.351 164.27 124.705 164.072C125.059 163.874 125.464 163.775 125.92 163.775C126.364 163.775 126.748 163.871 127.072 164.063C127.402 164.249 127.654 164.51 127.828 164.846C128.008 165.182 128.098 165.581 128.098 166.043C128.098 166.115 128.095 166.184 128.089 166.25C128.089 166.31 128.083 166.373 128.071 166.439H124.219V165.737H127.414L127.18 166.016C127.18 165.524 127.069 165.149 126.847 164.891C126.625 164.633 126.316 164.504 125.92 164.504C125.494 164.504 125.155 164.651 124.903 164.945C124.657 165.233 124.534 165.635 124.534 166.151C124.534 166.673 124.657 167.081 124.903 167.375C125.155 167.669 125.503 167.816 125.947 167.816C126.217 167.816 126.451 167.762 126.649 167.654C126.847 167.54 126.994 167.375 127.09 167.159H127.972C127.822 167.591 127.567 167.93 127.207 168.176C126.853 168.422 126.427 168.545 125.929 168.545ZM129.274 170.3L130.381 167.771L130.57 167.474L131.965 163.865H132.937L130.237 170.3H129.274ZM130.336 168.455L128.374 163.865H129.391L131.056 167.996L130.336 168.455ZM134.693 168.455L133.289 163.865H134.252L135.206 167.555H135.071L136.232 163.865H137.042L138.203 167.555H138.077L139.022 163.865H139.94L138.536 168.455H137.717L136.556 164.828H136.691L135.512 168.455H134.693ZM142.698 168.545C142.23 168.545 141.819 168.443 141.465 168.239C141.111 168.029 140.835 167.744 140.637 167.384C140.439 167.018 140.34 166.604 140.34 166.142C140.34 165.674 140.439 165.263 140.637 164.909C140.841 164.555 141.117 164.279 141.465 164.081C141.819 163.877 142.23 163.775 142.698 163.775C143.172 163.775 143.586 163.877 143.94 164.081C144.294 164.279 144.567 164.555 144.759 164.909C144.957 165.263 145.056 165.674 145.056 166.142C145.056 166.604 144.957 167.018 144.759 167.384C144.567 167.744 144.294 168.029 143.94 168.239C143.586 168.443 143.172 168.545 142.698 168.545ZM142.698 167.78C142.98 167.78 143.223 167.711 143.427 167.573C143.637 167.435 143.802 167.243 143.922 166.997C144.042 166.751 144.102 166.463 144.102 166.133C144.102 165.641 143.97 165.254 143.706 164.972C143.448 164.684 143.112 164.54 142.698 164.54C142.29 164.54 141.954 164.684 141.69 164.972C141.432 165.26 141.303 165.647 141.303 166.133C141.303 166.463 141.36 166.751 141.474 166.997C141.594 167.243 141.759 167.435 141.969 167.573C142.185 167.711 142.428 167.78 142.698 167.78ZM146.018 168.455V163.865H146.909V165.008H146.954V168.455H146.018ZM146.954 166.061L146.837 164.972C146.945 164.582 147.131 164.285 147.395 164.081C147.659 163.877 147.974 163.775 148.34 163.775C148.478 163.775 148.574 163.787 148.628 163.811V164.693C148.598 164.681 148.556 164.675 148.502 164.675C148.448 164.669 148.382 164.666 148.304 164.666C147.854 164.666 147.515 164.783 147.287 165.017C147.065 165.251 146.954 165.599 146.954 166.061ZM152.652 168.455V167.402L152.742 167.429C152.646 167.771 152.448 168.044 152.148 168.248C151.848 168.446 151.488 168.545 151.068 168.545C150.654 168.545 150.291 168.446 149.979 168.248C149.673 168.05 149.433 167.774 149.259 167.42C149.091 167.066 149.007 166.652 149.007 166.178C149.007 165.698 149.094 165.278 149.268 164.918C149.442 164.558 149.685 164.279 149.997 164.081C150.309 163.883 150.675 163.784 151.095 163.784C151.533 163.784 151.893 163.889 152.175 164.099C152.463 164.303 152.652 164.591 152.742 164.963L152.616 164.981V161.975H153.543V168.455H152.652ZM151.302 167.762C151.716 167.762 152.043 167.621 152.283 167.339C152.523 167.051 152.643 166.655 152.643 166.151C152.643 165.659 152.52 165.272 152.274 164.99C152.034 164.702 151.707 164.558 151.293 164.558C150.885 164.558 150.561 164.702 150.321 164.99C150.087 165.272 149.97 165.668 149.97 166.178C149.97 166.676 150.087 167.066 150.321 167.348C150.561 167.624 150.888 167.762 151.302 167.762ZM156.516 168.545C155.916 168.545 155.439 168.413 155.085 168.149C154.731 167.885 154.53 167.513 154.482 167.033H155.346C155.388 167.297 155.508 167.501 155.706 167.645C155.91 167.783 156.186 167.852 156.534 167.852C156.84 167.852 157.074 167.798 157.236 167.69C157.398 167.582 157.479 167.429 157.479 167.231C157.479 167.087 157.431 166.967 157.335 166.871C157.245 166.769 157.065 166.685 156.795 166.619L156.057 166.448C155.595 166.334 155.25 166.166 155.022 165.944C154.8 165.716 154.689 165.437 154.689 165.107C154.689 164.693 154.842 164.369 155.148 164.135C155.46 163.895 155.886 163.775 156.426 163.775C156.96 163.775 157.389 163.895 157.713 164.135C158.043 164.375 158.229 164.711 158.271 165.143H157.407C157.371 164.927 157.266 164.762 157.092 164.648C156.924 164.528 156.693 164.468 156.399 164.468C156.123 164.468 155.91 164.519 155.76 164.621C155.616 164.717 155.544 164.852 155.544 165.026C155.544 165.17 155.598 165.29 155.706 165.386C155.82 165.482 156.006 165.563 156.264 165.629L157.02 165.818C157.458 165.926 157.788 166.103 158.01 166.349C158.232 166.589 158.343 166.88 158.343 167.222C158.343 167.636 158.181 167.96 157.857 168.194C157.539 168.428 157.092 168.545 156.516 168.545Z" fill="#7A8EAC"/>
<rect x="173.841" y="155.228" width="90.1371" height="19.4548" rx="9.72741" fill="#F1F3FE" fill-opacity="0.94"/>
<path d="M183.594 168.455V167.663H185.295C185.811 167.663 186.252 167.558 186.618 167.348C186.99 167.138 187.275 166.847 187.473 166.475C187.671 166.103 187.77 165.671 187.77 165.179C187.77 164.693 187.671 164.27 187.473 163.91C187.281 163.55 186.999 163.271 186.627 163.073C186.261 162.869 185.817 162.767 185.295 162.767H183.603V161.975H185.295C185.991 161.975 186.597 162.107 187.113 162.371C187.629 162.635 188.028 163.01 188.31 163.496C188.598 163.976 188.742 164.543 188.742 165.197C188.742 165.851 188.598 166.424 188.31 166.916C188.022 167.402 187.62 167.78 187.104 168.05C186.594 168.32 185.994 168.455 185.304 168.455H183.594ZM183.018 168.455V161.975H183.972V168.455H183.018ZM191.757 168.545C191.289 168.545 190.878 168.443 190.524 168.239C190.17 168.029 189.894 167.744 189.696 167.384C189.498 167.018 189.399 166.604 189.399 166.142C189.399 165.674 189.498 165.263 189.696 164.909C189.9 164.555 190.176 164.279 190.524 164.081C190.878 163.877 191.289 163.775 191.757 163.775C192.231 163.775 192.645 163.877 192.999 164.081C193.353 164.279 193.626 164.555 193.818 164.909C194.016 165.263 194.115 165.674 194.115 166.142C194.115 166.604 194.016 167.018 193.818 167.384C193.626 167.744 193.353 168.029 192.999 168.239C192.645 168.443 192.231 168.545 191.757 168.545ZM191.757 167.78C192.039 167.78 192.282 167.711 192.486 167.573C192.696 167.435 192.861 167.243 192.981 166.997C193.101 166.751 193.161 166.463 193.161 166.133C193.161 165.641 193.029 165.254 192.765 164.972C192.507 164.684 192.171 164.54 191.757 164.54C191.349 164.54 191.013 164.684 190.749 164.972C190.491 165.26 190.362 165.647 190.362 166.133C190.362 166.463 190.419 166.751 190.533 166.997C190.653 167.243 190.818 167.435 191.028 167.573C191.244 167.711 191.487 167.78 191.757 167.78ZM195.076 168.455V163.865H195.967V164.945H196.012V168.455H195.076ZM198.172 168.455V165.458C198.172 165.146 198.1 164.918 197.956 164.774C197.812 164.63 197.605 164.558 197.335 164.558C197.083 164.558 196.855 164.618 196.651 164.738C196.453 164.852 196.297 165.014 196.183 165.224C196.069 165.428 196.012 165.671 196.012 165.953L195.895 164.882C196.045 164.54 196.27 164.27 196.57 164.072C196.876 163.874 197.218 163.775 197.596 163.775C198.052 163.775 198.415 163.907 198.685 164.171C198.961 164.435 199.099 164.783 199.099 165.215V168.455H198.172ZM201.268 168.455V165.458C201.268 165.146 201.193 164.918 201.043 164.774C200.899 164.63 200.692 164.558 200.422 164.558C200.176 164.558 199.951 164.618 199.747 164.738C199.549 164.852 199.39 165.014 199.27 165.224C199.156 165.428 199.099 165.671 199.099 165.953L198.91 164.882C199.066 164.54 199.3 164.27 199.612 164.072C199.93 163.874 200.284 163.775 200.674 163.775C201.136 163.775 201.505 163.91 201.781 164.18C202.057 164.444 202.195 164.798 202.195 165.242V168.455H201.268ZM206.243 168.455C206.213 168.341 206.192 168.215 206.18 168.077C206.174 167.939 206.171 167.771 206.171 167.573H206.126V165.386C206.126 165.092 206.051 164.873 205.901 164.729C205.757 164.579 205.526 164.504 205.208 164.504C204.902 164.504 204.656 164.564 204.47 164.684C204.29 164.804 204.185 164.975 204.155 165.197H203.264C203.306 164.765 203.501 164.42 203.849 164.162C204.197 163.904 204.662 163.775 205.244 163.775C205.844 163.775 206.294 163.916 206.594 164.198C206.894 164.474 207.044 164.882 207.044 165.422V167.573C207.044 167.711 207.053 167.852 207.071 167.996C207.089 168.14 207.116 168.293 207.152 168.455H206.243ZM204.659 168.545C204.191 168.545 203.819 168.431 203.543 168.203C203.267 167.969 203.129 167.654 203.129 167.258C203.129 166.85 203.273 166.529 203.561 166.295C203.855 166.055 204.275 165.893 204.821 165.809L206.333 165.566V166.223L204.965 166.439C204.659 166.487 204.428 166.568 204.272 166.682C204.122 166.796 204.047 166.961 204.047 167.177C204.047 167.387 204.116 167.546 204.254 167.654C204.398 167.756 204.605 167.807 204.875 167.807C205.235 167.807 205.532 167.72 205.766 167.546C206.006 167.372 206.126 167.153 206.126 166.889L206.243 167.555C206.135 167.873 205.943 168.119 205.667 168.293C205.391 168.461 205.055 168.545 204.659 168.545ZM208.251 168.455V163.865H209.187V168.455H208.251ZM208.206 162.965V161.912H209.241V162.965H208.206ZM210.501 168.455V163.865H211.392V164.945H211.437V168.455H210.501ZM213.759 168.455V165.503C213.759 165.185 213.678 164.948 213.516 164.792C213.36 164.636 213.126 164.558 212.814 164.558C212.544 164.558 212.304 164.618 212.094 164.738C211.89 164.858 211.728 165.023 211.608 165.233C211.494 165.443 211.437 165.692 211.437 165.98L211.32 164.882C211.47 164.54 211.701 164.27 212.013 164.072C212.325 163.874 212.688 163.775 213.102 163.775C213.594 163.775 213.981 163.913 214.263 164.189C214.545 164.465 214.686 164.831 214.686 165.287V168.455H213.759ZM220.578 168.455C220.548 168.341 220.527 168.215 220.515 168.077C220.509 167.939 220.506 167.771 220.506 167.573H220.461V165.386C220.461 165.092 220.386 164.873 220.236 164.729C220.092 164.579 219.861 164.504 219.543 164.504C219.237 164.504 218.991 164.564 218.805 164.684C218.625 164.804 218.52 164.975 218.49 165.197H217.599C217.641 164.765 217.836 164.42 218.184 164.162C218.532 163.904 218.997 163.775 219.579 163.775C220.179 163.775 220.629 163.916 220.929 164.198C221.229 164.474 221.379 164.882 221.379 165.422V167.573C221.379 167.711 221.388 167.852 221.406 167.996C221.424 168.14 221.451 168.293 221.487 168.455H220.578ZM218.994 168.545C218.526 168.545 218.154 168.431 217.878 168.203C217.602 167.969 217.464 167.654 217.464 167.258C217.464 166.85 217.608 166.529 217.896 166.295C218.19 166.055 218.61 165.893 219.156 165.809L220.668 165.566V166.223L219.3 166.439C218.994 166.487 218.763 166.568 218.607 166.682C218.457 166.796 218.382 166.961 218.382 167.177C218.382 167.387 218.451 167.546 218.589 167.654C218.733 167.756 218.94 167.807 219.21 167.807C219.57 167.807 219.867 167.72 220.101 167.546C220.341 167.372 220.461 167.153 220.461 166.889L220.578 167.555C220.47 167.873 220.278 168.119 220.002 168.293C219.726 168.461 219.39 168.545 218.994 168.545ZM224.062 168.545C223.756 168.545 223.486 168.482 223.252 168.356C223.018 168.224 222.835 168.044 222.703 167.816C222.577 167.588 222.514 167.327 222.514 167.033V163.865H223.45V166.817C223.45 167.135 223.528 167.372 223.684 167.528C223.84 167.684 224.062 167.762 224.35 167.762C224.608 167.762 224.836 167.702 225.034 167.582C225.238 167.462 225.397 167.297 225.511 167.087C225.631 166.871 225.691 166.622 225.691 166.34L225.808 167.438C225.658 167.774 225.427 168.044 225.115 168.248C224.809 168.446 224.458 168.545 224.062 168.545ZM225.727 168.455V167.375H225.691V163.865H226.618V168.455H225.727ZM229.839 168.545C229.305 168.545 228.912 168.422 228.66 168.176C228.414 167.924 228.291 167.555 228.291 167.069V162.812L229.218 162.461V167.078C229.218 167.318 229.281 167.495 229.407 167.609C229.533 167.723 229.737 167.78 230.019 167.78C230.127 167.78 230.223 167.771 230.307 167.753C230.391 167.735 230.463 167.714 230.523 167.69V168.446C230.457 168.476 230.364 168.5 230.244 168.518C230.124 168.536 229.989 168.545 229.839 168.545ZM227.373 164.612V163.865H230.523V164.612H227.373ZM231.41 168.455V161.975H232.346V168.455H231.41ZM234.668 168.455V165.503C234.668 165.185 234.587 164.948 234.425 164.792C234.269 164.636 234.035 164.558 233.723 164.558C233.453 164.558 233.213 164.618 233.003 164.738C232.799 164.858 232.637 165.023 232.517 165.233C232.403 165.443 232.346 165.692 232.346 165.98L232.229 164.882C232.379 164.54 232.61 164.27 232.922 164.072C233.234 163.874 233.597 163.775 234.011 163.775C234.503 163.775 234.89 163.913 235.172 164.189C235.454 164.465 235.595 164.831 235.595 165.287V168.455H234.668ZM238.866 168.545C238.398 168.545 237.987 168.443 237.633 168.239C237.279 168.029 237.003 167.744 236.805 167.384C236.607 167.018 236.508 166.604 236.508 166.142C236.508 165.674 236.607 165.263 236.805 164.909C237.009 164.555 237.285 164.279 237.633 164.081C237.987 163.877 238.398 163.775 238.866 163.775C239.34 163.775 239.754 163.877 240.108 164.081C240.462 164.279 240.735 164.555 240.927 164.909C241.125 165.263 241.224 165.674 241.224 166.142C241.224 166.604 241.125 167.018 240.927 167.384C240.735 167.744 240.462 168.029 240.108 168.239C239.754 168.443 239.34 168.545 238.866 168.545ZM238.866 167.78C239.148 167.78 239.391 167.711 239.595 167.573C239.805 167.435 239.97 167.243 240.09 166.997C240.21 166.751 240.27 166.463 240.27 166.133C240.27 165.641 240.138 165.254 239.874 164.972C239.616 164.684 239.28 164.54 238.866 164.54C238.458 164.54 238.122 164.684 237.858 164.972C237.6 165.26 237.471 165.647 237.471 166.133C237.471 166.463 237.528 166.751 237.642 166.997C237.762 167.243 237.927 167.435 238.137 167.573C238.353 167.711 238.596 167.78 238.866 167.78ZM242.185 168.455V163.865H243.076V165.008H243.121V168.455H242.185ZM243.121 166.061L243.004 164.972C243.112 164.582 243.298 164.285 243.562 164.081C243.826 163.877 244.141 163.775 244.507 163.775C244.645 163.775 244.741 163.787 244.795 163.811V164.693C244.765 164.681 244.723 164.675 244.669 164.675C244.615 164.669 244.549 164.666 244.471 164.666C244.021 164.666 243.682 164.783 243.454 165.017C243.232 165.251 243.121 165.599 243.121 166.061ZM245.552 168.455V163.865H246.488V168.455H245.552ZM245.507 162.965V161.912H246.542V162.965H245.507ZM249.719 168.545C249.185 168.545 248.792 168.422 248.54 168.176C248.294 167.924 248.171 167.555 248.171 167.069V162.812L249.098 162.461V167.078C249.098 167.318 249.161 167.495 249.287 167.609C249.413 167.723 249.617 167.78 249.899 167.78C250.007 167.78 250.103 167.771 250.187 167.753C250.271 167.735 250.343 167.714 250.403 167.69V168.446C250.337 168.476 250.244 168.5 250.124 168.518C250.004 168.536 249.869 168.545 249.719 168.545ZM247.253 164.612V163.865H250.403V164.612H247.253ZM251.694 170.3L252.801 167.771L252.99 167.474L254.385 163.865H255.357L252.657 170.3H251.694ZM252.756 168.455L250.794 163.865H251.811L253.476 167.996L252.756 168.455Z" fill="#7A8EAC"/>
<mask id="mask0_2480_93611" style="mask-type:alpha" maskUnits="userSpaceOnUse" x="13" y="2" width="287" height="287">
<rect x="299.711" y="288.867" width="285.711" height="286.867" transform="rotate(-180 299.711 288.867)" fill="url(#paint2_linear_2480_93611)"/>
</mask>
<g mask="url(#mask0_2480_93611)">
<circle cx="157" cy="145" r="143" transform="rotate(-180 157 145)" fill="url(#paint3_linear_2480_93611)" stroke="#D8E4FE" stroke-width="0.288889"/>
<circle cx="157" cy="145" r="108.517" transform="rotate(-180 157 145)" fill="url(#paint4_linear_2480_93611)" stroke="#D8E4FE" stroke-width="0.288889"/>
<circle cx="157" cy="145" r="70.4148" transform="rotate(-180 157 145)" fill="url(#paint5_linear_2480_93611)" stroke="#D8E4FE" stroke-width="0.288889"/>
</g>
<g filter="url(#filter1_d_2480_93611)">
<rect x="122" y="202.682" width="66" height="66" rx="33" fill="#EAEAFF" shape-rendering="crispEdges"/>
<rect x="122" y="202.682" width="66" height="66" rx="33" stroke="#F5F5FF" stroke-opacity="0.62" stroke-width="11" shape-rendering="crispEdges"/>
<path d="M159.45 233.117L153.606 227.273M146.071 246.496L164.064 228.503C164.835 227.731 165.221 227.346 165.366 226.901C165.493 226.51 165.493 226.088 165.366 225.697C165.221 225.252 164.835 224.867 164.064 224.095L162.628 222.659C161.856 221.888 161.471 221.502 161.026 221.358C160.635 221.23 160.213 221.23 159.822 221.358C159.377 221.502 158.992 221.888 158.22 222.659L140.227 240.652C139.456 241.424 139.07 241.81 138.925 242.254C138.798 242.645 138.798 243.067 138.925 243.458C139.07 243.903 139.456 244.289 140.227 245.06L141.663 246.496C142.435 247.268 142.82 247.653 143.265 247.798C143.656 247.925 144.078 247.925 144.469 247.798C144.914 247.653 145.299 247.268 146.071 246.496Z" stroke="#6546F3" stroke-width="2.61538" stroke-linecap="round" stroke-linejoin="round"/>
<path d="M161.456 237.839L161.596 237.993L161.596 237.993L161.926 238.357C161.652 238.231 161.468 238.14 161.451 238.121C161.38 238.041 161.382 237.905 161.456 237.839ZM161.456 237.839L161.596 237.993L161.596 237.993L161.926 238.357C162.051 238.415 162.196 238.48 162.351 238.549C162.494 238.358 162.54 238.151 162.543 237.996C162.547 237.817 162.496 237.606 162.354 237.419C162.281 237.452 162.21 237.483 162.143 237.514C162.143 237.514 162.143 237.514 162.143 237.514C161.755 237.688 161.478 237.819 161.456 237.839ZM162.492 237.358C162.6 237.407 162.72 237.461 162.848 237.517L162.731 237.252M162.492 237.358L163.191 238.3C163.444 238.189 163.692 238.079 163.908 237.981M162.492 237.358C162.57 237.323 162.65 237.288 162.731 237.252M162.492 237.358L166.257 235.636M162.731 237.252L162.848 237.517C162.932 237.554 163.019 237.593 163.109 237.632L163.109 237.632C163.39 237.754 163.673 237.877 163.908 237.981M162.731 237.252C163.4 236.959 164.024 236.674 164.116 236.618C164.361 236.471 164.683 236.161 164.845 235.917C164.931 235.787 165.195 235.223 165.523 234.468C165.561 234.381 165.599 234.295 165.636 234.211C165.686 234.326 165.742 234.453 165.801 234.589L165.529 234.471L165.801 234.589C165.835 234.667 165.87 234.748 165.906 234.831C166.022 235.102 166.146 235.387 166.257 235.636M163.908 237.981C163.981 237.948 164.051 237.916 164.116 237.886C164.332 237.787 164.589 237.668 164.706 237.599L164.706 237.598C165.1 237.362 165.545 236.931 165.798 236.55L165.798 236.549C165.898 236.399 166.024 236.138 166.13 235.912C166.169 235.827 166.212 235.735 166.257 235.636M163.908 237.981C164.187 238.104 164.399 238.199 164.463 238.23M166.257 235.636L162.653 238.681C163.285 238.956 163.871 239.214 163.955 239.256M166.257 235.636C166.399 235.955 166.519 236.215 166.573 236.313M166.257 235.636L166.573 236.313M166.257 235.636C166.352 235.426 166.459 235.185 166.573 234.924L166.257 235.636ZM164.463 238.23L163.955 239.256M164.463 238.23C164.463 238.23 164.463 238.23 164.463 238.23L163.955 239.256M164.463 238.23C165.058 238.525 165.648 239.094 165.96 239.681C165.96 239.681 165.96 239.681 165.96 239.681L164.95 240.219L163.955 239.256M166.573 236.313L167.575 235.76C167.513 235.648 167.235 235.027 166.957 234.38C166.933 234.324 166.91 234.269 166.886 234.216M166.573 236.313L166.886 234.216M166.258 233.308L165.862 233.703C165.813 233.811 165.76 233.931 165.703 234.059C165.83 234.156 165.953 234.203 166.036 234.226C166.146 234.257 166.244 234.263 166.321 234.259C166.415 234.254 166.619 234.227 166.824 234.072C166.764 233.935 166.708 233.806 166.657 233.691L166.258 233.308ZM166.258 233.308L165.862 233.703C166 233.399 166.099 233.192 166.117 233.173M166.258 233.308L166.117 233.173M166.886 234.216C166.852 234.29 166.816 234.371 166.778 234.456C166.714 234.602 166.644 234.76 166.573 234.924L166.886 234.216ZM166.117 233.173C166.184 233.104 166.345 233.096 166.408 233.159C166.422 233.174 166.52 233.383 166.656 233.69L166.258 233.308L166.117 233.173ZM168.631 237.976C168.345 237.847 168.128 237.744 167.957 237.652C167.573 237.445 167.378 237.271 167.159 237.053L168.631 237.976ZM168.631 237.976C168.359 238.098 168.15 238.192 168.082 238.226L168.631 237.976ZM166.381 240.094C166.345 240.172 166.307 240.256 166.266 240.344L166.708 239.45C166.644 239.546 166.58 239.676 166.548 239.741L166.546 239.744C166.499 239.84 166.443 239.96 166.381 240.094ZM166.573 236.313C166.721 236.581 166.95 236.844 167.159 237.053L166.573 236.313ZM168.082 238.226C167.515 238.512 167.058 238.921 166.708 239.449L168.082 238.226Z" fill="#98A2B3" stroke="#6546F3" stroke-width="2.28846"/>
<path d="M154.507 247.97C154.692 248.087 154.864 248.221 155.016 248.384C155.128 248.504 155.221 248.629 155.303 248.757C155.393 248.62 155.479 248.524 155.568 248.426L154.507 247.97ZM154.507 247.97C154.821 247.772 155.071 247.545 155.288 247.217L155.289 247.217C155.293 247.21 155.297 247.203 155.302 247.196M154.507 247.97L155.302 247.196M155.302 247.196C155.359 247.28 155.42 247.361 155.493 247.446L155.493 247.446C155.677 247.662 155.866 247.82 156.1 247.967C155.851 248.124 155.706 248.275 155.568 248.426L155.302 247.196ZM142.406 226.872C142.59 226.989 142.763 227.124 142.915 227.287C143.026 227.406 143.12 227.532 143.201 227.659C143.292 227.523 143.378 227.426 143.467 227.329C143.467 227.329 143.467 227.329 143.467 227.329L142.406 226.872ZM142.406 226.872C142.72 226.675 142.97 226.448 143.187 226.119L143.187 226.119C143.192 226.112 143.196 226.105 143.201 226.098C143.257 226.183 143.319 226.263 143.391 226.349L143.391 226.349C143.575 226.565 143.764 226.723 143.998 226.869L142.406 226.872ZM154.86 250.502L154.86 250.502L154.86 250.502Z" fill="#98A2B3" stroke="#6546F3" stroke-width="2.28846"/>
</g>
</g>
<defs>
<filter id="filter0_dd_2480_93611" x="0" y="0" width="310" height="319" filterUnits="userSpaceOnUse" color-interpolation-filters="sRGB">
<feFlood flood-opacity="0" result="BackgroundImageFix"/>
<feColorMatrix in="SourceAlpha" type="matrix" values="0 0 0 0 0 0 0 0 0 0 0 0 0 0 0 0 0 0 127 0" result="hardAlpha"/>
<feMorphology radius="2" operator="erode" in="SourceAlpha" result="effect1_dropShadow_2480_93611"/>
<feOffset dy="2"/>
<feGaussianBlur stdDeviation="2"/>
<feComposite in2="hardAlpha" operator="out"/>
<feColorMatrix type="matrix" values="0 0 0 0 0.0627451 0 0 0 0 0.0941176 0 0 0 0 0.156863 0 0 0 0.06 0"/>
<feBlend mode="normal" in2="BackgroundImageFix" result="effect1_dropShadow_2480_93611"/>
<feColorMatrix in="SourceAlpha" type="matrix" values="0 0 0 0 0 0 0 0 0 0 0 0 0 0 0 0 0 0 127 0" result="hardAlpha"/>
<feMorphology radius="2" operator="erode" in="SourceAlpha" result="effect2_dropShadow_2480_93611"/>
<feOffset dy="4"/>
<feGaussianBlur stdDeviation="4"/>
<feComposite in2="hardAlpha" operator="out"/>
<feColorMatrix type="matrix" values="0 0 0 0 0.0627451 0 0 0 0 0.0941176 0 0 0 0 0.156863 0 0 0 0.1 0"/>
<feBlend mode="normal" in2="effect1_dropShadow_2480_93611" result="effect2_dropShadow_2480_93611"/>
<feBlend mode="normal" in="SourceGraphic" in2="effect2_dropShadow_2480_93611" result="shape"/>
</filter>
<filter id="filter1_d_2480_93611" x="103.721" y="184.403" width="102.558" height="102.558" filterUnits="userSpaceOnUse" color-interpolation-filters="sRGB">
<feFlood flood-opacity="0" result="BackgroundImageFix"/>
<feColorMatrix in="SourceAlpha" type="matrix" values="0 0 0 0 0 0 0 0 0 0 0 0 0 0 0 0 0 0 127 0" result="hardAlpha"/>
<feOffset/>
<feGaussianBlur stdDeviation="6.38949"/>
<feComposite in2="hardAlpha" operator="out"/>
<feColorMatrix type="matrix" values="0 0 0 0 0.312986 0 0 0 0 0.233122 0 0 0 0 0.678813 0 0 0 0.65 0"/>
<feBlend mode="normal" in2="BackgroundImageFix" result="effect1_dropShadow_2480_93611"/>
<feBlend mode="normal" in="SourceGraphic" in2="effect1_dropShadow_2480_93611" result="shape"/>
</filter>
<linearGradient id="paint0_linear_2480_93611" x1="35.0812" y1="88.1956" x2="35.0812" y2="115.538" gradientUnits="userSpaceOnUse">
<stop offset="0.06" stop-color="#7176FF"/>
<stop offset="0.23" stop-color="#6D68FB"/>
<stop offset="0.54" stop-color="#6546F3"/>
<stop offset="0.95" stop-color="#570EE6"/>
<stop offset="0.97" stop-color="#570DE6"/>
</linearGradient>
<linearGradient id="paint1_linear_2480_93611" x1="35.0784" y1="92.5745" x2="35.0784" y2="114.763" gradientUnits="userSpaceOnUse">
<stop stop-color="white"/>
<stop offset="1" stop-color="#E1E2E3"/>
</linearGradient>
<linearGradient id="paint2_linear_2480_93611" x1="442.567" y1="273.233" x2="442.567" y2="416.233" gradientUnits="userSpaceOnUse">
<stop offset="0.463415" stop-color="#D9D9D9"/>
<stop offset="0.85" stop-color="#D9D9D9" stop-opacity="0"/>
</linearGradient>
<linearGradient id="paint3_linear_2480_93611" x1="157" y1="38.1027" x2="157" y2="1.99989" gradientUnits="userSpaceOnUse">
<stop stop-color="#F9FBFF"/>
<stop offset="1" stop-color="#E8EDFD"/>
</linearGradient>
<linearGradient id="paint4_linear_2480_93611" x1="157" y1="90.3165" x2="157" y2="30.4588" gradientUnits="userSpaceOnUse">
<stop stop-color="white"/>
<stop offset="1" stop-color="#F2F5FF"/>
</linearGradient>
<linearGradient id="paint5_linear_2480_93611" x1="157" y1="99.7243" x2="157" y2="74.4406" gradientUnits="userSpaceOnUse">
<stop stop-color="white"/>
<stop offset="1" stop-color="#F2F6FF"/>
</linearGradient>
</defs>
</svg>
