<svg width="310" height="269" viewBox="0 0 310 269" fill="none" xmlns="http://www.w3.org/2000/svg">
<g filter="url(#filter0_dd_2480_93632)">
<rect x="6" y="2" width="298" height="257" rx="12" fill="white" shape-rendering="crispEdges"/>
<rect x="6.5" y="2.5" width="297" height="256" rx="11.5" stroke="#D0D5DD" shape-rendering="crispEdges"/>
<g filter="url(#filter1_d_2480_93632)">
<rect x="21" y="17" width="268" height="36" rx="4" fill="#F7FAFF" shape-rendering="crispEdges"/>
<rect x="21.5" y="17.5" width="267" height="35" rx="3.5" stroke="#E4E7EC" shape-rendering="crispEdges"/>
<path d="M32.216 40L30.188 33.37H31.904L33.1 38.349H32.983L34.452 33.37H35.947L37.442 38.349H37.312L38.781 33.37H40.276L41.771 38.349H41.641L43.123 33.37H44.618L46.1 38.349H45.983L47.452 33.37H48.947L50.429 38.349H50.312L51.781 33.37H53.276L54.771 38.349H54.641L55.824 33.37H57.501L55.473 40H53.939L52.444 35.073H52.574L51.079 40H49.61L48.115 35.073H48.245L46.737 40H45.268L43.786 35.073H43.903L42.408 40H40.939L39.444 35.073H39.574L38.079 40H36.61L35.115 35.073H35.245L33.75 40H32.216ZM57.7832 40V38.128H59.6682V40H57.7832ZM61.6493 40V33.37H63.2483V34.93H63.2873V40H61.6493ZM66.1083 40V35.723C66.1083 35.333 66.0086 35.047 65.8093 34.865C65.6186 34.6743 65.3456 34.579 64.9903 34.579C64.6783 34.579 64.3923 34.6527 64.1323 34.8C63.8723 34.9473 63.6643 35.1553 63.5083 35.424C63.361 35.6927 63.2873 36.0047 63.2873 36.36L63.1183 34.839C63.3436 34.3537 63.6686 33.968 64.0933 33.682C64.518 33.3873 65.012 33.24 65.5753 33.24C66.2513 33.24 66.7843 33.435 67.1743 33.825C67.5643 34.2063 67.7593 34.7003 67.7593 35.307V40H66.1083ZM70.5673 40V35.723C70.5673 35.333 70.472 35.047 70.2813 34.865C70.0906 34.6743 69.8176 34.579 69.4623 34.579C69.1416 34.579 68.8513 34.6527 68.5913 34.8C68.3313 34.9473 68.1276 35.1553 67.9803 35.424C67.833 35.6927 67.7593 36.0047 67.7593 36.36L67.4733 34.839C67.69 34.3537 68.0193 33.968 68.4613 33.682C68.9033 33.3873 69.4146 33.24 69.9953 33.24C70.6886 33.24 71.2303 33.4393 71.6203 33.838C72.019 34.228 72.2183 34.748 72.2183 35.398V40H70.5673ZM74.2843 42.665L76.0003 38.817L76.2993 38.323L78.1713 33.37H79.9133L75.9483 42.665H74.2843ZM75.7533 39.935L73.0623 33.37H74.8433L77.0923 39.324L75.7533 39.935ZM83.4553 40.13C82.5366 40.13 81.8043 39.9393 81.2583 39.558C80.7123 39.168 80.4133 38.6307 80.3613 37.946H81.8563C81.8996 38.284 82.0599 38.5397 82.3373 38.713C82.6146 38.8863 82.9873 38.973 83.4553 38.973C83.8799 38.973 84.1963 38.908 84.4043 38.778C84.6209 38.6393 84.7293 38.4443 84.7293 38.193C84.7293 38.011 84.6686 37.8637 84.5473 37.751C84.4259 37.6297 84.1963 37.53 83.8583 37.452L82.7923 37.205C82.0643 37.049 81.5226 36.8063 81.1673 36.477C80.8206 36.139 80.6473 35.7187 80.6473 35.216C80.6473 34.6007 80.8813 34.1197 81.3493 33.773C81.8259 33.4177 82.4803 33.24 83.3123 33.24C84.1356 33.24 84.7943 33.4177 85.2883 33.773C85.7909 34.1197 86.0683 34.6007 86.1203 35.216H84.6253C84.5819 34.9473 84.4433 34.7437 84.2093 34.605C83.9839 34.4663 83.6719 34.397 83.2733 34.397C82.9006 34.397 82.6189 34.4577 82.4283 34.579C82.2376 34.6917 82.1423 34.8607 82.1423 35.086C82.1423 35.2593 82.2159 35.4067 82.3633 35.528C82.5106 35.6407 82.7576 35.7403 83.1043 35.827L84.2483 36.087C84.8983 36.2343 85.3879 36.49 85.7173 36.854C86.0553 37.218 86.2243 37.647 86.2243 38.141C86.2243 38.7737 85.9816 39.2633 85.4963 39.61C85.0109 39.9567 84.3306 40.13 83.4553 40.13ZM90.5684 40.13C89.7537 40.13 89.1514 39.9393 88.7614 39.558C88.3801 39.168 88.1894 38.5873 88.1894 37.816V31.862L89.8404 31.251V37.855C89.8404 38.1757 89.9271 38.414 90.1004 38.57C90.2737 38.726 90.5467 38.804 90.9194 38.804C91.0667 38.804 91.1967 38.7953 91.3094 38.778C91.4307 38.752 91.5434 38.7217 91.6474 38.687V39.961C91.5434 40.013 91.3961 40.052 91.2054 40.078C91.0147 40.1127 90.8024 40.13 90.5684 40.13ZM86.9154 34.657V33.37H91.6474V34.657H86.9154ZM95.9455 40.13C95.2435 40.13 94.6239 39.9827 94.0865 39.688C93.5579 39.3933 93.1462 38.986 92.8515 38.466C92.5569 37.9373 92.4095 37.335 92.4095 36.659C92.4095 35.983 92.5569 35.3893 92.8515 34.878C93.1462 34.3667 93.5579 33.968 94.0865 33.682C94.6239 33.3873 95.2435 33.24 95.9455 33.24C96.6562 33.24 97.2759 33.3873 97.8045 33.682C98.3332 33.968 98.7449 34.3667 99.0395 34.878C99.3342 35.3893 99.4815 35.983 99.4815 36.659C99.4815 37.335 99.3299 37.9373 99.0265 38.466C98.7319 38.986 98.3202 39.3933 97.7915 39.688C97.2629 39.9827 96.6475 40.13 95.9455 40.13ZM95.9455 38.817C96.2922 38.817 96.6042 38.7303 96.8815 38.557C97.1589 38.375 97.3755 38.1237 97.5315 37.803C97.6875 37.4737 97.7655 37.088 97.7655 36.646C97.7655 35.996 97.5922 35.4847 97.2455 35.112C96.9075 34.7393 96.4742 34.553 95.9455 34.553C95.4169 34.553 94.9792 34.7393 94.6325 35.112C94.2859 35.4847 94.1125 35.996 94.1125 36.646C94.1125 37.088 94.1905 37.4737 94.3465 37.803C94.5112 38.1237 94.7279 38.375 94.9965 38.557C95.2739 38.7303 95.5902 38.817 95.9455 38.817ZM100.946 40V33.37H102.545V34.969H102.584V40H100.946ZM102.584 36.542L102.415 34.969C102.571 34.4057 102.836 33.9767 103.208 33.682C103.581 33.3873 104.027 33.24 104.547 33.24C104.729 33.24 104.859 33.2573 104.937 33.292V34.839C104.894 34.8217 104.833 34.813 104.755 34.813C104.677 34.8043 104.582 34.8 104.469 34.8C103.837 34.8 103.364 34.9387 103.052 35.216C102.74 35.4933 102.584 35.9353 102.584 36.542ZM109.109 40.13C108.407 40.13 107.792 39.9827 107.263 39.688C106.743 39.3933 106.336 38.986 106.041 38.466C105.755 37.946 105.612 37.348 105.612 36.672C105.612 35.996 105.755 35.4023 106.041 34.891C106.336 34.371 106.743 33.968 107.263 33.682C107.783 33.3873 108.39 33.24 109.083 33.24C109.742 33.24 110.314 33.3787 110.799 33.656C111.284 33.9247 111.661 34.306 111.93 34.8C112.199 35.294 112.333 35.8703 112.333 36.529C112.333 36.6503 112.329 36.763 112.32 36.867C112.311 36.971 112.298 37.075 112.281 37.179H106.626V36.035H111.02L110.682 36.347C110.682 35.723 110.539 35.255 110.253 34.943C109.967 34.631 109.568 34.475 109.057 34.475C108.502 34.475 108.06 34.6657 107.731 35.047C107.41 35.4283 107.25 35.9787 107.25 36.698C107.25 37.4087 107.41 37.9547 107.731 38.336C108.06 38.7087 108.524 38.895 109.122 38.895C109.469 38.895 109.772 38.83 110.032 38.7C110.292 38.57 110.483 38.3707 110.604 38.102H112.151C111.934 38.726 111.566 39.22 111.046 39.584C110.535 39.948 109.889 40.13 109.109 40.13ZM113.31 40V38.128H115.195V40H113.31ZM119.542 40.13C118.874 40.13 118.285 39.9827 117.774 39.688C117.271 39.3933 116.872 38.986 116.578 38.466C116.292 37.9373 116.149 37.3393 116.149 36.672C116.149 36.0047 116.292 35.4153 116.578 34.904C116.872 34.384 117.271 33.9767 117.774 33.682C118.285 33.3873 118.874 33.24 119.542 33.24C120.088 33.24 120.582 33.344 121.024 33.552C121.466 33.7513 121.83 34.0373 122.116 34.41C122.402 34.774 122.584 35.1987 122.662 35.684H121.089C120.993 35.3287 120.811 35.0513 120.543 34.852C120.274 34.6527 119.949 34.553 119.568 34.553C119.212 34.553 118.905 34.6397 118.645 34.813C118.393 34.9863 118.198 35.2333 118.06 35.554C117.921 35.8747 117.852 36.2473 117.852 36.672C117.852 37.1053 117.921 37.4823 118.06 37.803C118.198 38.1237 118.398 38.375 118.658 38.557C118.918 38.7303 119.221 38.817 119.568 38.817C119.949 38.817 120.274 38.7173 120.543 38.518C120.811 38.3187 120.993 38.0413 121.089 37.686H122.662C122.584 38.1713 122.397 38.6003 122.103 38.973C121.817 39.337 121.453 39.623 121.011 39.831C120.577 40.0303 120.088 40.13 119.542 40.13ZM127.08 40.13C126.378 40.13 125.758 39.9827 125.221 39.688C124.692 39.3933 124.28 38.986 123.986 38.466C123.691 37.9373 123.544 37.335 123.544 36.659C123.544 35.983 123.691 35.3893 123.986 34.878C124.28 34.3667 124.692 33.968 125.221 33.682C125.758 33.3873 126.378 33.24 127.08 33.24C127.79 33.24 128.41 33.3873 128.939 33.682C129.467 33.968 129.879 34.3667 130.174 34.878C130.468 35.3893 130.616 35.983 130.616 36.659C130.616 37.335 130.464 37.9373 130.161 38.466C129.866 38.986 129.454 39.3933 128.926 39.688C128.397 39.9827 127.782 40.13 127.08 40.13ZM127.08 38.817C127.426 38.817 127.738 38.7303 128.016 38.557C128.293 38.375 128.51 38.1237 128.666 37.803C128.822 37.4737 128.9 37.088 128.9 36.646C128.9 35.996 128.726 35.4847 128.38 35.112C128.042 34.7393 127.608 34.553 127.08 34.553C126.551 34.553 126.113 34.7393 125.767 35.112C125.42 35.4847 125.247 35.996 125.247 36.646C125.247 37.088 125.325 37.4737 125.481 37.803C125.645 38.1237 125.862 38.375 126.131 38.557C126.408 38.7303 126.724 38.817 127.08 38.817ZM132.08 40V33.37H133.679V34.93H133.718V40H132.08ZM136.539 40V35.723C136.539 35.333 136.44 35.047 136.24 34.865C136.05 34.6743 135.777 34.579 135.421 34.579C135.109 34.579 134.823 34.6527 134.563 34.8C134.303 34.9473 134.095 35.1553 133.939 35.424C133.792 35.6927 133.718 36.0047 133.718 36.36L133.549 34.839C133.775 34.3537 134.1 33.968 134.524 33.682C134.949 33.3873 135.443 33.24 136.006 33.24C136.682 33.24 137.215 33.435 137.605 33.825C137.995 34.2063 138.19 34.7003 138.19 35.307V40H136.539ZM140.998 40V35.723C140.998 35.333 140.903 35.047 140.712 34.865C140.522 34.6743 140.249 34.579 139.893 34.579C139.573 34.579 139.282 34.6527 139.022 34.8C138.762 34.9473 138.559 35.1553 138.411 35.424C138.264 35.6927 138.19 36.0047 138.19 36.36L137.904 34.839C138.121 34.3537 138.45 33.968 138.892 33.682C139.334 33.3873 139.846 33.24 140.426 33.24C141.12 33.24 141.661 33.4393 142.051 33.838C142.45 34.228 142.649 34.748 142.649 35.398V40H140.998Z" fill="#344054"/>
<path d="M231.787 28.279L233.082 31.6463C233.293 32.1939 233.398 32.4677 233.562 32.698C233.707 32.9021 233.885 33.0804 234.089 33.2256C234.32 33.3893 234.593 33.4946 235.141 33.7053L238.508 35.0004L235.141 36.2955C234.593 36.5061 234.32 36.6114 234.089 36.7751C233.885 36.9203 233.707 37.0986 233.562 37.3027C233.398 37.533 233.293 37.8068 233.082 38.3544L231.787 41.7217L230.492 38.3544C230.281 37.8068 230.176 37.533 230.012 37.3027C229.867 37.0986 229.689 36.9203 229.485 36.7751C229.254 36.6114 228.981 36.5061 228.433 36.2955L225.066 35.0004L228.433 33.7053C228.981 33.4946 229.254 33.3893 229.485 33.2256C229.689 33.0804 229.867 32.9021 230.012 32.698C230.176 32.4677 230.281 32.1939 230.492 31.6463L231.787 28.279Z" fill="#6D68FB"/>
<path d="M225.439 42.4685V38.7344M225.439 31.2663V27.5322M223.572 29.3993H227.306M223.572 40.6015H227.306M231.787 28.279L230.492 31.6463C230.281 32.1939 230.176 32.4677 230.012 32.698C229.867 32.9021 229.689 33.0804 229.485 33.2256C229.254 33.3893 228.981 33.4946 228.433 33.7053L225.066 35.0004L228.433 36.2955C228.981 36.5061 229.254 36.6114 229.485 36.7751C229.689 36.9203 229.867 37.0986 230.012 37.3027C230.176 37.533 230.281 37.8068 230.492 38.3544L231.787 41.7217L233.082 38.3544C233.293 37.8068 233.398 37.533 233.562 37.3027C233.707 37.0986 233.885 36.9203 234.089 36.7751C234.32 36.6114 234.593 36.5061 235.141 36.2955L238.508 35.0004L235.141 33.7053C234.593 33.4946 234.32 33.3893 234.089 33.2256C233.885 33.0804 233.707 32.9021 233.562 32.698C233.398 32.4677 233.293 32.1939 233.082 31.6463L231.787 28.279Z" stroke="#6D68FB" stroke-width="1.49363" stroke-linecap="round" stroke-linejoin="round"/>
<path d="M245.272 38.5L247.657 32.02H248.665L246.424 38.5H245.272ZM250.159 38.5L247.927 32.02H248.989L251.365 38.5H250.159ZM246.505 35.953H250.051V36.889H246.505V35.953ZM252.314 38.5V33.91H253.421V34.99H253.448V38.5H252.314ZM255.536 38.5V35.602C255.536 35.32 255.464 35.107 255.32 34.963C255.176 34.819 254.966 34.747 254.69 34.747C254.45 34.747 254.234 34.801 254.042 34.909C253.856 35.017 253.709 35.167 253.601 35.359C253.499 35.551 253.448 35.773 253.448 36.025L253.331 34.927C253.487 34.591 253.715 34.324 254.015 34.126C254.315 33.922 254.675 33.82 255.095 33.82C255.593 33.82 255.98 33.961 256.256 34.243C256.538 34.525 256.679 34.9 256.679 35.368V38.5H255.536ZM260.688 38.5C260.658 38.38 260.634 38.248 260.616 38.104C260.604 37.96 260.598 37.786 260.598 37.582H260.562V35.404C260.562 35.164 260.493 34.984 260.355 34.864C260.223 34.738 260.019 34.675 259.743 34.675C259.473 34.675 259.257 34.726 259.095 34.828C258.939 34.924 258.843 35.065 258.807 35.251H257.718C257.766 34.825 257.97 34.48 258.33 34.216C258.69 33.952 259.173 33.82 259.779 33.82C260.409 33.82 260.886 33.964 261.21 34.252C261.534 34.534 261.696 34.951 261.696 35.503V37.582C261.696 37.726 261.705 37.873 261.723 38.023C261.747 38.173 261.78 38.332 261.822 38.5H260.688ZM259.095 38.59C258.633 38.59 258.264 38.476 257.988 38.248C257.718 38.014 257.583 37.702 257.583 37.312C257.583 36.892 257.736 36.559 258.042 36.313C258.348 36.067 258.78 35.902 259.338 35.818L260.769 35.602V36.322L259.527 36.511C259.257 36.553 259.053 36.628 258.915 36.736C258.783 36.844 258.717 36.994 258.717 37.186C258.717 37.36 258.78 37.495 258.906 37.591C259.032 37.681 259.206 37.726 259.428 37.726C259.752 37.726 260.022 37.645 260.238 37.483C260.454 37.321 260.562 37.123 260.562 36.889L260.688 37.582C260.568 37.912 260.37 38.164 260.094 38.338C259.824 38.506 259.491 38.59 259.095 38.59ZM262.935 38.5V32.02H264.069V38.5H262.935ZM265.651 40.345L266.839 37.681L267.046 37.339L268.342 33.91H269.548L266.803 40.345H265.651ZM266.668 38.455L264.805 33.91H266.038L267.595 38.032L266.668 38.455ZM270.045 38.5V37.699L272.682 34.369L272.952 34.801H270.126V33.91H273.807V34.711L271.215 37.996L270.954 37.609H273.861V38.5H270.045ZM276.797 38.59C276.311 38.59 275.885 38.488 275.519 38.284C275.159 38.08 274.877 37.798 274.673 37.438C274.475 37.078 274.376 36.664 274.376 36.196C274.376 35.728 274.475 35.317 274.673 34.963C274.877 34.603 275.159 34.324 275.519 34.126C275.879 33.922 276.299 33.82 276.779 33.82C277.235 33.82 277.631 33.916 277.967 34.108C278.303 34.294 278.564 34.558 278.75 34.9C278.936 35.242 279.029 35.641 279.029 36.097C279.029 36.181 279.026 36.259 279.02 36.331C279.014 36.403 279.005 36.475 278.993 36.547H275.078V35.755H278.12L277.886 35.971C277.886 35.539 277.787 35.215 277.589 34.999C277.391 34.783 277.115 34.675 276.761 34.675C276.377 34.675 276.071 34.807 275.843 35.071C275.621 35.335 275.51 35.716 275.51 36.214C275.51 36.706 275.621 37.084 275.843 37.348C276.071 37.606 276.392 37.735 276.806 37.735C277.046 37.735 277.256 37.69 277.436 37.6C277.616 37.51 277.748 37.372 277.832 37.186H278.903C278.753 37.618 278.498 37.96 278.138 38.212C277.784 38.464 277.337 38.59 276.797 38.59Z" fill="#6D68FB"/>
</g>
<rect x="29" y="63" width="77.3364" height="33.0608" rx="6.2062" fill="#F2F4FE"/>
<circle cx="45.5304" cy="79.5304" r="8.08947" fill="white" stroke="#DEE1E6" stroke-width="2.42684"/>
<path d="M45.5304 71.4409C49.9981 71.4409 53.6199 75.0627 53.6199 79.5304C53.6199 83.9981 49.9981 87.6199 45.5304 87.6199C41.0627 87.6199 37.4409 83.9981 37.4409 79.5304C37.4409 77.2884 38.353 75.2594 39.8264 73.7942" stroke="#17B26A" stroke-width="2.42684"/>
<path d="M48.7835 82.5516C50.4589 80.8762 50.4589 78.1599 48.7835 76.4845C47.1081 74.8091 44.3918 74.8091 42.7164 76.4845C41.041 78.1599 41.041 80.8762 42.7164 82.5516C44.3918 84.227 47.1081 84.227 48.7835 82.5516Z" fill="#E6E6FF" stroke="#344054" stroke-width="0.692915" stroke-miterlimit="10"/>
<path d="M43.7905 80.5151C43.5452 80.5151 43.3831 80.7711 43.4891 80.9924C43.8887 81.8275 44.7415 82.4043 45.7292 82.4043C46.7169 82.4043 47.5695 81.8275 47.9693 80.9924C48.0751 80.7711 47.9131 80.5151 47.6679 80.5151H43.7905Z" fill="#344054"/>
<path d="M43.4412 78.7094C43.4412 78.3734 43.7653 78.1245 44.165 78.1245C44.5646 78.1245 44.8888 78.3734 44.8888 78.7094" stroke="#344054" stroke-width="0.623591" stroke-miterlimit="10"/>
<path d="M46.5701 78.7094C46.5701 78.3734 46.8942 78.1245 47.2939 78.1245C47.6935 78.1245 48.0177 78.3734 48.0177 78.7094" stroke="#344054" stroke-width="0.623591" stroke-miterlimit="10"/>
<path d="M59.3534 82.0303V76.7125H61.7391C62.128 76.7125 62.4604 76.779 62.7361 76.9119C63.0168 77.0448 63.231 77.2319 63.3787 77.4732C63.5313 77.7145 63.6077 78.0001 63.6077 78.33C63.6077 78.655 63.5313 78.9405 63.3787 79.1867C63.2261 79.4329 63.0119 79.625 62.7361 79.7628C62.4604 79.8958 62.128 79.9622 61.7391 79.9622H60.0994V79.2089H61.6947C62 79.2089 62.2339 79.1301 62.3964 78.9725C62.5638 78.815 62.6475 78.6008 62.6475 78.33C62.6475 78.0641 62.5638 77.8548 62.3964 77.7022C62.2339 77.5495 62 77.4732 61.6947 77.4732H60.3136V82.0303H59.3534ZM66.4345 82.0303C66.4099 81.9318 66.3902 81.8235 66.3754 81.7053C66.3656 81.5871 66.3607 81.4443 66.3607 81.2769H66.3311V79.4895C66.3311 79.2926 66.2745 79.1449 66.1613 79.0464C66.0529 78.943 65.8855 78.8913 65.659 78.8913C65.4374 78.8913 65.2602 78.9332 65.1272 79.0169C64.9992 79.0956 64.9204 79.2113 64.8909 79.364H63.9972C64.0366 79.0144 64.204 78.7313 64.4994 78.5146C64.7949 78.298 65.1913 78.1896 65.6886 78.1896C66.2056 78.1896 66.597 78.3078 66.8629 78.5442C67.1288 78.7756 67.2617 79.1178 67.2617 79.5708V81.2769C67.2617 81.3951 67.2691 81.5157 67.2839 81.6388C67.3036 81.7619 67.3307 81.8924 67.3651 82.0303H66.4345ZM65.1272 82.1041C64.7481 82.1041 64.4453 82.0106 64.2188 81.8235C63.9972 81.6314 63.8864 81.3754 63.8864 81.0553C63.8864 80.7107 64.012 80.4374 64.2631 80.2355C64.5142 80.0336 64.8687 79.8982 65.3267 79.8293L66.501 79.652V80.2429L65.4818 80.398C65.2602 80.4325 65.0928 80.494 64.9795 80.5827C64.8712 80.6713 64.817 80.7944 64.817 80.9519C64.817 81.0947 64.8687 81.2055 64.9721 81.2843C65.0755 81.3582 65.2183 81.3951 65.4005 81.3951C65.6664 81.3951 65.888 81.3286 66.0652 81.1957C66.2425 81.0627 66.3311 80.9002 66.3311 80.7082L66.4345 81.2769C66.3361 81.5477 66.1736 81.7545 65.9471 81.8973C65.7255 82.0352 65.4522 82.1041 65.1272 82.1041ZM69.801 83.6182C69.3037 83.6182 68.895 83.5099 68.575 83.2932C68.2599 83.0766 68.0727 82.7836 68.0137 82.4143H68.9C68.9443 82.5424 69.0403 82.6408 69.188 82.7098C69.3406 82.7836 69.5376 82.8206 69.7789 82.8206C70.1285 82.8206 70.387 82.7418 70.5544 82.5842C70.7218 82.4316 70.8055 82.1977 70.8055 81.8826V81.0701L70.872 81.0849C70.8129 81.3606 70.6627 81.5822 70.4214 81.7496C70.1802 81.9121 69.8847 81.9933 69.5351 81.9933C69.2003 81.9933 68.9073 81.9146 68.6562 81.757C68.41 81.5994 68.218 81.3803 68.0801 81.0997C67.9423 80.8141 67.8733 80.4817 67.8733 80.1026C67.8733 79.7185 67.9447 79.3837 68.0875 79.0981C68.2303 78.8125 68.4297 78.5909 68.6858 78.4334C68.9467 78.2709 69.2496 78.1896 69.5942 78.1896C69.9487 78.1896 70.2393 78.2758 70.4658 78.4481C70.6972 78.6156 70.84 78.8494 70.8941 79.1498L70.835 79.1572V78.2635H71.7435V81.8752C71.7435 82.4119 71.5687 82.8353 71.2191 83.1455C70.8744 83.4607 70.4017 83.6182 69.801 83.6182ZM69.838 81.2548C70.1383 81.2548 70.3771 81.1538 70.5544 80.9519C70.7366 80.7451 70.8277 80.4571 70.8277 80.0878C70.8277 79.7185 70.7366 79.4329 70.5544 79.231C70.3722 79.0292 70.1309 78.9282 69.8306 78.9282C69.5351 78.9282 69.2963 79.0316 69.1141 79.2384C68.932 79.4403 68.8409 79.7259 68.8409 80.0952C68.8409 80.4645 68.932 80.7501 69.1141 80.9519C69.2963 81.1538 69.5376 81.2548 69.838 81.2548ZM74.4252 82.1041C74.0264 82.1041 73.6768 82.0204 73.3765 81.853C73.081 81.6856 72.8496 81.4542 72.6822 81.1587C72.5197 80.8633 72.4385 80.5236 72.4385 80.1395C72.4385 79.7554 72.5197 79.4182 72.6822 79.1276C72.8496 78.8322 73.081 78.6032 73.3765 78.4408C73.6719 78.2733 74.0166 78.1896 74.4105 78.1896C74.7847 78.1896 75.1097 78.2684 75.3854 78.426C75.6611 78.5786 75.8753 78.7953 76.028 79.0759C76.1806 79.3566 76.2569 79.684 76.2569 80.0583C76.2569 80.1272 76.2545 80.1912 76.2495 80.2503C76.2446 80.3094 76.2372 80.3685 76.2274 80.4275H73.0146V79.7776H75.511L75.3189 79.9549C75.3189 79.6003 75.2377 79.3344 75.0752 79.1572C74.9127 78.9799 74.6862 78.8913 74.3957 78.8913C74.0806 78.8913 73.8295 78.9996 73.6423 79.2163C73.4602 79.4329 73.3691 79.7456 73.3691 80.1543C73.3691 80.558 73.4602 80.8682 73.6423 81.0849C73.8295 81.2966 74.0929 81.4025 74.4326 81.4025C74.6296 81.4025 74.8019 81.3655 74.9496 81.2917C75.0974 81.2178 75.2057 81.1046 75.2746 80.9519H76.1535C76.0304 81.3065 75.8212 81.5871 75.5257 81.7939C75.2352 82.0007 74.8684 82.1041 74.4252 82.1041ZM80.0506 82.0303L78.0934 76.7125H79.0979L80.7006 81.3508H80.5381L82.1408 76.7125H83.0936L81.1438 82.0303H80.0506ZM83.6972 82.0303V78.2635H84.6278V82.0303H83.6972ZM83.6529 77.6431V76.6165H84.6648V77.6431H83.6529ZM87.0416 82.1041C86.5197 82.1041 86.1036 81.9958 85.7934 81.7792C85.4832 81.5576 85.3133 81.2523 85.2838 80.8633H86.1332C86.1578 81.0553 86.2489 81.2006 86.4064 81.2991C86.564 81.3976 86.7757 81.4468 87.0416 81.4468C87.2829 81.4468 87.4626 81.4099 87.5808 81.336C87.7039 81.2572 87.7654 81.1464 87.7654 81.0036C87.7654 80.9002 87.731 80.8165 87.662 80.7525C87.5931 80.6836 87.4626 80.627 87.2706 80.5827L86.6649 80.4423C86.2513 80.3537 85.9436 80.2158 85.7417 80.0287C85.5448 79.8367 85.4463 79.5979 85.4463 79.3123C85.4463 78.9627 85.5792 78.6894 85.8451 78.4925C86.1159 78.2906 86.4877 78.1896 86.9604 78.1896C87.4281 78.1896 87.8024 78.2906 88.083 78.4925C88.3686 78.6894 88.5262 78.9627 88.5557 79.3123H87.7063C87.6817 79.1596 87.6029 79.0439 87.47 78.9652C87.342 78.8864 87.1647 78.847 86.9382 78.847C86.7265 78.847 86.5665 78.8814 86.4581 78.9504C86.3498 79.0144 86.2957 79.1104 86.2957 79.2384C86.2957 79.3369 86.3375 79.4206 86.4212 79.4895C86.5049 79.5536 86.6453 79.6102 86.8422 79.6594L87.4922 79.8071C87.8615 79.8908 88.1396 80.0361 88.3268 80.2429C88.5188 80.4497 88.6148 80.6934 88.6148 80.9741C88.6148 81.3335 88.4769 81.6117 88.2012 81.8087C87.9255 82.0057 87.5389 82.1041 87.0416 82.1041ZM89.2727 82.0303V78.2635H90.2033V82.0303H89.2727ZM89.2283 77.6431V76.6165H90.2402V77.6431H89.2283ZM92.8393 82.1041C92.3765 82.1041 92.0343 81.9958 91.8127 81.7792C91.596 81.5576 91.4877 81.2277 91.4877 80.7895V77.4067L92.4257 77.0596V80.8116C92.4257 80.9938 92.475 81.1292 92.5734 81.2178C92.6719 81.3065 92.827 81.3508 93.0387 81.3508C93.1224 81.3508 93.1963 81.3459 93.2603 81.336C93.3293 81.3212 93.3933 81.304 93.4523 81.2843V82.0081C93.3933 82.0377 93.3096 82.0598 93.2012 82.0746C93.0929 82.0943 92.9723 82.1041 92.8393 82.1041ZM90.7639 78.9947V78.2635H93.4523V78.9947H90.7639ZM95.5526 82.1041C95.0307 82.1041 94.6146 81.9958 94.3044 81.7792C93.9942 81.5576 93.8243 81.2523 93.7948 80.8633H94.6442C94.6688 81.0553 94.7599 81.2006 94.9175 81.2991C95.075 81.3976 95.2867 81.4468 95.5526 81.4468C95.7939 81.4468 95.9736 81.4099 96.0918 81.336C96.2149 81.2572 96.2764 81.1464 96.2764 81.0036C96.2764 80.9002 96.242 80.8165 96.173 80.7525C96.1041 80.6836 95.9736 80.627 95.7816 80.5827L95.176 80.4423C94.7623 80.3537 94.4546 80.2158 94.2527 80.0287C94.0558 79.8367 93.9573 79.5979 93.9573 79.3123C93.9573 78.9627 94.0902 78.6894 94.3561 78.4925C94.6269 78.2906 94.9987 78.1896 95.4714 78.1896C95.9392 78.1896 96.3134 78.2906 96.594 78.4925C96.8796 78.6894 97.0372 78.9627 97.0667 79.3123H96.2174C96.1927 79.1596 96.114 79.0439 95.981 78.9652C95.853 78.8864 95.6757 78.847 95.4492 78.847C95.2375 78.847 95.0775 78.8814 94.9692 78.9504C94.8608 79.0144 94.8067 79.1104 94.8067 79.2384C94.8067 79.3369 94.8485 79.4206 94.9322 79.4895C95.0159 79.5536 95.1563 79.6102 95.3532 79.6594L96.0032 79.8071C96.3725 79.8908 96.6507 80.0361 96.8378 80.2429C97.0298 80.4497 97.1258 80.6934 97.1258 80.9741C97.1258 81.3335 96.9879 81.6117 96.7122 81.8087C96.4365 82.0057 96.0499 82.1041 95.5526 82.1041Z" fill="#7A8EAC"/>
<rect x="112.667" y="63" width="81.0011" height="33.0566" rx="6.2062" fill="#F2F4FE"/>
<circle cx="126.53" cy="79.5283" r="8.08735" fill="white" stroke="#DEE1E6" stroke-width="2.69059"/>
<path d="M129.563 82.7329C131.238 81.058 131.238 78.3424 129.563 76.6674C127.888 74.9925 125.173 74.9925 123.498 76.6674C121.823 78.3424 121.823 81.058 123.498 82.7329C125.173 84.4079 127.888 84.4079 129.563 82.7329Z" fill="#E6E6FF" stroke="#344054" stroke-width="0.834524" stroke-miterlimit="10"/>
<path d="M128.074 79.3341C128.458 79.3341 128.769 79.023 128.769 78.6392C128.769 78.2554 128.458 77.9443 128.074 77.9443C127.69 77.9443 127.379 78.2554 127.379 78.6392C127.379 79.023 127.69 79.3341 128.074 79.3341Z" fill="#344054"/>
<path d="M124.951 79.3341C125.335 79.3341 125.646 79.023 125.646 78.6392C125.646 78.2554 125.335 77.9443 124.951 77.9443C124.567 77.9443 124.256 78.2554 124.256 78.6392C124.256 79.023 124.567 79.3341 124.951 79.3341Z" fill="#344054"/>
<path d="M124.987 81.459H128.074" stroke="#344054" stroke-width="0.751033" stroke-miterlimit="10"/>
<path d="M126.53 87.6156C130.997 87.6156 134.617 83.9948 134.617 79.5283C134.617 75.0617 130.997 71.4409 126.53 71.4409" stroke="#FFAD05" stroke-width="2.69059"/>
<path d="M142.057 82.0283L140.1 76.7105H141.104L142.707 81.3488H142.545L144.147 76.7105H145.1L143.15 82.0283H142.057ZM145.704 82.0283V78.2615H146.634V82.0283H145.704ZM145.659 77.6411V76.6145H146.671V77.6411H145.659ZM149.048 82.1022C148.526 82.1022 148.11 81.9939 147.8 81.7772C147.49 81.5556 147.32 81.2503 147.29 80.8614H148.14C148.164 81.0534 148.255 81.1986 148.413 81.2971C148.57 81.3956 148.782 81.4448 149.048 81.4448C149.289 81.4448 149.469 81.4079 149.587 81.3341C149.71 81.2553 149.772 81.1445 149.772 81.0017C149.772 80.8983 149.737 80.8146 149.668 80.7506C149.6 80.6816 149.469 80.625 149.277 80.5807L148.671 80.4404C148.258 80.3517 147.95 80.2139 147.748 80.0268C147.551 79.8347 147.453 79.5959 147.453 79.3103C147.453 78.9607 147.586 78.6875 147.852 78.4905C148.122 78.2886 148.494 78.1877 148.967 78.1877C149.435 78.1877 149.809 78.2886 150.089 78.4905C150.375 78.6875 150.533 78.9607 150.562 79.3103H149.713C149.688 79.1577 149.609 79.042 149.476 78.9632C149.348 78.8844 149.171 78.845 148.945 78.845C148.733 78.845 148.573 78.8795 148.465 78.9484C148.356 79.0124 148.302 79.1085 148.302 79.2365C148.302 79.335 148.344 79.4187 148.428 79.4876C148.511 79.5516 148.652 79.6082 148.849 79.6575L149.499 79.8052C149.868 79.8889 150.146 80.0341 150.333 80.241C150.525 80.4478 150.621 80.6915 150.621 80.9721C150.621 81.3316 150.483 81.6098 150.208 81.8067C149.932 82.0037 149.545 82.1022 149.048 82.1022ZM151.279 82.0283V78.2615H152.21V82.0283H151.279ZM151.235 77.6411V76.6145H152.247V77.6411H151.235ZM154.846 82.1022C154.383 82.1022 154.041 81.9939 153.819 81.7772C153.603 81.5556 153.494 81.2257 153.494 80.7875V77.4048L154.432 77.0577V80.8097C154.432 80.9918 154.481 81.1272 154.58 81.2159C154.678 81.3045 154.833 81.3488 155.045 81.3488C155.129 81.3488 155.203 81.3439 155.267 81.3341C155.336 81.3193 155.4 81.302 155.459 81.2824V82.0062C155.4 82.0357 155.316 82.0579 155.208 82.0726C155.099 82.0923 154.979 82.1022 154.846 82.1022ZM152.77 78.9927V78.2615H155.459V78.9927H152.77ZM158.13 82.0283V81.2602H159.503C159.907 81.2602 160.252 81.179 160.537 81.0165C160.823 80.854 161.04 80.6275 161.187 80.337C161.34 80.0465 161.416 79.7141 161.416 79.3399C161.416 78.9706 161.34 78.6456 161.187 78.365C161.04 78.0843 160.823 77.8676 160.537 77.715C160.257 77.5574 159.912 77.4787 159.503 77.4787H158.144V76.7105H159.503C160.084 76.7105 160.592 76.8189 161.025 77.0355C161.458 77.2522 161.793 77.5599 162.029 77.9587C162.271 78.3526 162.391 78.8179 162.391 79.3547C162.391 79.8914 162.271 80.3616 162.029 80.7653C161.788 81.1642 161.451 81.4744 161.017 81.696C160.589 81.9175 160.087 82.0283 159.511 82.0283H158.13ZM157.546 82.0283V76.7105H158.506V82.0283H157.546ZM164.341 82.1022C164.08 82.1022 163.854 82.048 163.662 81.9397C163.474 81.8264 163.329 81.6738 163.226 81.4818C163.127 81.2897 163.078 81.0731 163.078 80.8318V78.2615H164.009V80.6398C164.009 80.8712 164.065 81.046 164.179 81.1642C164.297 81.2824 164.462 81.3414 164.673 81.3414C164.865 81.3414 165.033 81.2971 165.176 81.2085C165.323 81.1199 165.439 80.9968 165.523 80.8392C165.611 80.6767 165.656 80.4945 165.656 80.2927L165.752 81.1937C165.629 81.4695 165.444 81.691 165.198 81.8584C164.957 82.0209 164.671 82.1022 164.341 82.1022ZM165.685 82.0283V81.142H165.656V78.2615H166.594V82.0283H165.685ZM167.58 82.0283V78.2615H168.488V79.17H168.51V82.0283H167.58ZM168.51 80.0637L168.414 79.17C168.503 78.85 168.653 78.6062 168.865 78.4388C169.077 78.2714 169.33 78.1877 169.626 78.1877C169.729 78.1877 169.803 78.1975 169.847 78.2172V79.0961C169.823 79.0863 169.788 79.0814 169.744 79.0814C169.7 79.0765 169.645 79.074 169.581 79.074C169.222 79.074 168.954 79.1528 168.776 79.3103C168.599 79.4679 168.51 79.719 168.51 80.0637ZM172.677 82.0283C172.652 81.9298 172.632 81.8215 172.618 81.7033C172.608 81.5852 172.603 81.4424 172.603 81.275H172.573V79.4876C172.573 79.2906 172.517 79.1429 172.403 79.0444C172.295 78.941 172.128 78.8893 171.901 78.8893C171.68 78.8893 171.502 78.9312 171.369 79.0149C171.241 79.0937 171.163 79.2094 171.133 79.362H170.239C170.279 79.0124 170.446 78.7293 170.742 78.5127C171.037 78.296 171.433 78.1877 171.931 78.1877C172.448 78.1877 172.839 78.3059 173.105 78.5422C173.371 78.7736 173.504 79.1158 173.504 79.5688V81.275C173.504 81.3931 173.511 81.5138 173.526 81.6369C173.546 81.76 173.573 81.8905 173.607 82.0283H172.677ZM171.369 82.1022C170.99 82.1022 170.687 82.0086 170.461 81.8215C170.239 81.6295 170.129 81.3734 170.129 81.0534C170.129 80.7087 170.254 80.4354 170.505 80.2336C170.756 80.0317 171.111 79.8963 171.569 79.8273L172.743 79.6501V80.241L171.724 80.3961C171.502 80.4305 171.335 80.4921 171.222 80.5807C171.113 80.6693 171.059 80.7924 171.059 80.95C171.059 81.0928 171.111 81.2036 171.214 81.2824C171.318 81.3562 171.46 81.3931 171.643 81.3931C171.908 81.3931 172.13 81.3267 172.307 81.1937C172.485 81.0608 172.573 80.8983 172.573 80.7063L172.677 81.275C172.578 81.5458 172.416 81.7526 172.189 81.8954C171.968 82.0332 171.694 82.1022 171.369 82.1022ZM175.936 82.1022C175.473 82.1022 175.131 81.9939 174.909 81.7772C174.693 81.5556 174.584 81.2257 174.584 80.7875V77.4048L175.522 77.0577V80.8097C175.522 80.9918 175.571 81.1272 175.67 81.2159C175.768 81.3045 175.923 81.3488 176.135 81.3488C176.219 81.3488 176.293 81.3439 176.357 81.3341C176.426 81.3193 176.49 81.302 176.549 81.2824V82.0062C176.49 82.0357 176.406 82.0579 176.298 82.0726C176.189 82.0923 176.069 82.1022 175.936 82.1022ZM173.86 78.9927V78.2615H176.549V78.9927H173.86ZM177.223 82.0283V78.2615H178.154V82.0283H177.223ZM177.179 77.6411V76.6145H178.191V77.6411H177.179ZM180.841 82.1022C180.442 82.1022 180.09 82.0185 179.785 81.8511C179.484 81.6836 179.251 81.4522 179.083 81.1568C178.916 80.8564 178.832 80.5142 178.832 80.1302C178.832 79.7461 178.916 79.4088 179.083 79.1183C179.251 78.8278 179.484 78.6013 179.785 78.4388C180.09 78.2714 180.442 78.1877 180.841 78.1877C181.245 78.1877 181.597 78.2714 181.897 78.4388C182.197 78.6013 182.431 78.8278 182.599 79.1183C182.766 79.4088 182.85 79.7461 182.85 80.1302C182.85 80.5142 182.764 80.8564 182.591 81.1568C182.424 81.4522 182.19 81.6836 181.89 81.8511C181.589 82.0185 181.24 82.1022 180.841 82.1022ZM180.841 81.3562C181.038 81.3562 181.215 81.307 181.373 81.2085C181.53 81.1051 181.653 80.9623 181.742 80.7801C181.831 80.593 181.875 80.3739 181.875 80.1228C181.875 79.7535 181.776 79.463 181.58 79.2512C181.388 79.0395 181.141 78.9337 180.841 78.9337C180.541 78.9337 180.292 79.0395 180.095 79.2512C179.898 79.463 179.8 79.7535 179.8 80.1228C179.8 80.3739 179.844 80.593 179.932 80.7801C180.026 80.9623 180.149 81.1051 180.302 81.2085C180.459 81.307 180.639 81.3562 180.841 81.3562ZM183.534 82.0283V78.2615H184.443V79.1478H184.465V82.0283H183.534ZM186.179 82.0283V79.6501C186.179 79.4187 186.119 79.2439 186.001 79.1257C185.883 79.0075 185.711 78.9484 185.484 78.9484C185.287 78.9484 185.11 78.9927 184.952 79.0814C184.8 79.17 184.679 79.2931 184.591 79.4507C184.507 79.6082 184.465 79.7904 184.465 79.9972L184.369 79.0961C184.497 78.8204 184.684 78.6013 184.93 78.4388C185.177 78.2714 185.472 78.1877 185.817 78.1877C186.225 78.1877 186.543 78.3034 186.769 78.5348C187.001 78.7662 187.117 79.074 187.117 79.4581V82.0283H186.179Z" fill="#7A8EAC"/>
<rect x="199.999" y="63" width="81.0011" height="32.2119" rx="6.2062" fill="#F2F4FE"/>
<circle cx="215.862" cy="79.1059" r="7.665" fill="white" stroke="#DEE1E6" stroke-width="2.941"/>
<path d="M218.51 81.7207C219.968 80.2626 219.968 77.8985 218.51 76.4404C217.052 74.9823 214.688 74.9823 213.23 76.4404C211.771 77.8985 211.771 80.2626 213.23 81.7207C214.688 83.1789 217.052 83.1789 218.51 81.7207Z" fill="#E6E6FF" stroke="#344054" stroke-width="0.964172" stroke-miterlimit="10"/>
<path d="M217.213 78.8544C217.547 78.8544 217.818 78.5836 217.818 78.2495C217.818 77.9154 217.547 77.6445 217.213 77.6445C216.879 77.6445 216.608 77.9154 216.608 78.2495C216.608 78.5836 216.879 78.8544 217.213 78.8544Z" fill="#344054"/>
<path d="M214.494 78.8544C214.828 78.8544 215.099 78.5836 215.099 78.2495C215.099 77.9154 214.828 77.6445 214.494 77.6445C214.16 77.6445 213.889 77.9154 213.889 78.2495C213.889 78.5836 214.16 78.8544 214.494 78.8544Z" fill="#344054"/>
<path d="M214.526 80.7047C215.422 80.4018 216.318 80.4018 217.213 80.7047" stroke="#344054" stroke-width="0.86771" stroke-miterlimit="10"/>
<path d="M215.862 71.4409C220.095 71.4409 223.527 74.8727 223.527 79.1059C223.527 81.1601 222.719 83.0255 221.403 84.4017" stroke="#EF3826" stroke-width="2.941"/>
<path d="M230.014 81.606V80.8969H231.498C231.769 80.8969 231.978 80.8231 232.126 80.6753C232.274 80.5227 232.347 80.3159 232.347 80.0549C232.347 79.7841 232.269 79.5699 232.111 79.4124C231.954 79.2548 231.734 79.176 231.454 79.176H230.014V78.467H231.387C231.653 78.467 231.858 78.403 232 78.2749C232.143 78.1469 232.214 77.9623 232.214 77.721C232.214 77.4847 232.146 77.3049 232.008 77.1818C231.875 77.0587 231.678 76.9972 231.417 76.9972H230.014V76.2882H231.594C232.072 76.2882 232.453 76.4088 232.739 76.6501C233.029 76.8864 233.175 77.2089 233.175 77.6176C233.175 77.8737 233.113 78.0977 232.99 78.2897C232.872 78.4768 232.712 78.6221 232.51 78.7255C232.308 78.8289 232.079 78.8806 231.823 78.8806L231.86 78.7255C232.131 78.7255 232.377 78.787 232.599 78.9101C232.82 79.0283 232.995 79.1957 233.123 79.4124C233.256 79.629 233.322 79.8801 233.322 80.1657C233.322 80.4562 233.253 80.7098 233.116 80.9265C232.983 81.1431 232.793 81.3105 232.547 81.4287C232.306 81.5469 232.02 81.606 231.69 81.606H230.014ZM229.26 81.606V76.2882H230.22V81.606H229.26ZM235.771 81.6798C235.372 81.6798 235.02 81.5961 234.715 81.4287C234.414 81.2613 234.181 81.0299 234.013 80.7344C233.846 80.4341 233.762 80.0919 233.762 79.7078C233.762 79.3237 233.846 78.9865 234.013 78.6959C234.181 78.4054 234.414 78.1789 234.715 78.0164C235.02 77.849 235.372 77.7653 235.771 77.7653C236.175 77.7653 236.527 77.849 236.827 78.0164C237.128 78.1789 237.361 78.4054 237.529 78.6959C237.696 78.9865 237.78 79.3237 237.78 79.7078C237.78 80.0919 237.694 80.4341 237.521 80.7344C237.354 81.0299 237.12 81.2613 236.82 81.4287C236.519 81.5961 236.17 81.6798 235.771 81.6798ZM235.771 80.9338C235.968 80.9338 236.145 80.8846 236.303 80.7861C236.46 80.6827 236.583 80.5399 236.672 80.3578C236.761 80.1706 236.805 79.9515 236.805 79.7004C236.805 79.3311 236.707 79.0406 236.51 78.8289C236.318 78.6172 236.071 78.5113 235.771 78.5113C235.471 78.5113 235.222 78.6172 235.025 78.8289C234.828 79.0406 234.73 79.3311 234.73 79.7004C234.73 79.9515 234.774 80.1706 234.863 80.3578C234.956 80.5399 235.079 80.6827 235.232 80.7861C235.389 80.8846 235.569 80.9338 235.771 80.9338ZM239.683 81.6798C239.422 81.6798 239.196 81.6257 239.004 81.5173C238.817 81.4041 238.671 81.2514 238.568 81.0594C238.469 80.8674 238.42 80.6507 238.42 80.4095V77.8392H239.351V80.2174C239.351 80.4488 239.407 80.6236 239.521 80.7418C239.639 80.86 239.804 80.9191 240.015 80.9191C240.208 80.9191 240.375 80.8748 240.518 80.7861C240.665 80.6975 240.781 80.5744 240.865 80.4168C240.953 80.2544 240.998 80.0722 240.998 79.8703L241.094 80.7714C240.971 81.0471 240.786 81.2687 240.54 81.4361C240.299 81.5986 240.013 81.6798 239.683 81.6798ZM241.027 81.606V80.7197H240.998V77.8392H241.936V81.606H241.027ZM242.922 81.606V77.8392H243.83V78.7255H243.853V81.606H242.922ZM245.566 81.606V79.2277C245.566 78.9963 245.507 78.8215 245.389 78.7033C245.271 78.5852 245.098 78.5261 244.872 78.5261C244.675 78.5261 244.498 78.5704 244.34 78.659C244.187 78.7476 244.067 78.8707 243.978 79.0283C243.894 79.1859 243.853 79.3681 243.853 79.5749L243.757 78.6738C243.885 78.398 244.072 78.1789 244.318 78.0164C244.564 77.849 244.859 77.7653 245.204 77.7653C245.613 77.7653 245.93 77.881 246.157 78.1125C246.388 78.3439 246.504 78.6516 246.504 79.0357V81.606H245.566ZM249.077 81.6798C248.697 81.6798 248.363 81.5961 248.072 81.4287C247.787 81.2613 247.56 81.0299 247.393 80.7344C247.23 80.4341 247.149 80.0943 247.149 79.7152C247.149 79.336 247.23 79.0012 247.393 78.7107C247.56 78.4153 247.787 78.1839 248.072 78.0164C248.363 77.849 248.697 77.7653 249.077 77.7653C249.387 77.7653 249.667 77.8244 249.919 77.9426C250.17 78.0558 250.376 78.2183 250.539 78.4301C250.701 78.6369 250.805 78.8781 250.849 79.1539H249.955C249.901 78.952 249.798 78.7944 249.645 78.6812C249.493 78.5679 249.308 78.5113 249.091 78.5113C248.889 78.5113 248.715 78.5605 248.567 78.659C248.424 78.7575 248.313 78.8978 248.235 79.08C248.156 79.2622 248.116 79.4739 248.116 79.7152C248.116 79.9614 248.156 80.1756 248.235 80.3578C248.313 80.5399 248.427 80.6827 248.574 80.7861C248.722 80.8846 248.894 80.9338 249.091 80.9338C249.308 80.9338 249.493 80.8772 249.645 80.764C249.798 80.6507 249.901 80.4932 249.955 80.2913H250.849C250.805 80.567 250.699 80.8107 250.532 81.0225C250.369 81.2293 250.162 81.3918 249.911 81.5099C249.665 81.6232 249.387 81.6798 249.077 81.6798ZM253.189 81.6798C252.79 81.6798 252.441 81.5961 252.14 81.4287C251.845 81.2613 251.614 81.0299 251.446 80.7344C251.284 80.439 251.202 80.0992 251.202 79.7152C251.202 79.3311 251.284 78.9938 251.446 78.7033C251.614 78.4079 251.845 78.1789 252.14 78.0164C252.436 77.849 252.781 77.7653 253.174 77.7653C253.549 77.7653 253.874 77.8441 254.149 78.0017C254.425 78.1543 254.639 78.371 254.792 78.6516C254.945 78.9323 255.021 79.2597 255.021 79.6339C255.021 79.7029 255.018 79.7669 255.014 79.826C255.009 79.8851 255.001 79.9441 254.991 80.0032H251.779V79.3533H254.275L254.083 79.5305C254.083 79.176 254.002 78.9101 253.839 78.7329C253.677 78.5556 253.45 78.467 253.16 78.467C252.845 78.467 252.593 78.5753 252.406 78.792C252.224 79.0086 252.133 79.3213 252.133 79.73C252.133 80.1337 252.224 80.4439 252.406 80.6606C252.593 80.8723 252.857 80.9782 253.197 80.9782C253.394 80.9782 253.566 80.9412 253.714 80.8674C253.861 80.7935 253.97 80.6803 254.039 80.5276H254.917C254.794 80.8821 254.585 81.1628 254.29 81.3696C253.999 81.5764 253.632 81.6798 253.189 81.6798ZM257.086 81.606V76.2882H259.332C259.711 76.2882 260.041 76.3522 260.321 76.4802C260.602 76.6082 260.816 76.7879 260.964 77.0194C261.117 77.2508 261.193 77.5216 261.193 77.8318C261.193 78.1371 261.117 78.4054 260.964 78.6369C260.816 78.8683 260.602 79.048 260.321 79.176C260.041 79.304 259.711 79.3681 259.332 79.3681H257.84V78.6369H259.302C259.612 78.6369 259.849 78.5655 260.011 78.4227C260.179 78.2799 260.262 78.0829 260.262 77.8318C260.262 77.5807 260.181 77.3886 260.018 77.2557C259.856 77.1178 259.617 77.0489 259.302 77.0489H258.046V81.606H257.086ZM260.129 81.606L257.758 78.888H258.837L261.459 81.606H260.129ZM264.218 81.606C264.194 81.5075 264.174 81.3992 264.159 81.281C264.15 81.1628 264.145 81.02 264.145 80.8526H264.115V79.0652C264.115 78.8683 264.058 78.7206 263.945 78.6221C263.837 78.5187 263.669 78.467 263.443 78.467C263.221 78.467 263.044 78.5088 262.911 78.5925C262.783 78.6713 262.704 78.787 262.675 78.9397H261.781C261.821 78.5901 261.988 78.307 262.283 78.0903C262.579 77.8737 262.975 77.7653 263.472 77.7653C263.989 77.7653 264.381 77.8835 264.647 78.1198C264.913 78.3513 265.046 78.6935 265.046 79.1465V80.8526C265.046 80.9708 265.053 81.0914 265.068 81.2145C265.088 81.3376 265.115 81.4681 265.149 81.606H264.218ZM262.911 81.6798C262.532 81.6798 262.229 81.5863 262.003 81.3992C261.781 81.2071 261.67 80.9511 261.67 80.631C261.67 80.2864 261.796 80.0131 262.047 79.8112C262.298 79.6093 262.653 79.4739 263.111 79.405L264.285 79.2277V79.8186L263.266 79.9737C263.044 80.0082 262.877 80.0697 262.763 80.1583C262.655 80.247 262.601 80.3701 262.601 80.5276C262.601 80.6704 262.653 80.7812 262.756 80.86C262.859 80.9338 263.002 80.9708 263.184 80.9708C263.45 80.9708 263.672 80.9043 263.849 80.7714C264.026 80.6384 264.115 80.4759 264.115 80.2839L264.218 80.8526C264.12 81.1234 263.957 81.3302 263.731 81.473C263.509 81.6109 263.236 81.6798 262.911 81.6798ZM267.478 81.6798C267.015 81.6798 266.673 81.5715 266.451 81.3548C266.234 81.1333 266.126 80.8034 266.126 80.3651V76.9824L267.064 76.6353V80.3873C267.064 80.5695 267.113 80.7049 267.212 80.7935C267.31 80.8821 267.465 80.9265 267.677 80.9265C267.761 80.9265 267.835 80.9215 267.899 80.9117C267.968 80.8969 268.032 80.8797 268.091 80.86V81.5838C268.032 81.6133 267.948 81.6355 267.84 81.6503C267.731 81.67 267.611 81.6798 267.478 81.6798ZM265.402 78.5704V77.8392H268.091V78.5704H265.402ZM270.363 81.6798C269.964 81.6798 269.614 81.5961 269.314 81.4287C269.018 81.2613 268.787 81.0299 268.62 80.7344C268.457 80.439 268.376 80.0992 268.376 79.7152C268.376 79.3311 268.457 78.9938 268.62 78.7033C268.787 78.4079 269.018 78.1789 269.314 78.0164C269.609 77.849 269.954 77.7653 270.348 77.7653C270.722 77.7653 271.047 77.8441 271.323 78.0017C271.599 78.1543 271.813 78.371 271.965 78.6516C272.118 78.9323 272.194 79.2597 272.194 79.6339C272.194 79.7029 272.192 79.7669 272.187 79.826C272.182 79.8851 272.175 79.9441 272.165 80.0032H268.952V79.3533H271.448L271.256 79.5305C271.256 79.176 271.175 78.9101 271.013 78.7329C270.85 78.5556 270.624 78.467 270.333 78.467C270.018 78.467 269.767 78.5753 269.58 78.792C269.398 79.0086 269.307 79.3213 269.307 79.73C269.307 80.1337 269.398 80.4439 269.58 80.6606C269.767 80.8723 270.03 80.9782 270.37 80.9782C270.567 80.9782 270.739 80.9412 270.887 80.8674C271.035 80.7935 271.143 80.6803 271.212 80.5276H272.091C271.968 80.8821 271.759 81.1628 271.463 81.3696C271.173 81.5764 270.806 81.6798 270.363 81.6798Z" fill="#7A8EAC"/>
<rect x="29.5" y="107.561" width="251" height="133" rx="7.94094" fill="url(#paint0_linear_2480_93632)"/>
<rect x="29.5" y="107.561" width="251" height="133" rx="7.94094" stroke="#E1EBFA"/>
<path d="M38.8863 123.061L36.8848 117.743H37.712L39.4698 122.588H39.2704L41.0282 117.743H41.8111L39.8022 123.061H38.8863ZM42.6367 123.061V119.294H43.4048V123.061H42.6367ZM42.5997 118.556V117.692H43.4491V118.556H42.5997ZM45.9826 123.135C45.4902 123.135 45.0988 123.027 44.8083 122.81C44.5178 122.593 44.3528 122.288 44.3134 121.894H45.0225C45.0569 122.111 45.1554 122.278 45.3179 122.396C45.4853 122.51 45.7118 122.566 45.9974 122.566C46.2485 122.566 46.4405 122.522 46.5735 122.433C46.7064 122.345 46.7729 122.219 46.7729 122.057C46.7729 121.938 46.7335 121.84 46.6547 121.761C46.5809 121.677 46.4332 121.608 46.2116 121.554L45.6059 121.414C45.2268 121.32 44.9437 121.183 44.7566 121C44.5744 120.813 44.4833 120.584 44.4833 120.314C44.4833 119.974 44.6089 119.708 44.86 119.516C45.116 119.319 45.4656 119.22 45.9088 119.22C46.347 119.22 46.699 119.319 46.9649 119.516C47.2358 119.713 47.3884 119.989 47.4229 120.343H46.7138C46.6843 120.166 46.5981 120.03 46.4553 119.937C46.3174 119.838 46.1279 119.789 45.8866 119.789C45.6601 119.789 45.4853 119.831 45.3622 119.915C45.244 119.993 45.185 120.104 45.185 120.247C45.185 120.365 45.2293 120.464 45.3179 120.542C45.4115 120.621 45.5641 120.688 45.7758 120.742L46.3962 120.897C46.7557 120.986 47.0265 121.131 47.2087 121.333C47.3909 121.53 47.4819 121.769 47.4819 122.049C47.4819 122.389 47.349 122.655 47.0831 122.847C46.8221 123.039 46.4553 123.135 45.9826 123.135ZM48.3777 123.061V119.294H49.1458V123.061H48.3777ZM48.3408 118.556V117.692H49.1901V118.556H48.3408ZM52.3808 123.128C52.0263 123.128 51.7309 123.044 51.4945 122.876C51.2582 122.704 51.1031 122.465 51.0292 122.16L51.1031 122.145V123.061H50.3719V117.743H51.14V120.158L51.0588 120.136C51.1425 119.851 51.305 119.627 51.5462 119.464C51.7924 119.302 52.0879 119.22 52.4325 119.22C52.7723 119.22 53.0652 119.302 53.3114 119.464C53.5626 119.627 53.7546 119.853 53.8875 120.144C54.0254 120.434 54.0943 120.774 54.0943 121.163C54.0943 121.557 54.0229 121.901 53.8801 122.197C53.7374 122.492 53.5379 122.721 53.2819 122.884C53.0259 123.046 52.7255 123.128 52.3808 123.128ZM52.2183 122.492C52.5532 122.492 52.8191 122.374 53.016 122.138C53.213 121.901 53.3114 121.576 53.3114 121.163C53.3114 120.754 53.213 120.437 53.016 120.21C52.8191 119.979 52.5507 119.863 52.211 119.863C51.8761 119.863 51.6078 119.981 51.4059 120.217C51.2089 120.449 51.1105 120.771 51.1105 121.185C51.1105 121.589 51.2089 121.909 51.4059 122.145C51.6078 122.377 51.8786 122.492 52.2183 122.492ZM55.0275 123.061V119.294H55.7957V123.061H55.0275ZM54.9906 118.556V117.692H55.84V118.556H54.9906ZM57.0217 123.061V117.743H57.7898V123.061H57.0217ZM59.0159 123.061V119.294H59.784V123.061H59.0159ZM58.979 118.556V117.692H59.8283V118.556H58.979ZM62.5839 123.135C62.1457 123.135 61.8232 123.034 61.6164 122.832C61.4145 122.625 61.3136 122.322 61.3136 121.924V118.43L62.0743 118.142V121.931C62.0743 122.128 62.126 122.273 62.2294 122.367C62.3328 122.46 62.5002 122.507 62.7317 122.507C62.8203 122.507 62.8991 122.5 62.968 122.485C63.0369 122.47 63.096 122.453 63.1453 122.433V123.054C63.0911 123.078 63.0148 123.098 62.9163 123.113C62.8178 123.128 62.707 123.135 62.5839 123.135ZM60.5602 119.907V119.294H63.1453V119.907H60.5602ZM64.3524 124.575L65.2608 122.5L65.4159 122.256L66.5607 119.294H67.3584L65.1427 124.575H64.3524ZM65.2239 123.061L63.6138 119.294H64.4484L65.8148 122.684L65.2239 123.061ZM72.1189 123.135C71.7397 123.135 71.3926 123.068 71.0775 122.935C70.7623 122.798 70.4891 122.606 70.2576 122.359C70.0262 122.113 69.844 121.823 69.7111 121.488C69.5831 121.153 69.5191 120.784 69.5191 120.38C69.5191 119.848 69.6298 119.378 69.8514 118.969C70.073 118.561 70.3783 118.243 70.7673 118.017C71.1612 117.785 71.6092 117.669 72.1115 117.669C72.6236 117.669 73.0741 117.785 73.4631 118.017C73.8521 118.243 74.1574 118.561 74.3789 118.969C74.6054 119.378 74.7187 119.851 74.7187 120.387C74.7187 120.786 74.6522 121.155 74.5193 121.495C74.3912 121.83 74.2115 122.121 73.9801 122.367C73.7487 122.608 73.4729 122.798 73.1529 122.935C72.8378 123.068 72.4931 123.135 72.1189 123.135ZM72.1115 122.47C72.466 122.47 72.7787 122.382 73.0495 122.204C73.3203 122.022 73.532 121.773 73.6847 121.458C73.8422 121.143 73.921 120.781 73.921 120.373C73.921 119.969 73.8447 119.614 73.6921 119.309C73.5394 118.999 73.3277 118.76 73.0569 118.593C72.7861 118.42 72.4709 118.334 72.1115 118.334C71.752 118.334 71.4369 118.42 71.1661 118.593C70.9002 118.76 70.6909 118.996 70.5383 119.302C70.3906 119.607 70.3167 119.964 70.3167 120.373C70.3167 120.786 70.393 121.151 70.5457 121.466C70.6983 121.781 70.9076 122.027 71.1735 122.204C71.4443 122.382 71.757 122.47 72.1115 122.47ZM76.7729 123.061L75.2367 119.294H76.0565L77.3121 122.714H76.9502L78.191 119.294H78.9813L77.4524 123.061H76.7729ZM81.2827 123.135C80.9036 123.135 80.5688 123.051 80.2782 122.884C79.9927 122.716 79.7686 122.485 79.6061 122.19C79.4436 121.894 79.3624 121.554 79.3624 121.17C79.3624 120.781 79.4412 120.442 79.5988 120.151C79.7612 119.856 79.9877 119.627 80.2782 119.464C80.5688 119.302 80.9011 119.22 81.2753 119.22C81.6397 119.22 81.9548 119.299 82.2207 119.457C82.4915 119.609 82.6983 119.824 82.8411 120.099C82.9888 120.375 83.0627 120.702 83.0627 121.082C83.0627 121.141 83.0602 121.197 83.0553 121.252C83.0553 121.301 83.0504 121.352 83.0405 121.407H79.8794V120.831H82.5014L82.3093 121.059C82.3093 120.656 82.2183 120.348 82.0361 120.136C81.8539 119.925 81.6003 119.819 81.2753 119.819C80.9257 119.819 80.6475 119.939 80.4407 120.181C80.2389 120.417 80.1379 120.747 80.1379 121.17C80.1379 121.599 80.2389 121.933 80.4407 122.175C80.6475 122.416 80.9331 122.537 81.2975 122.537C81.5191 122.537 81.7111 122.492 81.8736 122.404C82.0361 122.31 82.1567 122.175 82.2355 121.997H82.9593C82.8362 122.352 82.6269 122.63 82.3315 122.832C82.041 123.034 81.6914 123.135 81.2827 123.135ZM83.9961 123.061V119.294H84.7273V120.232H84.7643V123.061H83.9961ZM84.7643 121.096L84.6683 120.203C84.7569 119.883 84.9095 119.639 85.1262 119.472C85.3428 119.304 85.6013 119.22 85.9017 119.22C86.0149 119.22 86.0937 119.23 86.138 119.25V119.974C86.1134 119.964 86.0789 119.959 86.0346 119.959C85.9903 119.954 85.9362 119.952 85.8721 119.952C85.5029 119.952 85.2247 120.048 85.0375 120.24C84.8554 120.432 84.7643 120.717 84.7643 121.096ZM90.0679 123.061V118.386H88.2731V117.743H92.6455V118.386H90.8508V123.061H90.0679ZM93.4913 123.061V119.294H94.2594V123.061H93.4913ZM93.4543 118.556V117.692H94.3037V118.556H93.4543ZM95.4854 123.061V119.294H96.2166V120.181H96.2536V123.061H95.4854ZM98.0262 123.061V120.602C98.0262 120.346 97.9671 120.158 97.8489 120.04C97.7307 119.922 97.5608 119.863 97.3393 119.863C97.1325 119.863 96.9454 119.912 96.778 120.011C96.6155 120.104 96.4874 120.237 96.3939 120.41C96.3003 120.577 96.2536 120.776 96.2536 121.008L96.1575 120.129C96.2806 119.848 96.4653 119.627 96.7115 119.464C96.9626 119.302 97.2433 119.22 97.5535 119.22C97.9277 119.22 98.2256 119.329 98.4471 119.545C98.6736 119.762 98.7869 120.048 98.7869 120.402V123.061H98.0262ZM100.567 123.061V120.602C100.567 120.346 100.505 120.158 100.382 120.04C100.264 119.922 100.094 119.863 99.8726 119.863C99.6707 119.863 99.4861 119.912 99.3187 120.011C99.1562 120.104 99.0257 120.237 98.9272 120.41C98.8337 120.577 98.7869 120.776 98.7869 121.008L98.6318 120.129C98.7598 119.848 98.9518 119.627 99.2079 119.464C99.4689 119.302 99.7594 119.22 100.079 119.22C100.459 119.22 100.761 119.331 100.988 119.553C101.214 119.769 101.328 120.06 101.328 120.424V123.061H100.567ZM104.132 123.135C103.753 123.135 103.418 123.051 103.127 122.884C102.842 122.716 102.618 122.485 102.455 122.19C102.293 121.894 102.211 121.554 102.211 121.17C102.211 120.781 102.29 120.442 102.448 120.151C102.61 119.856 102.837 119.627 103.127 119.464C103.418 119.302 103.75 119.22 104.124 119.22C104.489 119.22 104.804 119.299 105.07 119.457C105.341 119.609 105.547 119.824 105.69 120.099C105.838 120.375 105.912 120.702 105.912 121.082C105.912 121.141 105.909 121.197 105.904 121.252C105.904 121.301 105.899 121.352 105.89 121.407H102.728V120.831H105.35L105.158 121.059C105.158 120.656 105.067 120.348 104.885 120.136C104.703 119.925 104.449 119.819 104.124 119.819C103.775 119.819 103.497 119.939 103.29 120.181C103.088 120.417 102.987 120.747 102.987 121.17C102.987 121.599 103.088 121.933 103.29 122.175C103.497 122.416 103.782 122.537 104.147 122.537C104.368 122.537 104.56 122.492 104.723 122.404C104.885 122.31 105.006 122.175 105.085 121.997H105.808C105.685 122.352 105.476 122.63 105.181 122.832C104.89 123.034 104.54 123.135 104.132 123.135Z" fill="#7A8EAC"/>
<path d="M37.2577 137.392V137.093L38.378 135.867C38.5094 135.723 38.6177 135.599 38.7028 135.493C38.7878 135.385 38.8508 135.285 38.8917 135.191C38.9337 135.096 38.9546 134.996 38.9546 134.893C38.9546 134.773 38.9259 134.67 38.8685 134.583C38.8121 134.495 38.7348 134.428 38.6365 134.381C38.5381 134.333 38.4277 134.309 38.305 134.309C38.1747 134.309 38.0609 134.336 37.9637 134.39C37.8676 134.444 37.793 134.518 37.74 134.614C37.688 134.71 37.6621 134.823 37.6621 134.952H37.271C37.271 134.753 37.3168 134.579 37.4085 134.429C37.5002 134.278 37.6251 134.161 37.783 134.077C37.9421 133.993 38.1205 133.951 38.3183 133.951C38.5172 133.951 38.6934 133.993 38.8469 134.077C39.0005 134.161 39.1209 134.274 39.2082 134.417C39.2955 134.56 39.3391 134.718 39.3391 134.893C39.3391 135.017 39.3165 135.14 39.2712 135.259C39.227 135.377 39.1496 135.509 39.0392 135.655C38.9298 135.8 38.7779 135.976 38.5834 136.185L37.8212 137.001V137.027H39.3988V137.392H37.2577ZM41.1901 137.438C40.9405 137.438 40.7278 137.37 40.5521 137.234C40.3765 137.097 40.2423 136.899 40.1495 136.639C40.0567 136.379 40.0103 136.064 40.0103 135.695C40.0103 135.328 40.0567 135.015 40.1495 134.755C40.2434 134.494 40.3781 134.295 40.5538 134.158C40.7306 134.02 40.9427 133.951 41.1901 133.951C41.4376 133.951 41.6492 134.02 41.8248 134.158C42.0016 134.295 42.1364 134.494 42.2292 134.755C42.3231 135.015 42.37 135.328 42.37 135.695C42.37 136.064 42.3236 136.379 42.2308 136.639C42.138 136.899 42.0038 137.097 41.8281 137.234C41.6525 137.37 41.4398 137.438 41.1901 137.438ZM41.1901 137.073C41.4376 137.073 41.6298 136.954 41.7668 136.715C41.9038 136.477 41.9723 136.137 41.9723 135.695C41.9723 135.401 41.9408 135.151 41.8779 134.944C41.816 134.737 41.7265 134.58 41.6094 134.472C41.4934 134.363 41.3536 134.309 41.1901 134.309C40.9449 134.309 40.7532 134.43 40.6151 134.672C40.477 134.913 40.408 135.254 40.408 135.695C40.408 135.989 40.4389 136.238 40.5008 136.444C40.5626 136.649 40.6516 136.806 40.7676 136.913C40.8847 137.02 41.0255 137.073 41.1901 137.073Z" fill="#7A8EAC"/>
<path d="M41.1901 242.479C40.9405 242.479 40.7278 242.411 40.5521 242.275C40.3765 242.138 40.2423 241.939 40.1495 241.68C40.0567 241.419 40.0102 241.104 40.0102 240.735C40.0102 240.368 40.0567 240.055 40.1495 239.796C40.2434 239.535 40.3781 239.336 40.5538 239.199C40.7306 239.061 40.9427 238.992 41.1901 238.992C41.4376 238.992 41.6492 239.061 41.8248 239.199C42.0016 239.336 42.1364 239.535 42.2292 239.796C42.3231 240.055 42.37 240.368 42.37 240.735C42.37 241.104 42.3236 241.419 42.2308 241.68C42.138 241.939 42.0038 242.138 41.8281 242.275C41.6525 242.411 41.4398 242.479 41.1901 242.479ZM41.1901 242.114C41.4376 242.114 41.6298 241.995 41.7668 241.756C41.9038 241.517 41.9723 241.177 41.9723 240.735C41.9723 240.441 41.9408 240.191 41.8779 239.985C41.816 239.778 41.7265 239.62 41.6094 239.512C41.4934 239.404 41.3536 239.35 41.1901 239.35C40.9449 239.35 40.7532 239.471 40.6151 239.713C40.477 239.954 40.408 240.294 40.408 240.735C40.408 241.029 40.4389 241.279 40.5008 241.484C40.5626 241.69 40.6516 241.846 40.7676 241.953C40.8847 242.06 41.0255 242.114 41.1901 242.114Z" fill="white"/>
<mask id="path-39-inside-1_2480_93632" fill="white">
<path d="M48.8706 132.392H269V226.449H48.8706V132.392Z"/>
</mask>
<path d="M48.8706 226.449H48.3771V226.942H48.8706V226.449ZM269 225.955H48.8706V226.942H269V225.955ZM49.3641 226.449V132.392H48.3771V226.449H49.3641Z" fill="#D0D5DD" mask="url(#path-39-inside-1_2480_93632)"/>
<path d="M269 137.256H269.256V136.744H269V137.256ZM49 137.256H269V136.744H49V137.256Z" fill="#D0D5DD"/>
<path d="M269 155.021H269.256V154.509H269V155.021ZM49 155.021H269V154.509H49V155.021Z" fill="#D0D5DD"/>
<path d="M269 172.786H269.256V172.274H269V172.786ZM49 172.786H269V172.274H49V172.786Z" fill="#D0D5DD"/>
<path d="M269 190.551H269.256V190.039H269V190.551ZM49 190.551H269V190.039H49V190.551Z" fill="#D0D5DD"/>
<path d="M269 208.316H269.256V207.803H269V208.316ZM49 208.316H269V207.803H49V208.316Z" fill="#D0D5DD"/>
<path d="M269 226.081H269.256V225.569H269V226.081ZM49 226.081H269V225.569H49V226.081Z" fill="#D0D5DD"/>
<mask id="mask0_2480_93632" style="mask-type:alpha" maskUnits="userSpaceOnUse" x="48" y="133" width="221" height="93">
<rect x="48.9976" y="133" width="219.658" height="93" fill="black"/>
</mask>
<g mask="url(#mask0_2480_93632)">
<path d="M49.9783 213L63.7263 196.053C65.2807 194.137 67.652 193.072 70.1168 193.183L84.6538 193.839L101.202 195.28C103.17 195.451 105.13 194.867 106.683 193.646L127.627 177.186C129.573 175.656 132.435 176.311 133.523 178.534L145.987 204.006C147.187 206.459 149.586 208.103 152.308 208.336L169.377 209.801C172.168 210.04 174.872 208.761 176.456 206.45L185.242 193.637C187.28 190.664 191.095 189.482 194.457 190.78L203.652 194.329C208.049 196.027 212.934 193.454 214.021 188.868L218.024 171.983C218.797 168.72 221.575 166.32 224.915 166.029L242.683 164.479C243.668 164.393 244.627 164.12 245.509 163.675L268.655 152" stroke="#7371B0" stroke-width="1.53712" stroke-linecap="round"/>
</g>
<mask id="mask1_2480_93632" style="mask-type:alpha" maskUnits="userSpaceOnUse" x="48" y="133" width="221" height="93">
<rect x="48.9976" y="133" width="219.658" height="93" fill="black"/>
</mask>
<g mask="url(#mask1_2480_93632)">
<mask id="mask2_2480_93632" style="mask-type:alpha" maskUnits="userSpaceOnUse" x="49" y="148" width="214" height="78">
<path d="M58.4861 183.71L49.7822 187.574V226H262.38V159.005L249.199 160.893C247.623 161.118 246.154 161.823 244.99 162.91L236.854 170.516C233.794 173.377 229.018 173.3 226.051 170.342L220.927 165.232C217.232 161.548 211.541 160.765 206.989 163.314L203.919 165.033C200.913 166.717 197.11 165.442 195.726 162.286L191.167 151.887C189.348 147.74 183.665 147.239 181.15 151.006C177.886 155.895 172.106 158.479 166.286 157.651L161.261 156.936C158.032 156.476 154.859 158.08 153.315 160.953L143.752 178.74C142.245 181.542 139.184 183.144 136.023 182.785L124.238 181.445C119.305 180.884 114.401 182.712 111.038 186.364L110.608 186.831C105.828 192.023 99.4236 195.435 92.4478 196.507L88.7581 197.074C86.8457 197.367 85.0049 198.015 83.3303 198.984L83.2173 199.05C79.2143 201.366 74.0866 199.698 72.212 195.47L68.7519 187.666C67.0103 183.738 62.4134 181.967 58.4861 183.71Z" fill="url(#paint1_radial_2480_93632)"/>
</mask>
<g mask="url(#mask2_2480_93632)">
<path opacity="0.6" d="M58.4861 183.71L49.7822 187.574V226H262.38V159.005L249.199 160.893C247.623 161.118 246.154 161.823 244.99 162.91L236.854 170.516C233.794 173.377 229.018 173.3 226.051 170.342L220.927 165.232C217.232 161.548 211.541 160.765 206.989 163.314L203.919 165.033C200.913 166.717 197.11 165.442 195.726 162.286L191.167 151.887C189.348 147.74 183.665 147.239 181.15 151.006C177.886 155.895 172.106 158.479 166.286 157.651L161.261 156.936C158.032 156.476 154.859 158.08 153.315 160.953L143.752 178.74C142.245 181.542 139.184 183.144 136.023 182.785L124.238 181.445C119.305 180.884 114.401 182.712 111.038 186.364L110.608 186.831C105.828 192.023 99.4236 195.435 92.4478 196.507L88.7581 197.074C86.8457 197.367 85.0049 198.015 83.3303 198.984L83.2173 199.05C79.2143 201.366 74.0866 199.698 72.212 195.47L68.7519 187.666C67.0103 183.738 62.4134 181.967 58.4861 183.71Z" fill="#9A96FF"/>
</g>
<path d="M49.9783 197.21L55.34 194.899C59.0001 193.321 60.8301 192.533 62.5439 192.579C64.3273 192.627 66.0399 193.287 67.3946 194.448C68.6964 195.563 69.5243 197.376 71.18 201.001L72.9455 204.867C73.1314 205.274 73.2243 205.477 73.309 205.642C75.2609 209.428 79.8956 210.94 83.7046 209.033C83.87 208.95 84.065 208.84 84.455 208.621V208.621C84.5978 208.541 84.6692 208.501 84.7405 208.462C86.3031 207.605 88.0012 207.024 89.7607 206.743C89.841 206.73 89.922 206.718 90.084 206.693L93.635 206.164C94.3354 206.059 94.6856 206.007 95.0259 205.948C101.407 204.851 107.286 201.791 111.845 197.193C112.088 196.948 112.332 196.691 112.819 196.177V196.177C113.166 195.811 113.34 195.629 113.51 195.46C116.727 192.271 121.174 190.643 125.69 191.001C125.929 191.02 126.179 191.047 126.68 191.103L135.833 192.113C138.81 192.441 140.298 192.606 141.643 192.273C142.831 191.979 143.933 191.409 144.859 190.608C145.908 189.703 146.633 188.393 148.084 185.772L155.536 172.317C156.492 170.589 156.971 169.726 157.58 169.055C158.882 167.622 160.673 166.726 162.602 166.543C163.503 166.457 164.481 166.592 166.437 166.863L169.959 167.349C170.098 167.368 170.168 167.378 170.232 167.386C175.973 168.13 181.652 165.624 184.973 160.882C185.01 160.829 185.05 160.771 185.13 160.655V160.655C185.207 160.543 185.246 160.487 185.273 160.448C187.859 156.814 193.401 157.31 195.302 161.345C195.322 161.387 195.35 161.449 195.406 161.573L199.415 170.45C200.109 171.986 200.456 172.754 200.887 173.306C202.325 175.145 204.72 175.95 206.976 175.353C207.653 175.174 208.394 174.771 209.875 173.966V173.966C211.966 172.829 213.012 172.26 214.038 171.927C217.419 170.831 221.115 171.335 224.078 173.297C224.977 173.893 225.833 174.721 227.543 176.377L228.868 177.66C231.355 180.066 232.598 181.27 233.987 181.838C235.793 182.576 237.81 182.608 239.639 181.929C241.045 181.406 242.326 180.243 244.889 177.918L249.762 173.494C250.819 172.535 251.348 172.055 251.942 171.685C252.47 171.356 253.035 171.092 253.626 170.897C254.291 170.679 254.998 170.58 256.412 170.384L268.655 168.682" stroke="#9A96FF" stroke-width="1.53712" stroke-linecap="round"/>
</g>
</g>
<defs>
<filter id="filter0_dd_2480_93632" x="0" y="0" width="310" height="269" filterUnits="userSpaceOnUse" color-interpolation-filters="sRGB">
<feFlood flood-opacity="0" result="BackgroundImageFix"/>
<feColorMatrix in="SourceAlpha" type="matrix" values="0 0 0 0 0 0 0 0 0 0 0 0 0 0 0 0 0 0 127 0" result="hardAlpha"/>
<feMorphology radius="2" operator="erode" in="SourceAlpha" result="effect1_dropShadow_2480_93632"/>
<feOffset dy="2"/>
<feGaussianBlur stdDeviation="2"/>
<feComposite in2="hardAlpha" operator="out"/>
<feColorMatrix type="matrix" values="0 0 0 0 0.0627451 0 0 0 0 0.0941176 0 0 0 0 0.156863 0 0 0 0.06 0"/>
<feBlend mode="normal" in2="BackgroundImageFix" result="effect1_dropShadow_2480_93632"/>
<feColorMatrix in="SourceAlpha" type="matrix" values="0 0 0 0 0 0 0 0 0 0 0 0 0 0 0 0 0 0 127 0" result="hardAlpha"/>
<feMorphology radius="2" operator="erode" in="SourceAlpha" result="effect2_dropShadow_2480_93632"/>
<feOffset dy="4"/>
<feGaussianBlur stdDeviation="4"/>
<feComposite in2="hardAlpha" operator="out"/>
<feColorMatrix type="matrix" values="0 0 0 0 0.0627451 0 0 0 0 0.0941176 0 0 0 0 0.156863 0 0 0 0.1 0"/>
<feBlend mode="normal" in2="effect1_dropShadow_2480_93632" result="effect2_dropShadow_2480_93632"/>
<feBlend mode="normal" in="SourceGraphic" in2="effect2_dropShadow_2480_93632" result="shape"/>
</filter>
<filter id="filter1_d_2480_93632" x="10" y="6" width="290" height="58" filterUnits="userSpaceOnUse" color-interpolation-filters="sRGB">
<feFlood flood-opacity="0" result="BackgroundImageFix"/>
<feColorMatrix in="SourceAlpha" type="matrix" values="0 0 0 0 0 0 0 0 0 0 0 0 0 0 0 0 0 0 127 0" result="hardAlpha"/>
<feOffset/>
<feGaussianBlur stdDeviation="5.5"/>
<feComposite in2="hardAlpha" operator="out"/>
<feColorMatrix type="matrix" values="0 0 0 0 0.313726 0 0 0 0 0.231373 0 0 0 0 0.678431 0 0 0 0.2 0"/>
<feBlend mode="normal" in2="BackgroundImageFix" result="effect1_dropShadow_2480_93632"/>
<feBlend mode="normal" in="SourceGraphic" in2="effect1_dropShadow_2480_93632" result="shape"/>
</filter>
<linearGradient id="paint0_linear_2480_93632" x1="155" y1="241.061" x2="155" y2="107.061" gradientUnits="userSpaceOnUse">
<stop stop-color="#FAFBFF" stop-opacity="0"/>
<stop offset="1" stop-color="#FAFBFF"/>
</linearGradient>
<radialGradient id="paint1_radial_2480_93632" cx="0" cy="0" r="1" gradientUnits="userSpaceOnUse" gradientTransform="translate(156.081 157.675) rotate(90) scale(45.5452 104.306)">
<stop stop-opacity="0.08"/>
<stop offset="1" stop-opacity="0"/>
</radialGradient>
</defs>
</svg>
