<svg width="310" height="257" viewBox="0 0 310 257" fill="none" xmlns="http://www.w3.org/2000/svg">
<g filter="url(#filter0_dd_2480_93653)">
<rect x="6" y="2" width="298" height="245" rx="12" fill="white" shape-rendering="crispEdges"/>
<rect x="6.5" y="2.5" width="297" height="244" rx="11.5" stroke="#D0D5DD" shape-rendering="crispEdges"/>
<path d="M32.5486 37.5V36.46H34.4086C34.9552 36.46 35.4219 36.35 35.8086 36.13C36.1952 35.91 36.4886 35.6033 36.6886 35.21C36.8952 34.8167 36.9986 34.3667 36.9986 33.86C36.9986 33.36 36.8952 32.92 36.6886 32.54C36.4886 32.16 36.1952 31.8667 35.8086 31.66C35.4286 31.4467 34.9619 31.34 34.4086 31.34H32.5686V30.3H34.4086C35.1952 30.3 35.8819 30.4467 36.4686 30.74C37.0552 31.0333 37.5086 31.45 37.8286 31.99C38.1552 32.5233 38.3186 33.1533 38.3186 33.88C38.3186 34.6067 38.1552 35.2433 37.8286 35.79C37.5019 36.33 37.0452 36.75 36.4586 37.05C35.8786 37.35 35.1986 37.5 34.4186 37.5H32.5486ZM31.7586 37.5V30.3H33.0586V37.5H31.7586ZM41.8181 37.6C41.2781 37.6 40.8048 37.4867 40.3981 37.26C39.9981 37.0333 39.6848 36.72 39.4581 36.32C39.2381 35.92 39.1281 35.46 39.1281 34.94C39.1281 34.42 39.2381 33.9633 39.4581 33.57C39.6848 33.17 39.9981 32.86 40.3981 32.64C40.7981 32.4133 41.2648 32.3 41.7981 32.3C42.3048 32.3 42.7448 32.4067 43.1181 32.62C43.4914 32.8267 43.7814 33.12 43.9881 33.5C44.1948 33.88 44.2981 34.3233 44.2981 34.83C44.2981 34.9233 44.2948 35.01 44.2881 35.09C44.2814 35.17 44.2714 35.25 44.2581 35.33H39.9081V34.45H43.2881L43.0281 34.69C43.0281 34.21 42.9181 33.85 42.6981 33.61C42.4781 33.37 42.1714 33.25 41.7781 33.25C41.3514 33.25 41.0114 33.3967 40.7581 33.69C40.5114 33.9833 40.3881 34.4067 40.3881 34.96C40.3881 35.5067 40.5114 35.9267 40.7581 36.22C41.0114 36.5067 41.3681 36.65 41.8281 36.65C42.0948 36.65 42.3281 36.6 42.5281 36.5C42.7281 36.4 42.8748 36.2467 42.9681 36.04H44.1581C43.9914 36.52 43.7081 36.9 43.3081 37.18C42.9148 37.46 42.4181 37.6 41.8181 37.6ZM48.5211 37.5L46.9511 35.22L44.8311 32.4H46.2611L47.6811 34.47L49.9511 37.5H48.5211ZM47.0511 34.43L48.4811 32.4H49.8811L47.6611 35.31L47.0511 34.43ZM47.5511 35.37L46.0111 37.5H44.6211L46.9511 34.48L47.5511 35.37ZM53.3509 37.6C52.7243 37.6 52.2609 37.4533 51.9609 37.16C51.6676 36.86 51.5209 36.4133 51.5209 35.82V31.24L52.7909 30.77V35.85C52.7909 36.0967 52.8576 36.28 52.9909 36.4C53.1243 36.52 53.3343 36.58 53.6209 36.58C53.7343 36.58 53.8343 36.5733 53.9209 36.56C54.0143 36.54 54.1009 36.5167 54.1809 36.49V37.47C54.1009 37.51 53.9876 37.54 53.8409 37.56C53.6943 37.5867 53.5309 37.6 53.3509 37.6ZM50.5409 33.39V32.4H54.1809V33.39H50.5409ZM57.4572 37.6C56.9172 37.6 56.4438 37.4867 56.0372 37.26C55.6372 37.0333 55.3238 36.72 55.0972 36.32C54.8772 35.92 54.7672 35.46 54.7672 34.94C54.7672 34.42 54.8772 33.9633 55.0972 33.57C55.3238 33.17 55.6372 32.86 56.0372 32.64C56.4372 32.4133 56.9038 32.3 57.4372 32.3C57.9438 32.3 58.3838 32.4067 58.7572 32.62C59.1305 32.8267 59.4205 33.12 59.6272 33.5C59.8338 33.88 59.9372 34.3233 59.9372 34.83C59.9372 34.9233 59.9338 35.01 59.9272 35.09C59.9205 35.17 59.9105 35.25 59.8972 35.33H55.5472V34.45H58.9272L58.6672 34.69C58.6672 34.21 58.5572 33.85 58.3372 33.61C58.1172 33.37 57.8105 33.25 57.4172 33.25C56.9905 33.25 56.6505 33.3967 56.3972 33.69C56.1505 33.9833 56.0272 34.4067 56.0272 34.96C56.0272 35.5067 56.1505 35.9267 56.3972 36.22C56.6505 36.5067 57.0072 36.65 57.4672 36.65C57.7338 36.65 57.9672 36.6 58.1672 36.5C58.3672 36.4 58.5138 36.2467 58.6072 36.04H59.7972C59.6305 36.52 59.3472 36.9 58.9472 37.18C58.5538 37.46 58.0572 37.6 57.4572 37.6ZM61.0801 37.5V32.4H62.3101V33.63H62.3401V37.5H61.0801ZM62.3401 34.84L62.2101 33.63C62.3301 33.1967 62.5334 32.8667 62.8201 32.64C63.1067 32.4133 63.4501 32.3 63.8501 32.3C63.9901 32.3 64.0901 32.3133 64.1501 32.34V33.53C64.1167 33.5167 64.0701 33.51 64.0101 33.51C63.9501 33.5033 63.8767 33.5 63.7901 33.5C63.3034 33.5 62.9401 33.6067 62.7001 33.82C62.4601 34.0333 62.3401 34.3733 62.3401 34.84ZM67.3101 37.5V32.4H68.5701V37.5H67.3101ZM67.2501 31.56V30.17H68.6201V31.56H67.2501ZM72.0383 37.6C71.3316 37.6 70.7683 37.4533 70.3483 37.16C69.9283 36.86 69.6983 36.4467 69.6583 35.92H70.8083C70.8416 36.18 70.9649 36.3767 71.1783 36.51C71.3916 36.6433 71.6783 36.71 72.0383 36.71C72.3649 36.71 72.6083 36.66 72.7683 36.56C72.9349 36.4533 73.0183 36.3033 73.0183 36.11C73.0183 35.97 72.9716 35.8567 72.8783 35.77C72.7849 35.6767 72.6083 35.6 72.3483 35.54L71.5283 35.35C70.9683 35.23 70.5516 35.0433 70.2783 34.79C70.0116 34.53 69.8783 34.2067 69.8783 33.82C69.8783 33.3467 70.0583 32.9767 70.4183 32.71C70.7849 32.4367 71.2883 32.3 71.9283 32.3C72.5616 32.3 73.0683 32.4367 73.4483 32.71C73.8349 32.9767 74.0483 33.3467 74.0883 33.82H72.9383C72.9049 33.6133 72.7983 33.4567 72.6183 33.35C72.4449 33.2433 72.2049 33.19 71.8983 33.19C71.6116 33.19 71.3949 33.2367 71.2483 33.33C71.1016 33.4167 71.0283 33.5467 71.0283 33.72C71.0283 33.8533 71.0849 33.9667 71.1983 34.06C71.3116 34.1467 71.5016 34.2233 71.7683 34.29L72.6483 34.49C73.1483 34.6033 73.5249 34.8 73.7783 35.08C74.0383 35.36 74.1683 35.69 74.1683 36.07C74.1683 36.5567 73.9816 36.9333 73.6083 37.2C73.2349 37.4667 72.7116 37.6 72.0383 37.6ZM78.4133 37.5L76.8533 32.4H78.1733L79.0933 36.23H79.0033L80.1333 32.4H81.2833L82.4333 36.23H82.3333L83.2433 32.4H84.5333L82.9733 37.5H81.7933L80.6433 33.71H80.7433L79.5933 37.5H78.4133ZM85.5613 37.5V32.4H86.7913V33.63H86.8213V37.5H85.5613ZM86.8213 34.84L86.6913 33.63C86.8113 33.1967 87.0146 32.8667 87.3013 32.64C87.588 32.4133 87.9313 32.3 88.3313 32.3C88.4713 32.3 88.5713 32.3133 88.6313 32.34V33.53C88.598 33.5167 88.5513 33.51 88.4913 33.51C88.4313 33.5033 88.358 33.5 88.2713 33.5C87.7846 33.5 87.4213 33.6067 87.1813 33.82C86.9413 34.0333 86.8213 34.3733 86.8213 34.84ZM89.5797 37.5V32.4H90.8397V37.5H89.5797ZM89.5197 31.56V30.17H90.8897V31.56H89.5197ZM94.6087 37.6C93.9821 37.6 93.5187 37.4533 93.2187 37.16C92.9254 36.86 92.7787 36.4133 92.7787 35.82V31.24L94.0487 30.77V35.85C94.0487 36.0967 94.1154 36.28 94.2487 36.4C94.3821 36.52 94.5921 36.58 94.8787 36.58C94.9921 36.58 95.0921 36.5733 95.1787 36.56C95.2721 36.54 95.3587 36.5167 95.4387 36.49V37.47C95.3587 37.51 95.2454 37.54 95.0987 37.56C94.9521 37.5867 94.7887 37.6 94.6087 37.6ZM91.7987 33.39V32.4H95.4387V33.39H91.7987ZM96.5519 37.5V32.4H97.8119V37.5H96.5519ZM96.4919 31.56V30.17H97.8619V31.56H96.4919ZM99.3496 37.5V32.4H100.58V33.6H100.61V37.5H99.3496ZM102.93 37.5V34.28C102.93 33.9667 102.85 33.73 102.69 33.57C102.53 33.41 102.296 33.33 101.99 33.33C101.723 33.33 101.483 33.39 101.27 33.51C101.063 33.63 100.9 33.7967 100.78 34.01C100.666 34.2233 100.61 34.47 100.61 34.75L100.48 33.53C100.653 33.1567 100.906 32.86 101.24 32.64C101.573 32.4133 101.973 32.3 102.44 32.3C102.993 32.3 103.423 32.4567 103.73 32.77C104.043 33.0833 104.2 33.5 104.2 34.02V37.5H102.93ZM107.903 39.65C107.23 39.65 106.676 39.5033 106.243 39.21C105.816 38.9167 105.563 38.52 105.483 38.02H106.683C106.743 38.1933 106.873 38.3267 107.073 38.42C107.28 38.52 107.546 38.57 107.873 38.57C108.346 38.57 108.696 38.4633 108.923 38.25C109.15 38.0433 109.263 37.7267 109.263 37.3V36.2L109.353 36.22C109.273 36.5933 109.07 36.8933 108.743 37.12C108.416 37.34 108.016 37.45 107.543 37.45C107.09 37.45 106.693 37.3433 106.353 37.13C106.02 36.9167 105.76 36.62 105.573 36.24C105.386 35.8533 105.293 35.4033 105.293 34.89C105.293 34.37 105.39 33.9167 105.583 33.53C105.776 33.1433 106.046 32.8433 106.393 32.63C106.746 32.41 107.156 32.3 107.623 32.3C108.103 32.3 108.496 32.4167 108.803 32.65C109.116 32.8767 109.31 33.1933 109.383 33.6L109.303 33.61V32.4H110.533V37.29C110.533 38.0167 110.296 38.59 109.823 39.01C109.356 39.4367 108.716 39.65 107.903 39.65ZM107.953 36.45C108.36 36.45 108.683 36.3133 108.923 36.04C109.17 35.76 109.293 35.37 109.293 34.87C109.293 34.37 109.17 33.9833 108.923 33.71C108.676 33.4367 108.35 33.3 107.943 33.3C107.543 33.3 107.22 33.44 106.973 33.72C106.726 33.9933 106.603 34.38 106.603 34.88C106.603 35.38 106.726 35.7667 106.973 36.04C107.22 36.3133 107.546 36.45 107.953 36.45ZM112.054 37.5V36.06H113.504V37.5H112.054ZM114.637 37.5V36.06H116.087V37.5H114.637ZM117.219 37.5V36.06H118.669V37.5H117.219Z" fill="#7A8EAC"/>
<path d="M135.981 34C135.981 34.6894 135.845 35.3721 135.581 36.0091C135.317 36.646 134.931 37.2248 134.443 37.7123C133.956 38.1998 133.377 38.5865 132.74 38.8504C132.103 39.1142 131.42 39.25 130.731 39.25C130.042 39.25 129.359 39.1142 128.722 38.8504C128.085 38.5865 127.506 38.1998 127.019 37.7123C126.531 37.2248 126.144 36.646 125.881 36.0091C125.617 35.3721 125.481 34.6894 125.481 34C125.481 33.3106 125.617 32.6279 125.881 31.9909C126.144 31.354 126.531 30.7752 127.019 30.2877C127.506 29.8002 128.085 29.4135 128.722 29.1496C129.359 28.8858 130.042 28.75 130.731 28.75C131.42 28.75 132.103 28.8858 132.74 29.1496C133.377 29.4135 133.956 29.8002 134.443 30.2877C134.931 30.7752 135.317 31.354 135.581 31.9909C135.845 32.6279 135.981 33.3106 135.981 34L135.981 34Z" stroke="#B6B3EE" stroke-width="2" stroke-linecap="round" stroke-linejoin="round"/>
<path d="M130.731 28.75C131.42 28.75 132.103 28.8858 132.74 29.1496C133.377 29.4135 133.956 29.8002 134.443 30.2877C134.931 30.7752 135.317 31.354 135.581 31.9909C135.845 32.6279 135.981 33.3106 135.981 34" stroke="#8480FF" stroke-width="2" stroke-linecap="round" stroke-linejoin="round"/>
<g filter="url(#filter1_dii_2480_93653)">
<path d="M156.179 28.1794C156.179 24.7666 158.946 22 162.359 22H280C283.413 22 286.179 24.7666 286.179 28.1794V39.8206C286.179 43.2334 283.413 46 280 46H162.359C158.946 46 156.179 43.2334 156.179 39.8206V28.1794Z" fill="#6763DF"/>
<path d="M156.566 28.1794C156.566 24.9799 159.159 22.3862 162.359 22.3862H280C283.2 22.3862 285.793 24.9799 285.793 28.1794V39.8206C285.793 43.0201 283.2 45.6138 280 45.6138H162.359C159.159 45.6138 156.566 43.0201 156.566 39.8206V28.1794Z" stroke="#D0D5DD" stroke-width="0.772422"/>
<path d="M193.748 37.081C192.932 37.081 192.281 36.895 191.795 36.523C191.315 36.145 191.033 35.614 190.949 34.93H192.074C192.128 35.326 192.305 35.635 192.605 35.857C192.905 36.073 193.298 36.181 193.784 36.181C194.186 36.181 194.492 36.109 194.702 35.965C194.918 35.815 195.026 35.608 195.026 35.344C195.026 35.11 194.96 34.921 194.828 34.777C194.696 34.633 194.474 34.516 194.162 34.426L192.992 34.075C192.398 33.895 191.96 33.658 191.678 33.364C191.402 33.07 191.264 32.701 191.264 32.257C191.264 31.885 191.36 31.561 191.552 31.285C191.744 31.009 192.014 30.796 192.362 30.646C192.716 30.496 193.127 30.421 193.595 30.421C194.315 30.421 194.888 30.598 195.314 30.952C195.746 31.3 195.992 31.774 196.052 32.374H194.927C194.861 32.014 194.711 31.75 194.477 31.582C194.243 31.408 193.928 31.321 193.532 31.321C193.184 31.321 192.908 31.39 192.704 31.528C192.5 31.666 192.398 31.855 192.398 32.095C192.398 32.293 192.458 32.461 192.578 32.599C192.704 32.737 192.935 32.857 193.271 32.959L194.459 33.319C195.053 33.493 195.485 33.73 195.755 34.03C196.025 34.33 196.16 34.711 196.16 35.173C196.16 35.785 195.947 36.256 195.521 36.586C195.101 36.916 194.51 37.081 193.748 37.081ZM198.984 37.09C198.522 37.09 198.114 36.988 197.76 36.784C197.412 36.58 197.136 36.298 196.932 35.938C196.734 35.572 196.635 35.158 196.635 34.696C196.635 34.234 196.734 33.826 196.932 33.472C197.136 33.112 197.412 32.83 197.76 32.626C198.114 32.422 198.522 32.32 198.984 32.32C199.362 32.32 199.704 32.392 200.01 32.536C200.316 32.674 200.568 32.872 200.766 33.13C200.964 33.382 201.09 33.676 201.144 34.012H200.055C199.989 33.766 199.863 33.574 199.677 33.436C199.491 33.298 199.266 33.229 199.002 33.229C198.756 33.229 198.543 33.289 198.363 33.409C198.189 33.529 198.054 33.7 197.958 33.922C197.862 34.144 197.814 34.402 197.814 34.696C197.814 34.996 197.862 35.257 197.958 35.479C198.054 35.701 198.192 35.875 198.372 36.001C198.552 36.121 198.762 36.181 199.002 36.181C199.266 36.181 199.491 36.112 199.677 35.974C199.863 35.836 199.989 35.644 200.055 35.398H201.144C201.09 35.734 200.961 36.031 200.757 36.289C200.559 36.541 200.307 36.739 200.001 36.883C199.701 37.021 199.362 37.09 198.984 37.09ZM201.961 37V30.52H203.095V37H201.961ZM205.183 37V34.102C205.183 33.82 205.111 33.607 204.967 33.463C204.823 33.319 204.613 33.247 204.337 33.247C204.097 33.247 203.881 33.301 203.689 33.409C203.503 33.517 203.356 33.667 203.248 33.859C203.146 34.051 203.095 34.273 203.095 34.525L202.978 33.427C203.134 33.091 203.362 32.824 203.662 32.626C203.962 32.422 204.322 32.32 204.742 32.32C205.24 32.32 205.627 32.461 205.903 32.743C206.185 33.025 206.326 33.4 206.326 33.868V37H205.183ZM209.533 37.09C209.047 37.09 208.621 36.988 208.255 36.784C207.895 36.58 207.613 36.298 207.409 35.938C207.211 35.578 207.112 35.164 207.112 34.696C207.112 34.228 207.211 33.817 207.409 33.463C207.613 33.103 207.895 32.824 208.255 32.626C208.615 32.422 209.035 32.32 209.515 32.32C209.971 32.32 210.367 32.416 210.703 32.608C211.039 32.794 211.3 33.058 211.486 33.4C211.672 33.742 211.765 34.141 211.765 34.597C211.765 34.681 211.762 34.759 211.756 34.831C211.75 34.903 211.741 34.975 211.729 35.047H207.814V34.255H210.856L210.622 34.471C210.622 34.039 210.523 33.715 210.325 33.499C210.127 33.283 209.851 33.175 209.497 33.175C209.113 33.175 208.807 33.307 208.579 33.571C208.357 33.835 208.246 34.216 208.246 34.714C208.246 35.206 208.357 35.584 208.579 35.848C208.807 36.106 209.128 36.235 209.542 36.235C209.782 36.235 209.992 36.19 210.172 36.1C210.352 36.01 210.484 35.872 210.568 35.686H211.639C211.489 36.118 211.234 36.46 210.874 36.712C210.52 36.964 210.073 37.09 209.533 37.09ZM215.933 37V35.965L216.023 35.983C215.945 36.319 215.756 36.589 215.456 36.793C215.156 36.991 214.799 37.09 214.385 37.09C213.965 37.09 213.599 36.994 213.287 36.802C212.981 36.604 212.744 36.328 212.576 35.974C212.408 35.62 212.324 35.203 212.324 34.723C212.324 34.237 212.411 33.814 212.585 33.454C212.759 33.094 213.002 32.815 213.314 32.617C213.632 32.419 214.001 32.32 214.421 32.32C214.853 32.32 215.21 32.425 215.492 32.635C215.774 32.839 215.948 33.124 216.014 33.49L215.897 33.499V30.52H217.04V37H215.933ZM214.718 36.163C215.084 36.163 215.375 36.037 215.591 35.785C215.813 35.527 215.924 35.167 215.924 34.705C215.924 34.243 215.813 33.886 215.591 33.634C215.369 33.382 215.075 33.256 214.709 33.256C214.349 33.256 214.058 33.385 213.836 33.643C213.614 33.895 213.503 34.252 213.503 34.714C213.503 35.176 213.614 35.533 213.836 35.785C214.058 36.037 214.352 36.163 214.718 36.163ZM219.732 37.09C219.414 37.09 219.138 37.024 218.904 36.892C218.676 36.754 218.499 36.568 218.373 36.334C218.253 36.1 218.193 35.836 218.193 35.542V32.41H219.327V35.308C219.327 35.59 219.396 35.803 219.534 35.947C219.678 36.091 219.879 36.163 220.137 36.163C220.371 36.163 220.575 36.109 220.749 36.001C220.929 35.893 221.07 35.743 221.172 35.551C221.28 35.353 221.334 35.131 221.334 34.885L221.451 35.983C221.301 36.319 221.076 36.589 220.776 36.793C220.482 36.991 220.134 37.09 219.732 37.09ZM221.37 37V35.92H221.334V32.41H222.477V37H221.37ZM223.679 37V30.52H224.813V37H223.679ZM228.078 37.09C227.592 37.09 227.166 36.988 226.8 36.784C226.44 36.58 226.158 36.298 225.954 35.938C225.756 35.578 225.657 35.164 225.657 34.696C225.657 34.228 225.756 33.817 225.954 33.463C226.158 33.103 226.44 32.824 226.8 32.626C227.16 32.422 227.58 32.32 228.06 32.32C228.516 32.32 228.912 32.416 229.248 32.608C229.584 32.794 229.845 33.058 230.031 33.4C230.217 33.742 230.31 34.141 230.31 34.597C230.31 34.681 230.307 34.759 230.301 34.831C230.295 34.903 230.286 34.975 230.274 35.047H226.359V34.255H229.401L229.167 34.471C229.167 34.039 229.068 33.715 228.87 33.499C228.672 33.283 228.396 33.175 228.042 33.175C227.658 33.175 227.352 33.307 227.124 33.571C226.902 33.835 226.791 34.216 226.791 34.714C226.791 35.206 226.902 35.584 227.124 35.848C227.352 36.106 227.673 36.235 228.087 36.235C228.327 36.235 228.537 36.19 228.717 36.1C228.897 36.01 229.029 35.872 229.113 35.686H230.184C230.034 36.118 229.779 36.46 229.419 36.712C229.065 36.964 228.618 37.09 228.078 37.09ZM232.854 37V30.52H235.761C236.235 30.52 236.64 30.601 236.976 30.763C237.318 30.925 237.579 31.153 237.759 31.447C237.945 31.741 238.038 32.089 238.038 32.491C238.038 32.887 237.945 33.235 237.759 33.535C237.573 33.835 237.312 34.069 236.976 34.237C236.64 34.399 236.235 34.48 235.761 34.48H233.763V33.562H235.707C236.079 33.562 236.364 33.466 236.562 33.274C236.766 33.082 236.868 32.821 236.868 32.491C236.868 32.167 236.766 31.912 236.562 31.726C236.364 31.54 236.079 31.447 235.707 31.447H234.024V37H232.854ZM240.743 37.09C240.257 37.09 239.828 36.988 239.456 36.784C239.09 36.58 238.805 36.298 238.601 35.938C238.397 35.572 238.295 35.155 238.295 34.687C238.295 34.219 238.397 33.808 238.601 33.454C238.805 33.1 239.09 32.824 239.456 32.626C239.828 32.422 240.257 32.32 240.743 32.32C241.235 32.32 241.664 32.422 242.03 32.626C242.396 32.824 242.681 33.1 242.885 33.454C243.089 33.808 243.191 34.219 243.191 34.687C243.191 35.155 243.086 35.572 242.876 35.938C242.672 36.298 242.387 36.58 242.021 36.784C241.655 36.988 241.229 37.09 240.743 37.09ZM240.743 36.181C240.983 36.181 241.199 36.121 241.391 36.001C241.583 35.875 241.733 35.701 241.841 35.479C241.949 35.251 242.003 34.984 242.003 34.678C242.003 34.228 241.883 33.874 241.643 33.616C241.409 33.358 241.109 33.229 240.743 33.229C240.377 33.229 240.074 33.358 239.834 33.616C239.594 33.874 239.474 34.228 239.474 34.678C239.474 34.984 239.528 35.251 239.636 35.479C239.75 35.701 239.9 35.875 240.086 36.001C240.278 36.121 240.497 36.181 240.743 36.181ZM245.798 37.09C245.162 37.09 244.655 36.958 244.277 36.694C243.899 36.424 243.692 36.052 243.656 35.578H244.691C244.721 35.812 244.832 35.989 245.024 36.109C245.216 36.229 245.474 36.289 245.798 36.289C246.092 36.289 246.311 36.244 246.455 36.154C246.605 36.058 246.68 35.923 246.68 35.749C246.68 35.623 246.638 35.521 246.554 35.443C246.47 35.359 246.311 35.29 246.077 35.236L245.339 35.065C244.835 34.957 244.46 34.789 244.214 34.561C243.974 34.327 243.854 34.036 243.854 33.688C243.854 33.262 244.016 32.929 244.34 32.689C244.67 32.443 245.123 32.32 245.699 32.32C246.269 32.32 246.725 32.443 247.067 32.689C247.415 32.929 247.607 33.262 247.643 33.688H246.608C246.578 33.502 246.482 33.361 246.32 33.265C246.164 33.169 245.948 33.121 245.672 33.121C245.414 33.121 245.219 33.163 245.087 33.247C244.955 33.325 244.889 33.442 244.889 33.598C244.889 33.718 244.94 33.82 245.042 33.904C245.144 33.982 245.315 34.051 245.555 34.111L246.347 34.291C246.797 34.393 247.136 34.57 247.364 34.822C247.598 35.074 247.715 35.371 247.715 35.713C247.715 36.151 247.547 36.49 247.211 36.73C246.875 36.97 246.404 37.09 245.798 37.09ZM250.543 37.09C249.979 37.09 249.562 36.958 249.292 36.694C249.028 36.424 248.896 36.022 248.896 35.488V31.366L250.039 30.943V35.515C250.039 35.737 250.099 35.902 250.219 36.01C250.339 36.118 250.528 36.172 250.786 36.172C250.888 36.172 250.978 36.166 251.056 36.154C251.14 36.136 251.218 36.115 251.29 36.091V36.973C251.218 37.009 251.116 37.036 250.984 37.054C250.852 37.078 250.705 37.09 250.543 37.09ZM248.014 33.301V32.41H251.29V33.301H248.014Z" fill="white"/>
</g>
<g filter="url(#filter2_d_2480_93653)">
<rect x="29.5" y="61.5" width="251" height="110" rx="7.94094" fill="url(#paint0_linear_2480_93653)"/>
<rect x="29.5" y="61.5" width="251" height="110" rx="7.94094" stroke="#E1EBFA"/>
<path opacity="0.8" d="M38.6795 77V72.3248H36.8848V71.6822H41.2572V72.3248H39.4624V77H38.6795ZM42.1084 77V71.6822H42.8765V77H42.1084ZM44.7821 77V74.5774C44.7821 74.3165 44.7156 74.122 44.5827 73.994C44.4546 73.8659 44.2626 73.8019 44.0066 73.8019C43.785 73.8019 43.588 73.8512 43.4157 73.9497C43.2483 74.0481 43.1153 74.1835 43.0169 74.3559C42.9233 74.5282 42.8765 74.7326 42.8765 74.9689L42.7805 74.0678C42.9036 73.7872 43.0932 73.5656 43.3492 73.4031C43.6053 73.2406 43.9032 73.1594 44.2429 73.1594C44.6467 73.1594 44.9643 73.2726 45.1957 73.4991C45.4271 73.7256 45.5428 74.026 45.5428 74.4002V77H44.7821ZM48.2863 77.0739C47.9071 77.0739 47.5723 76.9902 47.2818 76.8227C46.9962 76.6553 46.7722 76.4239 46.6097 76.1285C46.4472 75.833 46.3659 75.4933 46.3659 75.1092C46.3659 74.7202 46.4447 74.3805 46.6023 74.09C46.7648 73.7946 46.9913 73.5656 47.2818 73.4031C47.5723 73.2406 47.9046 73.1594 48.2789 73.1594C48.6432 73.1594 48.9584 73.2382 49.2243 73.3957C49.4951 73.5484 49.7019 73.7625 49.8447 74.0383C49.9924 74.314 50.0662 74.6415 50.0662 75.0206C50.0662 75.0797 50.0638 75.1363 50.0588 75.1905C50.0588 75.2397 50.0539 75.2914 50.0441 75.3456H46.8829V74.7695H49.5049L49.3129 74.9984C49.3129 74.5947 49.2218 74.2869 49.0396 74.0752C48.8574 73.8635 48.6038 73.7576 48.2789 73.7576C47.9293 73.7576 47.6511 73.8783 47.4443 74.1195C47.2424 74.3559 47.1414 74.6858 47.1414 75.1092C47.1414 75.5376 47.2424 75.8724 47.4443 76.1137C47.6511 76.355 47.9367 76.4756 48.301 76.4756C48.5226 76.4756 48.7146 76.4313 48.8771 76.3427C49.0396 76.2491 49.1602 76.1137 49.239 75.9364H49.9628C49.8397 76.291 49.6305 76.5692 49.335 76.771C49.0445 76.9729 48.6949 77.0739 48.2863 77.0739ZM53.0401 77V76.3944H54.6281C54.9284 76.3944 55.1623 76.3131 55.3297 76.1506C55.5021 75.9881 55.5882 75.7666 55.5882 75.4859C55.5882 75.1905 55.4971 74.9541 55.315 74.7769C55.1377 74.5996 54.894 74.511 54.5838 74.511H53.0401V73.9201H54.5099C54.8103 73.9201 55.0417 73.8487 55.2042 73.7059C55.3716 73.5582 55.4553 73.3489 55.4553 73.0781C55.4553 72.8221 55.3765 72.6276 55.2189 72.4946C55.0663 72.3568 54.8398 72.2878 54.5394 72.2878H53.0401V71.6822H54.6576C55.1402 71.6822 55.5242 71.8004 55.8098 72.0367C56.0954 72.2681 56.2382 72.5857 56.2382 72.9895C56.2382 73.2455 56.1791 73.472 56.0609 73.669C55.9477 73.861 55.7901 74.0112 55.5882 74.1195C55.3864 74.2229 55.1574 74.2746 54.9014 74.2746L54.9383 74.1195C55.214 74.1195 55.4602 74.1835 55.6769 74.3116C55.8935 74.4347 56.0659 74.6045 56.1939 74.8212C56.3219 75.0378 56.3859 75.289 56.3859 75.5745C56.3859 75.8552 56.317 76.1039 56.1791 76.3205C56.0462 76.5372 55.8566 76.7046 55.6104 76.8227C55.3642 76.9409 55.0786 77 54.7536 77H53.0401ZM52.464 77V71.6822H53.2469V77H52.464ZM58.8797 77.0739C58.5006 77.0739 58.1658 76.9902 57.8752 76.8227C57.5897 76.6553 57.3656 76.4239 57.2031 76.1285C57.0406 75.833 56.9594 75.4933 56.9594 75.1092C56.9594 74.7202 57.0382 74.3805 57.1957 74.09C57.3582 73.7946 57.5847 73.5656 57.8752 73.4031C58.1658 73.2406 58.4981 73.1594 58.8723 73.1594C59.2367 73.1594 59.5518 73.2382 59.8177 73.3957C60.0885 73.5484 60.2953 73.7625 60.4381 74.0383C60.5858 74.314 60.6597 74.6415 60.6597 75.0206C60.6597 75.0797 60.6572 75.1363 60.6523 75.1905C60.6523 75.2397 60.6474 75.2914 60.6375 75.3456H57.4764V74.7695H60.0984L59.9063 74.9984C59.9063 74.5947 59.8153 74.2869 59.6331 74.0752C59.4509 73.8635 59.1973 73.7576 58.8723 73.7576C58.5227 73.7576 58.2445 73.8783 58.0377 74.1195C57.8359 74.3559 57.7349 74.6858 57.7349 75.1092C57.7349 75.5376 57.8359 75.8724 58.0377 76.1137C58.2445 76.355 58.5301 76.4756 58.8945 76.4756C59.1161 76.4756 59.3081 76.4313 59.4706 76.3427C59.6331 76.2491 59.7537 76.1137 59.8325 75.9364H60.5563C60.4332 76.291 60.2239 76.5692 59.9285 76.771C59.638 76.9729 59.2884 77.0739 58.8797 77.0739ZM61.5193 77V73.2332H62.2505V74.1195H62.2874V77H61.5193ZM64.193 77V74.5774C64.193 74.3165 64.1265 74.122 63.9935 73.994C63.8655 73.8659 63.6735 73.8019 63.4174 73.8019C63.1959 73.8019 62.9989 73.8512 62.8266 73.9497C62.6592 74.0481 62.5262 74.1835 62.4277 74.3559C62.3342 74.5282 62.2874 74.7326 62.2874 74.9689L62.1914 74.0678C62.3145 73.7872 62.5041 73.5656 62.7601 73.4031C63.0161 73.2406 63.314 73.1594 63.6538 73.1594C64.0575 73.1594 64.3751 73.2726 64.6066 73.4991C64.838 73.7256 64.9537 74.026 64.9537 74.4002V77H64.193ZM67.6971 77.0739C67.318 77.0739 66.9832 76.9902 66.6927 76.8227C66.4071 76.6553 66.183 76.4239 66.0205 76.1285C65.8581 75.833 65.7768 75.4933 65.7768 75.1092C65.7768 74.7202 65.8556 74.3805 66.0132 74.09C66.1756 73.7946 66.4021 73.5656 66.6927 73.4031C66.9832 73.2406 67.3155 73.1594 67.6897 73.1594C68.0541 73.1594 68.3692 73.2382 68.6351 73.3957C68.9059 73.5484 69.1127 73.7625 69.2555 74.0383C69.4033 74.314 69.4771 74.6415 69.4771 75.0206C69.4771 75.0797 69.4746 75.1363 69.4697 75.1905C69.4697 75.2397 69.4648 75.2914 69.455 75.3456H66.2938V74.7695H68.9158L68.7238 74.9984C68.7238 74.5947 68.6327 74.2869 68.4505 74.0752C68.2683 73.8635 68.0147 73.7576 67.6897 73.7576C67.3401 73.7576 67.0619 73.8783 66.8551 74.1195C66.6533 74.3559 66.5523 74.6858 66.5523 75.1092C66.5523 75.5376 66.6533 75.8724 66.8551 76.1137C67.0619 76.355 67.3475 76.4756 67.7119 76.4756C67.9335 76.4756 68.1255 76.4313 68.288 76.3427C68.4505 76.2491 68.5711 76.1137 68.6499 75.9364H69.3737C69.2506 76.291 69.0413 76.5692 68.7459 76.771C68.4554 76.9729 68.1058 77.0739 67.6971 77.0739ZM70.589 77V72.7975C70.589 72.4134 70.6973 72.1204 70.914 71.9186C71.1306 71.7117 71.4556 71.6083 71.8889 71.6083C71.9874 71.6083 72.0686 71.6133 72.1327 71.6231C72.1967 71.633 72.2533 71.6477 72.3025 71.6674V72.2805C72.2681 72.2706 72.2213 72.2608 72.1622 72.2509C72.108 72.2411 72.0465 72.2361 71.9776 72.2361C71.7609 72.2361 71.6033 72.2903 71.5049 72.3986C71.4064 72.502 71.3571 72.6497 71.3571 72.8418V77H70.589ZM72.9894 77V73.2332H73.7502V77H72.9894ZM69.8652 73.8758V73.2332H73.2996V73.8758H69.8652ZM72.9599 72.5242V71.6822H73.7797V72.5242H72.9599ZM76.377 77.0739C75.9387 77.0739 75.6162 76.9729 75.4094 76.771C75.2075 76.5642 75.1066 76.2614 75.1066 75.8626V72.3691L75.8673 72.081V75.87C75.8673 76.0669 75.919 76.2122 76.0225 76.3057C76.1259 76.3993 76.2933 76.4461 76.5247 76.4461C76.6133 76.4461 76.6921 76.4387 76.761 76.4239C76.83 76.4091 76.8891 76.3919 76.9383 76.3722V76.9926C76.8841 77.0172 76.8078 77.0369 76.7093 77.0517C76.6109 77.0665 76.5001 77.0739 76.377 77.0739ZM74.3533 73.8463V73.2332H76.9383V73.8463H74.3533ZM79.0778 77.0739C78.5854 77.0739 78.1939 76.9655 77.9034 76.7489C77.6129 76.5322 77.448 76.227 77.4086 75.833H78.1176C78.1521 76.0497 78.2505 76.2171 78.413 76.3353C78.5804 76.4485 78.8069 76.5051 79.0925 76.5051C79.3437 76.5051 79.5357 76.4608 79.6686 76.3722C79.8016 76.2836 79.868 76.158 79.868 75.9955C79.868 75.8774 79.8287 75.7789 79.7499 75.7001C79.676 75.6164 79.5283 75.5475 79.3067 75.4933L78.7011 75.353C78.3219 75.2594 78.0388 75.1215 77.8517 74.9394C77.6695 74.7522 77.5784 74.5233 77.5784 74.2525C77.5784 73.9127 77.704 73.6468 77.9551 73.4548C78.2112 73.2578 78.5608 73.1594 79.0039 73.1594C79.4421 73.1594 79.7942 73.2578 80.0601 73.4548C80.3309 73.6518 80.4835 73.9275 80.518 74.282H79.809C79.7794 74.1048 79.6932 73.9693 79.5505 73.8758C79.4126 73.7773 79.223 73.7281 78.9817 73.7281C78.7552 73.7281 78.5804 73.7699 78.4574 73.8536C78.3392 73.9324 78.2801 74.0432 78.2801 74.186C78.2801 74.3042 78.3244 74.4027 78.413 74.4814C78.5066 74.5602 78.6592 74.6267 78.871 74.6809L79.4914 74.836C79.8508 74.9246 80.1216 75.0698 80.3038 75.2717C80.486 75.4687 80.5771 75.7075 80.5771 75.9881C80.5771 76.3279 80.4441 76.5938 80.1782 76.7858C79.9173 76.9778 79.5505 77.0739 79.0778 77.0739ZM84.5334 77.0739C84.1493 77.0739 83.8121 76.9902 83.5215 76.8227C83.231 76.6504 83.0045 76.4165 82.8421 76.1211C82.6796 75.8207 82.5983 75.481 82.5983 75.1018C82.5983 74.7178 82.6796 74.3805 82.8421 74.09C83.0095 73.7995 83.236 73.573 83.5215 73.4105C83.8121 73.2431 84.1493 73.1594 84.5334 73.1594C84.9224 73.1594 85.2621 73.2431 85.5527 73.4105C85.8432 73.573 86.0672 73.7995 86.2248 74.09C86.3872 74.3805 86.4685 74.7178 86.4685 75.1018C86.4685 75.481 86.3872 75.8207 86.2248 76.1211C86.0672 76.4165 85.8432 76.6504 85.5527 76.8227C85.2621 76.9902 84.9224 77.0739 84.5334 77.0739ZM84.5334 76.4461C84.7648 76.4461 84.9642 76.3894 85.1317 76.2762C85.304 76.1629 85.4394 76.0054 85.5379 75.8035C85.6364 75.6016 85.6856 75.3653 85.6856 75.0945C85.6856 74.6907 85.5773 74.3731 85.3606 74.1417C85.1489 73.9053 84.8732 73.7872 84.5334 73.7872C84.1986 73.7872 83.9228 73.9053 83.7062 74.1417C83.4945 74.378 83.3886 74.6956 83.3886 75.0945C83.3886 75.3653 83.4354 75.6016 83.5289 75.8035C83.6274 76.0054 83.7628 76.1629 83.9352 76.2762C84.1124 76.3894 84.3118 76.4461 84.5334 76.4461ZM87.5836 77V72.7975C87.5836 72.4134 87.692 72.1204 87.9086 71.9186C88.1253 71.7117 88.4502 71.6083 88.8835 71.6083C88.982 71.6083 89.0633 71.6133 89.1273 71.6231C89.1913 71.633 89.2479 71.6477 89.2971 71.6674V72.2583C89.2627 72.2485 89.2159 72.2386 89.1568 72.2288C89.1027 72.2189 89.0411 72.214 88.9722 72.214C88.7555 72.214 88.598 72.2681 88.4995 72.3765C88.401 72.4799 88.3518 72.6276 88.3518 72.8196V77H87.5836ZM86.8598 73.8463V73.2332H89.2159V73.8463H86.8598ZM91.2586 77L93.2602 71.6822H93.9397L92.0267 77H91.2586ZM95.3725 77L93.4596 71.6822H94.176L96.185 77H95.3725ZM92.2705 74.8803H95.1214V75.5302H92.2705V74.8803ZM98.0184 77.0739C97.7673 77.0739 97.5457 77.0222 97.3537 76.9188C97.1617 76.8104 97.0115 76.6627 96.9032 76.4756C96.7998 76.2885 96.7481 76.0743 96.7481 75.833V73.2332H97.5162V75.6558C97.5162 75.9167 97.5802 76.1112 97.7082 76.2393C97.8362 76.3673 98.0184 76.4313 98.2548 76.4313C98.4665 76.4313 98.6536 76.3821 98.8161 76.2836C98.9835 76.1851 99.114 76.0497 99.2075 75.8774C99.306 75.7001 99.3553 75.4958 99.3553 75.2643L99.4513 76.1654C99.3282 76.4411 99.1386 76.6627 98.8826 76.8301C98.6314 76.9926 98.3434 77.0739 98.0184 77.0739ZM99.3848 77V76.1137H99.3553V73.2332H100.116V77H99.3848ZM102.833 77.0739C102.394 77.0739 102.072 76.9729 101.865 76.771C101.663 76.5642 101.562 76.2614 101.562 75.8626V72.3691L102.323 72.081V75.87C102.323 76.0669 102.375 76.2122 102.478 76.3057C102.582 76.3993 102.749 76.4461 102.98 76.4461C103.069 76.4461 103.148 76.4387 103.217 76.4239C103.286 76.4091 103.345 76.3919 103.394 76.3722V76.9926C103.34 77.0172 103.263 77.0369 103.165 77.0517C103.067 77.0665 102.956 77.0739 102.833 77.0739ZM100.809 73.8463V73.2332H103.394V73.8463H100.809ZM105.735 77.0739C105.351 77.0739 105.013 76.9902 104.723 76.8227C104.432 76.6504 104.206 76.4165 104.043 76.1211C103.881 75.8207 103.8 75.481 103.8 75.1018C103.8 74.7178 103.881 74.3805 104.043 74.09C104.211 73.7995 104.437 73.573 104.723 73.4105C105.013 73.2431 105.351 73.1594 105.735 73.1594C106.124 73.1594 106.464 73.2431 106.754 73.4105C107.045 73.573 107.269 73.7995 107.426 74.09C107.589 74.3805 107.67 74.7178 107.67 75.1018C107.67 75.481 107.589 75.8207 107.426 76.1211C107.269 76.4165 107.045 76.6504 106.754 76.8227C106.464 76.9902 106.124 77.0739 105.735 77.0739ZM105.735 76.4461C105.966 76.4461 106.166 76.3894 106.333 76.2762C106.505 76.1629 106.641 76.0054 106.739 75.8035C106.838 75.6016 106.887 75.3653 106.887 75.0945C106.887 74.6907 106.779 74.3731 106.562 74.1417C106.35 73.9053 106.075 73.7872 105.735 73.7872C105.4 73.7872 105.124 73.9053 104.908 74.1417C104.696 74.378 104.59 74.6956 104.59 75.0945C104.59 75.3653 104.637 75.6016 104.73 75.8035C104.829 76.0054 104.964 76.1629 105.137 76.2762C105.314 76.3894 105.513 76.4461 105.735 76.4461ZM108.533 77V73.2332H109.264V74.1195H109.301V77H108.533ZM111.073 77V74.5405C111.073 74.2845 111.014 74.0974 110.896 73.9792C110.778 73.861 110.608 73.8019 110.387 73.8019C110.18 73.8019 109.993 73.8512 109.825 73.9497C109.663 74.0432 109.535 74.1762 109.441 74.3485C109.348 74.5159 109.301 74.7153 109.301 74.9467L109.205 74.0678C109.328 73.7872 109.513 73.5656 109.759 73.4031C110.01 73.2406 110.29 73.1594 110.601 73.1594C110.975 73.1594 111.273 73.2677 111.494 73.4843C111.721 73.701 111.834 73.9866 111.834 74.3411V77H111.073ZM113.614 77V74.5405C113.614 74.2845 113.553 74.0974 113.429 73.9792C113.311 73.861 113.141 73.8019 112.92 73.8019C112.718 73.8019 112.533 73.8512 112.366 73.9497C112.203 74.0432 112.073 74.1762 111.974 74.3485C111.881 74.5159 111.834 74.7153 111.834 74.9467L111.679 74.0678C111.807 73.7872 111.999 73.5656 112.255 73.4031C112.516 73.2406 112.807 73.1594 113.127 73.1594C113.506 73.1594 113.809 73.2702 114.035 73.4917C114.262 73.7084 114.375 73.9989 114.375 74.3633V77H113.614ZM117.771 77C117.746 76.9064 117.729 76.803 117.719 76.6898C117.714 76.5765 117.712 76.4387 117.712 76.2762H117.675V74.4814C117.675 74.2402 117.613 74.0604 117.49 73.9423C117.372 73.8192 117.182 73.7576 116.922 73.7576C116.67 73.7576 116.469 73.8069 116.316 73.9053C116.168 74.0038 116.082 74.1441 116.057 74.3263H115.326C115.361 73.9718 115.521 73.6887 115.806 73.477C116.092 73.2652 116.473 73.1594 116.951 73.1594C117.443 73.1594 117.813 73.2751 118.059 73.5065C118.305 73.733 118.428 74.0678 118.428 74.511V76.2762C118.428 76.3894 118.436 76.5051 118.45 76.6233C118.465 76.7415 118.487 76.8671 118.517 77H117.771ZM116.471 77.0739C116.087 77.0739 115.782 76.9803 115.555 76.7932C115.329 76.6012 115.215 76.3427 115.215 76.0177C115.215 75.6829 115.334 75.4194 115.57 75.2274C115.811 75.0304 116.156 74.8975 116.604 74.8286L117.845 74.6291V75.1683L116.722 75.3456C116.471 75.385 116.281 75.4514 116.153 75.545C116.03 75.6385 115.969 75.774 115.969 75.9512C115.969 76.1235 116.025 76.254 116.139 76.3427C116.257 76.4264 116.427 76.4682 116.648 76.4682C116.944 76.4682 117.187 76.3968 117.379 76.254C117.576 76.1112 117.675 75.9315 117.675 75.7149L117.771 76.2614C117.682 76.5224 117.525 76.7243 117.298 76.8671C117.072 77.0049 116.796 77.0739 116.471 77.0739ZM120.994 77.0739C120.556 77.0739 120.233 76.9729 120.026 76.771C119.825 76.5642 119.724 76.2614 119.724 75.8626V72.3691L120.484 72.081V75.87C120.484 76.0669 120.536 76.2122 120.639 76.3057C120.743 76.3993 120.91 76.4461 121.142 76.4461C121.23 76.4461 121.309 76.4387 121.378 76.4239C121.447 76.4091 121.506 76.3919 121.555 76.3722V76.9926C121.501 77.0172 121.425 77.0369 121.326 77.0517C121.228 77.0665 121.117 77.0739 120.994 77.0739ZM118.97 73.8463V73.2332H121.555V73.8463H118.97ZM123.889 77.0739C123.509 77.0739 123.175 76.9902 122.884 76.8227C122.598 76.6553 122.374 76.4239 122.212 76.1285C122.049 75.833 121.968 75.4933 121.968 75.1092C121.968 74.7202 122.047 74.3805 122.205 74.09C122.367 73.7946 122.594 73.5656 122.884 73.4031C123.175 73.2406 123.507 73.1594 123.881 73.1594C124.246 73.1594 124.561 73.2382 124.827 73.3957C125.097 73.5484 125.304 73.7625 125.447 74.0383C125.595 74.314 125.669 74.6415 125.669 75.0206C125.669 75.0797 125.666 75.1363 125.661 75.1905C125.661 75.2397 125.656 75.2914 125.646 75.3456H122.485V74.7695H125.107L124.915 74.9984C124.915 74.5947 124.824 74.2869 124.642 74.0752C124.46 73.8635 124.206 73.7576 123.881 73.7576C123.532 73.7576 123.253 73.8783 123.047 74.1195C122.845 74.3559 122.744 74.6858 122.744 75.1092C122.744 75.5376 122.845 75.8724 123.047 76.1137C123.253 76.355 123.539 76.4756 123.903 76.4756C124.125 76.4756 124.317 76.4313 124.479 76.3427C124.642 76.2491 124.763 76.1137 124.841 75.9364H125.565C125.442 76.291 125.233 76.5692 124.937 76.771C124.647 76.9729 124.297 77.0739 123.889 77.0739ZM129.268 77V76.1359L129.342 76.158C129.263 76.4387 129.1 76.6627 128.854 76.8301C128.608 76.9926 128.313 77.0739 127.968 77.0739C127.628 77.0739 127.33 76.9926 127.074 76.8301C126.823 76.6676 126.626 76.4411 126.483 76.1506C126.345 75.8601 126.276 75.5204 126.276 75.1314C126.276 74.7375 126.348 74.3928 126.491 74.0974C126.633 73.8019 126.833 73.573 127.089 73.4105C127.345 73.248 127.645 73.1668 127.99 73.1668C128.349 73.1668 128.645 73.2529 128.876 73.4253C129.113 73.5927 129.268 73.829 129.342 74.1343L129.238 74.1491V71.6822H129.999V77H129.268ZM128.16 76.4313C128.5 76.4313 128.768 76.3156 128.965 76.0842C129.162 75.8478 129.26 75.5228 129.26 75.1092C129.26 74.7055 129.159 74.3879 128.958 74.1565C128.761 73.9201 128.492 73.8019 128.152 73.8019C127.818 73.8019 127.552 73.9201 127.355 74.1565C127.163 74.3879 127.067 74.7129 127.067 75.1314C127.067 75.5401 127.163 75.8601 127.355 76.0915C127.552 76.318 127.82 76.4313 128.16 76.4313ZM134.619 77.0665C133.979 77.0665 133.467 76.9138 133.083 76.6086C132.699 76.3033 132.475 75.8675 132.411 75.3013H133.171C133.216 75.6706 133.364 75.9512 133.615 76.1432C133.866 76.3353 134.206 76.4313 134.634 76.4313C134.993 76.4313 135.264 76.3648 135.446 76.2319C135.633 76.0989 135.727 75.9094 135.727 75.6632C135.727 75.4416 135.665 75.2668 135.542 75.1388C135.419 75.0058 135.225 74.8975 134.959 74.8138L134.036 74.5184C133.563 74.3657 133.216 74.1737 132.994 73.9423C132.773 73.7108 132.662 73.4179 132.662 73.0634C132.662 72.763 132.736 72.5045 132.883 72.2878C133.036 72.0712 133.248 71.9038 133.519 71.7856C133.794 71.6625 134.114 71.601 134.479 71.601C135.04 71.601 135.488 71.7438 135.823 72.0293C136.163 72.31 136.357 72.7014 136.406 73.2037H135.646C135.587 72.8689 135.459 72.6251 135.262 72.4725C135.065 72.3149 134.794 72.2361 134.449 72.2361C134.124 72.2361 133.871 72.3002 133.689 72.4282C133.506 72.5562 133.415 72.7359 133.415 72.9673C133.415 73.1544 133.474 73.312 133.592 73.44C133.716 73.5631 133.917 73.669 134.198 73.7576L135.166 74.0678C135.614 74.2106 135.944 74.4051 136.155 74.6513C136.372 74.8975 136.48 75.2077 136.48 75.5819C136.48 76.0546 136.318 76.4214 135.993 76.6824C135.668 76.9385 135.21 77.0665 134.619 77.0665ZM137.367 77V71.6822H138.15V77H137.367ZM137.751 77V76.3574H141.06V77H137.751ZM137.751 74.5701V73.9275H140.794V74.5701H137.751ZM137.751 72.3248V71.6822H140.993V72.3248H137.751ZM144.226 77.0739C143.847 77.0739 143.5 77.0074 143.184 76.8744C142.869 76.7366 142.596 76.5445 142.365 76.2983C142.133 76.0522 141.951 75.7616 141.818 75.4268C141.69 75.092 141.626 74.7227 141.626 74.3189C141.626 73.7872 141.737 73.3169 141.958 72.9083C142.18 72.4996 142.485 72.182 142.874 71.9555C143.268 71.7241 143.716 71.6083 144.219 71.6083C144.731 71.6083 145.181 71.7241 145.57 71.9555C145.959 72.182 146.264 72.4996 146.486 72.9083C146.712 73.3169 146.826 73.7896 146.826 74.3263C146.826 74.7252 146.759 75.0945 146.626 75.4342C146.498 75.769 146.319 76.0595 146.087 76.3057C145.856 76.547 145.58 76.7366 145.26 76.8744C144.945 77.0074 144.6 77.0739 144.226 77.0739ZM144.219 76.4091C144.573 76.4091 144.886 76.3205 145.157 76.1432C145.427 75.9611 145.639 75.7124 145.792 75.3973C145.949 75.0821 146.028 74.7202 146.028 74.3116C146.028 73.9078 145.952 73.5533 145.799 73.248C145.646 72.9378 145.435 72.699 145.164 72.5316C144.893 72.3592 144.578 72.2731 144.219 72.2731C143.859 72.2731 143.544 72.3592 143.273 72.5316C143.007 72.699 142.798 72.9353 142.645 73.2406C142.498 73.5459 142.424 73.9029 142.424 74.3116C142.424 74.7252 142.5 75.0895 142.653 75.4047C142.805 75.7198 143.015 75.966 143.281 76.1432C143.551 76.3205 143.864 76.4091 144.219 76.4091ZM148.985 77L150.986 71.6822H151.666L149.753 77H148.985ZM153.099 77L151.186 71.6822H151.902L153.911 77H153.099ZM149.996 74.8803H152.847V75.5302H149.996V74.8803ZM156.773 77.0665C156.418 77.0665 156.123 76.9828 155.886 76.8154C155.655 76.643 155.502 76.4042 155.428 76.0989L155.532 76.0842V78.5141H154.764V73.2332H155.495V74.0974L155.421 74.0752C155.5 73.7896 155.667 73.5656 155.923 73.4031C156.179 73.2406 156.48 73.1594 156.824 73.1594C157.164 73.1594 157.457 73.2406 157.703 73.4031C157.954 73.5656 158.146 73.7921 158.279 74.0826C158.417 74.3731 158.486 74.7129 158.486 75.1018C158.486 75.4958 158.415 75.8404 158.272 76.1359C158.129 76.4313 157.93 76.6603 157.674 76.8227C157.418 76.9852 157.117 77.0665 156.773 77.0665ZM156.61 76.4313C156.945 76.4313 157.211 76.3131 157.408 76.0768C157.605 75.8404 157.703 75.5154 157.703 75.1018C157.703 74.6932 157.605 74.3756 157.408 74.1491C157.211 73.9176 156.942 73.8019 156.603 73.8019C156.268 73.8019 156 73.9201 155.798 74.1565C155.601 74.3879 155.502 74.7104 155.502 75.124C155.502 75.5278 155.601 75.8478 155.798 76.0842C156 76.3156 156.27 76.4313 156.61 76.4313ZM161.376 77.0665C161.021 77.0665 160.726 76.9828 160.49 76.8154C160.258 76.643 160.106 76.4042 160.032 76.0989L160.135 76.0842V78.5141H159.367V73.2332H160.098V74.0974L160.024 74.0752C160.103 73.7896 160.271 73.5656 160.527 73.4031C160.783 73.2406 161.083 73.1594 161.428 73.1594C161.767 73.1594 162.06 73.2406 162.307 73.4031C162.558 73.5656 162.75 73.7921 162.883 74.0826C163.021 74.3731 163.09 74.7129 163.09 75.1018C163.09 75.4958 163.018 75.8404 162.875 76.1359C162.733 76.4313 162.533 76.6603 162.277 76.8227C162.021 76.9852 161.721 77.0665 161.376 77.0665ZM161.214 76.4313C161.548 76.4313 161.814 76.3131 162.011 76.0768C162.208 75.8404 162.307 75.5154 162.307 75.1018C162.307 74.6932 162.208 74.3756 162.011 74.1491C161.814 73.9176 161.546 73.8019 161.206 73.8019C160.871 73.8019 160.603 73.9201 160.401 74.1565C160.204 74.3879 160.106 74.7104 160.106 75.124C160.106 75.5278 160.204 75.8478 160.401 76.0842C160.603 76.3156 160.874 76.4313 161.214 76.4313ZM165.337 77.0739C164.844 77.0739 164.453 76.9655 164.162 76.7489C163.872 76.5322 163.707 76.227 163.668 75.833H164.377C164.411 76.0497 164.51 76.2171 164.672 76.3353C164.839 76.4485 165.066 76.5051 165.351 76.5051C165.603 76.5051 165.795 76.4608 165.928 76.3722C166.061 76.2836 166.127 76.158 166.127 75.9955C166.127 75.8774 166.088 75.7789 166.009 75.7001C165.935 75.6164 165.787 75.5475 165.566 75.4933L164.96 75.353C164.581 75.2594 164.298 75.1215 164.111 74.9394C163.928 74.7522 163.837 74.5233 163.837 74.2525C163.837 73.9127 163.963 73.6468 164.214 73.4548C164.47 73.2578 164.82 73.1594 165.263 73.1594C165.701 73.1594 166.053 73.2578 166.319 73.4548C166.59 73.6518 166.742 73.9275 166.777 74.282H166.068C166.038 74.1048 165.952 73.9693 165.809 73.8758C165.672 73.7773 165.482 73.7281 165.241 73.7281C165.014 73.7281 164.839 73.7699 164.716 73.8536C164.598 73.9324 164.539 74.0432 164.539 74.186C164.539 74.3042 164.583 74.4027 164.672 74.4814C164.766 74.5602 164.918 74.6267 165.13 74.6809L165.75 74.836C166.11 74.9246 166.381 75.0698 166.563 75.2717C166.745 75.4687 166.836 75.7075 166.836 75.9881C166.836 76.3279 166.703 76.5938 166.437 76.7858C166.176 76.9778 165.809 77.0739 165.337 77.0739ZM169.456 77V72.7975C169.456 72.4134 169.564 72.1204 169.781 71.9186C169.997 71.7117 170.322 71.6083 170.755 71.6083C170.854 71.6083 170.935 71.6133 170.999 71.6231C171.063 71.633 171.12 71.6477 171.169 71.6674V72.2583C171.135 72.2485 171.088 72.2386 171.029 72.2288C170.975 72.2189 170.913 72.214 170.844 72.214C170.627 72.214 170.47 72.2681 170.371 72.3765C170.273 72.4799 170.224 72.6276 170.224 72.8196V77H169.456ZM168.732 73.8463V73.2332H171.088V73.8463H168.732ZM173.391 77.0739C173.007 77.0739 172.669 76.9902 172.379 76.8227C172.088 76.6504 171.862 76.4165 171.699 76.1211C171.537 75.8207 171.456 75.481 171.456 75.1018C171.456 74.7178 171.537 74.3805 171.699 74.09C171.867 73.7995 172.093 73.573 172.379 73.4105C172.669 73.2431 173.007 73.1594 173.391 73.1594C173.78 73.1594 174.119 73.2431 174.41 73.4105C174.7 73.573 174.924 73.7995 175.082 74.09C175.245 74.3805 175.326 74.7178 175.326 75.1018C175.326 75.481 175.245 75.8207 175.082 76.1211C174.924 76.4165 174.7 76.6504 174.41 76.8227C174.119 76.9902 173.78 77.0739 173.391 77.0739ZM173.391 76.4461C173.622 76.4461 173.822 76.3894 173.989 76.2762C174.161 76.1629 174.297 76.0054 174.395 75.8035C174.494 75.6016 174.543 75.3653 174.543 75.0945C174.543 74.6907 174.435 74.3731 174.218 74.1417C174.006 73.9053 173.73 73.7872 173.391 73.7872C173.056 73.7872 172.78 73.9053 172.563 74.1417C172.352 74.378 172.246 74.6956 172.246 75.0945C172.246 75.3653 172.293 75.6016 172.386 75.8035C172.485 76.0054 172.62 76.1629 172.792 76.2762C172.97 76.3894 173.169 76.4461 173.391 76.4461ZM176.189 77V73.2332H176.92V74.1712H176.957V77H176.189ZM176.957 75.0354L176.861 74.1417C176.949 73.8216 177.102 73.5779 177.319 73.4105C177.535 73.2431 177.794 73.1594 178.094 73.1594C178.207 73.1594 178.286 73.1692 178.33 73.1889V73.9127C178.306 73.9029 178.271 73.898 178.227 73.898C178.183 73.893 178.129 73.8906 178.065 73.8906C177.695 73.8906 177.417 73.9866 177.23 74.1786C177.048 74.3706 176.957 74.6562 176.957 75.0354ZM182.231 77V74.6809L180.229 71.6822H181.175L182.866 74.3263H182.46L184.151 71.6822H185.015L183.014 74.6809V77H182.231ZM186.669 77.0739C186.285 77.0739 185.948 76.9902 185.657 76.8227C185.367 76.6504 185.14 76.4165 184.978 76.1211C184.815 75.8207 184.734 75.481 184.734 75.1018C184.734 74.7178 184.815 74.3805 184.978 74.09C185.145 73.7995 185.372 73.573 185.657 73.4105C185.948 73.2431 186.285 73.1594 186.669 73.1594C187.058 73.1594 187.398 73.2431 187.688 73.4105C187.979 73.573 188.203 73.7995 188.36 74.09C188.523 74.3805 188.604 74.7178 188.604 75.1018C188.604 75.481 188.523 75.8207 188.36 76.1211C188.203 76.4165 187.979 76.6504 187.688 76.8227C187.398 76.9902 187.058 77.0739 186.669 77.0739ZM186.669 76.4461C186.9 76.4461 187.1 76.3894 187.267 76.2762C187.44 76.1629 187.575 76.0054 187.673 75.8035C187.772 75.6016 187.821 75.3653 187.821 75.0945C187.821 74.6907 187.713 74.3731 187.496 74.1417C187.284 73.9053 187.009 73.7872 186.669 73.7872C186.334 73.7872 186.058 73.9053 185.842 74.1417C185.63 74.378 185.524 74.6956 185.524 75.0945C185.524 75.3653 185.571 75.6016 185.665 75.8035C185.763 76.0054 185.898 76.1629 186.071 76.2762C186.248 76.3894 186.447 76.4461 186.669 76.4461ZM190.693 77.0739C190.442 77.0739 190.22 77.0222 190.028 76.9188C189.836 76.8104 189.686 76.6627 189.578 76.4756C189.474 76.2885 189.423 76.0743 189.423 75.833V73.2332H190.191V75.6558C190.191 75.9167 190.255 76.1112 190.383 76.2393C190.511 76.3673 190.693 76.4313 190.929 76.4313C191.141 76.4313 191.328 76.3821 191.491 76.2836C191.658 76.1851 191.789 76.0497 191.882 75.8774C191.981 75.7001 192.03 75.4958 192.03 75.2643L192.126 76.1654C192.003 76.4411 191.813 76.6627 191.557 76.8301C191.306 76.9926 191.018 77.0739 190.693 77.0739ZM192.059 77V76.1137H192.03V73.2332H192.791V77H192.059ZM193.941 77V73.2332H194.672V74.1712H194.709V77H193.941ZM194.709 75.0354L194.613 74.1417C194.701 73.8216 194.854 73.5779 195.071 73.4105C195.287 73.2431 195.546 73.1594 195.846 73.1594C195.959 73.1594 196.038 73.1692 196.082 73.1889V73.9127C196.058 73.9029 196.023 73.898 195.979 73.898C195.935 73.893 195.881 73.8906 195.817 73.8906C195.447 73.8906 195.169 73.9866 194.982 74.1786C194.8 74.3706 194.709 74.6562 194.709 75.0354ZM198.956 77V76.3944H200.544C200.844 76.3944 201.078 76.3131 201.246 76.1506C201.418 75.9881 201.504 75.7666 201.504 75.4859C201.504 75.1905 201.413 74.9541 201.231 74.7769C201.054 74.5996 200.81 74.511 200.5 74.511H198.956V73.9201H200.426C200.726 73.9201 200.958 73.8487 201.12 73.7059C201.288 73.5582 201.371 73.3489 201.371 73.0781C201.371 72.8221 201.292 72.6276 201.135 72.4946C200.982 72.3568 200.756 72.2878 200.455 72.2878H198.956V71.6822H200.574C201.056 71.6822 201.44 71.8004 201.726 72.0367C202.011 72.2681 202.154 72.5857 202.154 72.9895C202.154 73.2455 202.095 73.472 201.977 73.669C201.864 73.861 201.706 74.0112 201.504 74.1195C201.302 74.2229 201.073 74.2746 200.817 74.2746L200.854 74.1195C201.13 74.1195 201.376 74.1835 201.593 74.3116C201.809 74.4347 201.982 74.6045 202.11 74.8212C202.238 75.0378 202.302 75.289 202.302 75.5745C202.302 75.8552 202.233 76.1039 202.095 76.3205C201.962 76.5372 201.773 76.7046 201.526 76.8227C201.28 76.9409 200.995 77 200.67 77H198.956ZM198.38 77V71.6822H199.163V77H198.38ZM204.404 77.0739C204.153 77.0739 203.931 77.0222 203.739 76.9188C203.547 76.8104 203.397 76.6627 203.289 76.4756C203.185 76.2885 203.134 76.0743 203.134 75.833V73.2332H203.902V75.6558C203.902 75.9167 203.966 76.1112 204.094 76.2393C204.222 76.3673 204.404 76.4313 204.64 76.4313C204.852 76.4313 205.039 76.3821 205.202 76.2836C205.369 76.1851 205.5 76.0497 205.593 75.8774C205.692 75.7001 205.741 75.4958 205.741 75.2643L205.837 76.1654C205.714 76.4411 205.524 76.6627 205.268 76.8301C205.017 76.9926 204.729 77.0739 204.404 77.0739ZM205.77 77V76.1137H205.741V73.2332H206.502V77H205.77ZM208.982 77.0739C208.489 77.0739 208.098 76.9655 207.807 76.7489C207.517 76.5322 207.352 76.227 207.313 75.833H208.022C208.056 76.0497 208.155 76.2171 208.317 76.3353C208.484 76.4485 208.711 76.5051 208.997 76.5051C209.248 76.5051 209.44 76.4608 209.573 76.3722C209.706 76.2836 209.772 76.158 209.772 75.9955C209.772 75.8774 209.733 75.7789 209.654 75.7001C209.58 75.6164 209.432 75.5475 209.211 75.4933L208.605 75.353C208.226 75.2594 207.943 75.1215 207.756 74.9394C207.574 74.7522 207.482 74.5233 207.482 74.2525C207.482 73.9127 207.608 73.6468 207.859 73.4548C208.115 73.2578 208.465 73.1594 208.908 73.1594C209.346 73.1594 209.698 73.2578 209.964 73.4548C210.235 73.6518 210.388 73.9275 210.422 74.282H209.713C209.683 74.1048 209.597 73.9693 209.454 73.8758C209.317 73.7773 209.127 73.7281 208.886 73.7281C208.659 73.7281 208.484 73.7699 208.361 73.8536C208.243 73.9324 208.184 74.0432 208.184 74.186C208.184 74.3042 208.228 74.4027 208.317 74.4814C208.411 74.5602 208.563 74.6267 208.775 74.6809L209.395 74.836C209.755 74.9246 210.026 75.0698 210.208 75.2717C210.39 75.4687 210.481 75.7075 210.481 75.9881C210.481 76.3279 210.348 76.5938 210.082 76.7858C209.821 76.9778 209.454 77.0739 208.982 77.0739ZM211.303 77V73.2332H212.071V77H211.303ZM211.266 72.4946V71.6305H212.115V72.4946H211.266ZM213.223 77V73.2332H213.954V74.1195H213.991V77H213.223ZM215.897 77V74.5774C215.897 74.3165 215.83 74.122 215.698 73.994C215.57 73.8659 215.377 73.8019 215.121 73.8019C214.9 73.8019 214.703 73.8512 214.531 73.9497C214.363 74.0481 214.23 74.1835 214.132 74.3559C214.038 74.5282 213.991 74.7326 213.991 74.9689L213.895 74.0678C214.019 73.7872 214.208 73.5656 214.464 73.4031C214.72 73.2406 215.018 73.1594 215.358 73.1594C215.762 73.1594 216.079 73.2726 216.311 73.4991C216.542 73.7256 216.658 74.026 216.658 74.4002V77H215.897ZM219.401 77.0739C219.022 77.0739 218.687 76.9902 218.397 76.8227C218.111 76.6553 217.887 76.4239 217.725 76.1285C217.562 75.833 217.481 75.4933 217.481 75.1092C217.481 74.7202 217.56 74.3805 217.717 74.09C217.88 73.7946 218.106 73.5656 218.397 73.4031C218.687 73.2406 219.02 73.1594 219.394 73.1594C219.758 73.1594 220.073 73.2382 220.339 73.3957C220.61 73.5484 220.817 73.7625 220.96 74.0383C221.107 74.314 221.181 74.6415 221.181 75.0206C221.181 75.0797 221.179 75.1363 221.174 75.1905C221.174 75.2397 221.169 75.2914 221.159 75.3456H217.998V74.7695H220.62L220.428 74.9984C220.428 74.5947 220.337 74.2869 220.154 74.0752C219.972 73.8635 219.719 73.7576 219.394 73.7576C219.044 73.7576 218.766 73.8783 218.559 74.1195C218.357 74.3559 218.256 74.6858 218.256 75.1092C218.256 75.5376 218.357 75.8724 218.559 76.1137C218.766 76.355 219.052 76.4756 219.416 76.4756C219.637 76.4756 219.83 76.4313 219.992 76.3427C220.154 76.2491 220.275 76.1137 220.354 75.9364H221.078C220.955 76.291 220.745 76.5692 220.45 76.771C220.159 76.9729 219.81 77.0739 219.401 77.0739ZM223.414 77.0739C222.922 77.0739 222.53 76.9655 222.24 76.7489C221.949 76.5322 221.784 76.227 221.745 75.833H222.454C222.488 76.0497 222.587 76.2171 222.749 76.3353C222.917 76.4485 223.143 76.5051 223.429 76.5051C223.68 76.5051 223.872 76.4608 224.005 76.3722C224.138 76.2836 224.204 76.158 224.204 75.9955C224.204 75.8774 224.165 75.7789 224.086 75.7001C224.012 75.6164 223.865 75.5475 223.643 75.4933L223.037 75.353C222.658 75.2594 222.375 75.1215 222.188 74.9394C222.006 74.7522 221.915 74.5233 221.915 74.2525C221.915 73.9127 222.04 73.6468 222.291 73.4548C222.548 73.2578 222.897 73.1594 223.34 73.1594C223.778 73.1594 224.131 73.2578 224.396 73.4548C224.667 73.6518 224.82 73.9275 224.854 74.282H224.145C224.116 74.1048 224.03 73.9693 223.887 73.8758C223.749 73.7773 223.559 73.7281 223.318 73.7281C223.092 73.7281 222.917 73.7699 222.794 73.8536C222.676 73.9324 222.616 74.0432 222.616 74.186C222.616 74.3042 222.661 74.4027 222.749 74.4814C222.843 74.5602 222.996 74.6267 223.207 74.6809L223.828 74.836C224.187 74.9246 224.458 75.0698 224.64 75.2717C224.822 75.4687 224.913 75.7075 224.913 75.9881C224.913 76.3279 224.78 76.5938 224.515 76.7858C224.254 76.9778 223.887 77.0739 223.414 77.0739ZM227.123 77.0739C226.631 77.0739 226.239 76.9655 225.949 76.7489C225.658 76.5322 225.493 76.227 225.454 75.833H226.163C226.198 76.0497 226.296 76.2171 226.458 76.3353C226.626 76.4485 226.852 76.5051 227.138 76.5051C227.389 76.5051 227.581 76.4608 227.714 76.3722C227.847 76.2836 227.913 76.158 227.913 75.9955C227.913 75.8774 227.874 75.7789 227.795 75.7001C227.721 75.6164 227.574 75.5475 227.352 75.4933L226.747 75.353C226.367 75.2594 226.084 75.1215 225.897 74.9394C225.715 74.7522 225.624 74.5233 225.624 74.2525C225.624 73.9127 225.749 73.6468 226.001 73.4548C226.257 73.2578 226.606 73.1594 227.049 73.1594C227.488 73.1594 227.84 73.2578 228.106 73.4548C228.376 73.6518 228.529 73.9275 228.563 74.282H227.854C227.825 74.1048 227.739 73.9693 227.596 73.8758C227.458 73.7773 227.268 73.7281 227.027 73.7281C226.801 73.7281 226.626 73.7699 226.503 73.8536C226.385 73.9324 226.326 74.0432 226.326 74.186C226.326 74.3042 226.37 74.4027 226.458 74.4814C226.552 74.5602 226.705 74.6267 226.916 74.6809L227.537 74.836C227.896 74.9246 228.167 75.0698 228.349 75.2717C228.531 75.4687 228.623 75.7075 228.623 75.9881C228.623 76.3279 228.49 76.5938 228.224 76.7858C227.963 76.9778 227.596 77.0739 227.123 77.0739Z" fill="#73829A"/>
<rect x="36.6484" y="84" width="232.352" height="5.06056" fill="#E9EEF5"/>
<rect x="36.6484" y="94.1211" width="232.352" height="5.06056" fill="#F2F4F7"/>
<rect x="36.6484" y="104.242" width="172.526" height="5.06056" fill="#F2F4F7"/>
<rect x="36.6484" y="114.363" width="114.816" height="5.06056" fill="#F2F4F7" fill-opacity="0.5"/>
<rect x="36.6484" y="124.484" width="58.6166" height="5.06056" fill="#F2F4F7" fill-opacity="0.5"/>
</g>
<g filter="url(#filter3_d_2480_93653)">
<rect x="29.2556" y="189.386" width="77.9814" height="27.2276" rx="5.61379" fill="white"/>
<rect x="29.2556" y="189.386" width="77.9814" height="27.2276" rx="5.61379" stroke="#E4E7EC" stroke-width="0.772422"/>
<circle cx="43.8694" cy="203" r="7" stroke="#DEE1E6" stroke-width="2.71637"/>
<path d="M43.8694 196C47.7354 196 50.8694 199.134 50.8694 203C50.8694 206.866 47.7354 210 43.8694 210C40.0034 210 36.8694 206.866 36.8694 203C36.8694 201.06 37.6586 199.304 38.9336 198.036" stroke="#17B26A" stroke-width="2.71637"/>
<path d="M59.1956 202V200.86C59.9484 200.24 60.5758 199.705 61.0776 199.254C61.5869 198.797 61.9928 198.395 62.2954 198.048C62.598 197.701 62.8121 197.383 62.9375 197.096C63.0704 196.8 63.1368 196.513 63.1368 196.232C63.1368 195.863 63.0335 195.575 62.8268 195.369C62.6202 195.162 62.3323 195.059 61.9633 195.059C61.5795 195.059 61.2658 195.173 61.0223 195.402C60.7787 195.623 60.6311 195.937 60.5794 196.343H59.1181C59.1993 195.597 59.4982 195.007 60.0148 194.571C60.5315 194.136 61.2031 193.918 62.0297 193.918C62.849 193.918 63.4911 194.132 63.9561 194.56C64.4284 194.981 64.6646 195.568 64.6646 196.321C64.6646 196.697 64.5982 197.062 64.4653 197.417C64.3399 197.764 64.1258 198.129 63.8232 198.513C63.528 198.889 63.1294 199.306 62.6276 199.764C62.1331 200.214 61.5131 200.727 60.7676 201.303L60.4245 200.86H64.8085V202H59.1956ZM68.4804 202.111C67.6759 202.111 67.019 201.9 66.5097 201.48C66.0005 201.059 65.6868 200.48 65.5687 199.742H67.0301C67.0965 200.133 67.2589 200.435 67.5172 200.649C67.7829 200.863 68.0929 200.97 68.4471 200.97C68.8383 200.97 69.1557 200.841 69.3992 200.583C69.6502 200.325 69.7757 199.926 69.7757 199.387C69.7757 198.863 69.6539 198.468 69.4103 198.203C69.1741 197.93 68.8568 197.793 68.4582 197.793C68.1999 197.793 67.9674 197.848 67.7607 197.959C67.5541 198.07 67.3991 198.225 67.2958 198.424H65.9894L66.3769 194.029H70.8385V195.169H66.9636L67.6722 194.97L67.4508 197.704L67.0079 197.627C67.1851 197.354 67.4139 197.136 67.6943 196.974C67.9748 196.811 68.3291 196.73 68.7571 196.73C69.2664 196.73 69.7092 196.841 70.0856 197.062C70.4694 197.284 70.7683 197.594 70.9824 197.992C71.2038 198.384 71.3145 198.856 71.3145 199.409C71.3145 199.978 71.1964 200.465 70.9602 200.871C70.7241 201.269 70.3956 201.576 69.9749 201.79C69.5542 202.004 69.056 202.111 68.4804 202.111ZM75.6328 202.111C74.9833 202.111 74.4076 201.937 73.9057 201.59C73.4038 201.236 73.009 200.749 72.7211 200.129C72.4407 199.502 72.3004 198.786 72.3004 197.981C72.3004 197.177 72.4407 196.472 72.7211 195.867C73.0016 195.254 73.3928 194.778 73.8946 194.439C74.4039 194.092 74.9833 193.918 75.6328 193.918C76.2896 193.918 76.869 194.092 77.3709 194.439C77.8728 194.778 78.264 195.254 78.5444 195.867C78.8323 196.472 78.9762 197.177 78.9762 197.981C78.9762 198.793 78.8323 199.509 78.5444 200.129C78.264 200.749 77.8728 201.236 77.3709 201.59C76.869 201.937 76.2896 202.111 75.6328 202.111ZM75.6328 200.904C76.0387 200.904 76.3745 200.775 76.6402 200.516C76.9059 200.258 77.1052 199.908 77.2381 199.465C77.3783 199.022 77.4484 198.524 77.4484 197.97C77.4484 197.417 77.382 196.926 77.2491 196.498C77.1163 196.07 76.9133 195.734 76.6402 195.49C76.3745 195.247 76.0387 195.125 75.6328 195.125C75.2342 195.125 74.8984 195.25 74.6253 195.501C74.3596 195.745 74.1603 196.081 74.0275 196.509C73.8946 196.937 73.8282 197.424 73.8282 197.97C73.8282 198.531 73.8946 199.033 74.0275 199.476C74.1603 199.919 74.3633 200.269 74.6364 200.528C74.9095 200.779 75.2416 200.904 75.6328 200.904Z" fill="#7A8EAC"/>
<path opacity="0.7" d="M60.9756 210.06C60.6699 210.06 60.39 210.006 60.1359 209.899C59.8818 209.788 59.6615 209.633 59.4749 209.434C59.2883 209.236 59.1414 209.002 59.0342 208.732C58.931 208.462 58.8794 208.164 58.8794 207.838C58.8794 207.41 58.9687 207.03 59.1473 206.701C59.326 206.371 59.5721 206.115 59.8858 205.933C60.2034 205.746 60.5647 205.653 60.9696 205.653C61.3825 205.653 61.7458 205.746 62.0594 205.933C62.373 206.115 62.6192 206.371 62.7978 206.701C62.9805 207.03 63.0718 207.412 63.0718 207.844C63.0718 208.166 63.0182 208.464 62.911 208.738C62.8078 209.007 62.6629 209.242 62.4763 209.44C62.2897 209.635 62.0673 209.788 61.8093 209.899C61.5552 210.006 61.2773 210.06 60.9756 210.06ZM60.9696 209.524C61.2555 209.524 61.5076 209.452 61.7259 209.309C61.9443 209.162 62.115 208.962 62.2381 208.708C62.3651 208.454 62.4286 208.162 62.4286 207.832C62.4286 207.507 62.3671 207.221 62.244 206.975C62.1209 206.725 61.9502 206.532 61.7319 206.397C61.5135 206.258 61.2594 206.189 60.9696 206.189C60.6798 206.189 60.4257 206.258 60.2074 206.397C59.993 206.532 59.8242 206.723 59.7012 206.969C59.5821 207.215 59.5225 207.503 59.5225 207.832C59.5225 208.166 59.5841 208.46 59.7071 208.714C59.8302 208.968 59.9989 209.166 60.2133 209.309C60.4317 209.452 60.6838 209.524 60.9696 209.524ZM63.7628 210V206.963H64.3524V207.719H64.3821V210H63.7628ZM64.3821 208.416L64.3047 207.695C64.3762 207.437 64.4993 207.241 64.6739 207.106C64.8486 206.971 65.057 206.903 65.2992 206.903C65.3905 206.903 65.4541 206.911 65.4898 206.927V207.511C65.4699 207.503 65.4421 207.499 65.4064 207.499C65.3707 207.495 65.327 207.493 65.2754 207.493C64.9776 207.493 64.7533 207.57 64.6025 207.725C64.4556 207.88 64.3821 208.11 64.3821 208.416ZM67.2355 211.28C66.8544 211.28 66.5387 211.193 66.2886 211.018C66.0425 210.848 65.8936 210.619 65.842 210.333H66.4256C66.4653 210.465 66.5526 210.568 66.6876 210.643C66.8266 210.719 67.0112 210.756 67.2414 210.756C67.5392 210.756 67.7615 210.683 67.9084 210.536C68.0553 210.389 68.1287 210.171 68.1287 209.881V209.226L68.1823 209.238C68.1228 209.468 67.9938 209.651 67.7953 209.786C67.5968 209.917 67.3586 209.982 67.0806 209.982C66.8146 209.982 66.5804 209.919 66.3779 209.792C66.1755 209.665 66.0186 209.488 65.9075 209.262C65.7963 209.031 65.7407 208.763 65.7407 208.458C65.7407 208.148 65.7983 207.876 65.9134 207.642C66.0286 207.408 66.1894 207.227 66.3958 207.1C66.6062 206.973 66.8504 206.909 67.1283 206.909C67.4141 206.909 67.6504 206.979 67.8369 207.118C68.0275 207.253 68.1486 207.445 68.2002 207.695L68.1526 207.701V206.963H68.7421V209.875C68.7421 210.312 68.6071 210.655 68.3372 210.905C68.0712 211.155 67.7039 211.28 67.2355 211.28ZM67.2653 209.482C67.5313 209.482 67.7437 209.389 67.9025 209.202C68.0652 209.015 68.1466 208.759 68.1466 208.434C68.1466 208.116 68.0652 207.866 67.9025 207.683C67.7437 207.501 67.5293 207.41 67.2593 207.41C66.9893 207.41 66.7749 207.503 66.6161 207.689C66.4573 207.872 66.3779 208.126 66.3779 208.452C66.3779 208.769 66.4573 209.021 66.6161 209.208C66.7789 209.391 66.9953 209.482 67.2653 209.482ZM71.4951 210C71.4752 209.925 71.4613 209.841 71.4534 209.75C71.4494 209.659 71.4474 209.547 71.4474 209.416H71.4177V207.969C71.4177 207.775 71.368 207.63 71.2688 207.535C71.1735 207.435 71.0206 207.386 70.8102 207.386C70.6078 207.386 70.445 207.425 70.3219 207.505C70.2028 207.584 70.1333 207.697 70.1135 207.844H69.5239C69.5517 207.558 69.6807 207.33 69.911 207.159C70.1413 206.989 70.449 206.903 70.8341 206.903C71.2311 206.903 71.5288 206.997 71.7273 207.183C71.9258 207.366 72.0251 207.636 72.0251 207.993V209.416C72.0251 209.508 72.031 209.601 72.0429 209.696C72.0549 209.792 72.0727 209.893 72.0965 210H71.4951ZM70.447 210.06C70.1373 210.06 69.8912 209.984 69.7085 209.833C69.5259 209.678 69.4346 209.47 69.4346 209.208C69.4346 208.938 69.5299 208.726 69.7204 208.571C69.915 208.412 70.1929 208.305 70.5542 208.249L71.5546 208.088V208.523L70.6494 208.666C70.447 208.698 70.2941 208.751 70.1909 208.827C70.0916 208.902 70.042 209.011 70.042 209.154C70.042 209.293 70.0877 209.399 70.179 209.47C70.2743 209.537 70.4112 209.571 70.5899 209.571C70.8281 209.571 71.0246 209.514 71.1794 209.399C71.3383 209.283 71.4177 209.138 71.4177 208.964L71.4951 209.404C71.4236 209.615 71.2966 209.778 71.1139 209.893C70.9313 210.004 70.709 210.06 70.447 210.06ZM72.8641 210V206.963H73.4537V207.677H73.4835V210H72.8641ZM75.0199 210V208.047C75.0199 207.836 74.9663 207.679 74.8591 207.576C74.7559 207.473 74.6011 207.421 74.3946 207.421C74.216 207.421 74.0572 207.461 73.9182 207.541C73.7832 207.62 73.676 207.729 73.5966 207.868C73.5212 208.007 73.4835 208.172 73.4835 208.362L73.4061 207.636C73.5053 207.41 73.6582 207.231 73.8646 207.1C74.0711 206.969 74.3112 206.903 74.5852 206.903C74.9107 206.903 75.1668 206.995 75.3534 207.177C75.54 207.36 75.6333 207.602 75.6333 207.904V210H75.0199ZM76.464 210V206.963H77.0833V210H76.464ZM76.4342 206.367V205.671H77.119V206.367H76.4342ZM79.2036 210.06C78.9138 210.06 78.6557 209.992 78.4294 209.857C78.2032 209.718 78.0245 209.53 77.8935 209.291C77.7664 209.053 77.7029 208.781 77.7029 208.475C77.7029 208.17 77.7664 207.9 77.8935 207.666C78.0245 207.427 78.2032 207.241 78.4294 207.106C78.6557 206.971 78.9118 206.903 79.1977 206.903C79.4398 206.903 79.6562 206.949 79.8468 207.04C80.0373 207.132 80.1942 207.259 80.3172 207.421C80.4403 207.584 80.5197 207.777 80.5554 207.999H79.9718C79.9321 207.82 79.8448 207.677 79.7098 207.57C79.5788 207.463 79.412 207.41 79.2096 207.41C79.0349 207.41 78.882 207.453 78.751 207.541C78.62 207.628 78.5188 207.751 78.4473 207.91C78.3759 208.069 78.3401 208.257 78.3401 208.475C78.3401 208.69 78.3759 208.878 78.4473 209.041C78.5188 209.204 78.62 209.331 78.751 209.422C78.882 209.51 79.0369 209.553 79.2155 209.553C79.4101 209.553 79.5748 209.502 79.7098 209.399C79.8488 209.291 79.9381 209.148 79.9778 208.97H80.5614C80.5217 209.188 80.4383 209.379 80.3113 209.541C80.1882 209.704 80.0314 209.831 79.8408 209.923C79.6502 210.014 79.4379 210.06 79.2036 210.06ZM83.5523 210V206.23H82.1052V205.712H85.6306V206.23H84.1835V210H83.5523ZM85.5828 210V206.963H86.1723V207.719H86.2021V210H85.5828ZM86.2021 208.416L86.1247 207.695C86.1961 207.437 86.3192 207.241 86.4939 207.106C86.6686 206.971 86.877 206.903 87.1192 206.903C87.2105 206.903 87.274 206.911 87.3098 206.927V207.511C87.2899 207.503 87.2621 207.499 87.2264 207.499C87.1907 207.495 87.147 207.493 87.0954 207.493C86.7976 207.493 86.5733 207.57 86.4224 207.725C86.2755 207.88 86.2021 208.11 86.2021 208.416ZM89.6512 210C89.6314 209.925 89.6175 209.841 89.6096 209.75C89.6056 209.659 89.6036 209.547 89.6036 209.416H89.5738V207.969C89.5738 207.775 89.5242 207.63 89.4249 207.535C89.3297 207.435 89.1768 207.386 88.9664 207.386C88.7639 207.386 88.6012 207.425 88.4781 207.505C88.359 207.584 88.2895 207.697 88.2696 207.844H87.6801C87.7079 207.558 87.8369 207.33 88.0672 207.159C88.2974 206.989 88.6051 206.903 88.9902 206.903C89.3872 206.903 89.685 206.997 89.8835 207.183C90.082 207.366 90.1812 207.636 90.1812 207.993V209.416C90.1812 209.508 90.1872 209.601 90.1991 209.696C90.211 209.792 90.2289 209.893 90.2527 210H89.6512ZM88.6031 210.06C88.2935 210.06 88.0473 209.984 87.8647 209.833C87.6821 209.678 87.5908 209.47 87.5908 209.208C87.5908 208.938 87.686 208.726 87.8766 208.571C88.0711 208.412 88.3491 208.305 88.7103 208.249L89.7108 208.088V208.523L88.8056 208.666C88.6031 208.698 88.4503 208.751 88.3471 208.827C88.2478 208.902 88.1982 209.011 88.1982 209.154C88.1982 209.293 88.2438 209.399 88.3352 209.47C88.4304 209.537 88.5674 209.571 88.7461 209.571C88.9843 209.571 89.1808 209.514 89.3356 209.399C89.4944 209.283 89.5738 209.138 89.5738 208.964L89.6512 209.404C89.5798 209.615 89.4527 209.778 89.2701 209.893C89.0875 210.004 88.8652 210.06 88.6031 210.06ZM91.154 210V206.612C91.154 206.302 91.2413 206.066 91.416 205.903C91.5907 205.736 91.8527 205.653 92.2021 205.653C92.2815 205.653 92.347 205.657 92.3986 205.665C92.4502 205.673 92.4959 205.685 92.5356 205.7V206.195C92.5078 206.187 92.4701 206.179 92.4224 206.171C92.3788 206.163 92.3291 206.159 92.2735 206.159C92.0989 206.159 91.9718 206.203 91.8924 206.29C91.813 206.373 91.7733 206.492 91.7733 206.647V210H91.154ZM93.0894 210V206.612C93.0894 206.302 93.1748 206.066 93.3455 205.903C93.5202 205.736 93.7822 205.653 94.1315 205.653C94.2149 205.653 94.2804 205.657 94.3281 205.665C94.3797 205.673 94.4273 205.685 94.471 205.7V206.195C94.4432 206.187 94.4055 206.179 94.3578 206.171C94.3102 206.163 94.2586 206.159 94.203 206.159C94.0323 206.159 93.9053 206.203 93.8219 206.29C93.7425 206.373 93.7028 206.492 93.7028 206.647V210H93.0894ZM95.0248 210V206.963H95.6382V210H95.0248ZM90.5704 207.457V206.963H95.2749V207.457H90.5704ZM95.001 206.391V205.712H95.662V206.391H95.001ZM97.7494 210.06C97.4596 210.06 97.2016 209.992 96.9753 209.857C96.749 209.718 96.5703 209.53 96.4393 209.291C96.3123 209.053 96.2487 208.781 96.2487 208.475C96.2487 208.17 96.3123 207.9 96.4393 207.666C96.5703 207.427 96.749 207.241 96.9753 207.106C97.2016 206.971 97.4576 206.903 97.7435 206.903C97.9856 206.903 98.202 206.949 98.3926 207.04C98.5831 207.132 98.74 207.259 98.863 207.421C98.9861 207.584 99.0655 207.777 99.1012 207.999H98.5176C98.4779 207.82 98.3906 207.677 98.2556 207.57C98.1246 207.463 97.9579 207.41 97.7554 207.41C97.5807 207.41 97.4279 207.453 97.2968 207.541C97.1658 207.628 97.0646 207.751 96.9931 207.91C96.9217 208.069 96.8859 208.257 96.8859 208.475C96.8859 208.69 96.9217 208.878 96.9931 209.041C97.0646 209.204 97.1658 209.331 97.2968 209.422C97.4279 209.51 97.5827 209.553 97.7613 209.553C97.9559 209.553 98.1206 209.502 98.2556 209.399C98.3946 209.291 98.4839 209.148 98.5236 208.97H99.1072C99.0675 209.188 98.9841 209.379 98.8571 209.541C98.734 209.704 98.5772 209.831 98.3866 209.923C98.1961 210.014 97.9837 210.06 97.7494 210.06Z" fill="#7A8EAC"/>
<rect x="114.01" y="189.386" width="87.9814" height="27.2276" rx="5.61379" fill="white"/>
<rect x="114.01" y="189.386" width="87.9814" height="27.2276" rx="5.61379" stroke="#E4E7EC" stroke-width="0.772422"/>
<circle cx="128.623" cy="203" r="6.99982" stroke="#DEE1E6" stroke-width="2.65239"/>
<path d="M128.623 210C132.489 210 135.623 206.866 135.623 203C135.623 199.134 132.489 196 128.623 196" stroke="#FFAD05" stroke-width="2.65239"/>
<path d="M147.048 202.111C146.243 202.111 145.586 201.9 145.077 201.48C144.568 201.059 144.254 200.48 144.136 199.742H145.597C145.664 200.133 145.826 200.435 146.085 200.649C146.35 200.863 146.66 200.97 147.014 200.97C147.406 200.97 147.723 200.841 147.967 200.583C148.218 200.325 148.343 199.926 148.343 199.387C148.343 198.863 148.221 198.468 147.978 198.203C147.741 197.93 147.424 197.793 147.026 197.793C146.767 197.793 146.535 197.848 146.328 197.959C146.121 198.07 145.966 198.225 145.863 198.424H144.557L144.944 194.029H149.406V195.169H145.531L146.24 194.97L146.018 197.704L145.575 197.627C145.752 197.354 145.981 197.136 146.262 196.974C146.542 196.811 146.896 196.73 147.324 196.73C147.834 196.73 148.277 196.841 148.653 197.062C149.037 197.284 149.336 197.594 149.55 197.992C149.771 198.384 149.882 198.856 149.882 199.409C149.882 199.978 149.764 200.465 149.528 200.871C149.291 201.269 148.963 201.576 148.542 201.79C148.122 202.004 147.623 202.111 147.048 202.111ZM154.2 202.111C153.551 202.111 152.975 201.937 152.473 201.59C151.971 201.236 151.576 200.749 151.288 200.129C151.008 199.502 150.868 198.786 150.868 197.981C150.868 197.177 151.008 196.472 151.288 195.867C151.569 195.254 151.96 194.778 152.462 194.439C152.971 194.092 153.551 193.918 154.2 193.918C154.857 193.918 155.436 194.092 155.938 194.439C156.44 194.778 156.831 195.254 157.112 195.867C157.4 196.472 157.544 197.177 157.544 197.981C157.544 198.793 157.4 199.509 157.112 200.129C156.831 200.749 156.44 201.236 155.938 201.59C155.436 201.937 154.857 202.111 154.2 202.111ZM154.2 200.904C154.606 200.904 154.942 200.775 155.208 200.516C155.473 200.258 155.673 199.908 155.805 199.465C155.946 199.022 156.016 198.524 156.016 197.97C156.016 197.417 155.949 196.926 155.816 196.498C155.684 196.07 155.481 195.734 155.208 195.49C154.942 195.247 154.606 195.125 154.2 195.125C153.802 195.125 153.466 195.25 153.193 195.501C152.927 195.745 152.728 196.081 152.595 196.509C152.462 196.937 152.396 197.424 152.396 197.97C152.396 198.531 152.462 199.033 152.595 199.476C152.728 199.919 152.931 200.269 153.204 200.528C153.477 200.779 153.809 200.904 154.2 200.904Z" fill="#7A8EAC"/>
<path opacity="0.75" d="M143.818 210V205.712H145.634C145.944 205.712 146.208 205.764 146.426 205.867C146.645 205.97 146.811 206.117 146.926 206.308C147.046 206.498 147.105 206.725 147.105 206.987C147.105 207.253 147.046 207.483 146.926 207.677C146.811 207.868 146.643 208.017 146.42 208.124C146.202 208.231 145.94 208.285 145.634 208.285H144.3V207.761H145.604C145.886 207.761 146.101 207.693 146.248 207.558C146.398 207.423 146.474 207.235 146.474 206.993C146.474 206.747 146.4 206.558 146.254 206.427C146.107 206.296 145.89 206.23 145.604 206.23H144.449V210H143.818ZM149.451 210C149.431 209.925 149.417 209.841 149.409 209.75C149.405 209.659 149.403 209.547 149.403 209.416H149.373V207.969C149.373 207.775 149.324 207.63 149.224 207.535C149.129 207.435 148.976 207.386 148.766 207.386C148.563 207.386 148.401 207.425 148.277 207.505C148.158 207.584 148.089 207.697 148.069 207.844H147.479C147.507 207.558 147.636 207.33 147.867 207.159C148.097 206.989 148.404 206.903 148.79 206.903C149.187 206.903 149.484 206.997 149.683 207.183C149.881 207.366 149.981 207.636 149.981 207.993V209.416C149.981 209.508 149.987 209.601 149.998 209.696C150.01 209.792 150.028 209.893 150.052 210H149.451ZM148.402 210.06C148.093 210.06 147.847 209.984 147.664 209.833C147.481 209.678 147.39 209.47 147.39 209.208C147.39 208.938 147.485 208.726 147.676 208.571C147.87 208.412 148.148 208.305 148.51 208.249L149.51 208.088V208.523L148.605 208.666C148.402 208.698 148.25 208.751 148.146 208.827C148.047 208.902 147.998 209.011 147.998 209.154C147.998 209.293 148.043 209.399 148.135 209.47C148.23 209.537 148.367 209.571 148.545 209.571C148.784 209.571 148.98 209.514 149.135 209.399C149.294 209.283 149.373 209.138 149.373 208.964L149.451 209.404C149.379 209.615 149.252 209.778 149.069 209.893C148.887 210.004 148.665 210.06 148.402 210.06ZM152.071 211.28C151.69 211.28 151.374 211.193 151.124 211.018C150.878 210.848 150.729 210.619 150.677 210.333H151.261C151.301 210.465 151.388 210.568 151.523 210.643C151.662 210.719 151.846 210.756 152.077 210.756C152.375 210.756 152.597 210.683 152.744 210.536C152.891 210.389 152.964 210.171 152.964 209.881V209.226L153.018 209.238C152.958 209.468 152.829 209.651 152.631 209.786C152.432 209.917 152.194 209.982 151.916 209.982C151.65 209.982 151.416 209.919 151.213 209.792C151.011 209.665 150.854 209.488 150.743 209.262C150.632 209.031 150.576 208.763 150.576 208.458C150.576 208.148 150.634 207.876 150.749 207.642C150.864 207.408 151.025 207.227 151.231 207.1C151.442 206.973 151.686 206.909 151.964 206.909C152.249 206.909 152.486 206.979 152.672 207.118C152.863 207.253 152.984 207.445 153.036 207.695L152.988 207.701V206.963H153.577V209.875C153.577 210.312 153.442 210.655 153.173 210.905C152.907 211.155 152.539 211.28 152.071 211.28ZM152.101 209.482C152.367 209.482 152.579 209.389 152.738 209.202C152.901 209.015 152.982 208.759 152.982 208.434C152.982 208.116 152.901 207.866 152.738 207.683C152.579 207.501 152.365 207.41 152.095 207.41C151.825 207.41 151.61 207.503 151.451 207.689C151.293 207.872 151.213 208.126 151.213 208.452C151.213 208.769 151.293 209.021 151.451 209.208C151.614 209.391 151.831 209.482 152.101 209.482ZM155.759 210.06C155.453 210.06 155.183 209.992 154.949 209.857C154.719 209.722 154.538 209.535 154.407 209.297C154.276 209.059 154.21 208.785 154.21 208.475C154.21 208.162 154.274 207.888 154.401 207.654C154.532 207.415 154.715 207.231 154.949 207.1C155.183 206.969 155.451 206.903 155.753 206.903C156.047 206.903 156.301 206.967 156.515 207.094C156.733 207.217 156.9 207.39 157.015 207.612C157.134 207.834 157.194 208.098 157.194 208.404C157.194 208.452 157.192 208.497 157.188 208.541C157.188 208.581 157.184 208.622 157.176 208.666H154.627V208.202H156.741L156.586 208.386C156.586 208.061 156.513 207.812 156.366 207.642C156.219 207.471 156.015 207.386 155.753 207.386C155.471 207.386 155.247 207.483 155.08 207.677C154.917 207.868 154.836 208.134 154.836 208.475C154.836 208.821 154.917 209.091 155.08 209.285C155.247 209.48 155.477 209.577 155.771 209.577C155.949 209.577 156.104 209.541 156.235 209.47C156.366 209.395 156.463 209.285 156.527 209.142H157.111C157.011 209.428 156.843 209.653 156.604 209.815C156.37 209.978 156.088 210.06 155.759 210.06ZM158.935 210.06C158.538 210.06 158.222 209.972 157.988 209.798C157.754 209.623 157.621 209.377 157.589 209.059H158.161C158.188 209.234 158.268 209.369 158.399 209.464C158.534 209.555 158.716 209.601 158.947 209.601C159.149 209.601 159.304 209.565 159.411 209.494C159.518 209.422 159.572 209.321 159.572 209.19C159.572 209.095 159.54 209.015 159.477 208.952C159.417 208.884 159.298 208.829 159.119 208.785L158.631 208.672C158.325 208.597 158.097 208.485 157.946 208.339C157.799 208.188 157.726 208.003 157.726 207.785C157.726 207.511 157.827 207.296 158.03 207.142C158.236 206.983 158.518 206.903 158.875 206.903C159.229 206.903 159.512 206.983 159.727 207.142C159.945 207.3 160.068 207.523 160.096 207.809H159.524C159.501 207.666 159.431 207.556 159.316 207.481C159.205 207.402 159.052 207.362 158.857 207.362C158.675 207.362 158.534 207.396 158.435 207.463C158.339 207.527 158.292 207.616 158.292 207.731C158.292 207.826 158.327 207.906 158.399 207.969C158.474 208.033 158.597 208.086 158.768 208.13L159.268 208.255C159.558 208.327 159.776 208.444 159.923 208.606C160.07 208.765 160.144 208.958 160.144 209.184C160.144 209.458 160.036 209.672 159.822 209.827C159.612 209.982 159.316 210.06 158.935 210.06ZM161.898 210V205.712H163.715C164.024 205.712 164.288 205.764 164.507 205.867C164.725 205.97 164.892 206.117 165.007 206.308C165.126 206.498 165.186 206.725 165.186 206.987C165.186 207.253 165.126 207.483 165.007 207.677C164.892 207.868 164.723 208.017 164.501 208.124C164.282 208.231 164.02 208.285 163.715 208.285H162.381V207.761H163.685C163.967 207.761 164.181 207.693 164.328 207.558C164.479 207.423 164.554 207.235 164.554 206.993C164.554 206.747 164.481 206.558 164.334 206.427C164.187 206.296 163.971 206.23 163.685 206.23H162.53V210H161.898ZM166.971 210.06C166.665 210.06 166.395 209.992 166.161 209.857C165.931 209.722 165.75 209.535 165.619 209.297C165.488 209.059 165.423 208.785 165.423 208.475C165.423 208.162 165.486 207.888 165.613 207.654C165.744 207.415 165.927 207.231 166.161 207.1C166.395 206.969 166.663 206.903 166.965 206.903C167.259 206.903 167.513 206.967 167.727 207.094C167.946 207.217 168.112 207.39 168.228 207.612C168.347 207.834 168.406 208.098 168.406 208.404C168.406 208.452 168.404 208.497 168.4 208.541C168.4 208.581 168.396 208.622 168.388 208.666H165.84V208.202H167.954L167.799 208.386C167.799 208.061 167.725 207.812 167.579 207.642C167.432 207.471 167.227 207.386 166.965 207.386C166.683 207.386 166.459 207.483 166.292 207.677C166.129 207.868 166.048 208.134 166.048 208.475C166.048 208.821 166.129 209.091 166.292 209.285C166.459 209.48 166.689 209.577 166.983 209.577C167.162 209.577 167.316 209.541 167.448 209.47C167.579 209.395 167.676 209.285 167.739 209.142H168.323C168.224 209.428 168.055 209.653 167.817 209.815C167.582 209.978 167.301 210.06 166.971 210.06ZM169.04 210V206.963H169.629V207.719H169.659V210H169.04ZM169.659 208.416L169.582 207.695C169.653 207.437 169.776 207.241 169.951 207.106C170.126 206.971 170.334 206.903 170.576 206.903C170.668 206.903 170.731 206.911 170.767 206.927V207.511C170.747 207.503 170.719 207.499 170.683 207.499C170.648 207.495 170.604 207.493 170.552 207.493C170.255 207.493 170.03 207.57 169.879 207.725C169.733 207.88 169.659 208.11 169.659 208.416ZM174.054 210.054C173.538 210.054 173.125 209.931 172.816 209.684C172.506 209.438 172.326 209.087 172.274 208.63H172.887C172.923 208.928 173.042 209.154 173.245 209.309C173.447 209.464 173.721 209.541 174.066 209.541C174.356 209.541 174.575 209.488 174.721 209.381C174.872 209.273 174.948 209.121 174.948 208.922C174.948 208.743 174.898 208.603 174.799 208.499C174.7 208.392 174.543 208.305 174.328 208.237L173.584 207.999C173.203 207.876 172.923 207.721 172.744 207.535C172.566 207.348 172.476 207.112 172.476 206.826C172.476 206.584 172.536 206.375 172.655 206.201C172.778 206.026 172.949 205.891 173.167 205.796C173.39 205.696 173.648 205.647 173.941 205.647C174.394 205.647 174.755 205.762 175.025 205.992C175.299 206.218 175.456 206.534 175.496 206.939H174.882C174.835 206.669 174.731 206.473 174.573 206.35C174.414 206.222 174.195 206.159 173.918 206.159C173.655 206.159 173.451 206.211 173.304 206.314C173.157 206.417 173.084 206.562 173.084 206.748C173.084 206.899 173.131 207.026 173.227 207.13C173.326 207.229 173.489 207.314 173.715 207.386L174.495 207.636C174.856 207.751 175.122 207.908 175.293 208.106C175.468 208.305 175.555 208.555 175.555 208.857C175.555 209.238 175.424 209.534 175.162 209.744C174.9 209.95 174.531 210.054 174.054 210.054ZM177.503 210.06C177.197 210.06 176.927 209.992 176.693 209.857C176.463 209.722 176.282 209.535 176.151 209.297C176.02 209.059 175.955 208.785 175.955 208.475C175.955 208.162 176.018 207.888 176.145 207.654C176.276 207.415 176.459 207.231 176.693 207.1C176.927 206.969 177.195 206.903 177.497 206.903C177.791 206.903 178.045 206.967 178.259 207.094C178.478 207.217 178.644 207.39 178.76 207.612C178.879 207.834 178.938 208.098 178.938 208.404C178.938 208.452 178.936 208.497 178.932 208.541C178.932 208.581 178.928 208.622 178.92 208.666H176.372V208.202H178.486L178.331 208.386C178.331 208.061 178.257 207.812 178.11 207.642C177.964 207.471 177.759 207.386 177.497 207.386C177.215 207.386 176.991 207.483 176.824 207.677C176.661 207.868 176.58 208.134 176.58 208.475C176.58 208.821 176.661 209.091 176.824 209.285C176.991 209.48 177.221 209.577 177.515 209.577C177.694 209.577 177.848 209.541 177.979 209.47C178.11 209.395 178.208 209.285 178.271 209.142H178.855C178.756 209.428 178.587 209.653 178.349 209.815C178.114 209.978 177.833 210.06 177.503 210.06ZM180.679 210.06C180.282 210.06 179.967 209.972 179.732 209.798C179.498 209.623 179.365 209.377 179.333 209.059H179.905C179.933 209.234 180.012 209.369 180.143 209.464C180.278 209.555 180.461 209.601 180.691 209.601C180.894 209.601 181.048 209.565 181.156 209.494C181.263 209.422 181.316 209.321 181.316 209.19C181.316 209.095 181.285 209.015 181.221 208.952C181.162 208.884 181.042 208.829 180.864 208.785L180.375 208.672C180.07 208.597 179.841 208.485 179.691 208.339C179.544 208.188 179.47 208.003 179.47 207.785C179.47 207.511 179.571 207.296 179.774 207.142C179.98 206.983 180.262 206.903 180.62 206.903C180.973 206.903 181.257 206.983 181.471 207.142C181.69 207.3 181.813 207.523 181.84 207.809H181.269C181.245 207.666 181.175 207.556 181.06 207.481C180.949 207.402 180.796 207.362 180.602 207.362C180.419 207.362 180.278 207.396 180.179 207.463C180.084 207.527 180.036 207.616 180.036 207.731C180.036 207.826 180.072 207.906 180.143 207.969C180.219 208.033 180.342 208.086 180.512 208.13L181.013 208.255C181.302 208.327 181.521 208.444 181.668 208.606C181.815 208.765 181.888 208.958 181.888 209.184C181.888 209.458 181.781 209.672 181.566 209.827C181.356 209.982 181.06 210.06 180.679 210.06ZM183.61 210.06C183.213 210.06 182.898 209.972 182.663 209.798C182.429 209.623 182.296 209.377 182.264 209.059H182.836C182.864 209.234 182.943 209.369 183.074 209.464C183.209 209.555 183.392 209.601 183.622 209.601C183.825 209.601 183.979 209.565 184.087 209.494C184.194 209.422 184.247 209.321 184.247 209.19C184.247 209.095 184.216 209.015 184.152 208.952C184.093 208.884 183.973 208.829 183.795 208.785L183.306 208.672C183.001 208.597 182.773 208.485 182.622 208.339C182.475 208.188 182.401 208.003 182.401 207.785C182.401 207.511 182.503 207.296 182.705 207.142C182.911 206.983 183.193 206.903 183.551 206.903C183.904 206.903 184.188 206.983 184.402 207.142C184.621 207.3 184.744 207.523 184.771 207.809H184.2C184.176 207.666 184.106 207.556 183.991 207.481C183.88 207.402 183.727 207.362 183.533 207.362C183.35 207.362 183.209 207.396 183.11 207.463C183.015 207.527 182.967 207.616 182.967 207.731C182.967 207.826 183.003 207.906 183.074 207.969C183.15 208.033 183.273 208.086 183.443 208.13L183.944 208.255C184.233 208.327 184.452 208.444 184.599 208.606C184.746 208.765 184.819 208.958 184.819 209.184C184.819 209.458 184.712 209.672 184.498 209.827C184.287 209.982 183.991 210.06 183.61 210.06ZM185.422 210V206.963H186.042V210H185.422ZM185.392 206.367V205.671H186.077V206.367H185.392ZM188.221 210.06C187.912 210.06 187.64 209.992 187.406 209.857C187.171 209.718 186.989 209.53 186.858 209.291C186.727 209.049 186.661 208.775 186.661 208.47C186.661 208.16 186.727 207.888 186.858 207.654C186.993 207.419 187.175 207.237 187.406 207.106C187.64 206.971 187.912 206.903 188.221 206.903C188.535 206.903 188.809 206.971 189.043 207.106C189.277 207.237 189.458 207.419 189.585 207.654C189.716 207.888 189.782 208.16 189.782 208.47C189.782 208.775 189.716 209.049 189.585 209.291C189.458 209.53 189.277 209.718 189.043 209.857C188.809 209.992 188.535 210.06 188.221 210.06ZM188.221 209.553C188.408 209.553 188.569 209.508 188.704 209.416C188.843 209.325 188.952 209.198 189.031 209.035C189.111 208.872 189.15 208.682 189.15 208.464C189.15 208.138 189.063 207.882 188.888 207.695C188.718 207.505 188.495 207.41 188.221 207.41C187.951 207.41 187.729 207.505 187.554 207.695C187.384 207.886 187.298 208.142 187.298 208.464C187.298 208.682 187.336 208.872 187.412 209.035C187.491 209.198 187.6 209.325 187.739 209.416C187.882 209.508 188.043 209.553 188.221 209.553ZM190.418 210V206.963H191.007V207.677H191.037V210H190.418ZM192.574 210V208.047C192.574 207.836 192.52 207.679 192.413 207.576C192.31 207.473 192.155 207.421 191.948 207.421C191.77 207.421 191.611 207.461 191.472 207.541C191.337 207.62 191.23 207.729 191.15 207.868C191.075 208.007 191.037 208.172 191.037 208.362L190.96 207.636C191.059 207.41 191.212 207.231 191.418 207.1C191.625 206.969 191.865 206.903 192.139 206.903C192.464 206.903 192.72 206.995 192.907 207.177C193.094 207.36 193.187 207.602 193.187 207.904V210H192.574Z" fill="#7A8EAC"/>
<rect x="208.763" y="189.386" width="71.9814" height="27.2276" rx="5.61379" fill="white"/>
<rect x="208.763" y="189.386" width="71.9814" height="27.2276" rx="5.61379" stroke="#E4E7EC" stroke-width="0.772422"/>
<circle cx="223.377" cy="203" r="6.99988" fill="white" stroke="#DEE1E6" stroke-width="2.64055"/>
<path d="M223.377 196C227.243 196 230.377 199.134 230.377 203C230.377 204.876 229.639 206.579 228.438 207.836" stroke="#EF3826" stroke-width="2.64055"/>
<path d="M240.03 202C240.141 200.738 240.447 199.513 240.949 198.324C241.451 197.136 242.126 196 242.975 194.915L242.997 195.169H238.591V194.029H244.303V195.059C243.772 195.826 243.314 196.586 242.931 197.339C242.554 198.085 242.252 198.841 242.023 199.609C241.801 200.376 241.661 201.173 241.602 202H240.03ZM247.747 202.111C246.943 202.111 246.286 201.9 245.777 201.48C245.268 201.059 244.954 200.48 244.836 199.742H246.297C246.364 200.133 246.526 200.435 246.784 200.649C247.05 200.863 247.36 200.97 247.714 200.97C248.105 200.97 248.423 200.841 248.666 200.583C248.917 200.325 249.043 199.926 249.043 199.387C249.043 198.863 248.921 198.468 248.677 198.203C248.441 197.93 248.124 197.793 247.725 197.793C247.467 197.793 247.235 197.848 247.028 197.959C246.821 198.07 246.666 198.225 246.563 198.424H245.257L245.644 194.029H250.106V195.169H246.231L246.939 194.97L246.718 197.704L246.275 197.627C246.452 197.354 246.681 197.136 246.961 196.974C247.242 196.811 247.596 196.73 248.024 196.73C248.534 196.73 248.976 196.841 249.353 197.062C249.737 197.284 250.035 197.594 250.25 197.992C250.471 198.384 250.582 198.856 250.582 199.409C250.582 199.978 250.464 200.465 250.227 200.871C249.991 201.269 249.663 201.576 249.242 201.79C248.821 202.004 248.323 202.111 247.747 202.111Z" fill="#7A8EAC"/>
<path opacity="0.75" d="M239.036 210V209.512H240.316C240.559 209.512 240.747 209.446 240.882 209.315C241.021 209.184 241.091 209.005 241.091 208.779C241.091 208.541 241.017 208.35 240.87 208.208C240.727 208.065 240.531 207.993 240.281 207.993H239.036V207.517H240.221C240.463 207.517 240.65 207.459 240.781 207.344C240.916 207.225 240.983 207.056 240.983 206.838C240.983 206.631 240.92 206.475 240.793 206.367C240.67 206.256 240.487 206.201 240.245 206.201H239.036V205.712H240.34C240.729 205.712 241.039 205.808 241.269 205.998C241.499 206.185 241.615 206.441 241.615 206.766C241.615 206.973 241.567 207.155 241.472 207.314C241.38 207.469 241.253 207.59 241.091 207.677C240.928 207.761 240.743 207.803 240.537 207.803L240.567 207.677C240.789 207.677 240.987 207.729 241.162 207.832C241.337 207.932 241.476 208.069 241.579 208.243C241.682 208.418 241.734 208.62 241.734 208.851C241.734 209.077 241.678 209.277 241.567 209.452C241.46 209.627 241.307 209.762 241.108 209.857C240.91 209.952 240.68 210 240.418 210H239.036ZM238.572 210V205.712H239.203V210H238.572ZM243.697 210.06C243.387 210.06 243.115 209.992 242.881 209.857C242.647 209.718 242.464 209.53 242.333 209.291C242.202 209.049 242.137 208.775 242.137 208.47C242.137 208.16 242.202 207.888 242.333 207.654C242.468 207.419 242.651 207.237 242.881 207.106C243.115 206.971 243.387 206.903 243.697 206.903C244.01 206.903 244.284 206.971 244.519 207.106C244.753 207.237 244.933 207.419 245.061 207.654C245.192 207.888 245.257 208.16 245.257 208.47C245.257 208.775 245.192 209.049 245.061 209.291C244.933 209.53 244.753 209.718 244.519 209.857C244.284 209.992 244.01 210.06 243.697 210.06ZM243.697 209.553C243.883 209.553 244.044 209.508 244.179 209.416C244.318 209.325 244.427 209.198 244.507 209.035C244.586 208.872 244.626 208.682 244.626 208.464C244.626 208.138 244.538 207.882 244.364 207.695C244.193 207.505 243.971 207.41 243.697 207.41C243.427 207.41 243.205 207.505 243.03 207.695C242.859 207.886 242.774 208.142 242.774 208.464C242.774 208.682 242.811 208.872 242.887 209.035C242.966 209.198 243.075 209.325 243.214 209.416C243.357 209.508 243.518 209.553 243.697 209.553ZM246.882 210.06C246.679 210.06 246.501 210.018 246.346 209.934C246.191 209.847 246.07 209.728 245.983 209.577C245.899 209.426 245.857 209.254 245.857 209.059V206.963H246.477V208.916C246.477 209.127 246.528 209.283 246.632 209.387C246.735 209.49 246.882 209.541 247.072 209.541C247.243 209.541 247.394 209.502 247.525 209.422C247.66 209.343 247.765 209.234 247.841 209.095C247.92 208.952 247.96 208.787 247.96 208.601L248.037 209.327C247.938 209.549 247.785 209.728 247.578 209.863C247.376 209.994 247.144 210.06 246.882 210.06ZM247.983 210V209.285H247.96V206.963H248.573V210H247.983ZM249.441 210V206.963H250.03V207.677H250.06V210H249.441ZM251.596 210V208.047C251.596 207.836 251.543 207.679 251.436 207.576C251.332 207.473 251.178 207.421 250.971 207.421C250.792 207.421 250.634 207.461 250.495 207.541C250.36 207.62 250.253 207.729 250.173 207.868C250.098 208.007 250.06 208.172 250.06 208.362L249.983 207.636C250.082 207.41 250.235 207.231 250.441 207.1C250.648 206.969 250.888 206.903 251.162 206.903C251.487 206.903 251.743 206.995 251.93 207.177C252.117 207.36 252.21 207.602 252.21 207.904V210H251.596ZM254.315 210.06C254.025 210.06 253.767 209.992 253.54 209.857C253.314 209.718 253.136 209.53 253.004 209.291C252.877 209.053 252.814 208.781 252.814 208.475C252.814 208.17 252.877 207.9 253.004 207.666C253.136 207.427 253.314 207.241 253.54 207.106C253.767 206.971 254.023 206.903 254.309 206.903C254.551 206.903 254.767 206.949 254.958 207.04C255.148 207.132 255.305 207.259 255.428 207.421C255.551 207.584 255.631 207.777 255.666 207.999H255.083C255.043 207.82 254.956 207.677 254.821 207.57C254.69 207.463 254.523 207.41 254.321 207.41C254.146 207.41 253.993 207.453 253.862 207.541C253.731 207.628 253.63 207.751 253.558 207.91C253.487 208.069 253.451 208.257 253.451 208.475C253.451 208.69 253.487 208.878 253.558 209.041C253.63 209.204 253.731 209.331 253.862 209.422C253.993 209.51 254.148 209.553 254.327 209.553C254.521 209.553 254.686 209.502 254.821 209.399C254.96 209.291 255.049 209.148 255.089 208.97H255.672C255.633 209.188 255.549 209.379 255.422 209.541C255.299 209.704 255.142 209.831 254.952 209.923C254.761 210.014 254.549 210.06 254.315 210.06ZM257.584 210.06C257.278 210.06 257.008 209.992 256.774 209.857C256.544 209.722 256.363 209.535 256.232 209.297C256.101 209.059 256.036 208.785 256.036 208.475C256.036 208.162 256.099 207.888 256.226 207.654C256.357 207.415 256.54 207.231 256.774 207.1C257.008 206.969 257.276 206.903 257.578 206.903C257.872 206.903 258.126 206.967 258.34 207.094C258.559 207.217 258.725 207.39 258.841 207.612C258.96 207.834 259.019 208.098 259.019 208.404C259.019 208.452 259.017 208.497 259.013 208.541C259.013 208.581 259.009 208.622 259.001 208.666H256.453V208.202H258.567L258.412 208.386C258.412 208.061 258.338 207.812 258.192 207.642C258.045 207.471 257.84 207.386 257.578 207.386C257.296 207.386 257.072 207.483 256.905 207.677C256.742 207.868 256.661 208.134 256.661 208.475C256.661 208.821 256.742 209.091 256.905 209.285C257.072 209.48 257.302 209.577 257.596 209.577C257.775 209.577 257.929 209.541 258.06 209.47C258.192 209.395 258.289 209.285 258.352 209.142H258.936C258.837 209.428 258.668 209.653 258.43 209.815C258.195 209.978 257.914 210.06 257.584 210.06ZM260.828 210V205.712H262.519C262.828 205.712 263.092 205.764 263.311 205.867C263.529 205.966 263.698 206.107 263.817 206.29C263.936 206.469 263.996 206.681 263.996 206.927C263.996 207.173 263.936 207.388 263.817 207.57C263.698 207.753 263.529 207.896 263.311 207.999C263.092 208.102 262.828 208.154 262.519 208.154H261.304V207.642H262.501C262.787 207.642 263.003 207.58 263.15 207.457C263.301 207.33 263.376 207.155 263.376 206.933C263.376 206.711 263.303 206.538 263.156 206.415C263.009 206.292 262.791 206.23 262.501 206.23H261.459V210H260.828ZM263.305 210L261.215 207.838H261.983L264.21 210H263.305ZM266.519 210C266.499 209.925 266.485 209.841 266.477 209.75C266.473 209.659 266.471 209.547 266.471 209.416H266.441V207.969C266.441 207.775 266.392 207.63 266.292 207.535C266.197 207.435 266.044 207.386 265.834 207.386C265.631 207.386 265.468 207.425 265.345 207.505C265.226 207.584 265.157 207.697 265.137 207.844H264.547C264.575 207.558 264.704 207.33 264.934 207.159C265.165 206.989 265.472 206.903 265.858 206.903C266.255 206.903 266.552 206.997 266.751 207.183C266.949 207.366 267.049 207.636 267.049 207.993V209.416C267.049 209.508 267.055 209.601 267.066 209.696C267.078 209.792 267.096 209.893 267.12 210H266.519ZM265.47 210.06C265.161 210.06 264.915 209.984 264.732 209.833C264.549 209.678 264.458 209.47 264.458 209.208C264.458 208.938 264.553 208.726 264.744 208.571C264.938 208.412 265.216 208.305 265.578 208.249L266.578 208.088V208.523L265.673 208.666C265.47 208.698 265.318 208.751 265.214 208.827C265.115 208.902 265.065 209.011 265.065 209.154C265.065 209.293 265.111 209.399 265.202 209.47C265.298 209.537 265.435 209.571 265.613 209.571C265.852 209.571 266.048 209.514 266.203 209.399C266.362 209.283 266.441 209.138 266.441 208.964L266.519 209.404C266.447 209.615 266.32 209.778 266.137 209.893C265.955 210.004 265.732 210.06 265.47 210.06ZM269.058 210.06C268.704 210.06 268.444 209.978 268.278 209.815C268.115 209.649 268.033 209.404 268.033 209.083V206.266L268.647 206.034V209.089C268.647 209.248 268.689 209.365 268.772 209.44C268.855 209.516 268.99 209.553 269.177 209.553C269.248 209.553 269.312 209.547 269.367 209.535C269.423 209.524 269.471 209.51 269.51 209.494V209.994C269.467 210.014 269.405 210.03 269.326 210.042C269.246 210.054 269.157 210.06 269.058 210.06ZM267.426 207.457V206.963H269.51V207.457H267.426ZM271.332 210.06C271.026 210.06 270.756 209.992 270.522 209.857C270.292 209.722 270.111 209.535 269.98 209.297C269.849 209.059 269.784 208.785 269.784 208.475C269.784 208.162 269.847 207.888 269.974 207.654C270.105 207.415 270.288 207.231 270.522 207.1C270.756 206.969 271.024 206.903 271.326 206.903C271.62 206.903 271.874 206.967 272.088 207.094C272.307 207.217 272.473 207.39 272.589 207.612C272.708 207.834 272.767 208.098 272.767 208.404C272.767 208.452 272.765 208.497 272.761 208.541C272.761 208.581 272.757 208.622 272.749 208.666H270.201V208.202H272.315L272.16 208.386C272.16 208.061 272.086 207.812 271.939 207.642C271.793 207.471 271.588 207.386 271.326 207.386C271.044 207.386 270.82 207.483 270.653 207.677C270.49 207.868 270.409 208.134 270.409 208.475C270.409 208.821 270.49 209.091 270.653 209.285C270.82 209.48 271.05 209.577 271.344 209.577C271.523 209.577 271.677 209.541 271.808 209.47C271.939 209.395 272.037 209.285 272.1 209.142H272.684C272.585 209.428 272.416 209.653 272.178 209.815C271.943 209.978 271.662 210.06 271.332 210.06Z" fill="#7A8EAC"/>
</g>
</g>
<defs>
<filter id="filter0_dd_2480_93653" x="0" y="0" width="310" height="257" filterUnits="userSpaceOnUse" color-interpolation-filters="sRGB">
<feFlood flood-opacity="0" result="BackgroundImageFix"/>
<feColorMatrix in="SourceAlpha" type="matrix" values="0 0 0 0 0 0 0 0 0 0 0 0 0 0 0 0 0 0 127 0" result="hardAlpha"/>
<feMorphology radius="2" operator="erode" in="SourceAlpha" result="effect1_dropShadow_2480_93653"/>
<feOffset dy="2"/>
<feGaussianBlur stdDeviation="2"/>
<feComposite in2="hardAlpha" operator="out"/>
<feColorMatrix type="matrix" values="0 0 0 0 0.0627451 0 0 0 0 0.0941176 0 0 0 0 0.156863 0 0 0 0.06 0"/>
<feBlend mode="normal" in2="BackgroundImageFix" result="effect1_dropShadow_2480_93653"/>
<feColorMatrix in="SourceAlpha" type="matrix" values="0 0 0 0 0 0 0 0 0 0 0 0 0 0 0 0 0 0 127 0" result="hardAlpha"/>
<feMorphology radius="2" operator="erode" in="SourceAlpha" result="effect2_dropShadow_2480_93653"/>
<feOffset dy="4"/>
<feGaussianBlur stdDeviation="4"/>
<feComposite in2="hardAlpha" operator="out"/>
<feColorMatrix type="matrix" values="0 0 0 0 0.0627451 0 0 0 0 0.0941176 0 0 0 0 0.156863 0 0 0 0.1 0"/>
<feBlend mode="normal" in2="effect1_dropShadow_2480_93653" result="effect2_dropShadow_2480_93653"/>
<feBlend mode="normal" in="SourceGraphic" in2="effect2_dropShadow_2480_93653" result="shape"/>
</filter>
<filter id="filter1_dii_2480_93653" x="154.635" y="21.2276" width="133.09" height="27.0897" filterUnits="userSpaceOnUse" color-interpolation-filters="sRGB">
<feFlood flood-opacity="0" result="BackgroundImageFix"/>
<feColorMatrix in="SourceAlpha" type="matrix" values="0 0 0 0 0 0 0 0 0 0 0 0 0 0 0 0 0 0 127 0" result="hardAlpha"/>
<feOffset dy="0.772422"/>
<feGaussianBlur stdDeviation="0.772422"/>
<feComposite in2="hardAlpha" operator="out"/>
<feColorMatrix type="matrix" values="0 0 0 0 0.0627451 0 0 0 0 0.0941176 0 0 0 0 0.156863 0 0 0 0.05 0"/>
<feBlend mode="normal" in2="BackgroundImageFix" result="effect1_dropShadow_2480_93653"/>
<feBlend mode="normal" in="SourceGraphic" in2="effect1_dropShadow_2480_93653" result="shape"/>
<feColorMatrix in="SourceAlpha" type="matrix" values="0 0 0 0 0 0 0 0 0 0 0 0 0 0 0 0 0 0 127 0" result="hardAlpha"/>
<feOffset dy="-1.54484"/>
<feComposite in2="hardAlpha" operator="arithmetic" k2="-1" k3="1"/>
<feColorMatrix type="matrix" values="0 0 0 0 0.0627451 0 0 0 0 0.0941176 0 0 0 0 0.156863 0 0 0 0.05 0"/>
<feBlend mode="normal" in2="shape" result="effect2_innerShadow_2480_93653"/>
<feColorMatrix in="SourceAlpha" type="matrix" values="0 0 0 0 0 0 0 0 0 0 0 0 0 0 0 0 0 0 127 0" result="hardAlpha"/>
<feMorphology radius="0.772422" operator="erode" in="SourceAlpha" result="effect3_innerShadow_2480_93653"/>
<feOffset/>
<feComposite in2="hardAlpha" operator="arithmetic" k2="-1" k3="1"/>
<feColorMatrix type="matrix" values="0 0 0 0 0.0627451 0 0 0 0 0.0941176 0 0 0 0 0.156863 0 0 0 0.18 0"/>
<feBlend mode="normal" in2="effect2_innerShadow_2480_93653" result="effect3_innerShadow_2480_93653"/>
</filter>
<filter id="filter2_d_2480_93653" x="5" y="45" width="300" height="143" filterUnits="userSpaceOnUse" color-interpolation-filters="sRGB">
<feFlood flood-opacity="0" result="BackgroundImageFix"/>
<feColorMatrix in="SourceAlpha" type="matrix" values="0 0 0 0 0 0 0 0 0 0 0 0 0 0 0 0 0 0 127 0" result="hardAlpha"/>
<feOffset/>
<feGaussianBlur stdDeviation="8"/>
<feComposite in2="hardAlpha" operator="out"/>
<feColorMatrix type="matrix" values="0 0 0 0 0.315438 0 0 0 0 0.302814 0 0 0 0 0.673976 0 0 0 0.25 0"/>
<feBlend mode="normal" in2="BackgroundImageFix" result="effect1_dropShadow_2480_93653"/>
<feBlend mode="normal" in="SourceGraphic" in2="effect1_dropShadow_2480_93653" result="shape"/>
</filter>
<filter id="filter3_d_2480_93653" x="24.8694" y="188" width="260.261" height="36" filterUnits="userSpaceOnUse" color-interpolation-filters="sRGB">
<feFlood flood-opacity="0" result="BackgroundImageFix"/>
<feColorMatrix in="SourceAlpha" type="matrix" values="0 0 0 0 0 0 0 0 0 0 0 0 0 0 0 0 0 0 127 0" result="hardAlpha"/>
<feOffset dy="3"/>
<feGaussianBlur stdDeviation="2"/>
<feComposite in2="hardAlpha" operator="out"/>
<feColorMatrix type="matrix" values="0 0 0 0 0 0 0 0 0 0 0 0 0 0 0 0 0 0 0.1 0"/>
<feBlend mode="normal" in2="BackgroundImageFix" result="effect1_dropShadow_2480_93653"/>
<feBlend mode="normal" in="SourceGraphic" in2="effect1_dropShadow_2480_93653" result="shape"/>
</filter>
<linearGradient id="paint0_linear_2480_93653" x1="155" y1="172" x2="155" y2="61" gradientUnits="userSpaceOnUse">
<stop stop-color="#FAFBFF" stop-opacity="0"/>
<stop offset="1" stop-color="#F3F6FE"/>
</linearGradient>
</defs>
</svg>
