<svg width="18" height="17" viewBox="0 0 18 17" fill="none" xmlns="http://www.w3.org/2000/svg">
<path d="M16.6929 0.150268H13.6951V0.146484L13.2394 0.150268H12.7633V0.154052L2.98181 0.232253C2.32246 0.237614 1.75267 0.688217 1.595 1.3277L0.122421 7.31167C-0.045964 7.94548 0.0628237 8.57676 0.421666 9.04376C0.780193 9.51045 1.36197 9.77816 2.01848 9.77816L5.71097 9.77721C5.87652 9.77721 6.02661 9.85447 6.12278 9.9888C6.21864 10.1231 6.24324 10.2899 6.18964 10.4463L4.92076 14.2851C4.59597 15.3052 5.13171 16.1377 5.80777 16.5098C6.48257 16.8819 7.47365 16.891 8.16201 16.0702L13.4459 9.77784H16.6922C17.2173 9.77784 17.6445 9.35057 17.6445 8.82555V1.10224C17.6445 0.577222 17.2173 0.149953 16.6922 0.149953L16.6929 0.150268ZM7.44937 15.4714C7.07665 15.9135 6.57402 15.8681 6.25774 15.6934C5.94052 15.5187 5.63308 15.1192 5.80903 14.568L7.07161 10.7472C7.22139 10.3095 7.15044 9.82325 6.88083 9.44643C6.61154 9.06962 6.17419 8.8451 5.71129 8.8451L2.01848 8.84605C1.64892 8.84605 1.34432 8.71456 1.16048 8.47586C0.977275 8.23715 0.928398 7.90858 1.0252 7.5428L2.49967 1.55064C2.55549 1.32486 2.75667 1.16562 2.98906 1.16405L12.7633 1.08584V9.14246L7.44905 15.4717L7.44937 15.4714ZM16.6929 8.84605H13.6951V1.08175H16.6929L16.7134 1.10224L16.6929 8.84605Z" fill="#344054"/>
</svg>
