<svg width="610" height="531" viewBox="0 0 610 531" fill="none" xmlns="http://www.w3.org/2000/svg">
<g filter="url(#filter0_d_3080_16724)">
<rect x="79" y="31" width="452" height="371.611" rx="18.2013" fill="white" shape-rendering="crispEdges"/>
<rect x="79.7584" y="31.7584" width="450.483" height="370.094" rx="17.443" stroke="#C8CDD5" stroke-width="1.51678" shape-rendering="crispEdges"/>
<path d="M135.91 61.3354H110.309C105.583 61.3354 101.752 65.1667 101.752 69.8929V95.4942C101.752 100.22 105.583 104.052 110.309 104.052H135.91C140.637 104.052 144.468 100.22 144.468 95.4942V69.8929C144.468 65.1667 140.637 61.3354 135.91 61.3354Z" fill="url(#paint0_linear_3080_16724)"/>
<path d="M134.231 69.4781H132.075C132.075 69.4781 131.268 73.5106 126.938 73.5106H122.868C116.888 73.5106 111.979 78.6788 111.979 84.4214L111.993 84.7918C111.993 90.9426 117.19 95.7559 122.788 95.7559H123.023C129.922 95.7559 134.245 90.2262 134.245 85.0846L134.234 69.4781H134.231ZM128.4 84.641C128.4 87.5667 126.027 89.94 123.101 89.94C120.175 89.94 117.802 87.5667 117.802 84.641C117.802 81.7153 120.175 79.342 123.101 79.342H128.4V84.641Z" fill="url(#paint1_linear_3080_16724)"/>
<path d="M134.231 69.4781C133.721 69.4781 132.466 69.4781 132.075 69.4781C132.075 69.4781 131.268 73.5106 126.938 73.5106C130.727 73.5106 133.874 72.0222 134.234 69.4781H134.231Z" fill="#FAA858"/>
<path d="M158.013 92.3354V75.9542H160.97V92.3354H158.013ZM168.729 92.3354V75.9542H171.686V92.3354H168.729ZM159.423 82.6432H170.071V84.9639H159.423V82.6432ZM180.118 92.563C178.89 92.563 177.805 92.3051 176.865 91.7894C175.94 91.2737 175.219 90.5608 174.703 89.6508C174.188 88.7255 173.93 87.6714 173.93 86.4883C173.93 85.3052 174.188 84.2662 174.703 83.3713C175.219 82.4764 175.94 81.7787 176.865 81.2781C177.805 80.7624 178.89 80.5046 180.118 80.5046C181.362 80.5046 182.447 80.7624 183.372 81.2781C184.297 81.7787 185.018 82.4764 185.533 83.3713C186.049 84.2662 186.307 85.3052 186.307 86.4883C186.307 87.6714 186.041 88.7255 185.511 89.6508C184.995 90.5608 184.274 91.2737 183.349 91.7894C182.424 92.3051 181.347 92.563 180.118 92.563ZM180.118 90.265C180.725 90.265 181.271 90.1134 181.757 89.81C182.242 89.4915 182.621 89.0516 182.894 88.4904C183.167 87.914 183.304 87.2391 183.304 86.4655C183.304 85.3279 183 84.433 182.394 83.7808C181.802 83.1286 181.044 82.8025 180.118 82.8025C179.193 82.8025 178.427 83.1286 177.82 83.7808C177.214 84.433 176.91 85.3279 176.91 86.4655C176.91 87.2391 177.047 87.914 177.32 88.4904C177.608 89.0516 177.987 89.4915 178.458 89.81C178.943 90.1134 179.497 90.265 180.118 90.265ZM190.743 92.3354L187.194 80.7321H190.197L192.29 89.446H192.085L194.656 80.7321H197.273L199.889 89.446H199.662L201.732 80.7321H204.667L201.118 92.3354H198.433L195.817 83.7126H196.044L193.428 92.3354H190.743ZM216.433 92.563C215.266 92.563 214.234 92.3051 213.339 91.7894C212.459 91.2737 211.762 90.5608 211.246 89.6508C210.746 88.7255 210.495 87.6789 210.495 86.511C210.495 85.3431 210.746 84.3117 211.246 83.4168C211.762 82.5067 212.459 81.7938 213.339 81.2781C214.234 80.7624 215.266 80.5046 216.433 80.5046C217.389 80.5046 218.254 80.6866 219.027 81.0506C219.801 81.3995 220.438 81.9 220.938 82.5522C221.439 83.1893 221.757 83.9325 221.894 84.7819H219.141C218.974 84.16 218.656 83.6746 218.185 83.3258C217.715 82.9769 217.146 82.8025 216.479 82.8025C215.857 82.8025 215.319 82.9542 214.864 83.2575C214.424 83.5609 214.082 83.9932 213.84 84.5544C213.597 85.1156 213.476 85.7678 213.476 86.511C213.476 87.2694 213.597 87.9292 213.84 88.4904C214.082 89.0516 214.431 89.4915 214.886 89.81C215.341 90.1134 215.872 90.265 216.479 90.265C217.146 90.265 217.715 90.0906 218.185 89.7418C218.656 89.3929 218.974 88.9075 219.141 88.2857H221.894C221.757 89.135 221.431 89.8859 220.916 90.5381C220.415 91.1751 219.778 91.6757 219.004 92.0397C218.246 92.3885 217.389 92.563 216.433 92.563ZM231.266 92.3354C231.19 92.0321 231.129 91.6984 231.084 91.3344C231.053 90.9703 231.038 90.5305 231.038 90.0148H230.947V84.5089C230.947 83.9022 230.773 83.4471 230.424 83.1438C230.09 82.8252 229.575 82.666 228.877 82.666C228.194 82.666 227.648 82.7949 227.239 83.0528C226.844 83.2954 226.602 83.6519 226.511 84.1221H223.758C223.879 83.0452 224.395 82.173 225.305 81.5057C226.215 80.8383 227.436 80.5046 228.968 80.5046C230.56 80.5046 231.766 80.8686 232.585 81.5967C233.404 82.3095 233.814 83.3637 233.814 84.7591V90.0148C233.814 90.3788 233.837 90.7504 233.882 91.1296C233.943 91.5088 234.026 91.9108 234.132 92.3354H231.266ZM227.239 92.563C226.071 92.563 225.138 92.2748 224.44 91.6984C223.758 91.1069 223.416 90.3181 223.416 89.3322C223.416 88.2705 223.803 87.4287 224.577 86.8068C225.35 86.1849 226.442 85.7678 227.853 85.5554L231.471 85.0094V86.8295L228.331 87.3073C227.648 87.4135 227.133 87.6031 226.784 87.8761C226.45 88.1491 226.283 88.5283 226.283 89.0137C226.283 89.4536 226.442 89.7948 226.761 90.0375C227.079 90.265 227.519 90.3788 228.081 90.3788C228.9 90.3788 229.582 90.174 230.128 89.7645C230.674 89.355 230.947 88.8544 230.947 88.2629L231.266 90.0148C230.962 90.849 230.462 91.4861 229.764 91.9259C229.082 92.3506 228.24 92.563 227.239 92.563ZM236.945 92.3354V80.7321H239.743V83.4623H239.812V92.3354H236.945ZM245.09 92.3354V85.0094C245.09 84.2965 244.908 83.7581 244.544 83.394C244.18 83.03 243.649 82.848 242.951 82.848C242.345 82.848 241.799 82.9845 241.313 83.2575C240.843 83.5306 240.471 83.9097 240.198 84.3951C239.941 84.8805 239.812 85.4417 239.812 86.0787L239.516 83.303C239.91 82.4536 240.487 81.7787 241.245 81.2781C242.003 80.7624 242.914 80.5046 243.975 80.5046C245.234 80.5046 246.212 80.861 246.91 81.5739C247.623 82.2868 247.98 83.2348 247.98 84.4179V92.3354H245.09ZM255.616 92.3354V75.9542H258.574V92.3354H255.616ZM266.361 92.3354V75.9542H269.228V92.3354H266.361ZM274.506 92.3354V85.0094C274.506 84.2965 274.324 83.7581 273.96 83.394C273.596 83.03 273.065 82.848 272.368 82.848C271.761 82.848 271.215 82.9845 270.73 83.2575C270.259 83.5306 269.888 83.9097 269.615 84.3951C269.357 84.8805 269.228 85.4417 269.228 86.0787L268.932 83.303C269.327 82.4536 269.903 81.7787 270.661 81.2781C271.42 80.7624 272.33 80.5046 273.392 80.5046C274.65 80.5046 275.629 80.861 276.327 81.5739C277.039 82.2868 277.396 83.2348 277.396 84.4179V92.3354H274.506ZM285.73 92.563C284.501 92.563 283.424 92.3051 282.499 91.7894C281.589 91.2737 280.876 90.5608 280.361 89.6508C279.86 88.7407 279.61 87.6941 279.61 86.511C279.61 85.3279 279.86 84.2889 280.361 83.394C280.876 82.484 281.589 81.7787 282.499 81.2781C283.409 80.7624 284.471 80.5046 285.684 80.5046C286.837 80.5046 287.838 80.7473 288.688 81.2326C289.537 81.7028 290.197 82.3702 290.667 83.2348C291.137 84.0993 291.372 85.108 291.372 86.2608C291.372 86.4731 291.365 86.6703 291.35 86.8523C291.334 87.0343 291.312 87.2163 291.281 87.3983H281.384V85.3962H289.074L288.483 85.9422C288.483 84.8501 288.233 84.0311 287.732 83.485C287.232 82.939 286.534 82.666 285.639 82.666C284.668 82.666 283.895 82.9997 283.318 83.6671C282.757 84.3344 282.476 85.2976 282.476 86.5565C282.476 87.8003 282.757 88.7559 283.318 89.4232C283.895 90.0754 284.706 90.4016 285.753 90.4016C286.359 90.4016 286.89 90.2878 287.345 90.0603C287.8 89.8328 288.134 89.4839 288.346 89.0137H291.054C290.675 90.1058 290.03 90.9703 289.12 91.6074C288.225 92.2444 287.095 92.563 285.73 92.563ZM293.745 92.3354V75.9542H296.612V92.3354H293.745ZM306.503 92.563C305.396 92.563 304.494 92.3051 303.796 91.7894C303.113 91.2585 302.689 90.5305 302.522 89.6052L302.749 89.5825V96.9995H299.883V80.7321H302.681V83.3485L302.454 83.303C302.666 82.4385 303.151 81.7559 303.91 81.2554C304.668 80.7548 305.593 80.5046 306.685 80.5046C307.717 80.5046 308.612 80.7548 309.37 81.2554C310.144 81.7408 310.743 82.4309 311.168 83.3258C311.592 84.2207 311.805 85.2748 311.805 86.4883C311.805 87.7169 311.585 88.7862 311.145 89.6963C310.705 90.6063 310.091 91.3116 309.302 91.8122C308.513 92.3127 307.58 92.563 306.503 92.563ZM305.775 90.1968C306.701 90.1968 307.436 89.8783 307.982 89.2412C308.528 88.589 308.801 87.6789 308.801 86.511C308.801 85.3431 308.521 84.4406 307.96 83.8036C307.413 83.1665 306.678 82.848 305.753 82.848C304.843 82.848 304.107 83.1741 303.546 83.8263C302.984 84.4634 302.704 85.3659 302.704 86.5338C302.704 87.7017 302.984 88.6042 303.546 89.2412C304.107 89.8783 304.85 90.1968 305.775 90.1968ZM319.596 96.9995L322.599 90.265L323.122 89.4005L326.399 80.7321H329.447L322.508 96.9995H319.596ZM322.167 92.2217L317.457 80.7321H320.574L324.51 91.1524L322.167 92.2217ZM336.238 92.563C335.01 92.563 333.925 92.3051 332.985 91.7894C332.06 91.2737 331.339 90.5608 330.824 89.6508C330.308 88.7255 330.05 87.6714 330.05 86.4883C330.05 85.3052 330.308 84.2662 330.824 83.3713C331.339 82.4764 332.06 81.7787 332.985 81.2781C333.925 80.7624 335.01 80.5046 336.238 80.5046C337.482 80.5046 338.567 80.7624 339.492 81.2781C340.417 81.7787 341.138 82.4764 341.653 83.3713C342.169 84.2662 342.427 85.3052 342.427 86.4883C342.427 87.6714 342.161 88.7255 341.631 89.6508C341.115 90.5608 340.394 91.2737 339.469 91.7894C338.544 92.3051 337.467 92.563 336.238 92.563ZM336.238 90.265C336.845 90.265 337.391 90.1134 337.877 89.81C338.362 89.4915 338.741 89.0516 339.014 88.4904C339.287 87.914 339.424 87.2391 339.424 86.4655C339.424 85.3279 339.12 84.433 338.514 83.7808C337.922 83.1286 337.164 82.8025 336.238 82.8025C335.313 82.8025 334.547 83.1286 333.941 83.7808C333.334 84.433 333.03 85.3279 333.03 86.4655C333.03 87.2391 333.167 87.914 333.44 88.4904C333.728 89.0516 334.107 89.4915 334.578 89.81C335.063 90.1134 335.617 90.265 336.238 90.265ZM348.517 92.563C347.713 92.563 347.015 92.3961 346.424 92.0624C345.848 91.7136 345.4 91.2434 345.082 90.6518C344.778 90.0603 344.627 89.3929 344.627 88.6497V80.7321H347.493V88.0581C347.493 88.771 347.668 89.3095 348.017 89.6735C348.381 90.0375 348.889 90.2195 349.541 90.2195C350.132 90.2195 350.648 90.083 351.088 89.81C351.543 89.537 351.899 89.1578 352.157 88.6724C352.43 88.1719 352.567 87.6107 352.567 86.9888L352.863 89.7645C352.483 90.6139 351.915 91.2965 351.156 91.8122C350.413 92.3127 349.533 92.563 348.517 92.563ZM352.658 92.3354V89.6052H352.567V80.7321H355.456V92.3354H352.658ZM368.558 92.563C367.133 92.563 366.079 92.2293 365.396 91.5619C364.729 90.8793 364.395 89.8631 364.395 88.5132V78.0929L367.284 77.0236V88.5814C367.284 89.1426 367.436 89.5597 367.739 89.8328C368.043 90.1058 368.521 90.2423 369.173 90.2423C369.431 90.2423 369.658 90.2271 369.855 90.1968C370.068 90.1513 370.265 90.0982 370.447 90.0375V92.2672C370.265 92.3582 370.007 92.4265 369.673 92.472C369.34 92.5326 368.968 92.563 368.558 92.563ZM362.165 82.9845V80.7321H370.447V82.9845H362.165ZM377.742 92.563C376.513 92.563 375.429 92.3051 374.488 91.7894C373.563 91.2737 372.842 90.5608 372.327 89.6508C371.811 88.7255 371.553 87.6714 371.553 86.4883C371.553 85.3052 371.811 84.2662 372.327 83.3713C372.842 82.4764 373.563 81.7787 374.488 81.2781C375.429 80.7624 376.513 80.5046 377.742 80.5046C378.985 80.5046 380.07 80.7624 380.995 81.2781C381.92 81.7787 382.641 82.4764 383.156 83.3713C383.672 84.2662 383.93 85.3052 383.93 86.4883C383.93 87.6714 383.665 88.7255 383.134 89.6508C382.618 90.5608 381.898 91.2737 380.972 91.7894C380.047 92.3051 378.97 92.563 377.742 92.563ZM377.742 90.265C378.348 90.265 378.894 90.1134 379.38 89.81C379.865 89.4915 380.244 89.0516 380.517 88.4904C380.79 87.914 380.927 87.2391 380.927 86.4655C380.927 85.3279 380.623 84.433 380.017 83.7808C379.425 83.1286 378.667 82.8025 377.742 82.8025C376.816 82.8025 376.05 83.1286 375.444 83.7808C374.837 84.433 374.534 85.3279 374.534 86.4655C374.534 87.2391 374.67 87.914 374.943 88.4904C375.231 89.0516 375.611 89.4915 376.081 89.81C376.566 90.1134 377.12 90.265 377.742 90.265ZM394.703 92.3354V89.719L394.931 89.7645C394.734 90.6139 394.256 91.2965 393.497 91.8122C392.739 92.3127 391.837 92.563 390.79 92.563C389.728 92.563 388.803 92.3203 388.014 91.8349C387.241 91.3344 386.642 90.6367 386.217 89.7418C385.792 88.8469 385.58 87.7927 385.58 86.5793C385.58 85.3507 385.8 84.2814 386.24 83.3713C386.68 82.4612 387.294 81.7559 388.083 81.2554C388.886 80.7548 389.819 80.5046 390.881 80.5046C391.973 80.5046 392.876 80.77 393.588 81.3009C394.301 81.8166 394.741 82.5371 394.908 83.4623L394.612 83.485V75.9542H397.502V92.3354H394.703ZM391.632 90.2195C392.557 90.2195 393.293 89.901 393.839 89.264C394.4 88.6118 394.681 87.7017 394.681 86.5338C394.681 85.3659 394.4 84.4634 393.839 83.8263C393.278 83.1893 392.534 82.8708 391.609 82.8708C390.699 82.8708 389.963 83.1969 389.402 83.8491C388.841 84.4861 388.56 85.3886 388.56 86.5565C388.56 87.7244 388.841 88.6269 389.402 89.264C389.963 89.901 390.707 90.2195 391.632 90.2195ZM408.015 92.3354C407.939 92.0321 407.879 91.6984 407.833 91.3344C407.803 90.9703 407.788 90.5305 407.788 90.0148H407.697V84.5089C407.697 83.9022 407.522 83.4471 407.173 83.1438C406.84 82.8252 406.324 82.666 405.626 82.666C404.944 82.666 404.398 82.7949 403.988 83.0528C403.594 83.2954 403.351 83.6519 403.26 84.1221H400.507C400.628 83.0452 401.144 82.173 402.054 81.5057C402.964 80.8383 404.185 80.5046 405.717 80.5046C407.31 80.5046 408.516 80.8686 409.335 81.5967C410.154 82.3095 410.563 83.3637 410.563 84.7591V90.0148C410.563 90.3788 410.586 90.7504 410.632 91.1296C410.692 91.5088 410.776 91.9108 410.882 92.3354H408.015ZM403.988 92.563C402.82 92.563 401.887 92.2748 401.19 91.6984C400.507 91.1069 400.166 90.3181 400.166 89.3322C400.166 88.2705 400.553 87.4287 401.326 86.8068C402.1 86.1849 403.192 85.7678 404.602 85.5554L408.22 85.0094V86.8295L405.08 87.3073C404.398 87.4135 403.882 87.6031 403.533 87.8761C403.199 88.1491 403.033 88.5283 403.033 89.0137C403.033 89.4536 403.192 89.7948 403.51 90.0375C403.829 90.265 404.269 90.3788 404.83 90.3788C405.649 90.3788 406.332 90.174 406.878 89.7645C407.424 89.355 407.697 88.8544 407.697 88.2629L408.015 90.0148C407.712 90.849 407.211 91.4861 406.514 91.9259C405.831 92.3506 404.989 92.563 403.988 92.563ZM413.734 96.9995L416.737 90.265L417.26 89.4005L420.536 80.7321H423.585L416.646 96.9995H413.734ZM416.305 92.2217L411.595 80.7321H414.712L418.648 91.1524L416.305 92.2217ZM429.122 86.5793C429.122 85.8209 429.22 85.1838 429.417 84.6681C429.63 84.1373 429.895 83.6974 430.214 83.3485C430.532 82.9845 430.866 82.666 431.215 82.393C431.579 82.1199 431.92 81.8621 432.239 81.6194C432.557 81.3616 432.815 81.081 433.012 80.7776C433.209 80.4742 433.308 80.1026 433.308 79.6628C433.308 79.0105 433.073 78.51 432.603 78.1612C432.148 77.7971 431.511 77.6151 430.691 77.6151C429.766 77.6151 429 77.8426 428.394 78.2977C427.802 78.7527 427.438 79.4049 427.301 80.2543H424.458C424.594 79.2381 424.935 78.3583 425.481 77.6151C426.043 76.8719 426.771 76.2955 427.666 75.886C428.56 75.4765 429.584 75.2717 430.737 75.2717C431.859 75.2717 432.83 75.4537 433.649 75.8177C434.483 76.1818 435.128 76.6899 435.583 77.3421C436.053 77.9943 436.288 78.7679 436.288 79.6628C436.288 80.315 436.182 80.8686 435.97 81.3236C435.758 81.7787 435.485 82.173 435.151 82.5067C434.832 82.8404 434.483 83.1438 434.104 83.4168C433.725 83.6898 433.369 83.9704 433.035 84.2586C432.716 84.5468 432.451 84.8729 432.239 85.2369C432.026 85.601 431.92 86.0484 431.92 86.5793H429.122ZM428.894 92.3354V89.0592H432.17V92.3354H428.894Z" fill="#344054"/>
<rect x="137.387" y="130.087" width="169.476" height="29.7905" rx="14.8953" fill="#F1F3FE" fill-opacity="0.94"/>
<path d="M155.269 150.119C154.586 150.119 153.954 149.997 153.371 149.751C152.789 149.496 152.284 149.146 151.856 148.7C151.438 148.245 151.11 147.708 150.873 147.089C150.637 146.47 150.518 145.792 150.518 145.055C150.518 144.318 150.632 143.644 150.86 143.035C151.096 142.416 151.424 141.883 151.843 141.437C152.27 140.982 152.775 140.632 153.358 140.386C153.94 140.141 154.573 140.018 155.255 140.018C156.02 140.018 156.707 140.172 157.317 140.482C157.926 140.782 158.422 141.21 158.805 141.765C159.196 142.32 159.437 142.966 159.528 143.703H158.108C157.99 142.93 157.676 142.329 157.166 141.902C156.666 141.465 156.033 141.246 155.269 141.246C154.623 141.246 154.049 141.406 153.549 141.724C153.057 142.033 152.675 142.475 152.402 143.048C152.129 143.612 151.993 144.281 151.993 145.055C151.993 145.819 152.129 146.493 152.402 147.075C152.684 147.649 153.071 148.095 153.563 148.413C154.054 148.732 154.623 148.891 155.269 148.891C156.033 148.891 156.67 148.677 157.18 148.249C157.699 147.812 158.013 147.207 158.122 146.434H159.555C159.455 147.18 159.21 147.831 158.818 148.386C158.427 148.932 157.926 149.36 157.317 149.669C156.716 149.969 156.033 150.119 155.269 150.119ZM164.077 150.119C163.367 150.119 162.743 149.965 162.207 149.655C161.67 149.337 161.251 148.904 160.951 148.358C160.65 147.803 160.5 147.175 160.5 146.475C160.5 145.765 160.65 145.141 160.951 144.604C161.26 144.067 161.679 143.649 162.207 143.349C162.743 143.039 163.367 142.884 164.077 142.884C164.796 142.884 165.424 143.039 165.961 143.349C166.497 143.649 166.912 144.067 167.203 144.604C167.503 145.141 167.653 145.765 167.653 146.475C167.653 147.175 167.503 147.803 167.203 148.358C166.912 148.904 166.497 149.337 165.961 149.655C165.424 149.965 164.796 150.119 164.077 150.119ZM164.077 148.959C164.504 148.959 164.873 148.854 165.182 148.645C165.501 148.436 165.751 148.145 165.933 147.771C166.115 147.398 166.206 146.961 166.206 146.461C166.206 145.715 166.006 145.128 165.606 144.7C165.214 144.263 164.705 144.045 164.077 144.045C163.458 144.045 162.948 144.263 162.548 144.7C162.156 145.137 161.961 145.724 161.961 146.461C161.961 146.961 162.047 147.398 162.22 147.771C162.402 148.145 162.652 148.436 162.971 148.645C163.299 148.854 163.667 148.959 164.077 148.959ZM169.111 149.983V143.021H170.463V144.659H170.531V149.983H169.111ZM174.053 149.983V145.505C174.053 145.023 173.93 144.664 173.685 144.427C173.448 144.19 173.093 144.072 172.62 144.072C172.21 144.072 171.846 144.163 171.528 144.345C171.218 144.527 170.973 144.777 170.791 145.096C170.618 145.414 170.531 145.792 170.531 146.229L170.354 144.563C170.581 144.045 170.932 143.635 171.405 143.335C171.878 143.035 172.429 142.884 173.057 142.884C173.803 142.884 174.39 143.094 174.818 143.512C175.245 143.931 175.459 144.486 175.459 145.178V149.983H174.053ZM180.126 150.119C179.316 150.119 178.72 149.933 178.337 149.56C177.964 149.178 177.778 148.618 177.778 147.881V141.424L179.184 140.891V147.894C179.184 148.258 179.279 148.527 179.47 148.7C179.662 148.873 179.971 148.959 180.399 148.959C180.563 148.959 180.708 148.945 180.836 148.918C180.963 148.891 181.072 148.859 181.163 148.823V149.969C181.063 150.015 180.922 150.051 180.74 150.078C180.558 150.106 180.353 150.119 180.126 150.119ZM176.385 144.154V143.021H181.163V144.154H176.385ZM185.339 150.119C184.638 150.119 184.019 149.965 183.483 149.655C182.955 149.346 182.541 148.918 182.24 148.372C181.94 147.826 181.79 147.198 181.79 146.488C181.79 145.769 181.935 145.141 182.227 144.604C182.527 144.058 182.946 143.635 183.483 143.335C184.019 143.035 184.634 142.884 185.325 142.884C185.999 142.884 186.581 143.03 187.073 143.321C187.573 143.603 187.956 143.999 188.219 144.509C188.492 145.018 188.629 145.624 188.629 146.324C188.629 146.434 188.624 146.538 188.615 146.638C188.615 146.729 188.606 146.825 188.588 146.925H182.745V145.86H187.592L187.237 146.283C187.237 145.537 187.068 144.968 186.731 144.577C186.395 144.186 185.926 143.99 185.325 143.99C184.679 143.99 184.165 144.213 183.783 144.659C183.41 145.096 183.223 145.706 183.223 146.488C183.223 147.28 183.41 147.899 183.783 148.345C184.165 148.791 184.693 149.014 185.366 149.014C185.776 149.014 186.131 148.932 186.431 148.768C186.731 148.595 186.954 148.345 187.1 148.017H188.438C188.21 148.672 187.824 149.187 187.278 149.56C186.741 149.933 186.094 150.119 185.339 150.119ZM190.081 149.983V143.021H191.433V144.659H191.501V149.983H190.081ZM195.023 149.983V145.505C195.023 145.023 194.9 144.664 194.654 144.427C194.418 144.19 194.063 144.072 193.59 144.072C193.18 144.072 192.816 144.163 192.497 144.345C192.188 144.527 191.942 144.777 191.76 145.096C191.587 145.414 191.501 145.792 191.501 146.229L191.323 144.563C191.551 144.045 191.901 143.635 192.375 143.335C192.848 143.035 193.398 142.884 194.026 142.884C194.773 142.884 195.36 143.094 195.787 143.512C196.215 143.931 196.429 144.486 196.429 145.178V149.983H195.023ZM201.095 150.119C200.285 150.119 199.689 149.933 199.307 149.56C198.934 149.178 198.747 148.618 198.747 147.881V141.424L200.154 140.891V147.894C200.154 148.258 200.249 148.527 200.44 148.7C200.631 148.873 200.941 148.959 201.368 148.959C201.532 148.959 201.678 148.945 201.805 148.918C201.933 148.891 202.042 148.859 202.133 148.823V149.969C202.033 150.015 201.892 150.051 201.71 150.078C201.528 150.106 201.323 150.119 201.095 150.119ZM197.355 144.154V143.021H202.133V144.154H197.355ZM210.486 149.983C210.44 149.81 210.408 149.619 210.39 149.41C210.381 149.2 210.376 148.945 210.376 148.645H210.308V145.328C210.308 144.882 210.194 144.55 209.967 144.331C209.748 144.104 209.398 143.99 208.916 143.99C208.452 143.99 208.078 144.081 207.796 144.263C207.523 144.445 207.364 144.705 207.318 145.041H205.967C206.031 144.386 206.327 143.863 206.854 143.471C207.382 143.08 208.088 142.884 208.97 142.884C209.88 142.884 210.563 143.098 211.018 143.526C211.473 143.945 211.7 144.563 211.7 145.383V148.645C211.7 148.854 211.714 149.068 211.741 149.287C211.769 149.505 211.81 149.737 211.864 149.983H210.486ZM208.083 150.119C207.373 150.119 206.809 149.947 206.39 149.601C205.972 149.246 205.762 148.768 205.762 148.167C205.762 147.548 205.981 147.062 206.418 146.707C206.863 146.343 207.501 146.097 208.329 145.97L210.622 145.601V146.597L208.547 146.925C208.083 146.998 207.733 147.121 207.496 147.294C207.268 147.467 207.155 147.717 207.155 148.044C207.155 148.363 207.259 148.604 207.469 148.768C207.687 148.923 208.001 149 208.411 149C208.957 149 209.407 148.868 209.762 148.604C210.126 148.34 210.308 148.008 210.308 147.608L210.486 148.618C210.322 149.1 210.03 149.473 209.612 149.737C209.193 149.992 208.684 150.119 208.083 150.119ZM213.624 149.983V143.021H214.975V144.659H215.044V149.983H213.624ZM218.566 149.983V145.505C218.566 145.023 218.443 144.664 218.197 144.427C217.96 144.19 217.605 144.072 217.132 144.072C216.723 144.072 216.359 144.163 216.04 144.345C215.731 144.527 215.485 144.777 215.303 145.096C215.13 145.414 215.044 145.792 215.044 146.229L214.866 144.563C215.094 144.045 215.444 143.635 215.917 143.335C216.39 143.035 216.941 142.884 217.569 142.884C218.315 142.884 218.902 143.094 219.33 143.512C219.758 143.931 219.972 144.486 219.972 145.178V149.983H218.566ZM226.926 149.983V148.386L227.063 148.427C226.917 148.945 226.617 149.36 226.162 149.669C225.707 149.969 225.161 150.119 224.523 150.119C223.896 150.119 223.345 149.969 222.872 149.669C222.408 149.369 222.044 148.95 221.78 148.413C221.525 147.876 221.397 147.248 221.397 146.529C221.397 145.801 221.529 145.164 221.793 144.618C222.057 144.072 222.426 143.649 222.899 143.349C223.372 143.048 223.927 142.898 224.564 142.898C225.229 142.898 225.775 143.057 226.203 143.376C226.639 143.685 226.926 144.122 227.063 144.686L226.871 144.714V140.154H228.277V149.983H226.926ZM224.878 148.932C225.506 148.932 226.002 148.718 226.366 148.29C226.73 147.853 226.912 147.253 226.912 146.488C226.912 145.742 226.726 145.155 226.353 144.727C225.989 144.29 225.493 144.072 224.865 144.072C224.246 144.072 223.754 144.29 223.39 144.727C223.035 145.155 222.858 145.756 222.858 146.529C222.858 147.285 223.035 147.876 223.39 148.304C223.754 148.722 224.25 148.932 224.878 148.932ZM232.981 149.983V140.154H234.428V149.983H232.981ZM234.128 144.877L239.001 140.154H240.98L235.943 144.877H234.128ZM239.219 149.983L234.1 144.877H235.943L241.253 149.983H239.219ZM244.836 150.119C244.135 150.119 243.516 149.965 242.979 149.655C242.451 149.346 242.037 148.918 241.737 148.372C241.437 147.826 241.286 147.198 241.286 146.488C241.286 145.769 241.432 145.141 241.723 144.604C242.024 144.058 242.442 143.635 242.979 143.335C243.516 143.035 244.13 142.884 244.822 142.884C245.495 142.884 246.078 143.03 246.569 143.321C247.07 143.603 247.452 143.999 247.716 144.509C247.989 145.018 248.126 145.624 248.126 146.324C248.126 146.434 248.121 146.538 248.112 146.638C248.112 146.729 248.103 146.825 248.085 146.925H242.242V145.86H247.088L246.733 146.283C246.733 145.537 246.565 144.968 246.228 144.577C245.891 144.186 245.423 143.99 244.822 143.99C244.176 143.99 243.662 144.213 243.279 144.659C242.906 145.096 242.72 145.706 242.72 146.488C242.72 147.28 242.906 147.899 243.279 148.345C243.662 148.791 244.189 149.014 244.863 149.014C245.272 149.014 245.627 148.932 245.928 148.768C246.228 148.595 246.451 148.345 246.597 148.017H247.934C247.707 148.672 247.32 149.187 246.774 149.56C246.237 149.933 245.591 150.119 244.836 150.119ZM249.91 152.781L251.589 148.945L251.876 148.495L253.991 143.021H255.466L251.371 152.781H249.91ZM251.521 149.983L248.545 143.021H250.087L252.613 149.287L251.521 149.983ZM258.13 149.983L256 143.021H257.461L258.908 148.618H258.703L260.464 143.021H261.693L263.454 148.618H263.263L264.696 143.021H266.088L263.959 149.983H262.717L260.956 144.482H261.16L259.372 149.983H258.13ZM270.272 150.119C269.562 150.119 268.939 149.965 268.402 149.655C267.865 149.337 267.446 148.904 267.146 148.358C266.846 147.803 266.695 147.175 266.695 146.475C266.695 145.765 266.846 145.141 267.146 144.604C267.455 144.067 267.874 143.649 268.402 143.349C268.939 143.039 269.562 142.884 270.272 142.884C270.991 142.884 271.619 143.039 272.156 143.349C272.693 143.649 273.107 144.067 273.398 144.604C273.698 145.141 273.848 145.765 273.848 146.475C273.848 147.175 273.698 147.803 273.398 148.358C273.107 148.904 272.693 149.337 272.156 149.655C271.619 149.965 270.991 150.119 270.272 150.119ZM270.272 148.959C270.7 148.959 271.068 148.854 271.378 148.645C271.696 148.436 271.946 148.145 272.128 147.771C272.31 147.398 272.401 146.961 272.401 146.461C272.401 145.715 272.201 145.128 271.801 144.7C271.41 144.263 270.9 144.045 270.272 144.045C269.653 144.045 269.143 144.263 268.743 144.7C268.352 145.137 268.156 145.724 268.156 146.461C268.156 146.961 268.242 147.398 268.415 147.771C268.597 148.145 268.848 148.436 269.166 148.645C269.494 148.854 269.862 148.959 270.272 148.959ZM275.307 149.983V143.021H276.658V144.755H276.726V149.983H275.307ZM276.726 146.352L276.549 144.7C276.713 144.108 276.995 143.658 277.395 143.349C277.796 143.039 278.274 142.884 278.829 142.884C279.038 142.884 279.184 142.903 279.265 142.939V144.277C279.22 144.259 279.156 144.249 279.074 144.249C278.992 144.24 278.892 144.236 278.774 144.236C278.091 144.236 277.577 144.413 277.231 144.768C276.895 145.123 276.726 145.651 276.726 146.352ZM285.369 149.983V148.386L285.506 148.427C285.36 148.945 285.06 149.36 284.605 149.669C284.15 149.969 283.604 150.119 282.967 150.119C282.339 150.119 281.788 149.969 281.315 149.669C280.851 149.369 280.487 148.95 280.223 148.413C279.968 147.876 279.841 147.248 279.841 146.529C279.841 145.801 279.973 145.164 280.237 144.618C280.501 144.072 280.869 143.649 281.342 143.349C281.816 143.048 282.371 142.898 283.008 142.898C283.672 142.898 284.218 143.057 284.646 143.376C285.083 143.685 285.369 144.122 285.506 144.686L285.315 144.714V140.154H286.721V149.983H285.369ZM283.322 148.932C283.95 148.932 284.446 148.718 284.81 148.29C285.174 147.853 285.356 147.253 285.356 146.488C285.356 145.742 285.169 145.155 284.796 144.727C284.432 144.29 283.936 144.072 283.308 144.072C282.689 144.072 282.198 144.29 281.834 144.727C281.479 145.155 281.301 145.756 281.301 146.529C281.301 147.285 281.479 147.876 281.834 148.304C282.198 148.722 282.694 148.932 283.322 148.932ZM291.23 150.119C290.319 150.119 289.596 149.919 289.059 149.519C288.522 149.118 288.217 148.554 288.144 147.826H289.455C289.519 148.226 289.701 148.536 290.001 148.754C290.31 148.964 290.729 149.068 291.257 149.068C291.721 149.068 292.076 148.986 292.322 148.823C292.567 148.659 292.69 148.427 292.69 148.126C292.69 147.908 292.617 147.726 292.472 147.58C292.335 147.426 292.062 147.298 291.653 147.198L290.533 146.939C289.833 146.766 289.309 146.511 288.963 146.174C288.627 145.828 288.458 145.405 288.458 144.905C288.458 144.277 288.69 143.785 289.155 143.43C289.628 143.066 290.274 142.884 291.093 142.884C291.903 142.884 292.554 143.066 293.045 143.43C293.546 143.794 293.828 144.304 293.891 144.959H292.581C292.526 144.632 292.367 144.381 292.103 144.209C291.848 144.027 291.498 143.936 291.052 143.936C290.633 143.936 290.31 144.013 290.083 144.168C289.864 144.313 289.755 144.518 289.755 144.782C289.755 145 289.837 145.182 290.001 145.328C290.174 145.474 290.456 145.596 290.847 145.696L291.994 145.983C292.658 146.147 293.159 146.415 293.496 146.789C293.832 147.153 294.001 147.594 294.001 148.113C294.001 148.741 293.755 149.232 293.264 149.587C292.781 149.942 292.103 150.119 291.23 150.119Z" fill="#7A8EAC"/>
<rect x="317.136" y="130.087" width="155.476" height="29.7905" rx="14.8953" fill="#F1F3FE" fill-opacity="0.94"/>
<path d="M335.262 150.119C334.251 150.119 333.373 149.906 332.627 149.478C331.881 149.041 331.303 148.44 330.893 147.676C330.493 146.902 330.293 146.02 330.293 145.028C330.293 144.045 330.497 143.176 330.907 142.42C331.316 141.665 331.881 141.078 332.6 140.659C333.328 140.232 334.156 140.018 335.084 140.018C336.031 140.018 336.863 140.232 337.582 140.659C338.301 141.078 338.865 141.665 339.275 142.42C339.694 143.176 339.903 144.049 339.903 145.041C339.903 145.742 339.785 146.393 339.548 146.993C339.32 147.594 338.97 148.104 338.497 148.522C338.033 148.941 337.446 149.232 336.736 149.396L335.262 150.119ZM335.084 148.959C335.758 148.959 336.34 148.791 336.831 148.454C337.332 148.117 337.723 147.653 338.005 147.062C338.288 146.47 338.429 145.788 338.429 145.014C338.429 144.268 338.288 143.612 338.005 143.048C337.723 142.475 337.332 142.033 336.831 141.724C336.331 141.406 335.748 141.246 335.084 141.246C334.42 141.246 333.837 141.406 333.337 141.724C332.845 142.033 332.459 142.47 332.176 143.035C331.903 143.599 331.767 144.259 331.767 145.014C331.767 145.797 331.908 146.484 332.19 147.075C332.472 147.658 332.859 148.117 333.35 148.454C333.851 148.791 334.429 148.959 335.084 148.959ZM335.262 150.119L335.098 149.137L340.312 148.795V149.983C339.748 149.983 339.261 149.987 338.852 149.997C338.451 150.015 338.074 150.033 337.719 150.051C337.373 150.069 337.009 150.083 336.627 150.092C336.244 150.11 335.789 150.119 335.262 150.119ZM343.94 150.119C343.476 150.119 343.066 150.024 342.711 149.833C342.356 149.633 342.079 149.36 341.878 149.014C341.687 148.668 341.592 148.272 341.592 147.826V143.021H343.011V147.498C343.011 147.981 343.13 148.34 343.366 148.577C343.603 148.813 343.94 148.932 344.377 148.932C344.768 148.932 345.114 148.841 345.414 148.659C345.723 148.477 345.965 148.226 346.137 147.908C346.319 147.58 346.411 147.203 346.411 146.775L346.588 148.44C346.36 148.95 346.01 149.36 345.537 149.669C345.073 149.969 344.54 150.119 343.94 150.119ZM346.465 149.983V148.345H346.411V143.021H347.817V149.983H346.465ZM354.013 149.983C353.967 149.81 353.935 149.619 353.917 149.41C353.908 149.2 353.903 148.945 353.903 148.645H353.835V145.328C353.835 144.882 353.721 144.55 353.494 144.331C353.275 144.104 352.925 143.99 352.443 143.99C351.979 143.99 351.605 144.081 351.323 144.263C351.05 144.445 350.891 144.705 350.846 145.041H349.494C349.558 144.386 349.854 143.863 350.381 143.471C350.909 143.08 351.615 142.884 352.497 142.884C353.407 142.884 354.09 143.098 354.545 143.526C355 143.945 355.228 144.563 355.228 145.383V148.645C355.228 148.854 355.241 149.068 355.269 149.287C355.296 149.505 355.337 149.737 355.391 149.983H354.013ZM351.61 150.119C350.9 150.119 350.336 149.947 349.917 149.601C349.499 149.246 349.289 148.768 349.289 148.167C349.289 147.548 349.508 147.062 349.945 146.707C350.391 146.343 351.028 146.097 351.856 145.97L354.149 145.601V146.597L352.074 146.925C351.61 146.998 351.26 147.121 351.023 147.294C350.796 147.467 350.682 147.717 350.682 148.044C350.682 148.363 350.786 148.604 350.996 148.768C351.214 148.923 351.528 149 351.938 149C352.484 149 352.934 148.868 353.289 148.604C353.653 148.34 353.835 148.008 353.835 147.608L354.013 148.618C353.849 149.1 353.558 149.473 353.139 149.737C352.72 149.992 352.211 150.119 351.61 150.119ZM357.151 149.983V140.154H358.571V149.983H357.151ZM360.564 149.983V143.021H361.983V149.983H360.564ZM360.495 141.656V140.059H362.065V141.656H360.495ZM366.885 150.119C366.075 150.119 365.479 149.933 365.097 149.56C364.724 149.178 364.537 148.618 364.537 147.881V141.424L365.943 140.891V147.894C365.943 148.258 366.039 148.527 366.23 148.7C366.421 148.873 366.731 148.959 367.158 148.959C367.322 148.959 367.468 148.945 367.595 148.918C367.723 148.891 367.832 148.859 367.923 148.823V149.969C367.823 150.015 367.682 150.051 367.5 150.078C367.318 150.106 367.113 150.119 366.885 150.119ZM363.145 144.154V143.021H367.923V144.154H363.145ZM369.881 152.781L371.56 148.945L371.847 148.495L373.963 143.021H375.437L371.342 152.781H369.881ZM371.492 149.983L368.516 143.021H370.058L372.584 149.287L371.492 149.983ZM383.608 149.983C383.562 149.81 383.53 149.619 383.512 149.41C383.503 149.2 383.498 148.945 383.498 148.645H383.43V145.328C383.43 144.882 383.316 144.55 383.089 144.331C382.87 144.104 382.52 143.99 382.038 143.99C381.574 143.99 381.2 144.081 380.918 144.263C380.645 144.445 380.486 144.705 380.441 145.041H379.089C379.153 144.386 379.449 143.863 379.976 143.471C380.504 143.08 381.21 142.884 382.092 142.884C383.002 142.884 383.685 143.098 384.14 143.526C384.595 143.945 384.823 144.563 384.823 145.383V148.645C384.823 148.854 384.836 149.068 384.863 149.287C384.891 149.505 384.932 149.737 384.986 149.983H383.608ZM381.205 150.119C380.495 150.119 379.931 149.947 379.512 149.601C379.094 149.246 378.884 148.768 378.884 148.167C378.884 147.548 379.103 147.062 379.54 146.707C379.986 146.343 380.623 146.097 381.451 145.97L383.744 145.601V146.597L381.669 146.925C381.205 146.998 380.855 147.121 380.618 147.294C380.39 147.467 380.277 147.717 380.277 148.044C380.277 148.363 380.381 148.604 380.591 148.768C380.809 148.923 381.123 149 381.533 149C382.079 149 382.529 148.868 382.884 148.604C383.248 148.34 383.43 148.008 383.43 147.608L383.608 148.618C383.444 149.1 383.153 149.473 382.734 149.737C382.315 149.992 381.806 150.119 381.205 150.119ZM386.746 149.983V143.021H388.097V144.659H388.166V149.983H386.746ZM391.688 149.983V145.505C391.688 145.023 391.565 144.664 391.319 144.427C391.082 144.19 390.727 144.072 390.254 144.072C389.845 144.072 389.481 144.163 389.162 144.345C388.853 144.527 388.607 144.777 388.425 145.096C388.252 145.414 388.166 145.792 388.166 146.229L387.988 144.563C388.216 144.045 388.566 143.635 389.039 143.335C389.513 143.035 390.063 142.884 390.691 142.884C391.437 142.884 392.024 143.094 392.452 143.512C392.88 143.931 393.094 144.486 393.094 145.178V149.983H391.688ZM400.048 149.983V148.386L400.185 148.427C400.039 148.945 399.739 149.36 399.284 149.669C398.829 149.969 398.283 150.119 397.646 150.119C397.018 150.119 396.467 149.969 395.994 149.669C395.53 149.369 395.166 148.95 394.902 148.413C394.647 147.876 394.519 147.248 394.519 146.529C394.519 145.801 394.651 145.164 394.915 144.618C395.179 144.072 395.548 143.649 396.021 143.349C396.494 143.048 397.049 142.898 397.686 142.898C398.351 142.898 398.897 143.057 399.325 143.376C399.761 143.685 400.048 144.122 400.185 144.686L399.993 144.714V140.154H401.4V149.983H400.048ZM398 148.932C398.628 148.932 399.124 148.718 399.488 148.29C399.852 147.853 400.034 147.253 400.034 146.488C400.034 145.742 399.848 145.155 399.475 144.727C399.111 144.29 398.615 144.072 397.987 144.072C397.368 144.072 396.877 144.29 396.512 144.727C396.158 145.155 395.98 145.756 395.98 146.529C395.98 147.285 396.158 147.876 396.512 148.304C396.877 148.722 397.372 148.932 398 148.932ZM409.912 150.119C408.656 150.119 407.691 149.751 407.018 149.014C406.344 148.277 406.007 147.225 406.007 145.86V140.154H407.454V146.024C407.454 146.961 407.668 147.676 408.096 148.167C408.524 148.65 409.129 148.891 409.912 148.891C410.712 148.891 411.327 148.65 411.754 148.167C412.182 147.685 412.396 146.971 412.396 146.024V140.154H413.843V145.888C413.843 147.235 413.502 148.277 412.819 149.014C412.146 149.751 411.177 150.119 409.912 150.119ZM418.133 150.119C417.223 150.119 416.499 149.919 415.962 149.519C415.425 149.118 415.12 148.554 415.048 147.826H416.358C416.422 148.226 416.604 148.536 416.904 148.754C417.214 148.964 417.632 149.068 418.16 149.068C418.624 149.068 418.979 148.986 419.225 148.823C419.471 148.659 419.593 148.427 419.593 148.126C419.593 147.908 419.521 147.726 419.375 147.58C419.239 147.426 418.966 147.298 418.556 147.198L417.437 146.939C416.736 146.766 416.213 146.511 415.867 146.174C415.53 145.828 415.362 145.405 415.362 144.905C415.362 144.277 415.594 143.785 416.058 143.43C416.531 143.066 417.177 142.884 417.996 142.884C418.806 142.884 419.457 143.066 419.948 143.43C420.449 143.794 420.731 144.304 420.795 144.959H419.484C419.43 144.632 419.27 144.381 419.006 144.209C418.752 144.027 418.401 143.936 417.955 143.936C417.537 143.936 417.214 144.013 416.986 144.168C416.768 144.313 416.658 144.518 416.658 144.782C416.658 145 416.74 145.182 416.904 145.328C417.077 145.474 417.359 145.596 417.751 145.696L418.897 145.983C419.562 146.147 420.062 146.415 420.399 146.789C420.736 147.153 420.904 147.594 420.904 148.113C420.904 148.741 420.658 149.232 420.167 149.587C419.684 149.942 419.006 150.119 418.133 150.119ZM426.707 149.983C426.661 149.81 426.63 149.619 426.611 149.41C426.602 149.2 426.598 148.945 426.598 148.645H426.529V145.328C426.529 144.882 426.416 144.55 426.188 144.331C425.97 144.104 425.619 143.99 425.137 143.99C424.673 143.99 424.3 144.081 424.018 144.263C423.745 144.445 423.585 144.705 423.54 145.041H422.188C422.252 144.386 422.548 143.863 423.076 143.471C423.604 143.08 424.309 142.884 425.192 142.884C426.102 142.884 426.784 143.098 427.239 143.526C427.694 143.945 427.922 144.563 427.922 145.383V148.645C427.922 148.854 427.935 149.068 427.963 149.287C427.99 149.505 428.031 149.737 428.086 149.983H426.707ZM424.304 150.119C423.594 150.119 423.03 149.947 422.612 149.601C422.193 149.246 421.984 148.768 421.984 148.167C421.984 147.548 422.202 147.062 422.639 146.707C423.085 146.343 423.722 146.097 424.55 145.97L426.843 145.601V146.597L424.768 146.925C424.304 146.998 423.954 147.121 423.717 147.294C423.49 147.467 423.376 147.717 423.376 148.044C423.376 148.363 423.481 148.604 423.69 148.768C423.908 148.923 424.222 149 424.632 149C425.178 149 425.628 148.868 425.983 148.604C426.347 148.34 426.529 148.008 426.529 147.608L426.707 148.618C426.543 149.1 426.252 149.473 425.833 149.737C425.415 149.992 424.905 150.119 424.304 150.119ZM433.558 150.106C432.903 150.106 432.357 149.951 431.92 149.642C431.483 149.323 431.197 148.882 431.06 148.317L431.197 148.29V149.983H429.845V140.154H431.265V144.618L431.115 144.577C431.27 144.049 431.57 143.635 432.016 143.335C432.471 143.035 433.017 142.884 433.654 142.884C434.282 142.884 434.823 143.035 435.278 143.335C435.742 143.635 436.097 144.054 436.343 144.591C436.598 145.128 436.725 145.756 436.725 146.475C436.725 147.203 436.593 147.84 436.329 148.386C436.066 148.932 435.697 149.355 435.224 149.655C434.751 149.956 434.195 150.106 433.558 150.106ZM433.258 148.932C433.877 148.932 434.368 148.713 434.732 148.277C435.096 147.84 435.278 147.239 435.278 146.475C435.278 145.719 435.096 145.132 434.732 144.714C434.368 144.286 433.872 144.072 433.244 144.072C432.626 144.072 432.13 144.29 431.756 144.727C431.392 145.155 431.21 145.751 431.21 146.516C431.21 147.262 431.392 147.853 431.756 148.29C432.13 148.718 432.63 148.932 433.258 148.932ZM438.177 149.983V143.021H439.597V149.983H438.177ZM438.109 141.656V140.059H439.679V141.656H438.109ZM441.59 149.983V140.154H443.01V149.983H441.59ZM445.003 149.983V143.021H446.422V149.983H445.003ZM444.934 141.656V140.059H446.504V141.656H444.934ZM451.324 150.119C450.514 150.119 449.918 149.933 449.536 149.56C449.163 149.178 448.976 148.618 448.976 147.881V141.424L450.382 140.891V147.894C450.382 148.258 450.478 148.527 450.669 148.7C450.86 148.873 451.17 148.959 451.597 148.959C451.761 148.959 451.907 148.945 452.034 148.918C452.162 148.891 452.271 148.859 452.362 148.823V149.969C452.262 150.015 452.121 150.051 451.939 150.078C451.757 150.106 451.552 150.119 451.324 150.119ZM447.584 144.154V143.021H452.362V144.154H447.584ZM454.32 152.781L455.999 148.945L456.286 148.495L458.402 143.021H459.876L455.781 152.781H454.32ZM455.931 149.983L452.955 143.021H454.497L457.023 149.287L455.931 149.983Z" fill="#7A8EAC"/>
<rect x="141.013" y="170.15" width="84.4763" height="29.7905" rx="14.8953" fill="#F1F3FE" fill-opacity="0.94"/>
<path d="M155.405 190.046V188.927H158.34C158.895 188.927 159.327 188.776 159.636 188.476C159.955 188.176 160.114 187.766 160.114 187.247C160.114 186.701 159.946 186.265 159.609 185.937C159.281 185.609 158.831 185.446 158.258 185.446H155.405V184.353H158.121C158.676 184.353 159.104 184.221 159.404 183.958C159.714 183.685 159.868 183.298 159.868 182.797C159.868 182.324 159.723 181.965 159.432 181.719C159.15 181.464 158.731 181.337 158.176 181.337H155.405V180.217H158.394C159.286 180.217 159.996 180.436 160.524 180.872C161.052 181.3 161.315 181.887 161.315 182.633C161.315 183.107 161.206 183.525 160.988 183.889C160.779 184.244 160.487 184.522 160.114 184.722C159.741 184.913 159.318 185.009 158.845 185.009L158.913 184.722C159.423 184.722 159.878 184.84 160.278 185.077C160.678 185.304 160.997 185.618 161.234 186.019C161.47 186.419 161.589 186.883 161.589 187.411C161.589 187.93 161.461 188.39 161.206 188.79C160.961 189.19 160.61 189.5 160.155 189.718C159.7 189.937 159.172 190.046 158.572 190.046H155.405ZM154.34 190.046V180.217H155.787V190.046H154.34ZM167.318 190.046C167.273 189.873 167.241 189.682 167.223 189.473C167.214 189.263 167.209 189.008 167.209 188.708H167.141V185.391C167.141 184.945 167.027 184.613 166.8 184.394C166.581 184.167 166.231 184.053 165.749 184.053C165.284 184.053 164.911 184.144 164.629 184.326C164.356 184.508 164.197 184.768 164.151 185.104H162.8C162.864 184.449 163.159 183.926 163.687 183.534C164.215 183.143 164.92 182.947 165.803 182.947C166.713 182.947 167.396 183.161 167.851 183.589C168.306 184.008 168.533 184.626 168.533 185.446V188.708C168.533 188.917 168.547 189.131 168.574 189.35C168.602 189.568 168.643 189.8 168.697 190.046H167.318ZM164.916 190.182C164.206 190.182 163.642 190.009 163.223 189.664C162.804 189.309 162.595 188.831 162.595 188.23C162.595 187.611 162.814 187.125 163.25 186.77C163.696 186.406 164.333 186.16 165.162 186.033L167.455 185.664V186.66L165.38 186.988C164.916 187.061 164.565 187.184 164.329 187.357C164.101 187.53 163.988 187.78 163.988 188.107C163.988 188.426 164.092 188.667 164.302 188.831C164.52 188.986 164.834 189.063 165.243 189.063C165.79 189.063 166.24 188.931 166.595 188.667C166.959 188.403 167.141 188.071 167.141 187.671L167.318 188.681C167.155 189.163 166.863 189.536 166.445 189.8C166.026 190.055 165.516 190.182 164.916 190.182ZM173.297 190.182C172.633 190.182 172.042 190.028 171.523 189.718C171.004 189.4 170.595 188.967 170.294 188.421C170.003 187.875 169.857 187.252 169.857 186.551C169.857 185.85 170.003 185.232 170.294 184.695C170.595 184.149 171.004 183.721 171.523 183.412C172.042 183.102 172.629 182.947 173.284 182.947C173.839 182.947 174.335 183.052 174.772 183.261C175.209 183.471 175.568 183.762 175.85 184.135C176.132 184.508 176.314 184.95 176.396 185.459H175.058C174.967 185.05 174.767 184.722 174.458 184.476C174.157 184.231 173.775 184.108 173.311 184.108C172.911 184.108 172.56 184.208 172.26 184.408C171.96 184.608 171.728 184.89 171.564 185.254C171.4 185.618 171.318 186.051 171.318 186.551C171.318 187.043 171.4 187.475 171.564 187.848C171.728 188.221 171.96 188.512 172.26 188.722C172.56 188.922 172.915 189.022 173.325 189.022C173.771 189.022 174.148 188.904 174.458 188.667C174.776 188.421 174.981 188.094 175.072 187.684H176.41C176.319 188.185 176.128 188.622 175.837 188.995C175.554 189.368 175.195 189.659 174.758 189.868C174.321 190.078 173.834 190.182 173.297 190.182ZM177.816 190.046V180.04H179.235V190.046H177.816ZM182.334 190.046L178.908 186.428L182.225 183.084H184.013L180.245 186.742L180.314 186.101L184.15 190.046H182.334ZM185.268 190.046V180.217H186.687V190.046H185.268ZM188.68 190.046V183.084H190.1V190.046H188.68ZM188.612 181.719V180.122H190.182V181.719H188.612ZM192.093 190.046V183.084H193.445V184.722H193.513V190.046H192.093ZM197.035 190.046V185.568C197.035 185.086 196.912 184.727 196.666 184.49C196.43 184.253 196.075 184.135 195.601 184.135C195.192 184.135 194.828 184.226 194.509 184.408C194.2 184.59 193.954 184.84 193.772 185.159C193.599 185.477 193.513 185.855 193.513 186.292L193.335 184.626C193.563 184.108 193.913 183.698 194.386 183.398C194.86 183.098 195.41 182.947 196.038 182.947C196.784 182.947 197.371 183.157 197.799 183.575C198.227 183.994 198.441 184.549 198.441 185.241V190.046H197.035ZM200.372 190.046V180.04H201.791V190.046H200.372ZM204.89 190.046L201.464 186.428L204.781 183.084H206.569L202.802 186.742L202.87 186.101L206.706 190.046H204.89ZM210.082 190.182C209.172 190.182 208.449 189.982 207.912 189.582C207.375 189.181 207.07 188.617 206.997 187.889H208.308C208.371 188.289 208.553 188.599 208.854 188.817C209.163 189.027 209.582 189.131 210.11 189.131C210.574 189.131 210.929 189.049 211.174 188.886C211.42 188.722 211.543 188.49 211.543 188.189C211.543 187.971 211.47 187.789 211.324 187.643C211.188 187.489 210.915 187.361 210.505 187.261L209.386 187.002C208.685 186.829 208.162 186.574 207.816 186.237C207.479 185.891 207.311 185.468 207.311 184.968C207.311 184.34 207.543 183.848 208.007 183.493C208.481 183.129 209.127 182.947 209.946 182.947C210.756 182.947 211.406 183.129 211.898 183.493C212.398 183.857 212.68 184.367 212.744 185.022H211.434C211.379 184.695 211.22 184.444 210.956 184.272C210.701 184.09 210.351 183.999 209.905 183.999C209.486 183.999 209.163 184.076 208.936 184.231C208.717 184.376 208.608 184.581 208.608 184.845C208.608 185.063 208.69 185.245 208.854 185.391C209.027 185.537 209.309 185.659 209.7 185.759L210.847 186.046C211.511 186.21 212.012 186.478 212.348 186.852C212.685 187.216 212.853 187.657 212.853 188.176C212.853 188.804 212.608 189.295 212.116 189.65C211.634 190.005 210.956 190.182 210.082 190.182Z" fill="#7A8EAC"/>
<rect x="235.762" y="170.15" width="87.4763" height="29.7905" rx="14.8953" fill="#F1F3FE" fill-opacity="0.94"/>
<path d="M249.336 190.046V180.217H250.783V190.046H249.336ZM250.482 184.94L255.356 180.217H257.335L252.298 184.94H250.482ZM255.574 190.046L250.455 184.94H252.298L257.608 190.046H255.574ZM261.19 190.182C260.49 190.182 259.871 190.028 259.334 189.718C258.806 189.409 258.392 188.981 258.092 188.435C257.791 187.889 257.641 187.261 257.641 186.551C257.641 185.832 257.787 185.204 258.078 184.667C258.378 184.121 258.797 183.698 259.334 183.398C259.871 183.098 260.485 182.947 261.177 182.947C261.85 182.947 262.433 183.093 262.924 183.384C263.425 183.666 263.807 184.062 264.071 184.572C264.344 185.081 264.48 185.687 264.48 186.387C264.48 186.497 264.476 186.601 264.467 186.701C264.467 186.792 264.458 186.888 264.439 186.988H258.597V185.923H263.443L263.088 186.346C263.088 185.6 262.92 185.031 262.583 184.64C262.246 184.249 261.777 184.053 261.177 184.053C260.531 184.053 260.016 184.276 259.634 184.722C259.261 185.159 259.075 185.769 259.075 186.551C259.075 187.343 259.261 187.962 259.634 188.408C260.016 188.854 260.544 189.077 261.218 189.077C261.627 189.077 261.982 188.995 262.283 188.831C262.583 188.658 262.806 188.408 262.951 188.08H264.289C264.062 188.735 263.675 189.25 263.129 189.623C262.592 189.996 261.946 190.182 261.19 190.182ZM266.265 192.844L267.944 189.008L268.23 188.558L270.346 183.084H271.821L267.725 192.844H266.265ZM267.876 190.046L264.9 183.084H266.442L268.968 189.35L267.876 190.046ZM274.485 190.046L272.355 183.084H273.816L275.263 188.681H275.058L276.819 183.084H278.048L279.809 188.681H279.618L281.051 183.084H282.443L280.314 190.046H279.071L277.31 184.545H277.515L275.727 190.046H274.485ZM286.627 190.182C285.917 190.182 285.294 190.028 284.757 189.718C284.22 189.4 283.801 188.967 283.501 188.421C283.2 187.866 283.05 187.238 283.05 186.538C283.05 185.828 283.2 185.204 283.501 184.667C283.81 184.13 284.229 183.712 284.757 183.412C285.294 183.102 285.917 182.947 286.627 182.947C287.346 182.947 287.974 183.102 288.511 183.412C289.048 183.712 289.462 184.13 289.753 184.667C290.053 185.204 290.203 185.828 290.203 186.538C290.203 187.238 290.053 187.866 289.753 188.421C289.462 188.967 289.048 189.4 288.511 189.718C287.974 190.028 287.346 190.182 286.627 190.182ZM286.627 189.022C287.054 189.022 287.423 188.917 287.732 188.708C288.051 188.499 288.301 188.208 288.483 187.834C288.665 187.461 288.756 187.024 288.756 186.524C288.756 185.778 288.556 185.191 288.156 184.763C287.764 184.326 287.255 184.108 286.627 184.108C286.008 184.108 285.498 184.326 285.098 184.763C284.707 185.2 284.511 185.787 284.511 186.524C284.511 187.024 284.597 187.461 284.77 187.834C284.952 188.208 285.203 188.499 285.521 188.708C285.849 188.917 286.217 189.022 286.627 189.022ZM291.662 190.046V183.084H293.013V184.818H293.081V190.046H291.662ZM293.081 186.415L292.904 184.763C293.068 184.171 293.35 183.721 293.75 183.412C294.151 183.102 294.628 182.947 295.183 182.947C295.393 182.947 295.538 182.966 295.62 183.002V184.34C295.575 184.322 295.511 184.312 295.429 184.312C295.347 184.303 295.247 184.299 295.129 184.299C294.446 184.299 293.932 184.476 293.586 184.831C293.25 185.186 293.081 185.714 293.081 186.415ZM301.724 190.046V188.449L301.861 188.49C301.715 189.008 301.415 189.423 300.96 189.732C300.505 190.032 299.959 190.182 299.322 190.182C298.694 190.182 298.143 190.032 297.67 189.732C297.206 189.432 296.842 189.013 296.578 188.476C296.323 187.939 296.196 187.311 296.196 186.592C296.196 185.864 296.328 185.227 296.591 184.681C296.855 184.135 297.224 183.712 297.697 183.412C298.17 183.111 298.726 182.961 299.363 182.961C300.027 182.961 300.573 183.12 301.001 183.439C301.438 183.748 301.724 184.185 301.861 184.749L301.67 184.777V180.217H303.076V190.046H301.724ZM299.677 188.995C300.305 188.995 300.801 188.781 301.165 188.353C301.529 187.916 301.711 187.316 301.711 186.551C301.711 185.805 301.524 185.218 301.151 184.79C300.787 184.353 300.291 184.135 299.663 184.135C299.044 184.135 298.553 184.353 298.189 184.79C297.834 185.218 297.656 185.819 297.656 186.592C297.656 187.348 297.834 187.939 298.189 188.367C298.553 188.785 299.049 188.995 299.677 188.995ZM307.584 190.182C306.674 190.182 305.951 189.982 305.414 189.582C304.877 189.181 304.572 188.617 304.499 187.889H305.81C305.873 188.289 306.055 188.599 306.356 188.817C306.665 189.027 307.084 189.131 307.612 189.131C308.076 189.131 308.431 189.049 308.676 188.886C308.922 188.722 309.045 188.49 309.045 188.189C309.045 187.971 308.972 187.789 308.827 187.643C308.69 187.489 308.417 187.361 308.008 187.261L306.888 187.002C306.187 186.829 305.664 186.574 305.318 186.237C304.982 185.891 304.813 185.468 304.813 184.968C304.813 184.34 305.045 183.848 305.509 183.493C305.983 183.129 306.629 182.947 307.448 182.947C308.258 182.947 308.909 183.129 309.4 183.493C309.9 183.857 310.183 184.367 310.246 185.022H308.936C308.881 184.695 308.722 184.444 308.458 184.272C308.203 184.09 307.853 183.999 307.407 183.999C306.988 183.999 306.665 184.076 306.438 184.231C306.219 184.376 306.11 184.581 306.11 184.845C306.11 185.063 306.192 185.245 306.356 185.391C306.529 185.537 306.811 185.659 307.202 185.759L308.349 186.046C309.013 186.21 309.514 186.478 309.85 186.852C310.187 187.216 310.356 187.657 310.356 188.176C310.356 188.804 310.11 189.295 309.618 189.65C309.136 190.005 308.458 190.182 307.584 190.182Z" fill="#7A8EAC"/>
<rect x="333.511" y="170.15" width="135.476" height="29.7905" rx="14.8953" fill="#F1F3FE" fill-opacity="0.94"/>
<path d="M347.682 190.046V188.845H350.262C351.045 188.845 351.714 188.685 352.269 188.367C352.833 188.048 353.266 187.607 353.566 187.043C353.866 186.478 354.016 185.823 354.016 185.077C354.016 184.34 353.866 183.698 353.566 183.152C353.275 182.606 352.847 182.183 352.283 181.883C351.728 181.573 351.054 181.418 350.262 181.418H347.696V180.217H350.262C351.318 180.217 352.237 180.417 353.02 180.818C353.803 181.218 354.408 181.787 354.835 182.524C355.272 183.252 355.491 184.112 355.491 185.104C355.491 186.096 355.272 186.965 354.835 187.712C354.399 188.449 353.789 189.022 353.006 189.432C352.233 189.841 351.323 190.046 350.276 190.046H347.682ZM346.809 190.046V180.217H348.256V190.046H346.809ZM360.064 190.182C359.354 190.182 358.731 190.028 358.194 189.718C357.657 189.4 357.238 188.967 356.938 188.421C356.637 187.866 356.487 187.238 356.487 186.538C356.487 185.828 356.637 185.204 356.938 184.667C357.247 184.13 357.666 183.712 358.194 183.412C358.731 183.102 359.354 182.947 360.064 182.947C360.783 182.947 361.411 183.102 361.948 183.412C362.485 183.712 362.899 184.13 363.19 184.667C363.49 185.204 363.64 185.828 363.64 186.538C363.64 187.238 363.49 187.866 363.19 188.421C362.899 188.967 362.485 189.4 361.948 189.718C361.411 190.028 360.783 190.182 360.064 190.182ZM360.064 189.022C360.492 189.022 360.86 188.917 361.17 188.708C361.488 188.499 361.738 188.208 361.92 187.834C362.102 187.461 362.193 187.024 362.193 186.524C362.193 185.778 361.993 185.191 361.593 184.763C361.201 184.326 360.692 184.108 360.064 184.108C359.445 184.108 358.935 184.326 358.535 184.763C358.144 185.2 357.948 185.787 357.948 186.524C357.948 187.024 358.034 187.461 358.207 187.834C358.389 188.208 358.64 188.499 358.958 188.708C359.286 188.917 359.654 189.022 360.064 189.022ZM365.099 190.046V183.084H366.45V184.722H366.518V190.046H365.099ZM369.794 190.046V185.5C369.794 185.027 369.685 184.681 369.467 184.463C369.248 184.244 368.934 184.135 368.525 184.135C368.143 184.135 367.797 184.226 367.487 184.408C367.187 184.581 366.951 184.827 366.778 185.145C366.605 185.455 366.518 185.823 366.518 186.251L366.341 184.626C366.568 184.108 366.91 183.698 367.365 183.398C367.829 183.098 368.347 182.947 368.921 182.947C369.612 182.947 370.163 183.148 370.573 183.548C370.991 183.948 371.201 184.476 371.201 185.132V190.046H369.794ZM374.49 190.046V185.5C374.49 185.027 374.377 184.681 374.149 184.463C373.931 184.244 373.617 184.135 373.207 184.135C372.834 184.135 372.493 184.226 372.183 184.408C371.883 184.581 371.642 184.827 371.46 185.145C371.287 185.455 371.201 185.823 371.201 186.251L370.914 184.626C371.15 184.108 371.505 183.698 371.979 183.398C372.461 183.098 372.998 182.947 373.589 182.947C374.29 182.947 374.85 183.152 375.269 183.562C375.687 183.962 375.896 184.499 375.896 185.172V190.046H374.49ZM382.037 190.046C381.991 189.873 381.959 189.682 381.941 189.473C381.932 189.263 381.928 189.008 381.928 188.708H381.859V185.391C381.859 184.945 381.746 184.613 381.518 184.394C381.3 184.167 380.949 184.053 380.467 184.053C380.003 184.053 379.63 184.144 379.348 184.326C379.075 184.508 378.915 184.768 378.87 185.104H377.518C377.582 184.449 377.878 183.926 378.406 183.534C378.933 183.143 379.639 182.947 380.522 182.947C381.432 182.947 382.114 183.161 382.569 183.589C383.024 184.008 383.252 184.626 383.252 185.446V188.708C383.252 188.917 383.265 189.131 383.293 189.35C383.32 189.568 383.361 189.8 383.416 190.046H382.037ZM379.634 190.182C378.924 190.182 378.36 190.009 377.941 189.664C377.523 189.309 377.314 188.831 377.314 188.23C377.314 187.611 377.532 187.125 377.969 186.77C378.415 186.406 379.052 186.16 379.88 186.033L382.173 185.664V186.66L380.098 186.988C379.634 187.061 379.284 187.184 379.047 187.357C378.82 187.53 378.706 187.78 378.706 188.107C378.706 188.426 378.811 188.667 379.02 188.831C379.238 188.986 379.552 189.063 379.962 189.063C380.508 189.063 380.958 188.931 381.313 188.667C381.677 188.403 381.859 188.071 381.859 187.671L382.037 188.681C381.873 189.163 381.582 189.536 381.163 189.8C380.744 190.055 380.235 190.182 379.634 190.182ZM385.082 190.046V183.084H386.502V190.046H385.082ZM385.014 181.719V180.122H386.583V181.719H385.014ZM388.495 190.046V183.084H389.846V184.722H389.914V190.046H388.495ZM393.436 190.046V185.568C393.436 185.086 393.313 184.727 393.068 184.49C392.831 184.253 392.476 184.135 392.003 184.135C391.593 184.135 391.229 184.226 390.911 184.408C390.601 184.59 390.356 184.84 390.174 185.159C390.001 185.477 389.914 185.855 389.914 186.292L389.737 184.626C389.964 184.108 390.315 183.698 390.788 183.398C391.261 183.098 391.812 182.947 392.44 182.947C393.186 182.947 393.773 183.157 394.201 183.575C394.628 183.994 394.842 184.549 394.842 185.241V190.046H393.436ZM403.78 190.046C403.734 189.873 403.702 189.682 403.684 189.473C403.675 189.263 403.671 189.008 403.671 188.708H403.602V185.391C403.602 184.945 403.489 184.613 403.261 184.394C403.043 184.167 402.692 184.053 402.21 184.053C401.746 184.053 401.373 184.144 401.09 184.326C400.817 184.508 400.658 184.768 400.613 185.104H399.261C399.325 184.449 399.621 183.926 400.149 183.534C400.676 183.143 401.382 182.947 402.264 182.947C403.175 182.947 403.857 183.161 404.312 183.589C404.767 184.008 404.995 184.626 404.995 185.446V188.708C404.995 188.917 405.008 189.131 405.036 189.35C405.063 189.568 405.104 189.8 405.158 190.046H403.78ZM401.377 190.182C400.667 190.182 400.103 190.009 399.684 189.664C399.266 189.309 399.056 188.831 399.056 188.23C399.056 187.611 399.275 187.125 399.712 186.77C400.158 186.406 400.795 186.16 401.623 186.033L403.916 185.664V186.66L401.841 186.988C401.377 187.061 401.027 187.184 400.79 187.357C400.563 187.53 400.449 187.78 400.449 188.107C400.449 188.426 400.554 188.667 400.763 188.831C400.981 188.986 401.295 189.063 401.705 189.063C402.251 189.063 402.701 188.931 403.056 188.667C403.42 188.403 403.602 188.071 403.602 187.671L403.78 188.681C403.616 189.163 403.325 189.536 402.906 189.8C402.487 190.055 401.978 190.182 401.377 190.182ZM409.064 190.182C408.6 190.182 408.191 190.087 407.836 189.896C407.481 189.696 407.203 189.423 407.003 189.077C406.812 188.731 406.716 188.335 406.716 187.889V183.084H408.136V187.561C408.136 188.044 408.254 188.403 408.491 188.64C408.727 188.876 409.064 188.995 409.501 188.995C409.892 188.995 410.238 188.904 410.538 188.722C410.848 188.54 411.089 188.289 411.262 187.971C411.444 187.643 411.535 187.266 411.535 186.838L411.712 188.503C411.485 189.013 411.135 189.423 410.661 189.732C410.197 190.032 409.665 190.182 409.064 190.182ZM411.59 190.046V188.408H411.535V183.084H412.941V190.046H411.59ZM417.826 190.182C417.016 190.182 416.42 189.996 416.037 189.623C415.664 189.24 415.478 188.681 415.478 187.944V181.487L416.884 180.954V187.957C416.884 188.321 416.979 188.59 417.17 188.763C417.362 188.936 417.671 189.022 418.099 189.022C418.262 189.022 418.408 189.008 418.536 188.981C418.663 188.954 418.772 188.922 418.863 188.886V190.032C418.763 190.078 418.622 190.114 418.44 190.141C418.258 190.169 418.053 190.182 417.826 190.182ZM414.085 184.217V183.084H418.863V184.217H414.085ZM420.209 190.046V180.217H421.629V190.046H420.209ZM425.151 190.046V185.568C425.151 185.086 425.028 184.727 424.782 184.49C424.546 184.253 424.191 184.135 423.717 184.135C423.308 184.135 422.944 184.226 422.625 184.408C422.316 184.59 422.07 184.84 421.888 185.159C421.715 185.477 421.629 185.855 421.629 186.292L421.451 184.626C421.679 184.108 422.029 183.698 422.503 183.398C422.976 183.098 423.526 182.947 424.154 182.947C424.901 182.947 425.488 183.157 425.915 183.575C426.343 183.994 426.557 184.549 426.557 185.241V190.046H425.151ZM431.518 190.182C430.808 190.182 430.185 190.028 429.648 189.718C429.111 189.4 428.692 188.967 428.392 188.421C428.092 187.866 427.942 187.238 427.942 186.538C427.942 185.828 428.092 185.204 428.392 184.667C428.702 184.13 429.12 183.712 429.648 183.412C430.185 183.102 430.808 182.947 431.518 182.947C432.237 182.947 432.865 183.102 433.402 183.412C433.939 183.712 434.353 184.13 434.644 184.667C434.945 185.204 435.095 185.828 435.095 186.538C435.095 187.238 434.945 187.866 434.644 188.421C434.353 188.967 433.939 189.4 433.402 189.718C432.865 190.028 432.237 190.182 431.518 190.182ZM431.518 189.022C431.946 189.022 432.315 188.917 432.624 188.708C432.943 188.499 433.193 188.208 433.375 187.834C433.557 187.461 433.648 187.024 433.648 186.524C433.648 185.778 433.448 185.191 433.047 184.763C432.656 184.326 432.146 184.108 431.518 184.108C430.899 184.108 430.39 184.326 429.989 184.763C429.598 185.2 429.402 185.787 429.402 186.524C429.402 187.024 429.489 187.461 429.662 187.834C429.844 188.208 430.094 188.499 430.413 188.708C430.74 188.917 431.109 189.022 431.518 189.022ZM436.553 190.046V183.084H437.904V184.818H437.973V190.046H436.553ZM437.973 186.415L437.795 184.763C437.959 184.171 438.241 183.721 438.642 183.412C439.042 183.102 439.52 182.947 440.075 182.947C440.284 182.947 440.43 182.966 440.512 183.002V184.34C440.466 184.322 440.403 184.312 440.321 184.312C440.239 184.303 440.139 184.299 440.02 184.299C439.338 184.299 438.824 184.476 438.478 184.831C438.141 185.186 437.973 185.714 437.973 186.415ZM441.659 190.046V183.084H443.079V190.046H441.659ZM441.591 181.719V180.122H443.16V181.719H441.591ZM447.981 190.182C447.171 190.182 446.574 189.996 446.192 189.623C445.819 189.24 445.633 188.681 445.633 187.944V181.487L447.039 180.954V187.957C447.039 188.321 447.134 188.59 447.325 188.763C447.516 188.936 447.826 189.022 448.254 189.022C448.417 189.022 448.563 189.008 448.69 188.981C448.818 188.954 448.927 188.922 449.018 188.886V190.032C448.918 190.078 448.777 190.114 448.595 190.141C448.413 190.169 448.208 190.182 447.981 190.182ZM444.24 184.217V183.084H449.018V184.217H444.24ZM450.976 192.844L452.655 189.008L452.942 188.558L455.058 183.084H456.532L452.437 192.844H450.976ZM452.587 190.046L449.611 183.084H451.154L453.679 189.35L452.587 190.046Z" fill="#7A8EAC"/>
<mask id="mask0_3080_16724" style="mask-type:alpha" maskUnits="userSpaceOnUse" x="88" y="35" width="434" height="337">
<rect x="522" y="371" width="434" height="336" transform="rotate(-180 522 371)" fill="url(#paint2_linear_3080_16724)"/>
</mask>
<g mask="url(#mask0_3080_16724)">
<ellipse cx="305" cy="202" rx="217" ry="168" transform="rotate(-180 305 202)" fill="url(#paint3_linear_3080_16724)" stroke="#D8E4FE" stroke-width="0.438181"/>
<path d="M140.219 202C140.219 131.478 213.939 74.2196 305 74.2196C396.061 74.2196 469.781 131.478 469.781 202C469.781 272.523 396.061 329.781 305 329.781C213.939 329.781 140.219 272.523 140.219 202Z" fill="url(#paint4_linear_3080_16724)" stroke="#D8E4FE" stroke-width="0.438181"/>
<path d="M198.219 202C198.219 156.33 245.971 119.22 305 119.22C364.029 119.22 411.781 156.33 411.781 202C411.781 247.671 364.028 284.781 305 284.781C245.971 284.781 198.219 247.671 198.219 202Z" fill="url(#paint5_linear_3080_16724)" stroke="#D8E4FE" stroke-width="0.438181"/>
</g>
<g filter="url(#filter1_d_3080_16724)">
<rect x="254.946" y="242.411" width="100.107" height="100.107" rx="50.0537" fill="#EAEAFF" shape-rendering="crispEdges"/>
<rect x="254.946" y="242.411" width="100.107" height="100.107" rx="50.0537" stroke="#F5F5FF" stroke-opacity="0.62" stroke-width="16.6846" shape-rendering="crispEdges"/>
<path d="M311.75 288.573L302.886 279.709M291.456 308.867L318.748 281.575C319.918 280.405 320.503 279.82 320.722 279.145C320.915 278.552 320.915 277.912 320.722 277.319C320.503 276.644 319.918 276.059 318.748 274.889L316.57 272.711C315.4 271.541 314.815 270.956 314.14 270.737C313.547 270.544 312.908 270.544 312.314 270.737C311.64 270.956 311.055 271.541 309.885 272.711L282.593 300.003C281.423 301.173 280.838 301.758 280.618 302.433C280.426 303.026 280.426 303.665 280.618 304.259C280.838 304.933 281.423 305.518 282.593 306.688L284.771 308.867C285.941 310.037 286.526 310.622 287.201 310.841C287.794 311.034 288.433 311.034 289.027 310.841C289.701 310.622 290.286 310.037 291.456 308.867Z" stroke="#6546F3" stroke-width="3.96696" stroke-linecap="round" stroke-linejoin="round"/>
<path d="M322.074 292.394C322.006 292.545 321.941 292.685 321.881 292.813C321.721 293.155 321.53 293.551 321.379 293.78L321.378 293.78C320.994 294.359 320.319 295.012 319.721 295.371L319.721 295.371C319.545 295.477 319.155 295.657 318.828 295.807C318.729 295.853 318.623 295.901 318.511 295.951C318.934 296.138 319.256 296.282 319.353 296.329M322.074 292.394L321.625 298.53C321.151 297.639 320.256 296.776 319.353 296.329M322.074 292.394C322.289 292.878 322.471 293.273 322.553 293.422L322.074 292.394ZM319.353 296.329L318.583 297.885L319.353 296.329ZM325.675 295.944C325.241 295.748 324.912 295.592 324.653 295.452C324.071 295.139 323.775 294.875 323.442 294.543L325.675 295.944ZM325.675 295.944C325.262 296.128 324.945 296.272 324.842 296.323L325.675 295.944ZM322.089 299.535C322.149 299.401 322.208 299.274 322.262 299.156C322.356 298.953 322.442 298.771 322.513 298.626L322.515 298.621C322.564 298.522 322.661 298.326 322.758 298.179L322.089 299.535ZM322.089 299.535C321.871 299.046 321.692 298.657 321.625 298.53L322.089 299.535ZM322.553 293.422C322.778 293.828 323.125 294.227 323.442 294.543L322.553 293.422ZM324.842 296.323C323.983 296.756 323.289 297.376 322.758 298.179L324.842 296.323Z" fill="#98A2B3" stroke="#6546F3" stroke-width="3.47109"/>
<mask id="path-23-inside-1_3080_16724" fill="white">
<path fill-rule="evenodd" clip-rule="evenodd" d="M305.593 316.142C305.634 316.099 305.891 315.531 306.165 314.88C306.813 313.339 306.827 313.312 307.144 312.964C307.506 312.568 307.578 312.526 309.042 311.863C310.344 311.274 310.511 311.16 310.333 310.98C310.291 310.938 309.704 310.65 309.028 310.34C307.647 309.708 307.383 309.552 307.07 309.184C306.804 308.871 306.737 308.734 306.138 307.291C305.879 306.665 305.645 306.122 305.617 306.084C305.537 305.975 305.375 306.003 305.288 306.141C305.244 306.21 304.979 306.815 304.698 307.486C304.417 308.156 304.098 308.839 303.99 309.003C303.68 309.47 303.345 309.689 302.014 310.292C301.345 310.595 300.742 310.88 300.675 310.926C300.542 311.017 300.515 311.183 300.62 311.269C300.657 311.3 301.25 311.578 301.938 311.889C303.92 312.783 303.853 312.712 304.787 314.943C305.31 316.193 305.406 316.335 305.593 316.142Z"/>
<path d="M287.81 282.88C287.536 283.531 287.279 284.099 287.238 284.141C287.051 284.335 286.955 284.193 286.432 282.943C285.498 280.712 285.565 280.783 283.582 279.889C282.895 279.578 282.302 279.3 282.265 279.269C282.16 279.183 282.187 279.016 282.32 278.926C282.387 278.88 282.989 278.595 283.658 278.292C284.99 277.689 285.325 277.47 285.635 277.003C285.743 276.839 286.062 276.156 286.343 275.486C286.624 274.815 286.889 274.21 286.933 274.141C287.02 274.003 287.182 273.975 287.262 274.084C287.289 274.122 287.524 274.665 287.783 275.29C288.381 276.734 288.449 276.871 288.715 277.184C289.028 277.552 289.292 277.708 290.672 278.34C291.349 278.65 291.936 278.938 291.978 278.98C292.156 279.16 291.989 279.274 290.687 279.863C289.223 280.526 289.15 280.568 288.789 280.964C288.472 281.311 288.458 281.339 287.81 282.88Z"/>
</mask>
<path fill-rule="evenodd" clip-rule="evenodd" d="M305.593 316.142C305.634 316.099 305.891 315.531 306.165 314.88C306.813 313.339 306.827 313.312 307.144 312.964C307.506 312.568 307.578 312.526 309.042 311.863C310.344 311.274 310.511 311.16 310.333 310.98C310.291 310.938 309.704 310.65 309.028 310.34C307.647 309.708 307.383 309.552 307.07 309.184C306.804 308.871 306.737 308.734 306.138 307.291C305.879 306.665 305.645 306.122 305.617 306.084C305.537 305.975 305.375 306.003 305.288 306.141C305.244 306.21 304.979 306.815 304.698 307.486C304.417 308.156 304.098 308.839 303.99 309.003C303.68 309.47 303.345 309.689 302.014 310.292C301.345 310.595 300.742 310.88 300.675 310.926C300.542 311.017 300.515 311.183 300.62 311.269C300.657 311.3 301.25 311.578 301.938 311.889C303.92 312.783 303.853 312.712 304.787 314.943C305.31 316.193 305.406 316.335 305.593 316.142Z" fill="#98A2B3"/>
<path d="M287.81 282.88C287.536 283.531 287.279 284.099 287.238 284.141C287.051 284.335 286.955 284.193 286.432 282.943C285.498 280.712 285.565 280.783 283.582 279.889C282.895 279.578 282.302 279.3 282.265 279.269C282.16 279.183 282.187 279.016 282.32 278.926C282.387 278.88 282.989 278.595 283.658 278.292C284.99 277.689 285.325 277.47 285.635 277.003C285.743 276.839 286.062 276.156 286.343 275.486C286.624 274.815 286.889 274.21 286.933 274.141C287.02 274.003 287.182 273.975 287.262 274.084C287.289 274.122 287.524 274.665 287.783 275.29C288.381 276.734 288.449 276.871 288.715 277.184C289.028 277.552 289.292 277.708 290.672 278.34C291.349 278.65 291.936 278.938 291.978 278.98C292.156 279.16 291.989 279.274 290.687 279.863C289.223 280.526 289.15 280.568 288.789 280.964C288.472 281.311 288.458 281.339 287.81 282.88Z" fill="#98A2B3"/>
<path d="M305.593 316.142L308.092 318.551L305.593 316.142ZM306.165 314.88L309.365 316.225L309.365 316.225L306.165 314.88ZM307.144 312.964L309.709 315.303L309.709 315.303L307.144 312.964ZM309.042 311.863L307.611 308.701L307.611 308.701L309.042 311.863ZM310.333 310.98L312.796 308.535L312.796 308.534L310.333 310.98ZM309.028 310.34L310.473 307.185L310.473 307.185L309.028 310.34ZM307.07 309.184L304.425 311.432L304.425 311.432L307.07 309.184ZM306.138 307.291L309.345 305.962L309.345 305.962L306.138 307.291ZM305.617 306.084L302.814 308.132L302.817 308.136L305.617 306.084ZM305.288 306.141L308.223 307.995L308.223 307.995L305.288 306.141ZM304.698 307.486L301.497 306.144L301.496 306.144L304.698 307.486ZM303.99 309.003L306.885 310.917L306.885 310.917L303.99 309.003ZM302.014 310.292L300.582 307.13L300.582 307.13L302.014 310.292ZM300.675 310.926L298.724 308.055L298.724 308.055L300.675 310.926ZM300.62 311.269L302.831 308.593L302.828 308.591L300.62 311.269ZM301.938 311.889L300.51 315.053L300.51 315.053L301.938 311.889ZM304.787 314.943L301.586 316.284L301.586 316.284L304.787 314.943ZM287.238 284.141L284.739 281.732L284.739 281.732L287.238 284.141ZM287.81 282.88L291.01 284.225L291.01 284.225L287.81 282.88ZM288.789 280.964L291.354 283.303L291.354 283.302L288.789 280.964ZM290.687 279.863L289.256 276.701L289.256 276.701L290.687 279.863ZM291.978 278.98L294.441 276.535L294.441 276.534L291.978 278.98ZM290.672 278.34L292.118 275.185L292.118 275.185L290.672 278.34ZM288.715 277.184L286.07 279.432L286.07 279.432L288.715 277.184ZM287.783 275.29L290.99 273.962L290.99 273.962L287.783 275.29ZM287.262 274.084L284.459 276.132L284.461 276.136L287.262 274.084ZM286.933 274.141L289.867 275.995L289.867 275.995L286.933 274.141ZM286.343 275.486L283.141 274.144L283.141 274.144L286.343 275.486ZM285.635 277.003L288.53 278.917L288.53 278.917L285.635 277.003ZM283.658 278.292L282.227 275.13L282.226 275.13L283.658 278.292ZM282.32 278.926L280.369 276.055L280.369 276.055L282.32 278.926ZM282.265 279.269L284.476 276.593L284.473 276.591L282.265 279.269ZM283.582 279.889L282.154 283.053L282.155 283.053L283.582 279.889ZM286.432 282.943L283.23 284.284L283.23 284.284L286.432 282.943ZM308.092 318.551C308.357 318.275 308.518 318.012 308.537 317.983C308.592 317.895 308.634 317.82 308.657 317.778C308.706 317.69 308.747 317.608 308.774 317.553C308.832 317.436 308.894 317.302 308.952 317.173C309.072 316.909 309.218 316.574 309.365 316.225L302.966 313.534C302.838 313.837 302.718 314.112 302.631 314.304C302.586 314.404 302.558 314.462 302.548 314.483C302.546 314.487 302.547 314.484 302.551 314.477C302.554 314.471 302.564 314.452 302.578 314.426C302.586 314.412 302.597 314.392 302.611 314.369C302.624 314.346 302.644 314.313 302.669 314.272C302.693 314.235 302.733 314.172 302.788 314.098C302.816 314.059 302.853 314.009 302.899 313.952C302.944 313.897 303.009 313.82 303.094 313.732L308.092 318.551ZM309.365 316.225C309.529 315.834 309.644 315.563 309.732 315.36C309.823 315.149 309.86 315.073 309.87 315.054C309.871 315.051 309.859 315.075 309.834 315.116C309.808 315.16 309.775 315.21 309.737 315.261C309.673 315.347 309.618 315.403 309.709 315.303L304.579 310.625C304.326 310.903 304.013 311.259 303.688 311.895C303.489 312.285 303.259 312.836 302.966 313.534L309.365 316.225ZM309.709 315.303C309.798 315.205 309.752 315.262 309.666 315.337C309.552 315.436 309.454 315.497 309.421 315.516C309.417 315.519 309.47 315.488 309.663 315.397C309.85 315.308 310.102 315.194 310.473 315.026L307.611 308.701C306.96 308.995 306.374 309.258 305.938 309.511C305.252 309.909 304.866 310.31 304.579 310.625L309.709 315.303ZM310.473 315.026C311 314.787 311.707 314.472 312.202 314.133C312.359 314.026 312.622 313.833 312.889 313.546C313.151 313.264 313.569 312.728 313.762 311.931C314.231 310.003 313.001 308.741 312.796 308.535L307.87 313.426C307.754 313.309 306.57 312.129 307.017 310.291C307.2 309.539 307.589 309.051 307.804 308.82C308.022 308.585 308.218 308.448 308.284 308.403C308.409 308.317 308.46 308.301 308.286 308.387C308.144 308.457 307.933 308.555 307.611 308.701L310.473 315.026ZM312.796 308.534C312.525 308.262 312.263 308.094 312.24 308.079C312.157 308.023 312.085 307.981 312.045 307.957C311.961 307.908 311.881 307.865 311.827 307.836C311.711 307.775 311.577 307.708 311.446 307.644C311.176 307.512 310.832 307.349 310.473 307.185L307.582 313.496C307.899 313.641 308.187 313.778 308.391 313.878C308.496 313.929 308.559 313.961 308.586 313.976C308.603 313.985 308.582 313.974 308.541 313.95C308.522 313.939 308.468 313.907 308.398 313.86C308.362 313.837 308.302 313.796 308.23 313.741C308.193 313.713 308.144 313.675 308.089 313.628C308.035 313.582 307.958 313.514 307.87 313.426L312.796 308.534ZM310.473 307.185C310.134 307.029 309.89 306.915 309.707 306.826C309.52 306.734 309.44 306.69 309.414 306.675C309.399 306.666 309.461 306.701 309.553 306.778C309.597 306.816 309.636 306.852 309.667 306.885C309.697 306.916 309.714 306.936 309.714 306.935L304.425 311.432C305.327 312.492 306.358 312.935 307.582 313.496L310.473 307.185ZM309.714 306.935C309.682 306.898 309.727 306.948 309.783 307.031C309.838 307.113 309.86 307.163 309.843 307.129C309.821 307.084 309.777 306.988 309.689 306.784C309.604 306.585 309.495 306.324 309.345 305.962L302.932 308.619C303.456 309.885 303.729 310.613 304.425 311.432L309.714 306.935ZM309.345 305.962C309.21 305.637 309.08 305.328 308.977 305.089C308.926 304.972 308.876 304.859 308.834 304.766C308.814 304.721 308.787 304.662 308.757 304.602C308.743 304.573 308.719 304.523 308.687 304.465C308.686 304.461 308.581 304.257 308.417 304.033L302.817 308.136C302.761 308.06 302.719 307.996 302.692 307.954C302.665 307.911 302.643 307.874 302.627 307.847C302.596 307.795 302.573 307.753 302.561 307.73C302.537 307.684 302.52 307.65 302.516 307.641C302.505 307.62 302.503 307.615 302.513 307.636C302.531 307.675 302.561 307.744 302.605 307.845C302.691 308.044 302.807 308.319 302.932 308.619L309.345 305.962ZM308.419 304.036C307.537 302.83 306.117 302.384 304.867 302.599C303.706 302.799 302.847 303.507 302.354 304.287L308.223 307.995C307.817 308.637 307.082 309.262 306.044 309.441C304.916 309.635 303.616 309.23 302.814 308.132L308.419 304.036ZM302.354 304.287C302.234 304.477 302.148 304.658 302.145 304.663C302.116 304.723 302.088 304.783 302.064 304.834C302.017 304.937 301.961 305.062 301.904 305.192C301.787 305.457 301.643 305.794 301.497 306.144L307.899 308.828C308.034 308.507 308.163 308.206 308.26 307.983C308.31 307.87 308.347 307.788 308.37 307.738C308.382 307.712 308.384 307.708 308.379 307.719C308.376 307.724 308.366 307.745 308.35 307.776C308.342 307.79 308.295 307.881 308.223 307.995L302.354 304.287ZM301.496 306.144C301.373 306.44 301.241 306.736 301.134 306.966C301.079 307.082 301.038 307.167 301.011 307.22C300.998 307.246 300.994 307.252 300.999 307.244C301.002 307.239 301.01 307.225 301.023 307.203C301.034 307.183 301.059 307.142 301.094 307.088L306.885 310.917C307.109 310.578 307.326 310.114 307.424 309.902C307.573 309.583 307.742 309.202 307.899 308.827L301.496 306.144ZM301.095 307.088C301.113 307.06 301.177 306.968 301.284 306.862C301.388 306.757 301.472 306.701 301.488 306.69C301.492 306.687 301.441 306.721 301.279 306.802C301.119 306.883 300.899 306.986 300.582 307.13L303.445 313.454C304.69 312.891 305.952 312.328 306.885 310.917L301.095 307.088ZM300.582 307.13C300.233 307.288 299.897 307.444 299.633 307.568C299.503 307.63 299.379 307.69 299.276 307.741C299.226 307.766 299.166 307.796 299.106 307.827C299.103 307.829 298.918 307.924 298.724 308.055L302.627 313.797C302.51 313.876 302.416 313.929 302.402 313.937C302.37 313.954 302.348 313.966 302.343 313.969C302.332 313.975 302.335 313.973 302.361 313.96C302.411 313.935 302.492 313.896 302.604 313.843C302.826 313.738 303.125 313.599 303.446 313.454L300.582 307.13ZM298.724 308.055C297.941 308.588 297.306 309.457 297.131 310.55C296.948 311.693 297.307 313.037 298.412 313.948L302.828 308.591C303.828 309.416 304.148 310.633 303.986 311.648C303.831 312.614 303.277 313.355 302.627 313.797L298.724 308.055ZM298.41 313.946C298.569 314.077 298.706 314.166 298.749 314.193C298.811 314.233 298.862 314.263 298.893 314.281C298.955 314.317 299.008 314.345 299.038 314.361C299.101 314.394 299.163 314.425 299.21 314.449C299.309 314.498 299.43 314.555 299.558 314.615C299.817 314.737 300.154 314.892 300.51 315.053L303.366 308.725C303.034 308.575 302.731 308.436 302.512 308.333C302.401 308.281 302.324 308.244 302.28 308.222C302.256 308.21 302.26 308.212 302.281 308.223C302.289 308.227 302.325 308.246 302.374 308.275C302.399 308.289 302.445 308.316 302.502 308.353C302.531 308.372 302.573 308.399 302.622 308.434C302.667 308.466 302.742 308.52 302.831 308.593L298.41 313.946ZM300.51 315.053C301.068 315.305 301.293 315.406 301.447 315.489C301.545 315.541 301.395 315.473 301.217 315.283C301.055 315.109 301.018 314.99 301.105 315.168C301.207 315.378 301.33 315.673 301.586 316.284L307.989 313.603C307.778 313.098 307.558 312.565 307.348 312.133C307.123 311.669 306.803 311.094 306.293 310.547C305.35 309.536 304.039 309.029 303.365 308.725L300.51 315.053ZM301.586 316.284C301.783 316.757 302.085 317.499 302.435 318.02C302.506 318.125 303.311 319.432 305.013 319.654C306.898 319.899 308.035 318.609 308.092 318.551L303.094 313.732C303.164 313.66 303.412 313.405 303.814 313.177C304.27 312.919 305.005 312.652 305.911 312.77C306.775 312.882 307.367 313.292 307.675 313.561C307.97 313.818 308.139 314.061 308.197 314.147C308.308 314.312 308.338 314.403 308.262 314.236C308.203 314.108 308.119 313.913 307.989 313.603L301.586 316.284ZM289.736 286.551C290.002 286.275 290.163 286.012 290.181 285.983C290.237 285.895 290.279 285.82 290.302 285.778C290.351 285.69 290.392 285.608 290.419 285.553C290.477 285.436 290.539 285.302 290.597 285.173C290.717 284.909 290.863 284.574 291.01 284.225L284.61 281.534C284.483 281.837 284.363 282.112 284.276 282.304C284.23 282.404 284.203 282.462 284.192 282.483C284.191 282.487 284.192 282.484 284.196 282.477C284.199 282.471 284.208 282.452 284.223 282.426C284.231 282.412 284.242 282.392 284.255 282.369C284.269 282.346 284.288 282.313 284.314 282.272C284.338 282.235 284.378 282.172 284.433 282.098C284.46 282.059 284.498 282.009 284.544 281.952C284.589 281.897 284.654 281.82 284.739 281.732L289.736 286.551ZM291.01 284.225C291.174 283.834 291.288 283.563 291.377 283.36C291.468 283.149 291.505 283.073 291.515 283.054C291.516 283.051 291.504 283.075 291.479 283.116C291.452 283.16 291.42 283.21 291.382 283.261C291.318 283.347 291.262 283.403 291.354 283.303L286.224 278.625C285.971 278.903 285.658 279.259 285.333 279.895C285.134 280.285 284.904 280.836 284.61 281.534L291.01 284.225ZM291.354 283.302C291.443 283.205 291.396 283.262 291.31 283.337C291.197 283.436 291.098 283.497 291.066 283.516C291.061 283.518 291.114 283.488 291.308 283.396C291.495 283.308 291.746 283.194 292.118 283.026L289.256 276.701C288.605 276.995 288.019 277.258 287.583 277.511C286.897 277.909 286.511 278.31 286.224 278.625L291.354 283.302ZM292.118 283.026C292.645 282.787 293.352 282.472 293.847 282.133C294.004 282.026 294.267 281.833 294.534 281.546C294.796 281.264 295.213 280.728 295.407 279.931C295.876 278.003 294.646 276.741 294.441 276.535L289.515 281.426C289.399 281.309 288.215 280.129 288.662 278.291C288.845 277.539 289.234 277.051 289.449 276.82C289.667 276.585 289.862 276.448 289.928 276.403C290.054 276.317 290.105 276.301 289.931 276.387C289.789 276.457 289.578 276.555 289.256 276.701L292.118 283.026ZM294.441 276.534C294.17 276.262 293.908 276.094 293.885 276.079C293.802 276.023 293.73 275.981 293.69 275.957C293.606 275.908 293.526 275.865 293.472 275.836C293.356 275.775 293.222 275.708 293.091 275.644C292.821 275.512 292.477 275.349 292.118 275.185L289.226 281.496C289.544 281.641 289.832 281.778 290.036 281.878C290.141 281.929 290.204 281.961 290.231 281.976C290.248 281.985 290.227 281.974 290.186 281.95C290.167 281.939 290.113 281.907 290.042 281.86C290.007 281.837 289.947 281.796 289.875 281.741C289.838 281.713 289.789 281.675 289.733 281.628C289.68 281.582 289.603 281.514 289.515 281.426L294.441 276.534ZM292.118 275.185C291.779 275.029 291.535 274.915 291.352 274.826C291.165 274.734 291.085 274.69 291.059 274.674C291.044 274.666 291.106 274.701 291.198 274.778C291.242 274.816 291.281 274.852 291.312 274.885C291.342 274.915 291.359 274.935 291.359 274.935L286.07 279.432C286.972 280.492 288.003 280.935 289.227 281.496L292.118 275.185ZM291.359 274.935C291.327 274.898 291.372 274.948 291.427 275.031C291.482 275.113 291.505 275.163 291.488 275.129C291.466 275.084 291.422 274.988 291.334 274.784C291.249 274.585 291.14 274.324 290.99 273.962L284.577 276.619C285.101 277.885 285.374 278.613 286.07 279.432L291.359 274.935ZM290.99 273.962C290.855 273.637 290.725 273.328 290.622 273.089C290.571 272.972 290.521 272.859 290.479 272.766C290.459 272.721 290.432 272.662 290.402 272.602C290.388 272.573 290.364 272.523 290.332 272.465C290.33 272.461 290.226 272.257 290.062 272.033L284.461 276.136C284.406 276.06 284.364 275.995 284.337 275.954C284.31 275.911 284.287 275.874 284.272 275.847C284.241 275.795 284.218 275.753 284.206 275.73C284.181 275.684 284.165 275.65 284.16 275.641C284.15 275.62 284.148 275.615 284.158 275.636C284.175 275.675 284.206 275.744 284.25 275.845C284.336 276.044 284.452 276.319 284.577 276.619L290.99 273.962ZM290.064 272.036C289.182 270.83 287.761 270.384 286.511 270.599C285.351 270.799 284.491 271.507 283.999 272.287L289.867 275.995C289.462 276.637 288.727 277.262 287.689 277.441C286.561 277.635 285.261 277.23 284.459 276.132L290.064 272.036ZM283.999 272.287C283.878 272.477 283.793 272.658 283.79 272.663C283.761 272.723 283.733 272.783 283.709 272.834C283.661 272.937 283.606 273.062 283.549 273.192C283.432 273.457 283.288 273.794 283.141 274.144L289.544 276.828C289.678 276.507 289.807 276.206 289.905 275.983C289.955 275.87 289.991 275.788 290.014 275.738C290.027 275.712 290.029 275.708 290.024 275.719C290.021 275.724 290.011 275.745 289.994 275.776C289.987 275.79 289.939 275.881 289.867 275.995L283.999 272.287ZM283.141 274.144C283.017 274.44 282.886 274.736 282.779 274.966C282.724 275.082 282.683 275.167 282.656 275.22C282.643 275.246 282.639 275.252 282.644 275.244C282.646 275.239 282.655 275.225 282.667 275.203C282.679 275.183 282.704 275.142 282.739 275.088L288.53 278.917C288.754 278.578 288.971 278.114 289.069 277.902C289.218 277.583 289.387 277.202 289.544 276.827L283.141 274.144ZM282.739 275.088C282.758 275.06 282.822 274.968 282.929 274.862C283.033 274.757 283.116 274.701 283.133 274.69C283.137 274.687 283.085 274.721 282.924 274.802C282.764 274.883 282.544 274.986 282.227 275.13L285.09 281.454C286.335 280.891 287.597 280.328 288.53 278.917L282.739 275.088ZM282.226 275.13C281.878 275.288 281.542 275.444 281.278 275.568C281.148 275.63 281.024 275.69 280.921 275.741C280.871 275.766 280.811 275.796 280.751 275.827C280.748 275.829 280.563 275.924 280.369 276.055L284.271 281.797C284.154 281.876 284.061 281.928 284.046 281.937C284.015 281.954 283.993 281.966 283.988 281.969C283.977 281.975 283.98 281.973 284.006 281.96C284.056 281.935 284.137 281.896 284.249 281.843C284.471 281.738 284.77 281.599 285.091 281.454L282.226 275.13ZM280.369 276.055C279.585 276.588 278.951 277.457 278.776 278.55C278.593 279.693 278.952 281.037 280.057 281.948L284.473 276.591C285.473 277.416 285.793 278.633 285.631 279.648C285.476 280.613 284.922 281.355 284.272 281.797L280.369 276.055ZM280.055 281.946C280.214 282.077 280.351 282.166 280.394 282.193C280.455 282.233 280.507 282.263 280.538 282.281C280.6 282.317 280.653 282.345 280.683 282.361C280.746 282.394 280.808 282.425 280.855 282.449C280.954 282.498 281.075 282.555 281.203 282.615C281.461 282.737 281.798 282.892 282.154 283.053L285.01 276.725C284.679 276.575 284.375 276.436 284.157 276.333C284.045 276.281 283.968 276.244 283.925 276.222C283.9 276.21 283.905 276.212 283.926 276.223C283.934 276.227 283.97 276.246 284.019 276.275C284.044 276.289 284.09 276.316 284.147 276.353C284.176 276.372 284.218 276.399 284.267 276.433C284.312 276.466 284.387 276.52 284.476 276.593L280.055 281.946ZM282.155 283.053C282.713 283.305 282.938 283.406 283.092 283.489C283.189 283.541 283.04 283.473 282.862 283.282C282.7 283.109 282.663 282.99 282.75 283.168C282.852 283.378 282.975 283.673 283.23 284.284L289.634 281.603C289.422 281.098 289.203 280.565 288.993 280.133C288.767 279.669 288.448 279.093 287.938 278.547C286.995 277.536 285.683 277.029 285.01 276.725L282.155 283.053ZM283.23 284.284C283.428 284.756 283.73 285.499 284.08 286.02C284.151 286.125 284.956 287.432 286.658 287.654C288.543 287.899 289.68 286.609 289.736 286.551L284.739 281.732C284.809 281.66 285.057 281.405 285.459 281.177C285.915 280.919 286.65 280.652 287.555 280.77C288.42 280.882 289.012 281.292 289.32 281.561C289.615 281.818 289.784 282.061 289.842 282.147C289.953 282.312 289.983 282.402 289.907 282.236C289.848 282.108 289.764 281.913 289.634 281.603L283.23 284.284Z" fill="#6546F3" mask="url(#path-23-inside-1_3080_16724)"/>
</g>
</g>
<defs>
<filter id="filter0_d_3080_16724" x="0.12752" y="0.664431" width="609.745" height="529.356" filterUnits="userSpaceOnUse" color-interpolation-filters="sRGB">
<feFlood flood-opacity="0" result="BackgroundImageFix"/>
<feColorMatrix in="SourceAlpha" type="matrix" values="0 0 0 0 0 0 0 0 0 0 0 0 0 0 0 0 0 0 127 0" result="hardAlpha"/>
<feMorphology radius="18.2013" operator="erode" in="SourceAlpha" result="effect1_dropShadow_3080_16724"/>
<feOffset dy="48.5369"/>
<feGaussianBlur stdDeviation="48.5369"/>
<feComposite in2="hardAlpha" operator="out"/>
<feColorMatrix type="matrix" values="0 0 0 0 0.216949 0 0 0 0 0.184287 0 0 0 0 0.519068 0 0 0 0.2 0"/>
<feBlend mode="normal" in2="BackgroundImageFix" result="effect1_dropShadow_3080_16724"/>
<feBlend mode="normal" in="SourceGraphic" in2="effect1_dropShadow_3080_16724" result="shape"/>
</filter>
<filter id="filter1_d_3080_16724" x="227.221" y="214.685" width="155.558" height="155.558" filterUnits="userSpaceOnUse" color-interpolation-filters="sRGB">
<feFlood flood-opacity="0" result="BackgroundImageFix"/>
<feColorMatrix in="SourceAlpha" type="matrix" values="0 0 0 0 0 0 0 0 0 0 0 0 0 0 0 0 0 0 127 0" result="hardAlpha"/>
<feOffset/>
<feGaussianBlur stdDeviation="9.69144"/>
<feComposite in2="hardAlpha" operator="out"/>
<feColorMatrix type="matrix" values="0 0 0 0 0.312986 0 0 0 0 0.233122 0 0 0 0 0.678813 0 0 0 0.65 0"/>
<feBlend mode="normal" in2="BackgroundImageFix" result="effect1_dropShadow_3080_16724"/>
<feBlend mode="normal" in="SourceGraphic" in2="effect1_dropShadow_3080_16724" result="shape"/>
</filter>
<linearGradient id="paint0_linear_3080_16724" x1="123.11" y1="67.6992" x2="123.11" y2="109.171" gradientUnits="userSpaceOnUse">
<stop offset="0.06" stop-color="#7176FF"/>
<stop offset="0.23" stop-color="#6D68FB"/>
<stop offset="0.54" stop-color="#6546F3"/>
<stop offset="0.95" stop-color="#570EE6"/>
<stop offset="0.97" stop-color="#570DE6"/>
</linearGradient>
<linearGradient id="paint1_linear_3080_16724" x1="123.106" y1="74.341" x2="123.106" y2="107.996" gradientUnits="userSpaceOnUse">
<stop stop-color="white"/>
<stop offset="1" stop-color="#E1E2E3"/>
</linearGradient>
<linearGradient id="paint2_linear_3080_16724" x1="739" y1="352.69" x2="739" y2="520.182" gradientUnits="userSpaceOnUse">
<stop offset="0.463415" stop-color="#D9D9D9"/>
<stop offset="0.85" stop-color="#D9D9D9" stop-opacity="0"/>
</linearGradient>
<linearGradient id="paint3_linear_3080_16724" x1="305" y1="76.415" x2="305" y2="34.0005" gradientUnits="userSpaceOnUse">
<stop stop-color="#F9FBFF"/>
<stop offset="1" stop-color="#E8EDFD"/>
</linearGradient>
<linearGradient id="paint4_linear_3080_16724" x1="305" y1="266.416" x2="305" y2="336.927" gradientUnits="userSpaceOnUse">
<stop stop-color="white"/>
<stop offset="1" stop-color="#F2F5FF"/>
</linearGradient>
<linearGradient id="paint5_linear_3080_16724" x1="305" y1="255.259" x2="305" y2="285" gradientUnits="userSpaceOnUse">
<stop stop-color="white"/>
<stop offset="1" stop-color="#F2F6FF"/>
</linearGradient>
</defs>
</svg>
