<svg width="27" height="13" viewBox="0 0 27 13" fill="none" xmlns="http://www.w3.org/2000/svg">
<path d="M24.7973 5.37142L18.4918 2.48307C17.6944 2.12149 16.9087 1.70777 16.1561 1.25326C15.1588 0.649398 14.0228 0.330139 12.8709 0.330139C12.8221 0.330139 12.7737 0.330753 12.7246 0.331979H12.2376C11.2099 0.410491 10.231 0.793847 9.40567 1.44064L9.40322 1.44248C9.26429 1.54768 9.12996 1.65042 8.999 1.7504C7.85722 2.6223 6.94851 3.31664 5.52549 3.79169V3.84291H1.45088C1.01876 3.84291 0.666992 4.19498 0.666992 4.62771V11.5701C0.666992 12.0029 1.01845 12.3549 1.45088 12.3549H4.68149V12.3571L4.96088 12.3549H5.56904V12.3641H8.21451C8.92203 12.3626 9.62372 12.1728 10.2426 11.8152L12.2023 10.6722C12.8933 10.2738 13.6759 10.0634 14.4654 10.0634H17.1231C18.164 10.0634 19.0107 9.1737 19.0107 8.0773C19.0126 7.94574 19.0006 7.81386 18.9748 7.68536L18.9098 7.3566L23.3543 9.08354L23.3598 9.08599C23.5898 9.18444 23.8315 9.23412 24.0778 9.23412C24.8555 9.23412 25.5486 8.74557 25.8437 7.98929C26.2442 6.96343 25.7744 5.78913 24.797 5.37142H24.7973Z" fill="#E6E6FF"/>
<path d="M24.8697 5.2024L18.568 2.31558C17.7743 1.95583 17.0008 1.54856 16.2516 1.0962C15.18 0.447252 13.9585 0.119406 12.7207 0.148234H12.231C11.1665 0.227972 10.1464 0.626356 9.29261 1.29616C7.91161 2.34164 6.97315 3.13994 5.3419 3.65824V3.65916H1.4513C0.917664 3.65916 0.483398 4.09373 0.483398 4.62798V11.5704C0.483398 12.1046 0.917664 12.5392 1.4513 12.5392H4.4979V12.5429L4.9613 12.5392H5.38606V12.5484H8.21523C8.9571 12.5469 9.68639 12.3494 10.3356 11.9746L12.2944 10.8319C12.9649 10.4455 13.7184 10.2446 14.4836 10.2477H17.1232C18.2674 10.2477 19.1948 9.27732 19.1948 8.08033C19.197 7.93588 19.1838 7.79143 19.1556 7.65005L23.2879 9.25585C24.3576 9.71281 25.5788 9.17611 26.0158 8.05672C26.4525 6.93732 25.9395 5.65967 24.8697 5.20271V5.2024ZM4.49759 11.591H1.45099L1.43013 11.5701L1.45099 4.60682H4.49759V11.591ZM25.0878 7.6387C24.8553 8.23428 24.2052 8.52012 23.6356 8.27661L17.6326 5.92802C17.5406 5.89489 17.4406 5.89489 17.3486 5.92802C17.2735 5.9228 17.1983 5.9228 17.1232 5.92802H11.1287C10.8582 5.92802 10.639 6.15742 10.639 6.44049C10.639 6.72356 10.8582 6.95296 11.1287 6.95296H17.1183C17.7209 6.95326 18.2095 7.46451 18.2098 8.09474C18.2101 8.7259 17.7215 9.23776 17.1183 9.23807H14.4787C13.5466 9.23929 12.63 9.48771 11.8145 9.96061L9.85569 11.1033C9.3515 11.3941 8.78566 11.5474 8.21032 11.5492H5.44494V4.68288C7.24978 4.14158 8.35109 3.27458 9.87071 2.12083C10.5626 1.57095 11.3897 1.2385 12.2558 1.16275C13.4666 1.06062 14.6783 1.34829 15.7281 1.98773C16.5209 2.46186 17.3385 2.88969 18.1767 3.26875L24.4784 6.11969C25.0476 6.3632 25.3209 7.04312 25.0881 7.63901L25.0878 7.6387Z" fill="#344054"/>
</svg>
