<svg width="31" height="31" viewBox="0 0 31 31" fill="none" xmlns="http://www.w3.org/2000/svg">
<path d="M23.043 23.0424C27.1851 18.9002 27.1851 12.1845 23.043 8.04236C18.9008 3.90022 12.1851 3.90022 8.04297 8.04236C3.90083 12.1845 3.90083 18.9002 8.04297 23.0424C12.1851 27.1845 18.9008 27.1845 23.043 23.0424Z" fill="#E6E6FF" stroke="#344054" stroke-width="1.71313" stroke-miterlimit="10"/>
<path d="M10.6988 18.0088C10.0926 18.0088 9.69163 18.6416 9.95374 19.1887C10.9418 21.2534 13.0501 22.6795 15.492 22.6795C17.9339 22.6795 20.0418 21.2534 21.0303 19.1887C21.292 18.6416 20.8915 18.0088 20.2852 18.0088H10.6988Z" fill="#344054"/>
<path d="M9.83496 13.5443C9.83496 12.7135 10.6364 12.0982 11.6244 12.0982C12.6125 12.0982 13.4139 12.7135 13.4139 13.5443" stroke="#344054" stroke-width="1.54173" stroke-miterlimit="10"/>
<path d="M17.5713 13.5443C17.5713 12.7135 18.3727 12.0982 19.3608 12.0982C20.3488 12.0982 21.1502 12.7135 21.1502 13.5443" stroke="#344054" stroke-width="1.54173" stroke-miterlimit="10"/>
</svg>
