<svg width="18" height="17" viewBox="0 0 18 17" fill="none" xmlns="http://www.w3.org/2000/svg">
<path d="M17.0132 7.94257C16.6921 7.52434 16.1667 7.28459 15.5716 7.28459L11.892 7.28553C11.6655 7.28553 11.46 7.17995 11.3283 6.99582C11.1967 6.81168 11.1633 6.58324 11.2359 6.37083L12.4997 2.54736C12.791 1.63234 12.3103 0.886379 11.7044 0.552675C11.4455 0.410017 11.1539 0.33429 10.8611 0.33429C10.5173 0.33429 10.0183 0.440497 9.5938 0.94671L4.27181 7.28427H0.948896C0.529723 7.28427 0.188477 7.62521 0.188477 8.04469V15.741C0.188477 16.1601 0.529409 16.5014 0.948896 16.5014H4.12475V16.5036L4.39058 16.5014H4.67621V16.4992L14.6104 16.42C15.181 16.4153 15.6743 16.0253 15.8107 15.4717L17.2791 9.5052C17.4318 8.93017 17.335 8.3608 17.0135 7.94257H17.0132Z" fill="#E6E6FF"/>
<path d="M17.1629 7.82796C16.8056 7.36291 16.2258 7.09614 15.5716 7.09614L11.8921 7.09708C11.7271 7.09708 11.5775 7.0201 11.4817 6.88624C11.3859 6.75238 11.3617 6.58615 11.4151 6.4303L12.6795 2.60495C13.0032 1.58844 12.4693 0.758889 11.7956 0.388106C11.1232 0.0173225 10.1356 0.00821002 9.44963 0.826133L4.18419 7.09645H0.948954C0.425772 7.09645 0 7.52223 0 8.04541V15.7417C0 16.2649 0.425772 16.6906 0.948954 16.6906H3.93627V16.6944L4.39064 16.6906H4.8648V16.6869L14.612 16.6089C15.269 16.6036 15.8368 16.1546 15.994 15.5173L17.4614 9.55431C17.6292 8.92272 17.5208 8.29364 17.1632 7.82828L17.1629 7.82796ZM0.948954 15.7615L0.928529 15.741L0.948954 8.02435H3.93627V15.7615H0.948954ZM16.5614 9.32335L15.0921 15.2945C15.0365 15.5195 14.836 15.6782 14.6045 15.6798L4.86449 15.7577V7.7293L10.1601 1.42253C10.5315 0.981987 11.0324 1.02724 11.3475 1.20131C11.6636 1.37539 11.97 1.77351 11.7947 2.32278L10.5365 6.13022C10.3873 6.56636 10.458 7.05089 10.7266 7.42639C10.995 7.80188 11.4308 8.02561 11.8921 8.02561L15.572 8.02467C15.9402 8.02467 16.2438 8.1557 16.427 8.39357C16.6095 8.63143 16.6582 8.95885 16.5618 9.32335H16.5614Z" fill="#344054"/>
</svg>
