<svg width="32" height="32" viewBox="0 0 32 32" fill="none" xmlns="http://www.w3.org/2000/svg">
<path d="M25.5894 0H6.41063C2.87014 0 0 2.87014 0 6.41063V25.5894C0 29.1299 2.87014 32 6.41063 32H25.5894C29.1299 32 32 29.1299 32 25.5894V6.41063C32 2.87014 29.1299 0 25.5894 0Z" fill="url(#paint0_linear_3591_12135)"/>
<path d="M24.3315 6.09991H22.7164C22.7164 6.09991 22.1116 9.12078 18.868 9.12078H15.8189C11.3391 9.12078 7.66187 12.9924 7.66187 17.2944L7.67184 17.5719C7.67184 22.1797 11.5651 25.7854 15.7591 25.7854H15.9352C21.1029 25.7854 24.3415 21.643 24.3415 17.7913L24.3332 6.09991H24.3315ZM19.963 17.4589C19.963 19.6506 18.1851 21.4286 15.9934 21.4286C13.8017 21.4286 12.0237 19.6506 12.0237 17.4589C12.0237 15.2672 13.8017 13.4893 15.9934 13.4893H19.963V17.4589Z" fill="url(#paint1_linear_3591_12135)"/>
<path d="M24.3315 6.09991C23.9493 6.09991 23.0088 6.09991 22.7164 6.09991C22.7164 6.09991 22.1116 9.12078 18.868 9.12078C21.7061 9.12078 24.064 8.00582 24.3332 6.09991H24.3315Z" fill="#FAA858"/>
<defs>
<linearGradient id="paint0_linear_3591_12135" x1="16" y1="4.76727" x2="16" y2="35.8351" gradientUnits="userSpaceOnUse">
<stop offset="0.06" stop-color="#7176FF"/>
<stop offset="0.23" stop-color="#6D68FB"/>
<stop offset="0.54" stop-color="#6546F3"/>
<stop offset="0.95" stop-color="#570EE6"/>
<stop offset="0.97" stop-color="#570DE6"/>
</linearGradient>
<linearGradient id="paint1_linear_3591_12135" x1="15.9968" y1="9.74289" x2="15.9968" y2="34.955" gradientUnits="userSpaceOnUse">
<stop stop-color="white"/>
<stop offset="1" stop-color="#E1E2E3"/>
</linearGradient>
</defs>
</svg>
