<svg width="31" height="24" viewBox="0 0 31 24" fill="none" xmlns="http://www.w3.org/2000/svg">
<g clip-path="url(#clip0_1418_79906)">
<path d="M5.67557 23.8805V22.2921C5.67557 21.683 5.30484 21.286 4.66938 21.286C4.35171 21.286 4.00751 21.3919 3.7692 21.7361C3.58395 21.4448 3.31923 21.286 2.92208 21.286C2.65724 21.286 2.39264 21.3654 2.18074 21.6566V21.339H1.62476V23.8805H2.18074V22.4773C2.18074 22.0274 2.41905 21.8155 2.78978 21.8155C3.16027 21.8155 3.34576 22.0538 3.34576 22.4773V23.8805H3.90174V22.4773C3.90174 22.0274 4.16634 21.8155 4.51055 21.8155C4.88128 21.8155 5.06652 22.0538 5.06652 22.4773V23.8805H5.67557ZM13.9093 21.339H13.0092V20.5712H12.4532V21.339H11.9502V21.8419H12.4531V23.0069C12.4531 23.5894 12.6914 23.9335 13.3269 23.9335C13.5652 23.9335 13.8298 23.8541 14.0153 23.7482L13.8563 23.2716C13.6975 23.3775 13.5122 23.404 13.3798 23.404C13.1151 23.404 13.0092 23.2452 13.0092 22.9804V21.8419H13.9093V21.339ZM18.6219 21.2859C18.3043 21.2859 18.0925 21.4448 17.9601 21.6566V21.339H17.4041V23.8805H17.9601V22.4509C17.9601 22.0274 18.1453 21.789 18.4895 21.789C18.5954 21.789 18.7278 21.8156 18.8337 21.842L18.9926 21.3125C18.8867 21.286 18.7278 21.286 18.6219 21.286M11.5001 21.5509C11.2352 21.3655 10.8646 21.2861 10.4675 21.2861C9.83215 21.2861 9.4086 21.6038 9.4086 22.1068C9.4086 22.5305 9.72626 22.7687 10.2822 22.8482L10.547 22.8747C10.8382 22.9275 10.9971 23.007 10.9971 23.1394C10.9971 23.3247 10.7853 23.4571 10.4145 23.4571C10.0438 23.4571 9.75268 23.3247 9.56731 23.1924L9.30259 23.6159C9.59384 23.8277 9.99099 23.9336 10.388 23.9336C11.1294 23.9336 11.553 23.5895 11.553 23.1129C11.553 22.6628 11.2088 22.4245 10.6793 22.3451L10.4145 22.3186C10.1762 22.2921 9.99099 22.2393 9.99099 22.0804C9.99099 21.8951 10.1762 21.7892 10.4675 21.7892C10.7853 21.7892 11.1029 21.9215 11.2618 22.0009L11.5001 21.5509ZM26.2734 21.2861C25.9556 21.2861 25.7438 21.445 25.6114 21.6567V21.3391H25.0554V23.8807H25.6114V22.451C25.6114 22.0275 25.7967 21.7892 26.1408 21.7892C26.2468 21.7892 26.3792 21.8157 26.4851 21.8421L26.644 21.3127C26.5381 21.2861 26.3792 21.2861 26.2734 21.2861ZM19.1779 22.6099C19.1779 23.3776 19.7074 23.9336 20.5282 23.9336C20.8988 23.9336 21.1635 23.8543 21.4283 23.6425L21.1635 23.1924C20.9518 23.3512 20.74 23.4306 20.5017 23.4306C20.0516 23.4306 19.7339 23.1129 19.7339 22.6099C19.7339 22.1334 20.0516 21.8156 20.5017 21.7892C20.74 21.7892 20.9518 21.8685 21.1635 22.0275L21.4283 21.5774C21.1635 21.3655 20.8988 21.2861 20.5282 21.2861C19.7074 21.2861 19.1779 21.8421 19.1779 22.6099ZM24.3142 22.6099V21.3391H23.7582V21.6567C23.5728 21.4186 23.3081 21.2861 22.9639 21.2861C22.2491 21.2861 21.6931 21.8421 21.6931 22.6099C21.6931 23.3776 22.2491 23.9336 22.9639 23.9336C23.3345 23.9336 23.5993 23.8013 23.7582 23.563V23.8807H24.3142V22.6099ZM22.2755 22.6099C22.2755 22.1598 22.5667 21.7892 23.0432 21.7892C23.4933 21.7892 23.8111 22.1334 23.8111 22.6099C23.8111 23.06 23.4933 23.4306 23.0432 23.4306C22.5667 23.404 22.2755 23.06 22.2755 22.6099ZM15.6303 21.2861C14.8889 21.2861 14.3593 21.8156 14.3593 22.6099C14.3593 23.4042 14.8888 23.9336 15.6567 23.9336C16.0273 23.9336 16.398 23.8277 16.6893 23.5895L16.4244 23.1924C16.2127 23.3512 15.9479 23.4571 15.6832 23.4571C15.339 23.4571 14.9948 23.2983 14.9153 22.8481H16.7952V22.6364C16.8217 21.8156 16.3452 21.2861 15.6303 21.2861ZM15.6301 21.7626C15.9742 21.7626 16.2127 21.9745 16.2655 22.3717H14.9417C14.9947 22.0275 15.233 21.7626 15.6301 21.7626ZM29.4238 22.6099V20.333H28.8678V21.6567C28.6824 21.4186 28.4177 21.2861 28.0735 21.2861C27.3587 21.2861 26.8027 21.8421 26.8027 22.6099C26.8027 23.3776 27.3587 23.9336 28.0735 23.9336C28.4442 23.9336 28.7089 23.8013 28.8678 23.563V23.8807H29.4238V22.6099ZM27.3852 22.6099C27.3852 22.1598 27.6763 21.7892 28.153 21.7892C28.603 21.7892 28.9207 22.1334 28.9207 22.6099C28.9207 23.06 28.603 23.4306 28.153 23.4306C27.6763 23.404 27.3852 23.06 27.3852 22.6099ZM8.79943 22.6099V21.3391H8.24345V21.6567C8.05808 21.4186 7.79336 21.2861 7.44916 21.2861C6.73434 21.2861 6.17836 21.8421 6.17836 22.6099C6.17836 23.3776 6.73434 23.9336 7.44916 23.9336C7.81989 23.9336 8.08462 23.8013 8.24345 23.563V23.8807H8.79943V22.6099ZM6.73434 22.6099C6.73434 22.1598 7.0256 21.7892 7.5021 21.7892C7.95219 21.7892 8.26998 22.1334 8.26998 22.6099C8.26998 23.06 7.95219 23.4306 7.5021 23.4306C7.0256 23.404 6.73434 23.06 6.73434 22.6099Z" fill="black"/>
<path d="M11.3148 2.03857H19.6545V17.0236H11.3148V2.03857Z" fill="#FF5F00"/>
<path d="M11.8443 9.53114C11.8443 6.48651 13.274 3.78597 15.4713 2.03855C13.8565 0.767759 11.8179 0 9.594 0C4.32522 0 0.0627441 4.26247 0.0627441 9.53114C0.0627441 14.7998 4.32522 19.0623 9.59388 19.0623C11.8178 19.0623 13.8564 18.2945 15.4713 17.0236C13.274 15.3027 11.8443 12.5758 11.8443 9.53114Z" fill="#EB001B"/>
<path d="M30.9065 9.53114C30.9065 14.7997 26.6441 19.0623 21.3754 19.0623C19.1515 19.0623 17.1129 18.2945 15.4979 17.0236C17.7218 15.2763 19.1251 12.5758 19.1251 9.53114C19.1251 6.48651 17.6953 3.78597 15.4979 2.03855C17.1128 0.767759 19.1515 0 21.3754 0C26.6441 0 30.9065 4.28901 30.9065 9.53114Z" fill="#F79E1B"/>
</g>
<defs>
<clipPath id="clip0_1418_79906">
<rect width="30.8744" height="24" fill="white" transform="translate(0.0627441)"/>
</clipPath>
</defs>
</svg>
