<svg width="31" height="30" viewBox="0 0 31 30" fill="none" xmlns="http://www.w3.org/2000/svg">
<path d="M22.5225 22.5C26.6646 18.3579 26.6646 11.6421 22.5225 7.5C18.3803 3.35786 11.6646 3.35786 7.52246 7.5C3.38033 11.6421 3.38033 18.3579 7.52246 22.5C11.6646 26.6421 18.3803 26.6421 22.5225 22.5Z" fill="#E6E6FF" stroke="#344054" stroke-width="1.86099" stroke-miterlimit="10"/>
<path d="M18.8395 14.0938C19.7886 14.0938 20.558 13.3244 20.558 12.3754C20.558 11.4263 19.7886 10.6569 18.8395 10.6569C17.8905 10.6569 17.1211 11.4263 17.1211 12.3754C17.1211 13.3244 17.8905 14.0938 18.8395 14.0938Z" fill="#344054"/>
<path d="M11.1159 14.0938C12.065 14.0938 12.8343 13.3244 12.8343 12.3754C12.8343 11.4263 12.065 10.6569 11.1159 10.6569C10.1668 10.6569 9.39746 11.4263 9.39746 12.3754C9.39746 13.3244 10.1668 14.0938 11.1159 14.0938Z" fill="#344054"/>
<path d="M11.2051 19.3491H18.8398" stroke="#344054" stroke-width="1.6748" stroke-miterlimit="10"/>
</svg>
