<svg width="46" height="44" viewBox="0 0 46 44" fill="none" xmlns="http://www.w3.org/2000/svg">
<g clip-path="url(#clip0_1961_48397)">
<path d="M8.8754 20.3177C9.37127 20.3177 9.86714 20.4169 10.3035 20.5954L14.568 15.2797C14.1514 14.6648 13.8936 13.9111 13.8936 13.1177C13.8936 10.9954 15.6192 9.24997 17.7614 9.24997C19.9035 9.24997 21.6291 10.9756 21.6291 13.1177V13.3359L24.4655 14.3872C25.1795 13.4549 26.2903 12.8599 27.5399 12.8599C28.2936 12.8599 28.9878 13.0781 29.5828 13.4351L33.3514 10.1624C33.1333 9.68634 33.0142 9.1508 33.0142 8.57559C33.0142 6.45328 34.7399 4.70782 36.882 4.70782C39.0242 4.70782 40.7498 6.43344 40.7498 8.57559C40.7498 10.7177 39.0242 12.4434 36.882 12.4434C36.1283 12.4434 35.4341 12.2252 34.839 11.8682L31.0704 15.1409C31.2886 15.6169 31.4076 16.1525 31.4076 16.7078C31.4076 18.8301 29.682 20.5756 27.5399 20.5756C25.3977 20.5756 23.6721 18.85 23.6721 16.7078V16.4896L20.8357 15.4384C20.1217 16.3706 19.0109 16.9657 17.7614 16.9657C17.2655 16.9657 16.7696 16.8665 16.3333 16.688L12.0688 22.0037C12.4853 22.6186 12.7432 23.3723 12.7432 24.1657C12.7432 26.288 11.0176 28.0334 8.8754 28.0334C6.73326 28.0334 5.00764 26.3078 5.00764 24.1657C5.00764 22.0235 6.75309 20.3177 8.8754 20.3177ZM40.9283 40.1921H4.80929C4.17458 40.1921 3.67871 39.6764 3.67871 39.0615C3.67871 38.4467 4.19441 37.931 4.80929 37.931H7.76466V31.1277C7.76466 30.4929 8.28036 29.9971 8.89524 29.9971C9.51011 29.9971 10.0258 30.5128 10.0258 31.1277V37.931H17.087V27.6169C17.087 26.9822 17.6027 26.4863 18.2176 26.4863C18.8324 26.4863 19.3481 27.002 19.3481 27.6169V37.931H26.4093V23.3921C26.4093 22.7574 26.925 22.2615 27.5399 22.2615C28.1547 22.2615 28.6704 22.7772 28.6704 23.3921V37.931H35.7316V18.4136C35.7316 17.7789 36.2473 17.283 36.8622 17.283C37.4771 17.283 37.9928 17.7987 37.9928 18.4136V37.931H40.9481C41.5828 37.931 42.0787 38.4467 42.0787 39.0615C42.0787 39.6764 41.563 40.1921 40.9283 40.1921Z" fill="white"/>
<path d="M16.7493 14.3276C17.0469 14.5657 17.384 14.6847 17.7609 14.6847C18.6336 14.6847 19.3675 13.9706 19.3675 13.078C19.3675 12.1855 18.6535 11.4714 17.7609 11.4714C16.8683 11.4714 16.1543 12.1855 16.1543 13.078C16.1741 13.5937 16.3923 14.0301 16.7493 14.3276Z" fill="#344054"/>
<path d="M8.87486 25.7723C9.74759 25.7723 10.4815 25.0583 10.4815 24.1657C10.4815 23.6698 10.2633 23.2335 9.90627 22.9359C9.90627 22.9359 9.88643 22.9359 9.88643 22.9161C9.60875 22.6979 9.27156 22.5591 8.8947 22.5591C8.02197 22.5591 7.28809 23.2731 7.28809 24.1657C7.28809 25.0583 8.00214 25.7723 8.87486 25.7723Z" fill="#344054"/>
<path d="M27.5402 18.3144C28.4275 18.3144 29.1468 17.5951 29.1468 16.7078C29.1468 15.8205 28.4275 15.1012 27.5402 15.1012C26.6529 15.1012 25.9336 15.8205 25.9336 16.7078C25.9336 17.5951 26.6529 18.3144 27.5402 18.3144Z" fill="#344054"/>
<path d="M35.7259 7.43706C36.3527 6.81029 37.3702 6.81029 37.997 7.43706C38.6238 8.06384 38.6238 9.08136 37.997 9.70814C37.3702 10.3349 36.3527 10.3349 35.7259 9.70814C35.0992 9.08136 35.0992 8.06384 35.7259 7.43706Z" fill="#344054"/>
</g>
<defs>
<clipPath id="clip0_1961_48397">
<rect width="38.4" height="35.4843" fill="white" transform="translate(3.67871 4.70782)"/>
</clipPath>
</defs>
</svg>
