<svg width="26" height="26" viewBox="0 0 26 26" fill="none" xmlns="http://www.w3.org/2000/svg">
<path d="M8.5 18.4212H17M11.7063 3.29544L4.5001 8.90026C4.0184 9.27492 3.77755 9.46225 3.60403 9.69685C3.45033 9.90466 3.33583 10.1388 3.26615 10.3877C3.1875 10.6687 3.1875 10.9738 3.1875 11.5841V19.2712C3.1875 20.4613 3.1875 21.0563 3.41911 21.5109C3.62284 21.9107 3.94793 22.2358 4.34777 22.4396C4.80233 22.6712 5.39739 22.6712 6.5875 22.6712H18.9125C20.1026 22.6712 20.6977 22.6712 21.1522 22.4396C21.5521 22.2358 21.8772 21.9107 22.0809 21.5109C22.3125 21.0563 22.3125 20.4613 22.3125 19.2712V11.5841C22.3125 10.9738 22.3125 10.6687 22.2338 10.3877C22.1642 10.1388 22.0497 9.90466 21.896 9.69685C21.7225 9.46225 21.4816 9.27492 20.9999 8.90026L13.7937 3.29544C13.4204 3.00511 13.2338 2.85994 13.0277 2.80414C12.8458 2.7549 12.6542 2.7549 12.4723 2.80414C12.2662 2.85994 12.0796 3.00511 11.7063 3.29544Z" stroke="#475467" stroke-width="2" stroke-linecap="round" stroke-linejoin="round"/>
</svg>
