<svg width="240" height="43" viewBox="0 0 240 43" fill="none" xmlns="http://www.w3.org/2000/svg">
<path d="M66.5569 14.6533V33.7074H63.5102V20.1242L57.8681 29.7063H57.4989L51.8551 20.0958V33.7074H48.8083V14.6533H52.0931L57.6861 24.1786L63.2949 14.6533H66.5552H66.5569Z" fill="#0F0F0F"/>
<path d="M78.345 19.0508H81.3473L76.3359 33.0862C75.0822 36.6035 72.9593 38.2726 69.9673 38.0916V35.3441C70.8554 35.3991 71.5677 35.204 72.1074 34.7588C72.6472 34.3136 73.0904 33.6201 73.4388 32.6782L73.5698 32.4069L68.0359 19.0526H71.1158L75.008 28.9251L78.3467 19.0526L78.345 19.0508Z" fill="#0F0F0F"/>
<path d="M100.809 7.3252H105.012V33.2268H100.809V30.5632C99.2254 32.6596 96.9567 33.7078 93.9973 33.7078C91.3245 33.7078 89.0411 32.7648 87.1471 30.877C85.2532 28.9892 84.3053 26.6894 84.3053 23.9758C84.3053 21.2621 85.2514 18.9313 87.1471 17.0555C89.0411 15.1815 91.3245 14.2437 93.9973 14.2437C96.9549 14.2437 99.2254 15.2798 100.809 17.3521V7.3252ZM90.2627 28.2134C91.431 29.3357 92.8951 29.8977 94.6605 29.8977C96.4258 29.8977 97.8899 29.3374 99.0582 28.2134C100.227 27.091 100.809 25.6791 100.809 23.9758C100.809 22.2724 100.225 20.8622 99.0582 19.7381C97.8899 18.6158 96.424 18.0538 94.6605 18.0538C92.8969 18.0538 91.431 18.6158 90.2627 19.7381C89.0944 20.8605 88.512 22.2724 88.512 23.9758C88.512 25.6791 89.0962 27.091 90.2627 28.2134Z" fill="#0F0F0F"/>
<path d="M112.19 25.8461C112.49 27.2233 113.174 28.2798 114.243 29.0156C115.313 29.7532 116.62 30.1211 118.164 30.1211C120.305 30.1211 121.909 29.3734 122.98 27.8748L126.304 29.7582C124.462 32.391 121.736 33.7074 118.127 33.7074C115.091 33.7074 112.64 32.8079 110.772 31.0088C108.905 29.2097 107.971 26.933 107.971 24.1804C107.971 21.4277 108.891 19.2118 110.735 17.3891C112.576 15.5664 114.941 14.6533 117.828 14.6533C120.564 14.6533 122.811 15.5832 124.566 17.4431C126.321 19.3029 127.199 21.5611 127.199 24.2175C127.199 24.6276 127.148 25.1711 127.049 25.8478H112.19V25.8461ZM112.151 22.6581H123.128C122.853 21.1847 122.226 20.0742 121.243 19.3249C120.259 18.5772 119.109 18.2026 117.789 18.2026C116.296 18.2026 115.05 18.6008 114.055 19.3974C113.059 20.194 112.425 21.2809 112.151 22.6581Z" fill="#0F0F0F"/>
<path d="M144.948 33.7074H140.511L136.092 27.2093L131.671 33.7074H127.199L133.855 23.9194L127.554 14.6533H131.991L136.073 20.6561L140.155 14.6533H144.628L138.309 23.9442L144.948 33.7057V33.7074Z" fill="#0F0F0F"/>
<path d="M158.259 18.2263H153.731V27.5067C153.731 28.3066 153.901 28.8795 154.243 29.2273C154.584 29.575 155.089 29.7678 155.758 29.8074C156.427 29.8452 157.261 29.8398 158.259 29.7876V33.5386C155.241 33.926 153.074 33.6485 151.759 32.7081C150.443 31.7676 149.786 30.0344 149.786 27.5067V18.2263H146.427V14.205H149.786V10.0288L153.731 8.79102V14.205H158.259V18.2263Z" fill="#0F0F0F"/>
<path d="M163.957 25.8461C164.256 27.2233 164.94 28.2798 166.01 29.0156C167.079 29.7532 168.387 30.1211 169.931 30.1211C172.072 30.1211 173.675 29.3734 174.747 27.8748L178.07 29.7582C176.229 32.391 173.503 33.7074 169.894 33.7074C166.857 33.7074 164.406 32.8079 162.538 31.0088C160.672 29.2097 159.738 26.933 159.738 24.1804C159.738 21.4277 160.658 19.2118 162.501 17.3891C164.343 15.5664 166.708 14.6533 169.594 14.6533C172.331 14.6533 174.578 15.5832 176.333 17.4431C178.088 19.3029 178.966 21.5611 178.966 24.2175C178.966 24.6276 178.914 25.1711 178.816 25.8478H163.957V25.8461ZM163.918 22.6581H174.895C174.62 21.1847 173.993 20.0742 173.009 19.3249C172.026 18.5772 170.875 18.2026 169.555 18.2026C168.063 18.2026 166.817 18.6008 165.821 19.3974C164.825 20.194 164.191 21.2809 163.918 22.6581Z" fill="#0F0F0F"/>
<path d="M186.191 18.1345C187.271 15.8131 189.299 14.6533 192.277 14.6533V19.0327C190.643 18.9333 189.22 19.3013 188.01 20.1367C186.797 20.9739 186.191 22.3517 186.191 24.2737V33.7074H181.924V14.9899H186.191V18.1345Z" fill="#0F0F0F"/>
<g filter="url(#filter0_d_2195_37608)">
<path d="M32.3084 3.94824H11.0768C7.15734 3.94824 3.97998 7.09693 3.97998 10.981V32.0211C3.97998 35.9052 7.15734 39.0539 11.0768 39.0539H32.3084C36.2279 39.0539 39.4052 35.9052 39.4052 32.0211V10.981C39.4052 7.09693 36.2279 3.94824 32.3084 3.94824Z" fill="url(#paint0_linear_2195_37608)"/>
<path d="M11.0768 4.28211H32.3084C36.0464 4.28211 39.0714 7.28417 39.0714 10.981V32.0211C39.0714 35.7179 36.0464 38.72 32.3084 38.72H11.0768C7.33887 38.72 4.31385 35.7179 4.31385 32.0211V10.981C4.31385 7.28417 7.33887 4.28211 11.0768 4.28211Z" stroke="#999AFF" stroke-width="0.66773" stroke-miterlimit="10"/>
</g>
<path d="M30.9154 10.6416H29.1274C29.1274 10.6416 28.4578 13.9557 24.8671 13.9557H21.4916C16.5323 13.9557 12.4614 18.203 12.4614 22.9226L12.4725 23.227C12.4725 28.2819 16.7824 32.2376 21.4254 32.2376H21.6203C27.3412 32.2376 30.9264 27.6931 30.9264 23.4676L30.9172 10.6416H30.9154ZM26.0793 23.103C26.0793 25.5074 24.111 27.458 21.6847 27.458C19.2584 27.458 17.2901 25.5074 17.2901 23.103C17.2901 20.6986 19.2584 18.7481 21.6847 18.7481H26.0793V23.103Z" fill="url(#paint1_linear_2195_37608)"/>
<path d="M30.9144 10.6416C30.4913 10.6416 29.4501 10.6416 29.1264 10.6416C29.1264 10.6416 28.4568 13.9557 24.8661 13.9557C28.008 13.9557 30.6182 12.7325 30.9162 10.6416H30.9144Z" fill="#FAA858"/>
<rect x="199.671" y="13.6953" width="40.3285" height="20.3936" rx="10.1968" fill="#6D68FB"/>
<path d="M227.225 28.9213C226.453 28.9213 225.774 28.7697 225.186 28.4666C224.607 28.1542 224.152 27.7225 223.822 27.1713C223.5 26.6109 223.339 25.9679 223.339 25.2422C223.339 24.5164 223.5 23.8826 223.822 23.3406C224.152 22.7986 224.607 22.376 225.186 22.0729C225.774 21.7697 226.453 21.6182 227.225 21.6182C228.006 21.6182 228.686 21.7697 229.264 22.0729C229.852 22.376 230.307 22.7986 230.629 23.3406C230.95 23.8826 231.111 24.5164 231.111 25.2422C231.111 25.9679 230.946 26.6109 230.615 27.1713C230.293 27.7225 229.839 28.1542 229.251 28.4666C228.672 28.7697 227.997 28.9213 227.225 28.9213ZM227.225 27.2953C227.547 27.2953 227.836 27.2126 228.093 27.0473C228.36 26.8819 228.571 26.6477 228.727 26.3445C228.883 26.0322 228.961 25.6601 228.961 25.2284C228.961 24.5945 228.791 24.1077 228.451 23.7678C228.121 23.4187 227.712 23.2441 227.225 23.2441C226.738 23.2441 226.325 23.4187 225.985 23.7678C225.654 24.1168 225.489 24.6037 225.489 25.2284C225.489 25.6601 225.567 26.0322 225.723 26.3445C225.879 26.6477 226.086 26.8819 226.343 27.0473C226.61 27.2126 226.904 27.2953 227.225 27.2953Z" fill="white"/>
<path d="M218.231 28.7835V21.756H220.257V23.4095H220.298V28.7835H218.231ZM220.298 25.1182L220.119 23.4508C220.284 22.8537 220.555 22.399 220.932 22.0867C221.309 21.7743 221.777 21.6182 222.338 21.6182C222.512 21.6182 222.641 21.6365 222.723 21.6733V23.6024C222.678 23.584 222.613 23.5749 222.531 23.5749C222.448 23.5657 222.347 23.5611 222.227 23.5611C221.566 23.5611 221.079 23.6805 220.767 23.9193C220.454 24.149 220.298 24.5486 220.298 25.1182Z" fill="white"/>
<path d="M208.56 28.7835V18.8623H213.273C214.008 18.8623 214.637 18.9909 215.161 19.2481C215.693 19.5053 216.102 19.8636 216.387 20.3229C216.681 20.7822 216.828 21.3196 216.828 21.9351C216.828 22.5506 216.681 23.0926 216.387 23.5611C216.093 24.0296 215.68 24.3971 215.147 24.6635C214.623 24.9207 213.999 25.0493 213.273 25.0493H210.241V23.4233H213.163C213.65 23.4233 214.026 23.2901 214.293 23.0237C214.568 22.7481 214.706 22.3899 214.706 21.9489C214.706 21.508 214.568 21.1543 214.293 20.8879C214.026 20.6215 213.65 20.4883 213.163 20.4883H210.682V28.7835H208.56Z" fill="white"/>
<defs>
<filter id="filter0_d_2195_37608" x="2.44405" y="3.94824" width="38.4972" height="38.1773" filterUnits="userSpaceOnUse" color-interpolation-filters="sRGB">
<feFlood flood-opacity="0" result="BackgroundImageFix"/>
<feColorMatrix in="SourceAlpha" type="matrix" values="0 0 0 0 0 0 0 0 0 0 0 0 0 0 0 0 0 0 127 0" result="hardAlpha"/>
<feOffset dy="1.53593"/>
<feGaussianBlur stdDeviation="0.767967"/>
<feColorMatrix type="matrix" values="0 0 0 0 0 0 0 0 0 0 0 0 0 0 0 0 0 0 0.08 0"/>
<feBlend mode="normal" in2="BackgroundImageFix" result="effect1_dropShadow_2195_37608"/>
<feBlend mode="normal" in="SourceGraphic" in2="effect1_dropShadow_2195_37608" result="shape"/>
</filter>
<linearGradient id="paint0_linear_2195_37608" x1="21.6926" y1="9.17817" x2="21.6926" y2="43.2611" gradientUnits="userSpaceOnUse">
<stop offset="0.06" stop-color="#7176FF"/>
<stop offset="0.23" stop-color="#6D68FB"/>
<stop offset="0.54" stop-color="#6546F3"/>
<stop offset="0.95" stop-color="#570EE6"/>
<stop offset="0.97" stop-color="#570DE6"/>
</linearGradient>
<linearGradient id="paint1_linear_2195_37608" x1="21.6921" y1="17.2168" x2="21.6921" y2="34.2319" gradientUnits="userSpaceOnUse">
<stop stop-color="white"/>
<stop offset="1" stop-color="#E1E2E3"/>
</linearGradient>
</defs>
</svg>
