<svg width="36" height="36" viewBox="0 0 36 36" fill="none" xmlns="http://www.w3.org/2000/svg">
<rect width="36" height="36" rx="7.2" fill="#F0F1F2"/>
<g clip-path="url(#clip0_1905_58962)">
<path d="M26.4088 9.90654C26.3914 9.77988 26.2806 9.70991 26.1888 9.70199C26.0973 9.69439 24.1604 9.55064 24.1604 9.55064C24.1604 9.55064 22.8151 8.21509 22.6675 8.06723C22.5197 7.91936 22.2312 7.96432 22.1194 7.99725C22.103 8.002 21.8256 8.08781 21.3665 8.22966C20.9172 6.93654 20.124 5.74822 18.729 5.74822C18.6906 5.74822 18.6508 5.7498 18.6112 5.75202C18.2144 5.22736 17.7227 4.99939 17.2984 4.99939C14.0485 4.99939 12.4958 9.06208 12.0088 11.1268C10.7461 11.5182 9.84873 11.7962 9.73411 11.8323C9.02929 12.0533 9.00681 12.0758 8.91435 12.7397C8.84438 13.2435 7 27.5074 7 27.5074L21.3722 30.2004L29.1597 28.5156C29.1597 28.5156 26.4259 10.0335 26.4088 9.90654ZM20.5721 8.476C20.2111 8.58777 19.8008 8.71474 19.3559 8.85247C19.3562 8.76698 19.3568 8.68244 19.3568 8.5903C19.3568 7.78669 19.2454 7.1395 19.0665 6.62656C19.7852 6.7168 20.264 7.53465 20.5724 8.476H20.5721ZM18.1745 6.78582C18.3743 7.28673 18.5045 8.00517 18.5045 8.97532C18.5045 9.02503 18.5042 9.07031 18.5035 9.11622C17.7126 9.3613 16.8532 9.62727 15.9917 9.89387C16.4752 8.02733 17.3817 7.12588 18.1745 6.78582ZM17.2088 5.87171C17.3491 5.87171 17.4903 5.9192 17.6255 6.01229C16.5841 6.50244 15.4673 7.73698 14.9959 10.202C14.3069 10.4154 13.6331 10.6237 13.0106 10.8168C13.5628 8.9367 14.8743 5.87171 17.2085 5.87171H17.2088Z" fill="#95BF46"/>
<path d="M26.1877 9.702C26.0962 9.6944 24.1594 9.55065 24.1594 9.55065C24.1594 9.55065 22.814 8.2151 22.6665 8.06723C22.611 8.01214 22.5366 7.98396 22.4587 7.97192L21.3721 30.1997L29.1587 28.5153C29.1587 28.5153 26.4249 10.0332 26.4078 9.90622C26.3904 9.77957 26.2795 9.70959 26.1877 9.70168" fill="#5E8E3E"/>
<path d="M18.7277 14.0049L17.7677 16.8613C17.7677 16.8613 16.9264 16.4123 15.8951 16.4123C14.3832 16.4123 14.3072 17.3612 14.3072 17.6003C14.3072 18.9048 17.7079 19.4048 17.7079 22.4603C17.7079 24.8641 16.183 26.4124 14.1271 26.4124C11.6599 26.4124 10.3984 24.8768 10.3984 24.8768L11.0589 22.6942C11.0589 22.6942 12.3558 23.8075 13.4501 23.8075C14.1651 23.8075 14.4561 23.2445 14.4561 22.8332C14.4561 21.1317 11.6662 21.0557 11.6662 18.2595C11.6662 15.906 13.3555 13.6288 16.7649 13.6288C18.0786 13.6288 18.7277 14.0053 18.7277 14.0053" fill="white"/>
</g>
<defs>
<clipPath id="clip0_1905_58962">
<rect width="22.1597" height="25.2" fill="white" transform="translate(7 5)"/>
</clipPath>
</defs>
</svg>
