<svg width="27" height="27" viewBox="0 0 27 27" fill="none" xmlns="http://www.w3.org/2000/svg">
<path d="M17.9737 12.4846L19.2589 13.7752L24.5837 8.42783L19.2589 3.08044L17.9737 4.37106L21.0033 7.50578H16.413C12.8327 7.50578 9.98635 10.2719 9.98635 13.9597H11.8227C11.8227 11.194 13.8423 9.34988 16.413 9.34988H21.187L17.9737 12.4846Z" fill="#475467"/>
<path d="M8.42548 9.99502L9.71064 8.7044L7.59919 6.58399L9.71064 4.46314L8.42548 3.17252L6.31403 5.29294L4.20215 3.17252L2.91699 4.46314L5.02844 6.58399L2.91699 8.7044L4.20215 9.99502L6.31403 7.8746L8.42548 9.99502Z" fill="#475467"/>
<path d="M23.1148 17.9242L21.0033 20.045L18.8919 17.9242L17.6063 19.2152L19.7182 21.3356L17.6063 23.4561L18.8919 24.7471L21.0033 22.6263L23.1148 24.7471L24.4004 23.4561L22.2885 21.3356L24.4004 19.2152L23.1148 17.9242Z" fill="#475467"/>
<path d="M10.9043 14.8816C8.33351 14.8816 6.31392 16.9098 6.31392 19.4914C6.31392 22.0731 8.33394 24.1012 10.9043 24.1012C13.4746 24.1012 15.4946 22.0727 15.4946 19.4914C15.4946 16.9102 13.475 14.8816 10.9043 14.8816ZM10.9043 22.2576C9.34352 22.2576 8.14979 21.0592 8.14979 19.4914C8.14979 17.9236 9.34352 16.7253 10.9043 16.7253C12.465 16.7253 13.6583 17.9236 13.6583 19.4914C13.6583 21.0592 12.465 22.2576 10.9043 22.2576Z" fill="#475467"/>
</svg>
