<svg width="33" height="50" viewBox="0 0 33 50" fill="none" xmlns="http://www.w3.org/2000/svg">
<path d="M29.1975 26.6345C28.6925 26.6345 28.2214 26.7591 27.7942 26.9631C27.496 25.4763 26.1834 24.3585 24.6087 24.3549C23.9464 24.3549 23.3323 24.5561 22.8173 24.8961C22.2548 23.9306 21.2178 23.274 20.0178 23.274C19.5411 23.274 19.0892 23.3767 18.6812 23.5609V15.7476C18.6812 13.9498 17.2255 12.4934 15.4305 12.4934C13.6327 12.4948 12.1798 13.9491 12.1798 15.7476V33.2874L10.1312 29.9999C9.4356 28.9692 8.2838 28.3048 6.98325 28.3048C4.89783 28.3048 3.20767 29.9928 3.20767 32.0818C3.23317 33.1741 3.7942 33.9929 4.02158 34.4024C5.19392 36.3674 12.9222 48.4768 12.9257 48.4853L12.9505 48.5215L12.9788 48.5597C13.6674 49.4409 14.7469 50.0055 15.9525 50.0055L24.7915 50.0069C26.3492 50.0069 27.6264 49.1682 28.5749 48.0957C31.4083 44.8698 32.3922 39.1116 32.4312 39.0443L32.4503 38.9529V29.8858C32.4454 28.088 30.9946 26.633 29.1982 26.633L29.1975 26.6345ZM30.5342 38.7779C30.4428 39.2348 29.976 41.4229 29.058 43.5877C28.5501 44.8011 27.8955 45.9933 27.1518 46.8214C26.3924 47.6601 25.6302 48.0922 24.7908 48.0922H15.9518C15.3667 48.0922 14.8525 47.8244 14.5103 47.41C13.984 46.5848 6.7502 35.2368 5.66428 33.417C5.43052 33.065 5.09829 32.3821 5.12096 32.0825C5.12096 31.0546 5.9547 30.223 6.98254 30.223C7.62503 30.223 8.18605 30.5453 8.52465 31.0433L14.0931 39.9906V15.7476C14.0952 15.0074 14.6924 14.4109 15.4298 14.4095C16.1686 14.4116 16.765 15.0074 16.7665 15.7476L16.765 31.1602H18.6812V26.5282C18.6826 25.7915 19.2818 25.1901 20.0178 25.188C20.7567 25.1894 21.3559 25.7908 21.3581 26.5282V27.607V31.8728H23.2735L23.2721 27.607C23.2735 26.8668 23.8713 26.2711 24.608 26.2689C25.3483 26.2704 25.944 26.8668 25.944 27.607V32.5861H27.8594L27.858 29.878C27.8651 29.1428 28.4587 28.5499 29.1968 28.547C29.937 28.5499 30.5335 29.1463 30.5335 29.8865V38.7772L30.5342 38.7779ZM22.648 0.842244L20.8827 0.0998792L17.0229 9.29302L18.7874 10.0333L22.648 0.842244ZM14.0393 9.22997L10.2672 0L8.4956 0.723947L12.2662 9.95533L14.0393 9.22997ZM10.1107 12.0209L0.91966 8.15893L0.177296 9.92558L9.36831 13.7855L10.1107 12.0209ZM9.30739 16.7691L0.078125 20.5411L0.803489 22.3127L10.0292 18.5428L9.30739 16.7698V16.7691ZM20.7751 18.7128L29.9668 22.5699L30.7085 20.8046L21.516 16.9462L20.7758 18.7128H20.7751ZM21.5769 13.9618L30.8076 10.1912L30.0823 8.41819L20.8537 12.1902L21.5762 13.9618H21.5769Z" fill="white"/>
</svg>
