<svg width="25" height="24" viewBox="0 0 25 24" fill="none" xmlns="http://www.w3.org/2000/svg">
<g clip-path="url(#clip0_1418_79904)">
<path d="M9.17474 8.26202L6.03274 15.758H3.98274L2.43674 9.77502C2.34274 9.40702 2.26174 9.27202 1.97574 9.11702C1.50974 8.86402 0.739744 8.62702 0.0627441 8.47902L0.108744 8.26202H3.40874C3.62439 8.26181 3.83301 8.33869 3.99695 8.47879C4.16089 8.61889 4.26935 8.81298 4.30274 9.02602L5.11974 13.364L7.13774 8.26202H9.17474ZM17.2077 13.311C17.2157 11.332 14.4717 11.223 14.4907 10.339C14.4967 10.07 14.7527 9.78402 15.3127 9.71102C15.969 9.64869 16.63 9.76478 17.2257 10.047L17.5657 8.45702C16.9858 8.23882 16.3714 8.12605 15.7517 8.12402C13.8347 8.12402 12.4857 9.14402 12.4737 10.603C12.4617 11.682 13.4367 12.283 14.1717 12.643C14.9277 13.01 15.1817 13.246 15.1777 13.574C15.1727 14.078 14.5757 14.299 14.0177 14.308C13.0427 14.323 12.4777 14.045 12.0257 13.835L11.6747 15.477C12.1277 15.685 12.9637 15.867 13.8307 15.875C15.8677 15.875 17.2007 14.869 17.2077 13.311ZM22.2687 15.758H24.0627L22.4977 8.26202H20.8417C20.6647 8.25997 20.4912 8.31137 20.3438 8.40949C20.1965 8.50761 20.0821 8.6479 20.0157 8.81202L17.1067 15.758H19.1427L19.5477 14.638H22.0357L22.2687 15.758ZM20.1057 13.102L21.1257 10.287L21.7137 13.102H20.1057ZM11.9457 8.26202L10.3427 15.758H8.40274L10.0077 8.26202H11.9457Z" fill="black"/>
</g>
<defs>
<clipPath id="clip0_1418_79904">
<rect width="24" height="24" fill="white" transform="translate(0.0627441)"/>
</clipPath>
</defs>
</svg>
