<svg width="36" height="36" viewBox="0 0 36 36" fill="none" xmlns="http://www.w3.org/2000/svg">
<rect width="36" height="36" rx="7.2" fill="#344054"/>
<path d="M7.29678 19.5917C7.38791 19.2403 7.48317 18.8915 7.57431 18.5389C7.92948 17.185 8.28052 15.8262 8.64319 14.4708C8.77446 13.9183 8.96686 13.4319 9.21702 12.983L9.20201 13.013C9.47092 12.549 9.93073 12.2228 10.4723 12.1391L10.4824 12.138C10.6088 12.1091 10.7551 12.093 10.9051 12.093C11.489 12.093 12.0141 12.3405 12.3828 12.7369L12.3839 12.7381C12.5538 12.9331 12.6877 13.1645 12.7713 13.418L12.7751 13.4319C13.0065 14.047 13.2465 14.8383 13.4438 15.6473L13.4749 15.8022C13.8008 17.0372 14.1283 18.2734 14.4575 19.5103C14.465 19.5392 14.4575 19.5729 14.4988 19.5977C14.5689 19.3201 14.6439 19.0452 14.7137 18.7715C15.1386 17.1152 15.5628 15.4609 15.9862 13.8085C16.0639 13.4983 16.1438 13.1896 16.2251 12.8795C16.2863 12.6481 16.38 12.447 16.5027 12.2655L16.4978 12.273C16.6842 11.9966 16.973 11.8031 17.309 11.7453L17.3165 11.7442C17.7077 11.6628 18.1593 11.6156 18.6217 11.6141L18.6228 11.6141C18.714 11.6141 18.7305 11.6354 18.7102 11.7217C18.3217 13.2043 17.935 14.6872 17.5502 16.1697C16.9801 18.3626 16.4089 20.554 15.8362 22.7443C15.7788 22.9592 15.7248 23.1783 15.6674 23.392C15.6551 23.4333 15.6498 23.4697 15.5936 23.4745C15.5062 23.4832 15.4049 23.4884 15.301 23.4884C14.9721 23.4884 14.6548 23.4397 14.3559 23.3496L14.3784 23.356C14.2258 23.3024 14.0971 23.2184 13.991 23.1122C13.841 22.9724 13.7022 22.8261 13.5721 22.6734L13.5657 22.6659C13.4243 22.4548 13.3005 22.2121 13.2068 21.9545L13.1993 21.9308C12.8681 21.132 12.5681 20.1768 12.3505 19.1904L12.3292 19.073C11.9777 17.6729 11.6192 16.2725 11.264 14.8725C11.2415 14.7851 11.2051 14.7074 11.1553 14.6399L11.1564 14.6411C11.1027 14.5447 11 14.4798 10.8837 14.4798L10.8773 14.4798C10.736 14.4937 10.6212 14.5886 10.5784 14.7161L10.5773 14.7187C10.4573 15.0986 10.371 15.4864 10.2671 15.8712C9.84972 17.4813 9.44467 19.0966 9.01562 20.7029C8.8881 21.1819 8.67695 21.6319 8.51568 22.103C8.34315 22.5542 8.05437 22.9281 7.6842 23.1981L7.67782 23.203C7.50905 23.3331 7.30278 23.4205 7.07662 23.4468L7.07025 23.4468C6.87785 23.473 6.65394 23.4869 6.42779 23.4869C6.36028 23.4869 6.2939 23.4858 6.22639 23.4832L6.23652 23.4832C6.16263 23.4832 6.13638 23.4543 6.11275 23.383C5.71258 21.8637 5.3094 20.3455 4.90247 18.8288C4.37666 16.8418 3.84747 14.8511 3.3149 12.857L3.01861 11.7296C3.01111 11.6921 2.97848 11.6384 3.05612 11.6309C3.18738 11.6122 3.33853 11.6021 3.4923 11.6021C3.99111 11.6021 4.4648 11.7134 4.8886 11.9122L4.86872 11.9036C5.16126 12.0562 5.38141 12.3161 5.47742 12.6301L5.48005 12.6387C5.69495 13.3389 5.85622 14.0462 6.03774 14.7528C6.45029 16.3471 6.86022 17.9415 7.2679 19.5358C7.27165 19.5572 7.27802 19.5771 7.28552 19.5958L7.2844 19.5947L7.29678 19.5921L7.29678 19.5917Z" fill="white"/>
<path d="M22.1798 23.5098C22.3035 23.3234 22.4149 23.1584 22.5274 22.9896C23.7276 21.201 24.9277 19.4143 26.1279 17.6291C26.1418 17.6114 26.1504 17.5889 26.1504 17.5653C26.1504 17.5364 26.1391 17.5117 26.1193 17.4929C25.1243 16.0145 24.1304 14.536 23.1376 13.0572L22.2375 11.7033C22.2251 11.6819 22.1963 11.6621 22.2049 11.6208L22.8162 11.6583C23.1961 11.6834 23.5689 11.7082 23.944 11.7284C24.2489 11.7659 24.5204 11.8897 24.7391 12.0735L24.7365 12.0709C24.9341 12.2209 25.1003 12.4009 25.2315 12.6034L25.2364 12.6121C25.8841 13.5947 26.5239 14.5822 27.1979 15.5449C27.4979 15.9698 27.6266 15.9286 27.9454 15.6151C28.1029 15.4287 28.248 15.2201 28.3729 14.9989L28.383 14.979C28.9407 14.149 29.4906 13.3111 30.0595 12.4887C30.3757 12.0461 30.8621 11.7434 31.4209 11.6759L31.4295 11.6748C31.7735 11.6362 32.1721 11.6148 32.5746 11.6148C32.7047 11.6148 32.8345 11.6174 32.9635 11.6212L32.9447 11.6212C33.0449 11.6212 32.9822 11.6748 32.9624 11.7037C32.6848 12.1162 32.4099 12.5299 32.1286 12.9425C31.1119 14.461 30.0959 15.9751 29.0806 17.4843C29.063 17.5057 29.0517 17.5342 29.0517 17.5642C29.0517 17.5991 29.0656 17.6306 29.0881 17.6531C30.3768 19.5692 31.6639 21.4853 32.95 23.4014C32.9676 23.4303 33.0074 23.4588 32.995 23.4888C32.9826 23.5188 32.9249 23.5064 32.8949 23.5064C32.7835 23.5102 32.6537 23.5128 32.5224 23.5128C32.156 23.5128 31.7937 23.4952 31.4359 23.4629L31.4821 23.4667C30.9521 23.4003 30.4893 23.1542 30.1495 22.7905L30.1484 22.7893C29.9822 22.5894 29.827 22.3666 29.6935 22.1304L29.6811 22.1079C29.1399 21.2989 28.6036 20.4888 28.062 19.6749C27.9769 19.5425 27.8696 19.4323 27.7443 19.3475L27.7406 19.3449C27.6993 19.3074 27.6442 19.2849 27.5831 19.2849C27.5219 19.2849 27.4668 19.3074 27.4255 19.346C27.3344 19.4098 27.2579 19.4885 27.1968 19.5785L27.1941 19.5823C26.5127 20.5563 25.8815 21.5652 25.2203 22.5553C24.9064 23.0177 24.4214 23.344 23.8577 23.4415L23.8453 23.4427C23.5779 23.4888 23.2689 23.5139 22.9539 23.5139C22.865 23.5139 22.7765 23.5113 22.6887 23.5075L22.7011 23.5075L22.1798 23.5102L22.1798 23.5098Z" fill="white"/>
<path d="M21.2995 13.5324L21.2995 13.6937C21.2995 16.4357 21.3021 19.1776 21.307 21.9196C21.307 21.9346 21.3081 21.9507 21.3081 21.9683C21.3081 22.5309 20.998 23.0222 20.5393 23.2784L20.5318 23.2821C20.3716 23.3845 20.1804 23.4547 19.9756 23.476L19.9692 23.476C19.7791 23.4974 19.5604 23.5087 19.338 23.5087L19.2994 23.5087L19.302 23.5087C19.2113 23.5087 19.1659 23.4645 19.1659 23.3763C19.1659 21.8937 19.1659 20.4108 19.1584 18.9282C19.1584 17.6804 19.146 16.4379 19.1584 15.1901C19.1696 14.9538 19.302 14.7524 19.4948 14.6426L19.4985 14.6414C19.6812 14.5214 19.8822 14.4415 20.0724 14.335C20.4523 14.1512 20.7763 13.9588 21.0812 13.7424L21.0599 13.7574C21.13 13.6911 21.2035 13.6176 21.3025 13.5298L21.2999 13.5324L21.2995 13.5324Z" fill="white"/>
<path d="M19.1408 14.0624L19.1408 14.0125C19.1408 13.6599 19.1858 13.3186 19.2709 12.9935L19.2645 13.0209C19.377 12.6132 19.6096 12.2708 19.922 12.0232L19.9257 12.0206C20.2145 11.8192 20.5633 11.6831 20.9395 11.6418L20.9496 11.6407C21.061 11.6193 21.172 11.6118 21.2834 11.5957C21.3745 11.578 21.3997 11.6283 21.4034 11.7071C21.4034 11.7247 21.4045 11.7472 21.4045 11.7682C21.4045 11.9171 21.3907 12.0634 21.3644 12.2059L21.367 12.1909C21.2845 12.6946 21.0546 13.1349 20.722 13.4762C20.5318 13.6551 20.303 13.795 20.0495 13.8812L20.0371 13.885C19.7472 13.9911 19.4959 14.1261 19.2683 14.2911L19.2769 14.2848C19.2443 14.3099 19.2068 14.3586 19.1606 14.3346C19.1145 14.3106 19.1393 14.2521 19.1355 14.2109C19.1318 14.1696 19.1393 14.1085 19.1393 14.0635L19.1404 14.0624L19.1408 14.0624Z" fill="white"/>
</svg>
