<svg width="36" height="36" viewBox="0 0 36 36" fill="none" xmlns="http://www.w3.org/2000/svg">
<rect width="36" height="36" rx="7.2" fill="#05A8DA"/>
<path d="M18.1973 30.7969C25.2648 30.7969 30.9941 25.0675 30.9941 18C30.9941 10.9325 25.2648 5.20312 18.1973 5.20312C11.1297 5.20312 5.40039 10.9325 5.40039 18C5.40039 25.0675 11.1297 30.7969 18.1973 30.7969Z" stroke="white" stroke-width="1.44141"/>
<path d="M22.1484 29.8126L24.1172 28.7579L27.9141 17.7892C28.6172 16.0313 28.8281 14.6251 28.8281 13.4298C28.8281 11.1798 27.9141 9.21103 26.2969 9.00009C24.8203 8.85946 23.9766 10.336 24.0469 11.1798C24.1875 13.2188 26.2266 14.3438 26.2266 17.1563C26.2266 19.1251 24.9609 22.2892 24.0469 25.3829L19.6875 12.2345L21.0938 12.1641C21.7969 12.1641 21.7266 11.1095 21.0234 11.1798C18.8438 11.3907 16.8047 11.3204 14.5547 11.1798C13.8516 11.1095 13.8516 12.1641 14.4844 12.1641L15.75 12.2345L17.6484 17.4376L14.9766 25.4532L10.5469 12.2345L11.9531 12.1641C12.5859 12.1641 12.5156 11.1095 11.8828 11.1798C9.84375 11.3204 7.875 11.461 7.38281 11.1095L6.82031 12.797L12.7266 29.1798L14.4844 30.1642L18.2812 19.0548" fill="white"/>
</svg>
